G04 #@! TF.GenerationSoftware,KiCad,Pcbnew,(5.0.2)-1*
G04 #@! TF.CreationDate,2019-03-22T14:40:18+01:00*
G04 #@! TF.ProjectId,NixieClock01A,4e697869-6543-46c6-9f63-6b3031412e6b,rev?*
G04 #@! TF.SameCoordinates,Original*
G04 #@! TF.FileFunction,Legend,Bot*
G04 #@! TF.FilePolarity,Positive*
%FSLAX46Y46*%
G04 Gerber Fmt 4.6, Leading zero omitted, Abs format (unit mm)*
G04 Created by KiCad (PCBNEW (5.0.2)-1) date 03/22/19 14:40:18*
%MOMM*%
%LPD*%
G01*
G04 APERTURE LIST*
%ADD10C,0.120000*%
%ADD11C,0.150000*%
%ADD12C,0.010000*%
G04 APERTURE END LIST*
D10*
G04 #@! TO.C,LA1*
X121170000Y-121750000D02*
X124770000Y-121750000D01*
X121131522Y-121761522D02*
G75*
G03X122970000Y-126200000I1838478J-1838478D01*
G01*
X124808478Y-121761522D02*
G75*
G02X122970000Y-126200000I-1838478J-1838478D01*
G01*
G04 #@! TO.C,LA2*
X175170000Y-121750000D02*
X178770000Y-121750000D01*
X175131522Y-121761522D02*
G75*
G03X176970000Y-126200000I1838478J-1838478D01*
G01*
X178808478Y-121761522D02*
G75*
G02X176970000Y-126200000I-1838478J-1838478D01*
G01*
D11*
G04 #@! TO.C,N3*
X171500000Y-124000000D02*
G75*
G03X171500000Y-124000000I-9500000J0D01*
G01*
G04 #@! TO.C,N1*
X201510734Y-124001499D02*
G75*
G03X201510734Y-124001499I-9500000J0D01*
G01*
G04 #@! TO.C,N2*
X225510334Y-124000899D02*
G75*
G03X225510334Y-124000899I-9500000J0D01*
G01*
G04 #@! TO.C,N4*
X147500000Y-124000000D02*
G75*
G03X147500000Y-124000000I-9500000J0D01*
G01*
G04 #@! TO.C,N5*
X117502000Y-123994000D02*
G75*
G03X117502000Y-123994000I-9500000J0D01*
G01*
G04 #@! TO.C,N6*
X93506000Y-124006001D02*
G75*
G03X93506000Y-124006001I-9500000J0D01*
G01*
D12*
G04 #@! TO.C,G\002A\002A\002A*
G36*
X69135302Y-154770392D02*
X69224438Y-154757512D01*
X69311520Y-154735445D01*
X69386884Y-154706309D01*
X69410461Y-154693812D01*
X69449286Y-154666081D01*
X69497131Y-154624772D01*
X69547299Y-154576259D01*
X69593093Y-154526916D01*
X69618805Y-154495500D01*
X69627640Y-154481593D01*
X69648976Y-154446806D01*
X69682267Y-154392052D01*
X69726965Y-154318244D01*
X69782522Y-154226294D01*
X69848391Y-154117114D01*
X69924025Y-153991617D01*
X70008876Y-153850715D01*
X70102396Y-153695321D01*
X70204039Y-153526347D01*
X70313257Y-153344706D01*
X70429502Y-153151310D01*
X70552227Y-152947070D01*
X70680884Y-152732901D01*
X70814927Y-152509714D01*
X70953808Y-152278421D01*
X71096978Y-152039936D01*
X71243891Y-151795170D01*
X71394000Y-151545036D01*
X71546757Y-151290446D01*
X71701614Y-151032313D01*
X71858024Y-150771549D01*
X72015440Y-150509067D01*
X72173314Y-150245778D01*
X72331099Y-149982596D01*
X72488247Y-149720433D01*
X72644211Y-149460202D01*
X72798443Y-149202814D01*
X72950396Y-148949182D01*
X73099523Y-148700218D01*
X73245276Y-148456836D01*
X73387108Y-148219947D01*
X73524471Y-147990464D01*
X73656818Y-147769299D01*
X73783601Y-147557364D01*
X73904273Y-147355573D01*
X74018287Y-147164837D01*
X74125095Y-146986070D01*
X74224149Y-146820182D01*
X74282086Y-146723100D01*
X74360996Y-146590844D01*
X74442439Y-146454349D01*
X74524349Y-146317075D01*
X74604662Y-146182483D01*
X74681313Y-146054032D01*
X74752238Y-145935183D01*
X74815371Y-145829395D01*
X74868648Y-145740130D01*
X74892153Y-145700750D01*
X75017217Y-145490922D01*
X75129202Y-145302375D01*
X75228321Y-145134744D01*
X75314785Y-144987666D01*
X75388806Y-144860775D01*
X75450596Y-144753708D01*
X75500367Y-144666099D01*
X75538332Y-144597585D01*
X75564701Y-144547802D01*
X75575404Y-144526000D01*
X75597588Y-144475104D01*
X75611655Y-144431739D01*
X75619936Y-144385827D01*
X75624762Y-144327290D01*
X75625764Y-144308235D01*
X75627677Y-144241088D01*
X75625098Y-144188966D01*
X75617021Y-144141734D01*
X75604834Y-144097044D01*
X75565127Y-144001701D01*
X75508690Y-143916482D01*
X75439264Y-143845356D01*
X75360593Y-143792294D01*
X75291950Y-143765086D01*
X75279127Y-143763903D01*
X75249216Y-143762759D01*
X75201865Y-143761652D01*
X75136727Y-143760582D01*
X75053452Y-143759546D01*
X74951691Y-143758545D01*
X74831093Y-143757577D01*
X74691311Y-143756641D01*
X74531994Y-143755735D01*
X74352793Y-143754859D01*
X74153359Y-143754010D01*
X73933343Y-143753189D01*
X73692395Y-143752394D01*
X73430166Y-143751623D01*
X73146307Y-143750876D01*
X72840468Y-143750151D01*
X72512300Y-143749448D01*
X72161454Y-143748764D01*
X71787581Y-143748100D01*
X71390330Y-143747453D01*
X70969353Y-143746823D01*
X70524301Y-143746208D01*
X70054824Y-143745607D01*
X69560573Y-143745019D01*
X69151500Y-143744563D01*
X63061850Y-143737944D01*
X62979561Y-143779335D01*
X62879080Y-143842557D01*
X62794063Y-143921658D01*
X62725965Y-144013354D01*
X62676241Y-144114357D01*
X62646345Y-144221382D01*
X62637734Y-144331141D01*
X62651861Y-144440350D01*
X62665837Y-144487900D01*
X62678498Y-144516500D01*
X62702768Y-144564100D01*
X63664840Y-144564100D01*
X69138670Y-144564100D01*
X69594335Y-144564112D01*
X70025234Y-144564147D01*
X70431999Y-144564207D01*
X70815265Y-144564295D01*
X71175664Y-144564412D01*
X71513831Y-144564561D01*
X71830398Y-144564742D01*
X72125998Y-144564959D01*
X72401266Y-144565213D01*
X72656835Y-144565506D01*
X72893338Y-144565840D01*
X73111409Y-144566216D01*
X73311680Y-144566637D01*
X73494786Y-144567105D01*
X73661360Y-144567621D01*
X73812035Y-144568188D01*
X73947444Y-144568806D01*
X74068222Y-144569479D01*
X74175001Y-144570209D01*
X74268415Y-144570996D01*
X74349097Y-144571843D01*
X74417680Y-144572752D01*
X74474799Y-144573725D01*
X74521087Y-144574764D01*
X74557176Y-144575870D01*
X74583700Y-144577045D01*
X74601294Y-144578292D01*
X74610589Y-144579613D01*
X74612500Y-144580610D01*
X74604370Y-144604805D01*
X74600888Y-144609185D01*
X74591887Y-144622500D01*
X74571367Y-144655099D01*
X74540860Y-144704479D01*
X74501900Y-144768134D01*
X74456021Y-144843560D01*
X74404753Y-144928251D01*
X74349632Y-145019702D01*
X74348671Y-145021300D01*
X74288391Y-145121454D01*
X74217923Y-145238416D01*
X74140234Y-145367266D01*
X74058292Y-145503086D01*
X73975065Y-145640956D01*
X73893522Y-145775957D01*
X73816631Y-145903170D01*
X73793118Y-145942050D01*
X73728483Y-146048946D01*
X73666660Y-146151256D01*
X73609143Y-146246507D01*
X73557422Y-146332224D01*
X73512991Y-146405933D01*
X73477342Y-146465160D01*
X73451967Y-146507429D01*
X73438910Y-146529332D01*
X73416983Y-146566300D01*
X73387171Y-146616189D01*
X73348825Y-146680076D01*
X73301295Y-146759036D01*
X73243932Y-146854148D01*
X73176086Y-146966488D01*
X73097106Y-147097133D01*
X73006345Y-147247161D01*
X72903151Y-147417648D01*
X72885380Y-147447000D01*
X72818204Y-147558004D01*
X72750096Y-147670642D01*
X72683257Y-147781268D01*
X72619890Y-147886234D01*
X72562195Y-147981894D01*
X72512374Y-148064599D01*
X72472629Y-148130702D01*
X72459941Y-148151850D01*
X72427519Y-148205845D01*
X72383810Y-148278481D01*
X72330679Y-148366669D01*
X72269990Y-148467319D01*
X72203607Y-148577340D01*
X72133393Y-148693645D01*
X72061211Y-148813141D01*
X71988927Y-148932741D01*
X71977313Y-148951950D01*
X71906020Y-149069883D01*
X71835196Y-149187080D01*
X71766599Y-149300630D01*
X71701985Y-149407623D01*
X71643112Y-149505150D01*
X71591736Y-149590300D01*
X71549614Y-149660164D01*
X71518503Y-149711832D01*
X71513412Y-149720300D01*
X71487080Y-149764067D01*
X71449116Y-149827104D01*
X71401013Y-149906932D01*
X71344264Y-150001077D01*
X71280362Y-150107062D01*
X71210800Y-150222409D01*
X71137072Y-150344643D01*
X71060671Y-150471287D01*
X70983090Y-150599864D01*
X70973564Y-150615650D01*
X70871209Y-150785268D01*
X70780649Y-150935343D01*
X70700553Y-151068080D01*
X70629594Y-151185681D01*
X70566441Y-151290352D01*
X70509764Y-151384296D01*
X70458235Y-151469718D01*
X70410523Y-151548821D01*
X70365300Y-151623809D01*
X70321236Y-151696886D01*
X70277002Y-151770257D01*
X70231267Y-151846125D01*
X70182703Y-151926695D01*
X70140545Y-151996639D01*
X70092022Y-152077128D01*
X70033046Y-152174924D01*
X69966295Y-152285592D01*
X69894445Y-152404693D01*
X69820172Y-152527792D01*
X69746153Y-152650451D01*
X69675064Y-152768234D01*
X69659692Y-152793700D01*
X69592771Y-152904591D01*
X69524979Y-153016977D01*
X69458502Y-153127231D01*
X69395526Y-153231726D01*
X69338236Y-153326834D01*
X69288819Y-153408928D01*
X69249461Y-153474380D01*
X69236851Y-153495376D01*
X69197187Y-153560838D01*
X69161781Y-153618107D01*
X69132739Y-153663874D01*
X69112164Y-153694827D01*
X69102162Y-153707658D01*
X69101754Y-153707823D01*
X69092973Y-153697307D01*
X69074798Y-153668992D01*
X69050007Y-153627374D01*
X69025302Y-153583998D01*
X69004974Y-153548146D01*
X68973408Y-153493151D01*
X68932215Y-153421779D01*
X68883005Y-153336797D01*
X68827389Y-153240972D01*
X68766977Y-153137072D01*
X68703380Y-153027864D01*
X68638208Y-152916114D01*
X68573072Y-152804589D01*
X68509582Y-152696056D01*
X68449350Y-152593283D01*
X68393985Y-152499037D01*
X68376805Y-152469850D01*
X68341205Y-152409346D01*
X68300354Y-152339826D01*
X68261833Y-152274196D01*
X68253685Y-152260300D01*
X68225989Y-152213240D01*
X68188865Y-152150424D01*
X68145900Y-152077909D01*
X68100683Y-152001752D01*
X68065611Y-151942800D01*
X68023369Y-151871772D01*
X67982640Y-151803111D01*
X67946371Y-151741802D01*
X67917513Y-151692829D01*
X67900302Y-151663400D01*
X67884466Y-151636244D01*
X67862937Y-151599580D01*
X67834772Y-151551817D01*
X67799028Y-151491362D01*
X67754762Y-151416622D01*
X67701030Y-151326006D01*
X67636890Y-151217920D01*
X67561399Y-151090773D01*
X67497955Y-150983950D01*
X67415340Y-150844862D01*
X67344230Y-150725136D01*
X67283153Y-150622296D01*
X67230641Y-150533867D01*
X67185224Y-150457373D01*
X67145432Y-150390340D01*
X67109796Y-150330291D01*
X67076847Y-150274752D01*
X67045114Y-150221247D01*
X67013128Y-150167301D01*
X67011646Y-150164800D01*
X66980660Y-150112595D01*
X66938048Y-150040893D01*
X66885191Y-149952014D01*
X66823472Y-149848280D01*
X66754272Y-149732010D01*
X66678972Y-149605524D01*
X66598955Y-149471143D01*
X66515602Y-149331187D01*
X66430295Y-149187975D01*
X66344415Y-149043828D01*
X66259344Y-148901066D01*
X66176465Y-148762009D01*
X66097158Y-148628978D01*
X66022805Y-148504292D01*
X66005751Y-148475700D01*
X65967868Y-148412188D01*
X65918637Y-148329649D01*
X65859720Y-148230869D01*
X65792780Y-148118636D01*
X65719478Y-147995738D01*
X65641478Y-147864961D01*
X65560442Y-147729092D01*
X65478032Y-147590920D01*
X65395910Y-147453231D01*
X65373257Y-147415250D01*
X65284753Y-147266897D01*
X65190232Y-147108528D01*
X65092116Y-146944197D01*
X64992827Y-146777956D01*
X64894785Y-146613859D01*
X64800414Y-146455959D01*
X64712133Y-146308309D01*
X64632365Y-146174962D01*
X64572771Y-146075400D01*
X64496282Y-145947597D01*
X64415223Y-145812045D01*
X64332193Y-145673095D01*
X64249791Y-145535103D01*
X64170615Y-145402420D01*
X64097264Y-145279399D01*
X64032336Y-145170394D01*
X63988975Y-145097500D01*
X63932678Y-145002949D01*
X63878726Y-144912644D01*
X63828916Y-144829569D01*
X63785045Y-144756710D01*
X63748911Y-144697051D01*
X63722309Y-144653578D01*
X63708014Y-144630775D01*
X63664840Y-144564100D01*
X62702768Y-144564100D01*
X62703028Y-144564609D01*
X62738177Y-144629989D01*
X62782692Y-144710400D01*
X62835324Y-144803602D01*
X62894820Y-144907357D01*
X62959931Y-145019424D01*
X63016988Y-145116550D01*
X63082635Y-145227783D01*
X63146223Y-145335573D01*
X63206209Y-145437302D01*
X63261051Y-145530352D01*
X63309205Y-145612106D01*
X63349131Y-145679946D01*
X63379285Y-145731254D01*
X63398125Y-145763413D01*
X63398614Y-145764250D01*
X63419630Y-145800119D01*
X63453456Y-145857626D01*
X63499964Y-145936553D01*
X63559023Y-146036679D01*
X63630506Y-146157787D01*
X63714282Y-146299658D01*
X63810222Y-146462073D01*
X63918198Y-146644813D01*
X64038080Y-146847660D01*
X64169738Y-147070393D01*
X64313044Y-147312796D01*
X64373620Y-147415250D01*
X64442634Y-147531907D01*
X64520730Y-147663801D01*
X64604002Y-147804342D01*
X64688543Y-147946939D01*
X64770447Y-148085003D01*
X64845807Y-148211944D01*
X64878010Y-148266150D01*
X64949195Y-148386008D01*
X65029009Y-148520509D01*
X65113492Y-148662973D01*
X65198685Y-148806719D01*
X65280626Y-148945066D01*
X65355355Y-149071332D01*
X65386148Y-149123400D01*
X65454716Y-149239333D01*
X65530292Y-149367047D01*
X65609255Y-149500426D01*
X65687979Y-149633349D01*
X65762842Y-149759700D01*
X65830221Y-149873358D01*
X65859963Y-149923500D01*
X65922158Y-150028383D01*
X65988795Y-150140844D01*
X66056545Y-150255257D01*
X66122079Y-150366000D01*
X66182068Y-150467447D01*
X66233182Y-150553976D01*
X66243348Y-150571200D01*
X66299059Y-150665525D01*
X66360971Y-150770196D01*
X66424544Y-150877543D01*
X66485233Y-150979899D01*
X66538497Y-151069592D01*
X66547986Y-151085550D01*
X66592771Y-151160924D01*
X66635772Y-151233442D01*
X66674372Y-151298677D01*
X66705953Y-151352205D01*
X66727898Y-151389602D01*
X66732030Y-151396700D01*
X66749099Y-151425899D01*
X66777013Y-151473379D01*
X66813666Y-151535572D01*
X66856954Y-151608910D01*
X66904772Y-151689824D01*
X66955013Y-151774745D01*
X66960522Y-151784050D01*
X67018605Y-151882224D01*
X67085562Y-151995509D01*
X67157389Y-152117123D01*
X67230082Y-152240285D01*
X67299637Y-152358213D01*
X67357941Y-152457150D01*
X67472760Y-152651925D01*
X67583323Y-152839154D01*
X67688703Y-153017279D01*
X67787975Y-153184744D01*
X67880211Y-153339991D01*
X67964485Y-153481465D01*
X68039871Y-153607608D01*
X68105442Y-153716863D01*
X68160271Y-153807673D01*
X68203433Y-153878481D01*
X68211907Y-153892250D01*
X68281872Y-154005432D01*
X68341517Y-154101408D01*
X68390189Y-154179137D01*
X68427233Y-154237574D01*
X68451995Y-154275677D01*
X68457443Y-154283731D01*
X68529137Y-154386299D01*
X68590251Y-154469869D01*
X68643360Y-154537174D01*
X68691035Y-154590944D01*
X68735851Y-154633911D01*
X68780381Y-154668807D01*
X68827200Y-154698363D01*
X68868869Y-154720415D01*
X68929876Y-154747648D01*
X68983529Y-154763366D01*
X69042859Y-154771202D01*
X69053777Y-154771969D01*
X69135302Y-154770392D01*
X69135302Y-154770392D01*
G37*
X69135302Y-154770392D02*
X69224438Y-154757512D01*
X69311520Y-154735445D01*
X69386884Y-154706309D01*
X69410461Y-154693812D01*
X69449286Y-154666081D01*
X69497131Y-154624772D01*
X69547299Y-154576259D01*
X69593093Y-154526916D01*
X69618805Y-154495500D01*
X69627640Y-154481593D01*
X69648976Y-154446806D01*
X69682267Y-154392052D01*
X69726965Y-154318244D01*
X69782522Y-154226294D01*
X69848391Y-154117114D01*
X69924025Y-153991617D01*
X70008876Y-153850715D01*
X70102396Y-153695321D01*
X70204039Y-153526347D01*
X70313257Y-153344706D01*
X70429502Y-153151310D01*
X70552227Y-152947070D01*
X70680884Y-152732901D01*
X70814927Y-152509714D01*
X70953808Y-152278421D01*
X71096978Y-152039936D01*
X71243891Y-151795170D01*
X71394000Y-151545036D01*
X71546757Y-151290446D01*
X71701614Y-151032313D01*
X71858024Y-150771549D01*
X72015440Y-150509067D01*
X72173314Y-150245778D01*
X72331099Y-149982596D01*
X72488247Y-149720433D01*
X72644211Y-149460202D01*
X72798443Y-149202814D01*
X72950396Y-148949182D01*
X73099523Y-148700218D01*
X73245276Y-148456836D01*
X73387108Y-148219947D01*
X73524471Y-147990464D01*
X73656818Y-147769299D01*
X73783601Y-147557364D01*
X73904273Y-147355573D01*
X74018287Y-147164837D01*
X74125095Y-146986070D01*
X74224149Y-146820182D01*
X74282086Y-146723100D01*
X74360996Y-146590844D01*
X74442439Y-146454349D01*
X74524349Y-146317075D01*
X74604662Y-146182483D01*
X74681313Y-146054032D01*
X74752238Y-145935183D01*
X74815371Y-145829395D01*
X74868648Y-145740130D01*
X74892153Y-145700750D01*
X75017217Y-145490922D01*
X75129202Y-145302375D01*
X75228321Y-145134744D01*
X75314785Y-144987666D01*
X75388806Y-144860775D01*
X75450596Y-144753708D01*
X75500367Y-144666099D01*
X75538332Y-144597585D01*
X75564701Y-144547802D01*
X75575404Y-144526000D01*
X75597588Y-144475104D01*
X75611655Y-144431739D01*
X75619936Y-144385827D01*
X75624762Y-144327290D01*
X75625764Y-144308235D01*
X75627677Y-144241088D01*
X75625098Y-144188966D01*
X75617021Y-144141734D01*
X75604834Y-144097044D01*
X75565127Y-144001701D01*
X75508690Y-143916482D01*
X75439264Y-143845356D01*
X75360593Y-143792294D01*
X75291950Y-143765086D01*
X75279127Y-143763903D01*
X75249216Y-143762759D01*
X75201865Y-143761652D01*
X75136727Y-143760582D01*
X75053452Y-143759546D01*
X74951691Y-143758545D01*
X74831093Y-143757577D01*
X74691311Y-143756641D01*
X74531994Y-143755735D01*
X74352793Y-143754859D01*
X74153359Y-143754010D01*
X73933343Y-143753189D01*
X73692395Y-143752394D01*
X73430166Y-143751623D01*
X73146307Y-143750876D01*
X72840468Y-143750151D01*
X72512300Y-143749448D01*
X72161454Y-143748764D01*
X71787581Y-143748100D01*
X71390330Y-143747453D01*
X70969353Y-143746823D01*
X70524301Y-143746208D01*
X70054824Y-143745607D01*
X69560573Y-143745019D01*
X69151500Y-143744563D01*
X63061850Y-143737944D01*
X62979561Y-143779335D01*
X62879080Y-143842557D01*
X62794063Y-143921658D01*
X62725965Y-144013354D01*
X62676241Y-144114357D01*
X62646345Y-144221382D01*
X62637734Y-144331141D01*
X62651861Y-144440350D01*
X62665837Y-144487900D01*
X62678498Y-144516500D01*
X62702768Y-144564100D01*
X63664840Y-144564100D01*
X69138670Y-144564100D01*
X69594335Y-144564112D01*
X70025234Y-144564147D01*
X70431999Y-144564207D01*
X70815265Y-144564295D01*
X71175664Y-144564412D01*
X71513831Y-144564561D01*
X71830398Y-144564742D01*
X72125998Y-144564959D01*
X72401266Y-144565213D01*
X72656835Y-144565506D01*
X72893338Y-144565840D01*
X73111409Y-144566216D01*
X73311680Y-144566637D01*
X73494786Y-144567105D01*
X73661360Y-144567621D01*
X73812035Y-144568188D01*
X73947444Y-144568806D01*
X74068222Y-144569479D01*
X74175001Y-144570209D01*
X74268415Y-144570996D01*
X74349097Y-144571843D01*
X74417680Y-144572752D01*
X74474799Y-144573725D01*
X74521087Y-144574764D01*
X74557176Y-144575870D01*
X74583700Y-144577045D01*
X74601294Y-144578292D01*
X74610589Y-144579613D01*
X74612500Y-144580610D01*
X74604370Y-144604805D01*
X74600888Y-144609185D01*
X74591887Y-144622500D01*
X74571367Y-144655099D01*
X74540860Y-144704479D01*
X74501900Y-144768134D01*
X74456021Y-144843560D01*
X74404753Y-144928251D01*
X74349632Y-145019702D01*
X74348671Y-145021300D01*
X74288391Y-145121454D01*
X74217923Y-145238416D01*
X74140234Y-145367266D01*
X74058292Y-145503086D01*
X73975065Y-145640956D01*
X73893522Y-145775957D01*
X73816631Y-145903170D01*
X73793118Y-145942050D01*
X73728483Y-146048946D01*
X73666660Y-146151256D01*
X73609143Y-146246507D01*
X73557422Y-146332224D01*
X73512991Y-146405933D01*
X73477342Y-146465160D01*
X73451967Y-146507429D01*
X73438910Y-146529332D01*
X73416983Y-146566300D01*
X73387171Y-146616189D01*
X73348825Y-146680076D01*
X73301295Y-146759036D01*
X73243932Y-146854148D01*
X73176086Y-146966488D01*
X73097106Y-147097133D01*
X73006345Y-147247161D01*
X72903151Y-147417648D01*
X72885380Y-147447000D01*
X72818204Y-147558004D01*
X72750096Y-147670642D01*
X72683257Y-147781268D01*
X72619890Y-147886234D01*
X72562195Y-147981894D01*
X72512374Y-148064599D01*
X72472629Y-148130702D01*
X72459941Y-148151850D01*
X72427519Y-148205845D01*
X72383810Y-148278481D01*
X72330679Y-148366669D01*
X72269990Y-148467319D01*
X72203607Y-148577340D01*
X72133393Y-148693645D01*
X72061211Y-148813141D01*
X71988927Y-148932741D01*
X71977313Y-148951950D01*
X71906020Y-149069883D01*
X71835196Y-149187080D01*
X71766599Y-149300630D01*
X71701985Y-149407623D01*
X71643112Y-149505150D01*
X71591736Y-149590300D01*
X71549614Y-149660164D01*
X71518503Y-149711832D01*
X71513412Y-149720300D01*
X71487080Y-149764067D01*
X71449116Y-149827104D01*
X71401013Y-149906932D01*
X71344264Y-150001077D01*
X71280362Y-150107062D01*
X71210800Y-150222409D01*
X71137072Y-150344643D01*
X71060671Y-150471287D01*
X70983090Y-150599864D01*
X70973564Y-150615650D01*
X70871209Y-150785268D01*
X70780649Y-150935343D01*
X70700553Y-151068080D01*
X70629594Y-151185681D01*
X70566441Y-151290352D01*
X70509764Y-151384296D01*
X70458235Y-151469718D01*
X70410523Y-151548821D01*
X70365300Y-151623809D01*
X70321236Y-151696886D01*
X70277002Y-151770257D01*
X70231267Y-151846125D01*
X70182703Y-151926695D01*
X70140545Y-151996639D01*
X70092022Y-152077128D01*
X70033046Y-152174924D01*
X69966295Y-152285592D01*
X69894445Y-152404693D01*
X69820172Y-152527792D01*
X69746153Y-152650451D01*
X69675064Y-152768234D01*
X69659692Y-152793700D01*
X69592771Y-152904591D01*
X69524979Y-153016977D01*
X69458502Y-153127231D01*
X69395526Y-153231726D01*
X69338236Y-153326834D01*
X69288819Y-153408928D01*
X69249461Y-153474380D01*
X69236851Y-153495376D01*
X69197187Y-153560838D01*
X69161781Y-153618107D01*
X69132739Y-153663874D01*
X69112164Y-153694827D01*
X69102162Y-153707658D01*
X69101754Y-153707823D01*
X69092973Y-153697307D01*
X69074798Y-153668992D01*
X69050007Y-153627374D01*
X69025302Y-153583998D01*
X69004974Y-153548146D01*
X68973408Y-153493151D01*
X68932215Y-153421779D01*
X68883005Y-153336797D01*
X68827389Y-153240972D01*
X68766977Y-153137072D01*
X68703380Y-153027864D01*
X68638208Y-152916114D01*
X68573072Y-152804589D01*
X68509582Y-152696056D01*
X68449350Y-152593283D01*
X68393985Y-152499037D01*
X68376805Y-152469850D01*
X68341205Y-152409346D01*
X68300354Y-152339826D01*
X68261833Y-152274196D01*
X68253685Y-152260300D01*
X68225989Y-152213240D01*
X68188865Y-152150424D01*
X68145900Y-152077909D01*
X68100683Y-152001752D01*
X68065611Y-151942800D01*
X68023369Y-151871772D01*
X67982640Y-151803111D01*
X67946371Y-151741802D01*
X67917513Y-151692829D01*
X67900302Y-151663400D01*
X67884466Y-151636244D01*
X67862937Y-151599580D01*
X67834772Y-151551817D01*
X67799028Y-151491362D01*
X67754762Y-151416622D01*
X67701030Y-151326006D01*
X67636890Y-151217920D01*
X67561399Y-151090773D01*
X67497955Y-150983950D01*
X67415340Y-150844862D01*
X67344230Y-150725136D01*
X67283153Y-150622296D01*
X67230641Y-150533867D01*
X67185224Y-150457373D01*
X67145432Y-150390340D01*
X67109796Y-150330291D01*
X67076847Y-150274752D01*
X67045114Y-150221247D01*
X67013128Y-150167301D01*
X67011646Y-150164800D01*
X66980660Y-150112595D01*
X66938048Y-150040893D01*
X66885191Y-149952014D01*
X66823472Y-149848280D01*
X66754272Y-149732010D01*
X66678972Y-149605524D01*
X66598955Y-149471143D01*
X66515602Y-149331187D01*
X66430295Y-149187975D01*
X66344415Y-149043828D01*
X66259344Y-148901066D01*
X66176465Y-148762009D01*
X66097158Y-148628978D01*
X66022805Y-148504292D01*
X66005751Y-148475700D01*
X65967868Y-148412188D01*
X65918637Y-148329649D01*
X65859720Y-148230869D01*
X65792780Y-148118636D01*
X65719478Y-147995738D01*
X65641478Y-147864961D01*
X65560442Y-147729092D01*
X65478032Y-147590920D01*
X65395910Y-147453231D01*
X65373257Y-147415250D01*
X65284753Y-147266897D01*
X65190232Y-147108528D01*
X65092116Y-146944197D01*
X64992827Y-146777956D01*
X64894785Y-146613859D01*
X64800414Y-146455959D01*
X64712133Y-146308309D01*
X64632365Y-146174962D01*
X64572771Y-146075400D01*
X64496282Y-145947597D01*
X64415223Y-145812045D01*
X64332193Y-145673095D01*
X64249791Y-145535103D01*
X64170615Y-145402420D01*
X64097264Y-145279399D01*
X64032336Y-145170394D01*
X63988975Y-145097500D01*
X63932678Y-145002949D01*
X63878726Y-144912644D01*
X63828916Y-144829569D01*
X63785045Y-144756710D01*
X63748911Y-144697051D01*
X63722309Y-144653578D01*
X63708014Y-144630775D01*
X63664840Y-144564100D01*
X62702768Y-144564100D01*
X62703028Y-144564609D01*
X62738177Y-144629989D01*
X62782692Y-144710400D01*
X62835324Y-144803602D01*
X62894820Y-144907357D01*
X62959931Y-145019424D01*
X63016988Y-145116550D01*
X63082635Y-145227783D01*
X63146223Y-145335573D01*
X63206209Y-145437302D01*
X63261051Y-145530352D01*
X63309205Y-145612106D01*
X63349131Y-145679946D01*
X63379285Y-145731254D01*
X63398125Y-145763413D01*
X63398614Y-145764250D01*
X63419630Y-145800119D01*
X63453456Y-145857626D01*
X63499964Y-145936553D01*
X63559023Y-146036679D01*
X63630506Y-146157787D01*
X63714282Y-146299658D01*
X63810222Y-146462073D01*
X63918198Y-146644813D01*
X64038080Y-146847660D01*
X64169738Y-147070393D01*
X64313044Y-147312796D01*
X64373620Y-147415250D01*
X64442634Y-147531907D01*
X64520730Y-147663801D01*
X64604002Y-147804342D01*
X64688543Y-147946939D01*
X64770447Y-148085003D01*
X64845807Y-148211944D01*
X64878010Y-148266150D01*
X64949195Y-148386008D01*
X65029009Y-148520509D01*
X65113492Y-148662973D01*
X65198685Y-148806719D01*
X65280626Y-148945066D01*
X65355355Y-149071332D01*
X65386148Y-149123400D01*
X65454716Y-149239333D01*
X65530292Y-149367047D01*
X65609255Y-149500426D01*
X65687979Y-149633349D01*
X65762842Y-149759700D01*
X65830221Y-149873358D01*
X65859963Y-149923500D01*
X65922158Y-150028383D01*
X65988795Y-150140844D01*
X66056545Y-150255257D01*
X66122079Y-150366000D01*
X66182068Y-150467447D01*
X66233182Y-150553976D01*
X66243348Y-150571200D01*
X66299059Y-150665525D01*
X66360971Y-150770196D01*
X66424544Y-150877543D01*
X66485233Y-150979899D01*
X66538497Y-151069592D01*
X66547986Y-151085550D01*
X66592771Y-151160924D01*
X66635772Y-151233442D01*
X66674372Y-151298677D01*
X66705953Y-151352205D01*
X66727898Y-151389602D01*
X66732030Y-151396700D01*
X66749099Y-151425899D01*
X66777013Y-151473379D01*
X66813666Y-151535572D01*
X66856954Y-151608910D01*
X66904772Y-151689824D01*
X66955013Y-151774745D01*
X66960522Y-151784050D01*
X67018605Y-151882224D01*
X67085562Y-151995509D01*
X67157389Y-152117123D01*
X67230082Y-152240285D01*
X67299637Y-152358213D01*
X67357941Y-152457150D01*
X67472760Y-152651925D01*
X67583323Y-152839154D01*
X67688703Y-153017279D01*
X67787975Y-153184744D01*
X67880211Y-153339991D01*
X67964485Y-153481465D01*
X68039871Y-153607608D01*
X68105442Y-153716863D01*
X68160271Y-153807673D01*
X68203433Y-153878481D01*
X68211907Y-153892250D01*
X68281872Y-154005432D01*
X68341517Y-154101408D01*
X68390189Y-154179137D01*
X68427233Y-154237574D01*
X68451995Y-154275677D01*
X68457443Y-154283731D01*
X68529137Y-154386299D01*
X68590251Y-154469869D01*
X68643360Y-154537174D01*
X68691035Y-154590944D01*
X68735851Y-154633911D01*
X68780381Y-154668807D01*
X68827200Y-154698363D01*
X68868869Y-154720415D01*
X68929876Y-154747648D01*
X68983529Y-154763366D01*
X69042859Y-154771202D01*
X69053777Y-154771969D01*
X69135302Y-154770392D01*
G36*
X69463984Y-151841087D02*
X69592913Y-151840720D01*
X69699804Y-151840059D01*
X69786336Y-151839064D01*
X69854190Y-151837694D01*
X69905046Y-151835910D01*
X69940583Y-151833670D01*
X69962483Y-151830935D01*
X69972426Y-151827664D01*
X69973312Y-151825325D01*
X69965176Y-151805527D01*
X69948671Y-151765654D01*
X69925199Y-151709075D01*
X69896162Y-151639160D01*
X69862962Y-151559281D01*
X69827002Y-151472805D01*
X69789683Y-151383105D01*
X69752407Y-151293549D01*
X69716577Y-151207507D01*
X69683595Y-151128350D01*
X69654862Y-151059447D01*
X69631781Y-151004169D01*
X69615753Y-150965886D01*
X69615339Y-150964900D01*
X69588278Y-150900323D01*
X69555538Y-150821992D01*
X69521175Y-150739616D01*
X69489241Y-150662902D01*
X69488076Y-150660100D01*
X69459716Y-150592035D01*
X69432023Y-150525860D01*
X69407796Y-150468242D01*
X69389832Y-150425851D01*
X69386814Y-150418800D01*
X69377504Y-150396762D01*
X69359723Y-150354334D01*
X69334490Y-150293962D01*
X69302823Y-150218090D01*
X69265738Y-150129166D01*
X69224255Y-150029635D01*
X69179391Y-149921943D01*
X69132164Y-149808536D01*
X69083592Y-149691860D01*
X69034692Y-149574359D01*
X68986483Y-149458481D01*
X68939983Y-149346672D01*
X68896209Y-149241376D01*
X68856179Y-149145040D01*
X68820911Y-149060109D01*
X68791424Y-148989030D01*
X68768734Y-148934248D01*
X68753860Y-148898209D01*
X68747950Y-148883698D01*
X68756937Y-148884692D01*
X68785681Y-148896143D01*
X68831418Y-148916763D01*
X68891383Y-148945262D01*
X68962814Y-148980348D01*
X69042947Y-149020734D01*
X69057460Y-149028148D01*
X69281901Y-149143049D01*
X69486080Y-149247606D01*
X69672355Y-149343028D01*
X69843085Y-149430523D01*
X70000629Y-149511300D01*
X70147345Y-149586567D01*
X70169909Y-149598147D01*
X70244630Y-149636373D01*
X70311585Y-149670391D01*
X70367551Y-149698584D01*
X70409302Y-149719332D01*
X70433613Y-149731015D01*
X70438474Y-149733000D01*
X70438884Y-149729001D01*
X70436667Y-149715908D01*
X70431402Y-149692079D01*
X70422671Y-149655872D01*
X70410054Y-149605645D01*
X70393130Y-149539754D01*
X70371482Y-149456558D01*
X70344689Y-149354414D01*
X70312331Y-149231681D01*
X70273990Y-149086714D01*
X70256795Y-149021800D01*
X70231699Y-148927015D01*
X70204088Y-148822596D01*
X70176399Y-148717776D01*
X70151072Y-148621788D01*
X70136003Y-148564600D01*
X70113496Y-148479203D01*
X70087001Y-148378808D01*
X70059039Y-148272968D01*
X70032135Y-148171237D01*
X70016916Y-148113750D01*
X69947962Y-147853403D01*
X69885242Y-147616521D01*
X69828474Y-147402023D01*
X69777374Y-147208825D01*
X69731661Y-147035845D01*
X69691050Y-146881998D01*
X69655259Y-146746203D01*
X69624006Y-146627375D01*
X69597007Y-146524432D01*
X69573979Y-146436290D01*
X69554640Y-146361867D01*
X69538707Y-146300079D01*
X69525897Y-146249843D01*
X69515927Y-146210076D01*
X69508514Y-146179695D01*
X69503376Y-146157617D01*
X69500229Y-146142759D01*
X69498791Y-146134037D01*
X69498779Y-146130368D01*
X69498906Y-146130161D01*
X69511583Y-146133232D01*
X69544169Y-146144596D01*
X69593078Y-146162903D01*
X69654718Y-146186804D01*
X69725504Y-146214950D01*
X69741930Y-146221570D01*
X69814218Y-146250484D01*
X69878117Y-146275486D01*
X69930048Y-146295220D01*
X69966427Y-146308331D01*
X69983674Y-146313464D01*
X69984546Y-146313388D01*
X69979540Y-146301299D01*
X69961527Y-146270279D01*
X69931859Y-146222343D01*
X69891890Y-146159510D01*
X69842974Y-146083799D01*
X69786462Y-145997226D01*
X69723708Y-145901810D01*
X69656065Y-145799570D01*
X69584887Y-145692522D01*
X69511526Y-145582684D01*
X69437336Y-145472076D01*
X69363669Y-145362714D01*
X69291880Y-145256617D01*
X69223320Y-145155802D01*
X69159343Y-145062288D01*
X69101303Y-144978092D01*
X69050552Y-144905233D01*
X69008443Y-144845728D01*
X68976330Y-144801595D01*
X68955565Y-144774852D01*
X68947826Y-144767300D01*
X68943764Y-144779375D01*
X68935359Y-144814027D01*
X68923107Y-144868901D01*
X68907506Y-144941640D01*
X68889052Y-145029888D01*
X68868243Y-145131287D01*
X68845577Y-145243482D01*
X68821549Y-145364115D01*
X68815888Y-145392775D01*
X68784723Y-145549701D01*
X68753730Y-145703636D01*
X68723378Y-145852374D01*
X68694140Y-145993711D01*
X68666484Y-146125442D01*
X68640883Y-146245359D01*
X68617806Y-146351260D01*
X68597724Y-146440937D01*
X68581108Y-146512186D01*
X68568429Y-146562802D01*
X68560464Y-146589750D01*
X68566113Y-146588994D01*
X68587179Y-146572402D01*
X68621201Y-146542183D01*
X68665717Y-146500546D01*
X68718268Y-146449697D01*
X68735652Y-146432561D01*
X68795808Y-146374082D01*
X68848109Y-146325334D01*
X68890152Y-146288422D01*
X68919533Y-146265453D01*
X68933848Y-146258530D01*
X68934200Y-146258686D01*
X68945590Y-146277160D01*
X68948328Y-146295225D01*
X68950323Y-146315631D01*
X68955886Y-146356994D01*
X68964412Y-146415219D01*
X68975295Y-146486208D01*
X68987929Y-146565863D01*
X68992826Y-146596100D01*
X69009334Y-146698043D01*
X69028386Y-146816674D01*
X69049398Y-146948292D01*
X69071789Y-147089199D01*
X69094976Y-147235697D01*
X69118379Y-147384084D01*
X69141413Y-147530663D01*
X69163499Y-147671734D01*
X69184052Y-147803598D01*
X69202492Y-147922556D01*
X69218236Y-148024908D01*
X69230703Y-148106955D01*
X69233626Y-148126450D01*
X69244674Y-148199859D01*
X69254850Y-148266422D01*
X69263396Y-148321249D01*
X69269550Y-148359447D01*
X69272111Y-148374100D01*
X69276750Y-148403683D01*
X69282373Y-148447797D01*
X69286627Y-148486168D01*
X69294900Y-148566486D01*
X68390326Y-148114164D01*
X68206857Y-148022616D01*
X68045485Y-147942510D01*
X67905743Y-147873625D01*
X67787165Y-147815736D01*
X67689286Y-147768621D01*
X67611638Y-147732057D01*
X67553757Y-147705821D01*
X67515175Y-147689689D01*
X67495427Y-147683440D01*
X67492477Y-147684596D01*
X67497603Y-147702771D01*
X67508455Y-147741817D01*
X67524029Y-147798114D01*
X67543327Y-147868039D01*
X67565347Y-147947971D01*
X67583002Y-148012150D01*
X67652210Y-148263835D01*
X67716189Y-148496423D01*
X67774710Y-148709084D01*
X67827544Y-148900987D01*
X67874463Y-149071298D01*
X67915237Y-149219187D01*
X67949637Y-149343822D01*
X67964180Y-149396450D01*
X67983948Y-149468126D01*
X68008609Y-149557804D01*
X68036378Y-149658977D01*
X68065470Y-149765142D01*
X68094100Y-149869793D01*
X68108772Y-149923500D01*
X68137171Y-150027340D01*
X68167717Y-150138716D01*
X68198437Y-150250461D01*
X68227359Y-150355406D01*
X68252513Y-150446381D01*
X68262479Y-150482300D01*
X68286960Y-150570765D01*
X68312853Y-150664952D01*
X68337913Y-150756654D01*
X68359895Y-150837666D01*
X68371909Y-150882350D01*
X68392555Y-150958925D01*
X68415022Y-151041195D01*
X68436424Y-151118653D01*
X68452076Y-151174450D01*
X68467359Y-151228829D01*
X68487413Y-151300918D01*
X68510356Y-151383915D01*
X68534308Y-151471018D01*
X68553931Y-151542750D01*
X68574924Y-151619012D01*
X68594365Y-151688351D01*
X68611017Y-151746458D01*
X68623644Y-151789024D01*
X68631010Y-151811742D01*
X68631357Y-151812626D01*
X68642955Y-151841201D01*
X69311336Y-151841201D01*
X69463984Y-151841087D01*
X69463984Y-151841087D01*
G37*
X69463984Y-151841087D02*
X69592913Y-151840720D01*
X69699804Y-151840059D01*
X69786336Y-151839064D01*
X69854190Y-151837694D01*
X69905046Y-151835910D01*
X69940583Y-151833670D01*
X69962483Y-151830935D01*
X69972426Y-151827664D01*
X69973312Y-151825325D01*
X69965176Y-151805527D01*
X69948671Y-151765654D01*
X69925199Y-151709075D01*
X69896162Y-151639160D01*
X69862962Y-151559281D01*
X69827002Y-151472805D01*
X69789683Y-151383105D01*
X69752407Y-151293549D01*
X69716577Y-151207507D01*
X69683595Y-151128350D01*
X69654862Y-151059447D01*
X69631781Y-151004169D01*
X69615753Y-150965886D01*
X69615339Y-150964900D01*
X69588278Y-150900323D01*
X69555538Y-150821992D01*
X69521175Y-150739616D01*
X69489241Y-150662902D01*
X69488076Y-150660100D01*
X69459716Y-150592035D01*
X69432023Y-150525860D01*
X69407796Y-150468242D01*
X69389832Y-150425851D01*
X69386814Y-150418800D01*
X69377504Y-150396762D01*
X69359723Y-150354334D01*
X69334490Y-150293962D01*
X69302823Y-150218090D01*
X69265738Y-150129166D01*
X69224255Y-150029635D01*
X69179391Y-149921943D01*
X69132164Y-149808536D01*
X69083592Y-149691860D01*
X69034692Y-149574359D01*
X68986483Y-149458481D01*
X68939983Y-149346672D01*
X68896209Y-149241376D01*
X68856179Y-149145040D01*
X68820911Y-149060109D01*
X68791424Y-148989030D01*
X68768734Y-148934248D01*
X68753860Y-148898209D01*
X68747950Y-148883698D01*
X68756937Y-148884692D01*
X68785681Y-148896143D01*
X68831418Y-148916763D01*
X68891383Y-148945262D01*
X68962814Y-148980348D01*
X69042947Y-149020734D01*
X69057460Y-149028148D01*
X69281901Y-149143049D01*
X69486080Y-149247606D01*
X69672355Y-149343028D01*
X69843085Y-149430523D01*
X70000629Y-149511300D01*
X70147345Y-149586567D01*
X70169909Y-149598147D01*
X70244630Y-149636373D01*
X70311585Y-149670391D01*
X70367551Y-149698584D01*
X70409302Y-149719332D01*
X70433613Y-149731015D01*
X70438474Y-149733000D01*
X70438884Y-149729001D01*
X70436667Y-149715908D01*
X70431402Y-149692079D01*
X70422671Y-149655872D01*
X70410054Y-149605645D01*
X70393130Y-149539754D01*
X70371482Y-149456558D01*
X70344689Y-149354414D01*
X70312331Y-149231681D01*
X70273990Y-149086714D01*
X70256795Y-149021800D01*
X70231699Y-148927015D01*
X70204088Y-148822596D01*
X70176399Y-148717776D01*
X70151072Y-148621788D01*
X70136003Y-148564600D01*
X70113496Y-148479203D01*
X70087001Y-148378808D01*
X70059039Y-148272968D01*
X70032135Y-148171237D01*
X70016916Y-148113750D01*
X69947962Y-147853403D01*
X69885242Y-147616521D01*
X69828474Y-147402023D01*
X69777374Y-147208825D01*
X69731661Y-147035845D01*
X69691050Y-146881998D01*
X69655259Y-146746203D01*
X69624006Y-146627375D01*
X69597007Y-146524432D01*
X69573979Y-146436290D01*
X69554640Y-146361867D01*
X69538707Y-146300079D01*
X69525897Y-146249843D01*
X69515927Y-146210076D01*
X69508514Y-146179695D01*
X69503376Y-146157617D01*
X69500229Y-146142759D01*
X69498791Y-146134037D01*
X69498779Y-146130368D01*
X69498906Y-146130161D01*
X69511583Y-146133232D01*
X69544169Y-146144596D01*
X69593078Y-146162903D01*
X69654718Y-146186804D01*
X69725504Y-146214950D01*
X69741930Y-146221570D01*
X69814218Y-146250484D01*
X69878117Y-146275486D01*
X69930048Y-146295220D01*
X69966427Y-146308331D01*
X69983674Y-146313464D01*
X69984546Y-146313388D01*
X69979540Y-146301299D01*
X69961527Y-146270279D01*
X69931859Y-146222343D01*
X69891890Y-146159510D01*
X69842974Y-146083799D01*
X69786462Y-145997226D01*
X69723708Y-145901810D01*
X69656065Y-145799570D01*
X69584887Y-145692522D01*
X69511526Y-145582684D01*
X69437336Y-145472076D01*
X69363669Y-145362714D01*
X69291880Y-145256617D01*
X69223320Y-145155802D01*
X69159343Y-145062288D01*
X69101303Y-144978092D01*
X69050552Y-144905233D01*
X69008443Y-144845728D01*
X68976330Y-144801595D01*
X68955565Y-144774852D01*
X68947826Y-144767300D01*
X68943764Y-144779375D01*
X68935359Y-144814027D01*
X68923107Y-144868901D01*
X68907506Y-144941640D01*
X68889052Y-145029888D01*
X68868243Y-145131287D01*
X68845577Y-145243482D01*
X68821549Y-145364115D01*
X68815888Y-145392775D01*
X68784723Y-145549701D01*
X68753730Y-145703636D01*
X68723378Y-145852374D01*
X68694140Y-145993711D01*
X68666484Y-146125442D01*
X68640883Y-146245359D01*
X68617806Y-146351260D01*
X68597724Y-146440937D01*
X68581108Y-146512186D01*
X68568429Y-146562802D01*
X68560464Y-146589750D01*
X68566113Y-146588994D01*
X68587179Y-146572402D01*
X68621201Y-146542183D01*
X68665717Y-146500546D01*
X68718268Y-146449697D01*
X68735652Y-146432561D01*
X68795808Y-146374082D01*
X68848109Y-146325334D01*
X68890152Y-146288422D01*
X68919533Y-146265453D01*
X68933848Y-146258530D01*
X68934200Y-146258686D01*
X68945590Y-146277160D01*
X68948328Y-146295225D01*
X68950323Y-146315631D01*
X68955886Y-146356994D01*
X68964412Y-146415219D01*
X68975295Y-146486208D01*
X68987929Y-146565863D01*
X68992826Y-146596100D01*
X69009334Y-146698043D01*
X69028386Y-146816674D01*
X69049398Y-146948292D01*
X69071789Y-147089199D01*
X69094976Y-147235697D01*
X69118379Y-147384084D01*
X69141413Y-147530663D01*
X69163499Y-147671734D01*
X69184052Y-147803598D01*
X69202492Y-147922556D01*
X69218236Y-148024908D01*
X69230703Y-148106955D01*
X69233626Y-148126450D01*
X69244674Y-148199859D01*
X69254850Y-148266422D01*
X69263396Y-148321249D01*
X69269550Y-148359447D01*
X69272111Y-148374100D01*
X69276750Y-148403683D01*
X69282373Y-148447797D01*
X69286627Y-148486168D01*
X69294900Y-148566486D01*
X68390326Y-148114164D01*
X68206857Y-148022616D01*
X68045485Y-147942510D01*
X67905743Y-147873625D01*
X67787165Y-147815736D01*
X67689286Y-147768621D01*
X67611638Y-147732057D01*
X67553757Y-147705821D01*
X67515175Y-147689689D01*
X67495427Y-147683440D01*
X67492477Y-147684596D01*
X67497603Y-147702771D01*
X67508455Y-147741817D01*
X67524029Y-147798114D01*
X67543327Y-147868039D01*
X67565347Y-147947971D01*
X67583002Y-148012150D01*
X67652210Y-148263835D01*
X67716189Y-148496423D01*
X67774710Y-148709084D01*
X67827544Y-148900987D01*
X67874463Y-149071298D01*
X67915237Y-149219187D01*
X67949637Y-149343822D01*
X67964180Y-149396450D01*
X67983948Y-149468126D01*
X68008609Y-149557804D01*
X68036378Y-149658977D01*
X68065470Y-149765142D01*
X68094100Y-149869793D01*
X68108772Y-149923500D01*
X68137171Y-150027340D01*
X68167717Y-150138716D01*
X68198437Y-150250461D01*
X68227359Y-150355406D01*
X68252513Y-150446381D01*
X68262479Y-150482300D01*
X68286960Y-150570765D01*
X68312853Y-150664952D01*
X68337913Y-150756654D01*
X68359895Y-150837666D01*
X68371909Y-150882350D01*
X68392555Y-150958925D01*
X68415022Y-151041195D01*
X68436424Y-151118653D01*
X68452076Y-151174450D01*
X68467359Y-151228829D01*
X68487413Y-151300918D01*
X68510356Y-151383915D01*
X68534308Y-151471018D01*
X68553931Y-151542750D01*
X68574924Y-151619012D01*
X68594365Y-151688351D01*
X68611017Y-151746458D01*
X68623644Y-151789024D01*
X68631010Y-151811742D01*
X68631357Y-151812626D01*
X68642955Y-151841201D01*
X69311336Y-151841201D01*
X69463984Y-151841087D01*
G04 #@! TD*
M02*
