M48
;DRILL file {KiCad (5.0.2)-1} date 03/22/19 14:38:28
;FORMAT={-:-/ absolute / inch / decimal}
FMAT,2
INCH,TZ
T1C0.0157
T2C0.0295
T3C0.0300
T4C0.0394
T5C0.1260
%
G90
G05
T1
X2.7306Y-5.2515
X2.83Y-4.72
X2.89Y-5.22
X2.9277Y-4.6377
X2.9572Y-5.3504
X2.9572Y-5.3976
X2.9572Y-5.4409
X3.08Y-5.3515
X3.1Y-5.5925
X3.1Y-4.8
X3.12Y-4.42
X3.15Y-5.
X3.18Y-5.4
X3.19Y-4.73
X3.2181Y-5.6398
X3.2181Y-5.6831
X3.2181Y-5.7264
X3.28Y-4.69
X3.29Y-5.2
X3.33Y-4.46
X3.39Y-4.39
X3.4891Y-5.8628
X3.5Y-4.65
X3.5Y-4.91
X3.537Y-5.5413
X3.5491Y-5.8528
X3.5491Y-5.9928
X3.5685Y-5.06
X3.71Y-5.37
X3.7291Y-5.5715
X3.7576Y-6.15
X3.789Y-5.8012
X3.789Y-5.9626
X4.02Y-5.05
X4.03Y-4.8
X4.05Y-4.65
X4.07Y-5.2
X4.13Y-4.56
X4.2Y-5.86
X4.25Y-5.17
X4.31Y-4.57
X4.39Y-5.32
X4.43Y-4.63
X4.57Y-4.88
X4.58Y-5.83
X4.62Y-5.09
X4.84Y-5.3185
X5.02Y-5.9
X5.02Y-6.08
X5.24Y-4.81
X5.27Y-5.
X5.27Y-5.9
X5.27Y-6.0915
X5.32Y-4.56
X5.43Y-5.08
X5.5Y-4.55
X5.52Y-5.9
X5.52Y-6.0915
X5.57Y-5.32
X5.599Y-6.191
X5.6Y-6.1028
X5.63Y-4.63
X5.72Y-5.92
X5.72Y-5.99
X5.72Y-6.06
X5.75Y-4.88
X5.8Y-5.08
X6.08Y-4.95
X6.1Y-4.76
X6.15Y-5.09
X6.19Y-4.61
X6.24Y-5.27
X6.31Y-4.6
X6.48Y-4.55
X6.51Y-5.32
X6.65Y-5.23
X6.66Y-4.66
X6.69Y-4.9
X6.9653Y-5.3095
X7.22Y-5.18
X7.26Y-4.76
X7.27Y-5.02
X7.32Y-4.51
X7.48Y-4.59
X7.54Y-5.24
X7.69Y-5.32
X7.7Y-4.5
X7.88Y-4.89
X7.89Y-5.11
X7.91Y-4.62
X8.18Y-4.75
X8.18Y-5.03
X8.18Y-5.17
X8.32Y-4.65
X8.41Y-5.2699
X8.48Y-4.54
X8.6Y-5.32
X8.67Y-4.51
X8.73Y-4.66
X8.74Y-5.06
X8.83Y-4.88
T2
X4.7913Y-4.8661
X4.8413Y-4.9161
X4.8913Y-4.8661
X6.9173Y-4.8661
X6.9673Y-4.9161
X7.0173Y-4.8661
T3
X7.3158Y-4.8674
X7.3355Y-4.9752
X7.36Y-4.7348
X7.3994Y-5.0684
X7.4553Y-4.6627
X7.5012Y-5.1236
X7.5595Y-4.63
X7.6242Y-5.1208
X7.6636Y-4.6627
X7.7196Y-5.0684
X7.759Y-4.7348
X7.7835Y-4.9752
X7.8031Y-4.8674
X6.1343Y-4.8674
X6.154Y-4.9752
X6.1785Y-4.7348
X6.2178Y-5.0684
X6.2738Y-4.6627
X6.3197Y-5.1235
X6.378Y-4.6299
X6.4427Y-5.1208
X6.4821Y-4.6627
X6.5381Y-5.0684
X6.5774Y-4.7348
X6.6019Y-4.9752
X6.6216Y-4.8674
X8.2607Y-4.8674
X8.2804Y-4.9752
X8.3049Y-4.7348
X8.3442Y-5.0684
X8.4002Y-4.6627
X8.4461Y-5.1236
X8.5043Y-4.63
X8.5691Y-5.1208
X8.6085Y-4.6627
X8.6645Y-5.0684
X8.7038Y-4.7348
X8.7283Y-4.9752
X8.748Y-4.8674
X5.1894Y-4.8674
X5.2091Y-4.9752
X5.2336Y-4.7348
X5.273Y-5.0684
X5.3289Y-4.6627
X5.3748Y-5.1235
X5.4331Y-4.6299
X5.4978Y-5.1208
X5.5372Y-4.6627
X5.5932Y-5.0684
X5.6326Y-4.7348
X5.657Y-4.9752
X5.6767Y-4.8674
X3.0637Y-4.8676
X3.0833Y-4.9754
X3.1078Y-4.735
X3.1472Y-5.0686
X3.2032Y-4.6629
X3.2491Y-5.1238
X3.3073Y-4.6302
X3.3721Y-5.121
X3.4115Y-4.6629
X3.4674Y-5.0686
X3.5068Y-4.735
X3.5313Y-4.9754
X3.551Y-4.8676
X4.0084Y-4.8671
X4.0281Y-4.9749
X4.0526Y-4.7345
X4.0919Y-5.0681
X4.1479Y-4.6624
X4.1938Y-5.1233
X4.252Y-4.6297
X4.3168Y-5.1206
X4.3562Y-4.6624
X4.4122Y-5.0681
X4.4515Y-4.7345
X4.476Y-4.9749
X4.4957Y-4.8671
T4
X8.2822Y-6.113
X8.3822Y-6.113
X8.4822Y-6.113
X8.5822Y-6.113
X8.6822Y-6.113
X8.7822Y-6.113
X8.8822Y-6.113
X8.9822Y-6.113
X7.5822Y-4.213
X7.6822Y-4.213
X7.7822Y-4.213
X7.8822Y-4.213
X7.9822Y-4.213
X8.0822Y-4.213
X8.1822Y-4.213
X8.2822Y-4.213
X9.2822Y-4.413
X9.2822Y-4.513
X9.2822Y-4.613
X9.2822Y-4.713
X9.2822Y-4.813
X9.2822Y-4.913
X9.2822Y-5.013
X9.2822Y-5.113
X9.2822Y-5.213
X9.2822Y-5.313
X9.2822Y-5.413
X9.2822Y-5.513
X9.2822Y-5.613
X9.2822Y-5.713
X9.2822Y-5.813
X9.2822Y-5.913
X9.2822Y-6.013
X9.2822Y-6.113
X9.3822Y-4.413
X9.3822Y-4.513
X9.3822Y-4.613
X9.3822Y-4.713
X9.3822Y-4.813
X9.3822Y-4.913
X9.3822Y-5.013
X9.3822Y-5.113
X9.3822Y-5.213
X9.3822Y-5.313
X9.3822Y-5.413
X9.3822Y-5.513
X9.3822Y-5.613
X9.3822Y-5.713
X9.3822Y-5.813
X9.3822Y-5.913
X9.3822Y-6.013
X9.3822Y-6.113
X6.3222Y-6.113
X6.4222Y-6.113
X6.5222Y-6.113
X6.6222Y-6.113
X6.7222Y-6.113
X6.8222Y-6.113
X6.9222Y-6.113
X7.0222Y-6.113
X7.1222Y-6.113
X7.2222Y-6.113
X8.4822Y-4.213
X8.5822Y-4.213
X8.6822Y-4.213
X8.7822Y-4.213
X8.8822Y-4.213
X8.9822Y-4.213
X9.0822Y-4.213
X9.1822Y-4.213
X7.3822Y-6.113
X7.4822Y-6.113
X7.5822Y-6.113
X7.6822Y-6.113
X7.7822Y-6.113
X7.8822Y-6.113
X7.9822Y-6.113
X8.0822Y-6.113
X6.6822Y-4.213
X6.7822Y-4.213
X6.8822Y-4.213
X6.9822Y-4.213
X7.0822Y-4.213
X7.1822Y-4.213
X7.2822Y-4.213
X7.3822Y-4.213
T5
X2.4803Y-4.252
X4.0945Y-6.0236
T0
M30
