G04 #@! TF.GenerationSoftware,KiCad,Pcbnew,(5.0.2)-1*
G04 #@! TF.CreationDate,2019-03-22T14:40:18+01:00*
G04 #@! TF.ProjectId,NixieClock01A,4e697869-6543-46c6-9f63-6b3031412e6b,rev?*
G04 #@! TF.SameCoordinates,Original*
G04 #@! TF.FileFunction,Soldermask,Bot*
G04 #@! TF.FilePolarity,Negative*
%FSLAX46Y46*%
G04 Gerber Fmt 4.6, Leading zero omitted, Abs format (unit mm)*
G04 Created by KiCad (PCBNEW (5.0.2)-1) date 03/22/19 14:40:18*
%MOMM*%
%LPD*%
G01*
G04 APERTURE LIST*
%ADD10C,0.100000*%
G04 APERTURE END LIST*
D10*
G36*
X235896907Y-154227796D02*
X235974036Y-154235393D01*
X236105987Y-154275420D01*
X236171963Y-154295433D01*
X236354372Y-154392933D01*
X236514254Y-154524146D01*
X236645467Y-154684028D01*
X236742967Y-154866437D01*
X236742967Y-154866438D01*
X236803007Y-155064364D01*
X236823280Y-155270200D01*
X236803007Y-155476036D01*
X236762980Y-155607987D01*
X236742967Y-155673963D01*
X236645467Y-155856372D01*
X236514254Y-156016254D01*
X236354372Y-156147467D01*
X236171963Y-156244967D01*
X236105987Y-156264980D01*
X235974036Y-156305007D01*
X235896907Y-156312604D01*
X235819780Y-156320200D01*
X235716620Y-156320200D01*
X235639493Y-156312604D01*
X235562364Y-156305007D01*
X235430413Y-156264980D01*
X235364437Y-156244967D01*
X235182028Y-156147467D01*
X235022146Y-156016254D01*
X234890933Y-155856372D01*
X234793433Y-155673963D01*
X234773420Y-155607987D01*
X234733393Y-155476036D01*
X234713120Y-155270200D01*
X234733393Y-155064364D01*
X234793433Y-154866438D01*
X234793433Y-154866437D01*
X234890933Y-154684028D01*
X235022146Y-154524146D01*
X235182028Y-154392933D01*
X235364437Y-154295433D01*
X235430413Y-154275420D01*
X235562364Y-154235393D01*
X235639493Y-154227796D01*
X235716620Y-154220200D01*
X235819780Y-154220200D01*
X235896907Y-154227796D01*
X235896907Y-154227796D01*
G37*
G36*
X192716907Y-154227796D02*
X192794036Y-154235393D01*
X192925987Y-154275420D01*
X192991963Y-154295433D01*
X193174372Y-154392933D01*
X193334254Y-154524146D01*
X193465467Y-154684028D01*
X193562967Y-154866437D01*
X193562967Y-154866438D01*
X193623007Y-155064364D01*
X193643280Y-155270200D01*
X193623007Y-155476036D01*
X193582980Y-155607987D01*
X193562967Y-155673963D01*
X193465467Y-155856372D01*
X193334254Y-156016254D01*
X193174372Y-156147467D01*
X192991963Y-156244967D01*
X192925987Y-156264980D01*
X192794036Y-156305007D01*
X192716907Y-156312604D01*
X192639780Y-156320200D01*
X192536620Y-156320200D01*
X192459493Y-156312604D01*
X192382364Y-156305007D01*
X192250413Y-156264980D01*
X192184437Y-156244967D01*
X192002028Y-156147467D01*
X191842146Y-156016254D01*
X191710933Y-155856372D01*
X191613433Y-155673963D01*
X191593420Y-155607987D01*
X191553393Y-155476036D01*
X191533120Y-155270200D01*
X191553393Y-155064364D01*
X191613433Y-154866438D01*
X191613433Y-154866437D01*
X191710933Y-154684028D01*
X191842146Y-154524146D01*
X192002028Y-154392933D01*
X192184437Y-154295433D01*
X192250413Y-154275420D01*
X192382364Y-154235393D01*
X192459493Y-154227796D01*
X192536620Y-154220200D01*
X192639780Y-154220200D01*
X192716907Y-154227796D01*
X192716907Y-154227796D01*
G37*
G36*
X211418200Y-156320200D02*
X209318200Y-156320200D01*
X209318200Y-154220200D01*
X211418200Y-154220200D01*
X211418200Y-156320200D01*
X211418200Y-156320200D01*
G37*
G36*
X213036907Y-154227796D02*
X213114036Y-154235393D01*
X213245987Y-154275420D01*
X213311963Y-154295433D01*
X213494372Y-154392933D01*
X213654254Y-154524146D01*
X213785467Y-154684028D01*
X213882967Y-154866437D01*
X213882967Y-154866438D01*
X213943007Y-155064364D01*
X213963280Y-155270200D01*
X213943007Y-155476036D01*
X213902980Y-155607987D01*
X213882967Y-155673963D01*
X213785467Y-155856372D01*
X213654254Y-156016254D01*
X213494372Y-156147467D01*
X213311963Y-156244967D01*
X213245987Y-156264980D01*
X213114036Y-156305007D01*
X213036907Y-156312604D01*
X212959780Y-156320200D01*
X212856620Y-156320200D01*
X212779493Y-156312604D01*
X212702364Y-156305007D01*
X212570413Y-156264980D01*
X212504437Y-156244967D01*
X212322028Y-156147467D01*
X212162146Y-156016254D01*
X212030933Y-155856372D01*
X211933433Y-155673963D01*
X211913420Y-155607987D01*
X211873393Y-155476036D01*
X211853120Y-155270200D01*
X211873393Y-155064364D01*
X211933433Y-154866438D01*
X211933433Y-154866437D01*
X212030933Y-154684028D01*
X212162146Y-154524146D01*
X212322028Y-154392933D01*
X212504437Y-154295433D01*
X212570413Y-154275420D01*
X212702364Y-154235393D01*
X212779493Y-154227796D01*
X212856620Y-154220200D01*
X212959780Y-154220200D01*
X213036907Y-154227796D01*
X213036907Y-154227796D01*
G37*
G36*
X215576907Y-154227796D02*
X215654036Y-154235393D01*
X215785987Y-154275420D01*
X215851963Y-154295433D01*
X216034372Y-154392933D01*
X216194254Y-154524146D01*
X216325467Y-154684028D01*
X216422967Y-154866437D01*
X216422967Y-154866438D01*
X216483007Y-155064364D01*
X216503280Y-155270200D01*
X216483007Y-155476036D01*
X216442980Y-155607987D01*
X216422967Y-155673963D01*
X216325467Y-155856372D01*
X216194254Y-156016254D01*
X216034372Y-156147467D01*
X215851963Y-156244967D01*
X215785987Y-156264980D01*
X215654036Y-156305007D01*
X215576907Y-156312604D01*
X215499780Y-156320200D01*
X215396620Y-156320200D01*
X215319493Y-156312604D01*
X215242364Y-156305007D01*
X215110413Y-156264980D01*
X215044437Y-156244967D01*
X214862028Y-156147467D01*
X214702146Y-156016254D01*
X214570933Y-155856372D01*
X214473433Y-155673963D01*
X214453420Y-155607987D01*
X214413393Y-155476036D01*
X214393120Y-155270200D01*
X214413393Y-155064364D01*
X214473433Y-154866438D01*
X214473433Y-154866437D01*
X214570933Y-154684028D01*
X214702146Y-154524146D01*
X214862028Y-154392933D01*
X215044437Y-154295433D01*
X215110413Y-154275420D01*
X215242364Y-154235393D01*
X215319493Y-154227796D01*
X215396620Y-154220200D01*
X215499780Y-154220200D01*
X215576907Y-154227796D01*
X215576907Y-154227796D01*
G37*
G36*
X218116907Y-154227796D02*
X218194036Y-154235393D01*
X218325987Y-154275420D01*
X218391963Y-154295433D01*
X218574372Y-154392933D01*
X218734254Y-154524146D01*
X218865467Y-154684028D01*
X218962967Y-154866437D01*
X218962967Y-154866438D01*
X219023007Y-155064364D01*
X219043280Y-155270200D01*
X219023007Y-155476036D01*
X218982980Y-155607987D01*
X218962967Y-155673963D01*
X218865467Y-155856372D01*
X218734254Y-156016254D01*
X218574372Y-156147467D01*
X218391963Y-156244967D01*
X218325987Y-156264980D01*
X218194036Y-156305007D01*
X218116907Y-156312604D01*
X218039780Y-156320200D01*
X217936620Y-156320200D01*
X217859493Y-156312604D01*
X217782364Y-156305007D01*
X217650413Y-156264980D01*
X217584437Y-156244967D01*
X217402028Y-156147467D01*
X217242146Y-156016254D01*
X217110933Y-155856372D01*
X217013433Y-155673963D01*
X216993420Y-155607987D01*
X216953393Y-155476036D01*
X216933120Y-155270200D01*
X216953393Y-155064364D01*
X217013433Y-154866438D01*
X217013433Y-154866437D01*
X217110933Y-154684028D01*
X217242146Y-154524146D01*
X217402028Y-154392933D01*
X217584437Y-154295433D01*
X217650413Y-154275420D01*
X217782364Y-154235393D01*
X217859493Y-154227796D01*
X217936620Y-154220200D01*
X218039780Y-154220200D01*
X218116907Y-154227796D01*
X218116907Y-154227796D01*
G37*
G36*
X220656907Y-154227796D02*
X220734036Y-154235393D01*
X220865987Y-154275420D01*
X220931963Y-154295433D01*
X221114372Y-154392933D01*
X221274254Y-154524146D01*
X221405467Y-154684028D01*
X221502967Y-154866437D01*
X221502967Y-154866438D01*
X221563007Y-155064364D01*
X221583280Y-155270200D01*
X221563007Y-155476036D01*
X221522980Y-155607987D01*
X221502967Y-155673963D01*
X221405467Y-155856372D01*
X221274254Y-156016254D01*
X221114372Y-156147467D01*
X220931963Y-156244967D01*
X220865987Y-156264980D01*
X220734036Y-156305007D01*
X220656907Y-156312604D01*
X220579780Y-156320200D01*
X220476620Y-156320200D01*
X220399493Y-156312604D01*
X220322364Y-156305007D01*
X220190413Y-156264980D01*
X220124437Y-156244967D01*
X219942028Y-156147467D01*
X219782146Y-156016254D01*
X219650933Y-155856372D01*
X219553433Y-155673963D01*
X219533420Y-155607987D01*
X219493393Y-155476036D01*
X219473120Y-155270200D01*
X219493393Y-155064364D01*
X219553433Y-154866438D01*
X219553433Y-154866437D01*
X219650933Y-154684028D01*
X219782146Y-154524146D01*
X219942028Y-154392933D01*
X220124437Y-154295433D01*
X220190413Y-154275420D01*
X220322364Y-154235393D01*
X220399493Y-154227796D01*
X220476620Y-154220200D01*
X220579780Y-154220200D01*
X220656907Y-154227796D01*
X220656907Y-154227796D01*
G37*
G36*
X223196907Y-154227796D02*
X223274036Y-154235393D01*
X223405987Y-154275420D01*
X223471963Y-154295433D01*
X223654372Y-154392933D01*
X223814254Y-154524146D01*
X223945467Y-154684028D01*
X224042967Y-154866437D01*
X224042967Y-154866438D01*
X224103007Y-155064364D01*
X224123280Y-155270200D01*
X224103007Y-155476036D01*
X224062980Y-155607987D01*
X224042967Y-155673963D01*
X223945467Y-155856372D01*
X223814254Y-156016254D01*
X223654372Y-156147467D01*
X223471963Y-156244967D01*
X223405987Y-156264980D01*
X223274036Y-156305007D01*
X223196907Y-156312604D01*
X223119780Y-156320200D01*
X223016620Y-156320200D01*
X222939493Y-156312604D01*
X222862364Y-156305007D01*
X222730413Y-156264980D01*
X222664437Y-156244967D01*
X222482028Y-156147467D01*
X222322146Y-156016254D01*
X222190933Y-155856372D01*
X222093433Y-155673963D01*
X222073420Y-155607987D01*
X222033393Y-155476036D01*
X222013120Y-155270200D01*
X222033393Y-155064364D01*
X222093433Y-154866438D01*
X222093433Y-154866437D01*
X222190933Y-154684028D01*
X222322146Y-154524146D01*
X222482028Y-154392933D01*
X222664437Y-154295433D01*
X222730413Y-154275420D01*
X222862364Y-154235393D01*
X222939493Y-154227796D01*
X223016620Y-154220200D01*
X223119780Y-154220200D01*
X223196907Y-154227796D01*
X223196907Y-154227796D01*
G37*
G36*
X225736907Y-154227796D02*
X225814036Y-154235393D01*
X225945987Y-154275420D01*
X226011963Y-154295433D01*
X226194372Y-154392933D01*
X226354254Y-154524146D01*
X226485467Y-154684028D01*
X226582967Y-154866437D01*
X226582967Y-154866438D01*
X226643007Y-155064364D01*
X226663280Y-155270200D01*
X226643007Y-155476036D01*
X226602980Y-155607987D01*
X226582967Y-155673963D01*
X226485467Y-155856372D01*
X226354254Y-156016254D01*
X226194372Y-156147467D01*
X226011963Y-156244967D01*
X225945987Y-156264980D01*
X225814036Y-156305007D01*
X225736907Y-156312604D01*
X225659780Y-156320200D01*
X225556620Y-156320200D01*
X225479493Y-156312604D01*
X225402364Y-156305007D01*
X225270413Y-156264980D01*
X225204437Y-156244967D01*
X225022028Y-156147467D01*
X224862146Y-156016254D01*
X224730933Y-155856372D01*
X224633433Y-155673963D01*
X224613420Y-155607987D01*
X224573393Y-155476036D01*
X224553120Y-155270200D01*
X224573393Y-155064364D01*
X224633433Y-154866438D01*
X224633433Y-154866437D01*
X224730933Y-154684028D01*
X224862146Y-154524146D01*
X225022028Y-154392933D01*
X225204437Y-154295433D01*
X225270413Y-154275420D01*
X225402364Y-154235393D01*
X225479493Y-154227796D01*
X225556620Y-154220200D01*
X225659780Y-154220200D01*
X225736907Y-154227796D01*
X225736907Y-154227796D01*
G37*
G36*
X228276907Y-154227796D02*
X228354036Y-154235393D01*
X228485987Y-154275420D01*
X228551963Y-154295433D01*
X228734372Y-154392933D01*
X228894254Y-154524146D01*
X229025467Y-154684028D01*
X229122967Y-154866437D01*
X229122967Y-154866438D01*
X229183007Y-155064364D01*
X229203280Y-155270200D01*
X229183007Y-155476036D01*
X229142980Y-155607987D01*
X229122967Y-155673963D01*
X229025467Y-155856372D01*
X228894254Y-156016254D01*
X228734372Y-156147467D01*
X228551963Y-156244967D01*
X228485987Y-156264980D01*
X228354036Y-156305007D01*
X228276907Y-156312604D01*
X228199780Y-156320200D01*
X228096620Y-156320200D01*
X228019493Y-156312604D01*
X227942364Y-156305007D01*
X227810413Y-156264980D01*
X227744437Y-156244967D01*
X227562028Y-156147467D01*
X227402146Y-156016254D01*
X227270933Y-155856372D01*
X227173433Y-155673963D01*
X227153420Y-155607987D01*
X227113393Y-155476036D01*
X227093120Y-155270200D01*
X227113393Y-155064364D01*
X227173433Y-154866438D01*
X227173433Y-154866437D01*
X227270933Y-154684028D01*
X227402146Y-154524146D01*
X227562028Y-154392933D01*
X227744437Y-154295433D01*
X227810413Y-154275420D01*
X227942364Y-154235393D01*
X228019493Y-154227796D01*
X228096620Y-154220200D01*
X228199780Y-154220200D01*
X228276907Y-154227796D01*
X228276907Y-154227796D01*
G37*
G36*
X205416907Y-154227796D02*
X205494036Y-154235393D01*
X205625987Y-154275420D01*
X205691963Y-154295433D01*
X205874372Y-154392933D01*
X206034254Y-154524146D01*
X206165467Y-154684028D01*
X206262967Y-154866437D01*
X206262967Y-154866438D01*
X206323007Y-155064364D01*
X206343280Y-155270200D01*
X206323007Y-155476036D01*
X206282980Y-155607987D01*
X206262967Y-155673963D01*
X206165467Y-155856372D01*
X206034254Y-156016254D01*
X205874372Y-156147467D01*
X205691963Y-156244967D01*
X205625987Y-156264980D01*
X205494036Y-156305007D01*
X205416907Y-156312604D01*
X205339780Y-156320200D01*
X205236620Y-156320200D01*
X205159493Y-156312604D01*
X205082364Y-156305007D01*
X204950413Y-156264980D01*
X204884437Y-156244967D01*
X204702028Y-156147467D01*
X204542146Y-156016254D01*
X204410933Y-155856372D01*
X204313433Y-155673963D01*
X204293420Y-155607987D01*
X204253393Y-155476036D01*
X204233120Y-155270200D01*
X204253393Y-155064364D01*
X204313433Y-154866438D01*
X204313433Y-154866437D01*
X204410933Y-154684028D01*
X204542146Y-154524146D01*
X204702028Y-154392933D01*
X204884437Y-154295433D01*
X204950413Y-154275420D01*
X205082364Y-154235393D01*
X205159493Y-154227796D01*
X205236620Y-154220200D01*
X205339780Y-154220200D01*
X205416907Y-154227796D01*
X205416907Y-154227796D01*
G37*
G36*
X202876907Y-154227796D02*
X202954036Y-154235393D01*
X203085987Y-154275420D01*
X203151963Y-154295433D01*
X203334372Y-154392933D01*
X203494254Y-154524146D01*
X203625467Y-154684028D01*
X203722967Y-154866437D01*
X203722967Y-154866438D01*
X203783007Y-155064364D01*
X203803280Y-155270200D01*
X203783007Y-155476036D01*
X203742980Y-155607987D01*
X203722967Y-155673963D01*
X203625467Y-155856372D01*
X203494254Y-156016254D01*
X203334372Y-156147467D01*
X203151963Y-156244967D01*
X203085987Y-156264980D01*
X202954036Y-156305007D01*
X202876907Y-156312604D01*
X202799780Y-156320200D01*
X202696620Y-156320200D01*
X202619493Y-156312604D01*
X202542364Y-156305007D01*
X202410413Y-156264980D01*
X202344437Y-156244967D01*
X202162028Y-156147467D01*
X202002146Y-156016254D01*
X201870933Y-155856372D01*
X201773433Y-155673963D01*
X201753420Y-155607987D01*
X201713393Y-155476036D01*
X201693120Y-155270200D01*
X201713393Y-155064364D01*
X201773433Y-154866438D01*
X201773433Y-154866437D01*
X201870933Y-154684028D01*
X202002146Y-154524146D01*
X202162028Y-154392933D01*
X202344437Y-154295433D01*
X202410413Y-154275420D01*
X202542364Y-154235393D01*
X202619493Y-154227796D01*
X202696620Y-154220200D01*
X202799780Y-154220200D01*
X202876907Y-154227796D01*
X202876907Y-154227796D01*
G37*
G36*
X200336907Y-154227796D02*
X200414036Y-154235393D01*
X200545987Y-154275420D01*
X200611963Y-154295433D01*
X200794372Y-154392933D01*
X200954254Y-154524146D01*
X201085467Y-154684028D01*
X201182967Y-154866437D01*
X201182967Y-154866438D01*
X201243007Y-155064364D01*
X201263280Y-155270200D01*
X201243007Y-155476036D01*
X201202980Y-155607987D01*
X201182967Y-155673963D01*
X201085467Y-155856372D01*
X200954254Y-156016254D01*
X200794372Y-156147467D01*
X200611963Y-156244967D01*
X200545987Y-156264980D01*
X200414036Y-156305007D01*
X200336907Y-156312604D01*
X200259780Y-156320200D01*
X200156620Y-156320200D01*
X200079493Y-156312604D01*
X200002364Y-156305007D01*
X199870413Y-156264980D01*
X199804437Y-156244967D01*
X199622028Y-156147467D01*
X199462146Y-156016254D01*
X199330933Y-155856372D01*
X199233433Y-155673963D01*
X199213420Y-155607987D01*
X199173393Y-155476036D01*
X199153120Y-155270200D01*
X199173393Y-155064364D01*
X199233433Y-154866438D01*
X199233433Y-154866437D01*
X199330933Y-154684028D01*
X199462146Y-154524146D01*
X199622028Y-154392933D01*
X199804437Y-154295433D01*
X199870413Y-154275420D01*
X200002364Y-154235393D01*
X200079493Y-154227796D01*
X200156620Y-154220200D01*
X200259780Y-154220200D01*
X200336907Y-154227796D01*
X200336907Y-154227796D01*
G37*
G36*
X197796907Y-154227796D02*
X197874036Y-154235393D01*
X198005987Y-154275420D01*
X198071963Y-154295433D01*
X198254372Y-154392933D01*
X198414254Y-154524146D01*
X198545467Y-154684028D01*
X198642967Y-154866437D01*
X198642967Y-154866438D01*
X198703007Y-155064364D01*
X198723280Y-155270200D01*
X198703007Y-155476036D01*
X198662980Y-155607987D01*
X198642967Y-155673963D01*
X198545467Y-155856372D01*
X198414254Y-156016254D01*
X198254372Y-156147467D01*
X198071963Y-156244967D01*
X198005987Y-156264980D01*
X197874036Y-156305007D01*
X197796907Y-156312604D01*
X197719780Y-156320200D01*
X197616620Y-156320200D01*
X197539493Y-156312604D01*
X197462364Y-156305007D01*
X197330413Y-156264980D01*
X197264437Y-156244967D01*
X197082028Y-156147467D01*
X196922146Y-156016254D01*
X196790933Y-155856372D01*
X196693433Y-155673963D01*
X196673420Y-155607987D01*
X196633393Y-155476036D01*
X196613120Y-155270200D01*
X196633393Y-155064364D01*
X196693433Y-154866438D01*
X196693433Y-154866437D01*
X196790933Y-154684028D01*
X196922146Y-154524146D01*
X197082028Y-154392933D01*
X197264437Y-154295433D01*
X197330413Y-154275420D01*
X197462364Y-154235393D01*
X197539493Y-154227796D01*
X197616620Y-154220200D01*
X197719780Y-154220200D01*
X197796907Y-154227796D01*
X197796907Y-154227796D01*
G37*
G36*
X195256907Y-154227796D02*
X195334036Y-154235393D01*
X195465987Y-154275420D01*
X195531963Y-154295433D01*
X195714372Y-154392933D01*
X195874254Y-154524146D01*
X196005467Y-154684028D01*
X196102967Y-154866437D01*
X196102967Y-154866438D01*
X196163007Y-155064364D01*
X196183280Y-155270200D01*
X196163007Y-155476036D01*
X196122980Y-155607987D01*
X196102967Y-155673963D01*
X196005467Y-155856372D01*
X195874254Y-156016254D01*
X195714372Y-156147467D01*
X195531963Y-156244967D01*
X195465987Y-156264980D01*
X195334036Y-156305007D01*
X195256907Y-156312604D01*
X195179780Y-156320200D01*
X195076620Y-156320200D01*
X194999493Y-156312604D01*
X194922364Y-156305007D01*
X194790413Y-156264980D01*
X194724437Y-156244967D01*
X194542028Y-156147467D01*
X194382146Y-156016254D01*
X194250933Y-155856372D01*
X194153433Y-155673963D01*
X194133420Y-155607987D01*
X194093393Y-155476036D01*
X194073120Y-155270200D01*
X194093393Y-155064364D01*
X194153433Y-154866438D01*
X194153433Y-154866437D01*
X194250933Y-154684028D01*
X194382146Y-154524146D01*
X194542028Y-154392933D01*
X194724437Y-154295433D01*
X194790413Y-154275420D01*
X194922364Y-154235393D01*
X194999493Y-154227796D01*
X195076620Y-154220200D01*
X195179780Y-154220200D01*
X195256907Y-154227796D01*
X195256907Y-154227796D01*
G37*
G36*
X188558200Y-156320200D02*
X186458200Y-156320200D01*
X186458200Y-154220200D01*
X188558200Y-154220200D01*
X188558200Y-156320200D01*
X188558200Y-156320200D01*
G37*
G36*
X190176907Y-154227796D02*
X190254036Y-154235393D01*
X190385987Y-154275420D01*
X190451963Y-154295433D01*
X190634372Y-154392933D01*
X190794254Y-154524146D01*
X190925467Y-154684028D01*
X191022967Y-154866437D01*
X191022967Y-154866438D01*
X191083007Y-155064364D01*
X191103280Y-155270200D01*
X191083007Y-155476036D01*
X191042980Y-155607987D01*
X191022967Y-155673963D01*
X190925467Y-155856372D01*
X190794254Y-156016254D01*
X190634372Y-156147467D01*
X190451963Y-156244967D01*
X190385987Y-156264980D01*
X190254036Y-156305007D01*
X190176907Y-156312604D01*
X190099780Y-156320200D01*
X189996620Y-156320200D01*
X189919493Y-156312604D01*
X189842364Y-156305007D01*
X189710413Y-156264980D01*
X189644437Y-156244967D01*
X189462028Y-156147467D01*
X189302146Y-156016254D01*
X189170933Y-155856372D01*
X189073433Y-155673963D01*
X189053420Y-155607987D01*
X189013393Y-155476036D01*
X188993120Y-155270200D01*
X189013393Y-155064364D01*
X189073433Y-154866438D01*
X189073433Y-154866437D01*
X189170933Y-154684028D01*
X189302146Y-154524146D01*
X189462028Y-154392933D01*
X189644437Y-154295433D01*
X189710413Y-154275420D01*
X189842364Y-154235393D01*
X189919493Y-154227796D01*
X189996620Y-154220200D01*
X190099780Y-154220200D01*
X190176907Y-154227796D01*
X190176907Y-154227796D01*
G37*
G36*
X239358200Y-156320200D02*
X237258200Y-156320200D01*
X237258200Y-154220200D01*
X239358200Y-154220200D01*
X239358200Y-156320200D01*
X239358200Y-156320200D01*
G37*
G36*
X161634200Y-156320200D02*
X159534200Y-156320200D01*
X159534200Y-154220200D01*
X161634200Y-154220200D01*
X161634200Y-156320200D01*
X161634200Y-156320200D01*
G37*
G36*
X163252907Y-154227796D02*
X163330036Y-154235393D01*
X163461987Y-154275420D01*
X163527963Y-154295433D01*
X163710372Y-154392933D01*
X163870254Y-154524146D01*
X164001467Y-154684028D01*
X164098967Y-154866437D01*
X164098967Y-154866438D01*
X164159007Y-155064364D01*
X164179280Y-155270200D01*
X164159007Y-155476036D01*
X164118980Y-155607987D01*
X164098967Y-155673963D01*
X164001467Y-155856372D01*
X163870254Y-156016254D01*
X163710372Y-156147467D01*
X163527963Y-156244967D01*
X163461987Y-156264980D01*
X163330036Y-156305007D01*
X163252907Y-156312604D01*
X163175780Y-156320200D01*
X163072620Y-156320200D01*
X162995493Y-156312604D01*
X162918364Y-156305007D01*
X162786413Y-156264980D01*
X162720437Y-156244967D01*
X162538028Y-156147467D01*
X162378146Y-156016254D01*
X162246933Y-155856372D01*
X162149433Y-155673963D01*
X162129420Y-155607987D01*
X162089393Y-155476036D01*
X162069120Y-155270200D01*
X162089393Y-155064364D01*
X162149433Y-154866438D01*
X162149433Y-154866437D01*
X162246933Y-154684028D01*
X162378146Y-154524146D01*
X162538028Y-154392933D01*
X162720437Y-154295433D01*
X162786413Y-154275420D01*
X162918364Y-154235393D01*
X162995493Y-154227796D01*
X163072620Y-154220200D01*
X163175780Y-154220200D01*
X163252907Y-154227796D01*
X163252907Y-154227796D01*
G37*
G36*
X165792907Y-154227796D02*
X165870036Y-154235393D01*
X166001987Y-154275420D01*
X166067963Y-154295433D01*
X166250372Y-154392933D01*
X166410254Y-154524146D01*
X166541467Y-154684028D01*
X166638967Y-154866437D01*
X166638967Y-154866438D01*
X166699007Y-155064364D01*
X166719280Y-155270200D01*
X166699007Y-155476036D01*
X166658980Y-155607987D01*
X166638967Y-155673963D01*
X166541467Y-155856372D01*
X166410254Y-156016254D01*
X166250372Y-156147467D01*
X166067963Y-156244967D01*
X166001987Y-156264980D01*
X165870036Y-156305007D01*
X165792907Y-156312604D01*
X165715780Y-156320200D01*
X165612620Y-156320200D01*
X165535493Y-156312604D01*
X165458364Y-156305007D01*
X165326413Y-156264980D01*
X165260437Y-156244967D01*
X165078028Y-156147467D01*
X164918146Y-156016254D01*
X164786933Y-155856372D01*
X164689433Y-155673963D01*
X164669420Y-155607987D01*
X164629393Y-155476036D01*
X164609120Y-155270200D01*
X164629393Y-155064364D01*
X164689433Y-154866438D01*
X164689433Y-154866437D01*
X164786933Y-154684028D01*
X164918146Y-154524146D01*
X165078028Y-154392933D01*
X165260437Y-154295433D01*
X165326413Y-154275420D01*
X165458364Y-154235393D01*
X165535493Y-154227796D01*
X165612620Y-154220200D01*
X165715780Y-154220200D01*
X165792907Y-154227796D01*
X165792907Y-154227796D01*
G37*
G36*
X168332907Y-154227796D02*
X168410036Y-154235393D01*
X168541987Y-154275420D01*
X168607963Y-154295433D01*
X168790372Y-154392933D01*
X168950254Y-154524146D01*
X169081467Y-154684028D01*
X169178967Y-154866437D01*
X169178967Y-154866438D01*
X169239007Y-155064364D01*
X169259280Y-155270200D01*
X169239007Y-155476036D01*
X169198980Y-155607987D01*
X169178967Y-155673963D01*
X169081467Y-155856372D01*
X168950254Y-156016254D01*
X168790372Y-156147467D01*
X168607963Y-156244967D01*
X168541987Y-156264980D01*
X168410036Y-156305007D01*
X168332907Y-156312604D01*
X168255780Y-156320200D01*
X168152620Y-156320200D01*
X168075493Y-156312604D01*
X167998364Y-156305007D01*
X167866413Y-156264980D01*
X167800437Y-156244967D01*
X167618028Y-156147467D01*
X167458146Y-156016254D01*
X167326933Y-155856372D01*
X167229433Y-155673963D01*
X167209420Y-155607987D01*
X167169393Y-155476036D01*
X167149120Y-155270200D01*
X167169393Y-155064364D01*
X167229433Y-154866438D01*
X167229433Y-154866437D01*
X167326933Y-154684028D01*
X167458146Y-154524146D01*
X167618028Y-154392933D01*
X167800437Y-154295433D01*
X167866413Y-154275420D01*
X167998364Y-154235393D01*
X168075493Y-154227796D01*
X168152620Y-154220200D01*
X168255780Y-154220200D01*
X168332907Y-154227796D01*
X168332907Y-154227796D01*
G37*
G36*
X173412907Y-154227796D02*
X173490036Y-154235393D01*
X173621987Y-154275420D01*
X173687963Y-154295433D01*
X173870372Y-154392933D01*
X174030254Y-154524146D01*
X174161467Y-154684028D01*
X174258967Y-154866437D01*
X174258967Y-154866438D01*
X174319007Y-155064364D01*
X174339280Y-155270200D01*
X174319007Y-155476036D01*
X174278980Y-155607987D01*
X174258967Y-155673963D01*
X174161467Y-155856372D01*
X174030254Y-156016254D01*
X173870372Y-156147467D01*
X173687963Y-156244967D01*
X173621987Y-156264980D01*
X173490036Y-156305007D01*
X173412907Y-156312604D01*
X173335780Y-156320200D01*
X173232620Y-156320200D01*
X173155493Y-156312604D01*
X173078364Y-156305007D01*
X172946413Y-156264980D01*
X172880437Y-156244967D01*
X172698028Y-156147467D01*
X172538146Y-156016254D01*
X172406933Y-155856372D01*
X172309433Y-155673963D01*
X172289420Y-155607987D01*
X172249393Y-155476036D01*
X172229120Y-155270200D01*
X172249393Y-155064364D01*
X172309433Y-154866438D01*
X172309433Y-154866437D01*
X172406933Y-154684028D01*
X172538146Y-154524146D01*
X172698028Y-154392933D01*
X172880437Y-154295433D01*
X172946413Y-154275420D01*
X173078364Y-154235393D01*
X173155493Y-154227796D01*
X173232620Y-154220200D01*
X173335780Y-154220200D01*
X173412907Y-154227796D01*
X173412907Y-154227796D01*
G37*
G36*
X175952907Y-154227796D02*
X176030036Y-154235393D01*
X176161987Y-154275420D01*
X176227963Y-154295433D01*
X176410372Y-154392933D01*
X176570254Y-154524146D01*
X176701467Y-154684028D01*
X176798967Y-154866437D01*
X176798967Y-154866438D01*
X176859007Y-155064364D01*
X176879280Y-155270200D01*
X176859007Y-155476036D01*
X176818980Y-155607987D01*
X176798967Y-155673963D01*
X176701467Y-155856372D01*
X176570254Y-156016254D01*
X176410372Y-156147467D01*
X176227963Y-156244967D01*
X176161987Y-156264980D01*
X176030036Y-156305007D01*
X175952907Y-156312604D01*
X175875780Y-156320200D01*
X175772620Y-156320200D01*
X175695493Y-156312604D01*
X175618364Y-156305007D01*
X175486413Y-156264980D01*
X175420437Y-156244967D01*
X175238028Y-156147467D01*
X175078146Y-156016254D01*
X174946933Y-155856372D01*
X174849433Y-155673963D01*
X174829420Y-155607987D01*
X174789393Y-155476036D01*
X174769120Y-155270200D01*
X174789393Y-155064364D01*
X174849433Y-154866438D01*
X174849433Y-154866437D01*
X174946933Y-154684028D01*
X175078146Y-154524146D01*
X175238028Y-154392933D01*
X175420437Y-154295433D01*
X175486413Y-154275420D01*
X175618364Y-154235393D01*
X175695493Y-154227796D01*
X175772620Y-154220200D01*
X175875780Y-154220200D01*
X175952907Y-154227796D01*
X175952907Y-154227796D01*
G37*
G36*
X178492907Y-154227796D02*
X178570036Y-154235393D01*
X178701987Y-154275420D01*
X178767963Y-154295433D01*
X178950372Y-154392933D01*
X179110254Y-154524146D01*
X179241467Y-154684028D01*
X179338967Y-154866437D01*
X179338967Y-154866438D01*
X179399007Y-155064364D01*
X179419280Y-155270200D01*
X179399007Y-155476036D01*
X179358980Y-155607987D01*
X179338967Y-155673963D01*
X179241467Y-155856372D01*
X179110254Y-156016254D01*
X178950372Y-156147467D01*
X178767963Y-156244967D01*
X178701987Y-156264980D01*
X178570036Y-156305007D01*
X178492907Y-156312604D01*
X178415780Y-156320200D01*
X178312620Y-156320200D01*
X178235493Y-156312604D01*
X178158364Y-156305007D01*
X178026413Y-156264980D01*
X177960437Y-156244967D01*
X177778028Y-156147467D01*
X177618146Y-156016254D01*
X177486933Y-155856372D01*
X177389433Y-155673963D01*
X177369420Y-155607987D01*
X177329393Y-155476036D01*
X177309120Y-155270200D01*
X177329393Y-155064364D01*
X177389433Y-154866438D01*
X177389433Y-154866437D01*
X177486933Y-154684028D01*
X177618146Y-154524146D01*
X177778028Y-154392933D01*
X177960437Y-154295433D01*
X178026413Y-154275420D01*
X178158364Y-154235393D01*
X178235493Y-154227796D01*
X178312620Y-154220200D01*
X178415780Y-154220200D01*
X178492907Y-154227796D01*
X178492907Y-154227796D01*
G37*
G36*
X181032907Y-154227796D02*
X181110036Y-154235393D01*
X181241987Y-154275420D01*
X181307963Y-154295433D01*
X181490372Y-154392933D01*
X181650254Y-154524146D01*
X181781467Y-154684028D01*
X181878967Y-154866437D01*
X181878967Y-154866438D01*
X181939007Y-155064364D01*
X181959280Y-155270200D01*
X181939007Y-155476036D01*
X181898980Y-155607987D01*
X181878967Y-155673963D01*
X181781467Y-155856372D01*
X181650254Y-156016254D01*
X181490372Y-156147467D01*
X181307963Y-156244967D01*
X181241987Y-156264980D01*
X181110036Y-156305007D01*
X181032907Y-156312604D01*
X180955780Y-156320200D01*
X180852620Y-156320200D01*
X180775493Y-156312604D01*
X180698364Y-156305007D01*
X180566413Y-156264980D01*
X180500437Y-156244967D01*
X180318028Y-156147467D01*
X180158146Y-156016254D01*
X180026933Y-155856372D01*
X179929433Y-155673963D01*
X179909420Y-155607987D01*
X179869393Y-155476036D01*
X179849120Y-155270200D01*
X179869393Y-155064364D01*
X179929433Y-154866438D01*
X179929433Y-154866437D01*
X180026933Y-154684028D01*
X180158146Y-154524146D01*
X180318028Y-154392933D01*
X180500437Y-154295433D01*
X180566413Y-154275420D01*
X180698364Y-154235393D01*
X180775493Y-154227796D01*
X180852620Y-154220200D01*
X180955780Y-154220200D01*
X181032907Y-154227796D01*
X181032907Y-154227796D01*
G37*
G36*
X183572907Y-154227796D02*
X183650036Y-154235393D01*
X183781987Y-154275420D01*
X183847963Y-154295433D01*
X184030372Y-154392933D01*
X184190254Y-154524146D01*
X184321467Y-154684028D01*
X184418967Y-154866437D01*
X184418967Y-154866438D01*
X184479007Y-155064364D01*
X184499280Y-155270200D01*
X184479007Y-155476036D01*
X184438980Y-155607987D01*
X184418967Y-155673963D01*
X184321467Y-155856372D01*
X184190254Y-156016254D01*
X184030372Y-156147467D01*
X183847963Y-156244967D01*
X183781987Y-156264980D01*
X183650036Y-156305007D01*
X183572907Y-156312604D01*
X183495780Y-156320200D01*
X183392620Y-156320200D01*
X183315493Y-156312604D01*
X183238364Y-156305007D01*
X183106413Y-156264980D01*
X183040437Y-156244967D01*
X182858028Y-156147467D01*
X182698146Y-156016254D01*
X182566933Y-155856372D01*
X182469433Y-155673963D01*
X182449420Y-155607987D01*
X182409393Y-155476036D01*
X182389120Y-155270200D01*
X182409393Y-155064364D01*
X182469433Y-154866438D01*
X182469433Y-154866437D01*
X182566933Y-154684028D01*
X182698146Y-154524146D01*
X182858028Y-154392933D01*
X183040437Y-154295433D01*
X183106413Y-154275420D01*
X183238364Y-154235393D01*
X183315493Y-154227796D01*
X183392620Y-154220200D01*
X183495780Y-154220200D01*
X183572907Y-154227796D01*
X183572907Y-154227796D01*
G37*
G36*
X170872907Y-154227796D02*
X170950036Y-154235393D01*
X171081987Y-154275420D01*
X171147963Y-154295433D01*
X171330372Y-154392933D01*
X171490254Y-154524146D01*
X171621467Y-154684028D01*
X171718967Y-154866437D01*
X171718967Y-154866438D01*
X171779007Y-155064364D01*
X171799280Y-155270200D01*
X171779007Y-155476036D01*
X171738980Y-155607987D01*
X171718967Y-155673963D01*
X171621467Y-155856372D01*
X171490254Y-156016254D01*
X171330372Y-156147467D01*
X171147963Y-156244967D01*
X171081987Y-156264980D01*
X170950036Y-156305007D01*
X170872907Y-156312604D01*
X170795780Y-156320200D01*
X170692620Y-156320200D01*
X170615493Y-156312604D01*
X170538364Y-156305007D01*
X170406413Y-156264980D01*
X170340437Y-156244967D01*
X170158028Y-156147467D01*
X169998146Y-156016254D01*
X169866933Y-155856372D01*
X169769433Y-155673963D01*
X169749420Y-155607987D01*
X169709393Y-155476036D01*
X169689120Y-155270200D01*
X169709393Y-155064364D01*
X169769433Y-154866438D01*
X169769433Y-154866437D01*
X169866933Y-154684028D01*
X169998146Y-154524146D01*
X170158028Y-154392933D01*
X170340437Y-154295433D01*
X170406413Y-154275420D01*
X170538364Y-154235393D01*
X170615493Y-154227796D01*
X170692620Y-154220200D01*
X170795780Y-154220200D01*
X170872907Y-154227796D01*
X170872907Y-154227796D01*
G37*
G36*
X104681870Y-150076859D02*
X104875068Y-150115288D01*
X105421033Y-150341434D01*
X105798967Y-150593962D01*
X105912392Y-150669750D01*
X106330250Y-151087608D01*
X106330252Y-151087611D01*
X106658566Y-151578967D01*
X106884712Y-152124932D01*
X106923141Y-152318130D01*
X107000000Y-152704524D01*
X107000000Y-153295476D01*
X106964041Y-153476254D01*
X106884712Y-153875068D01*
X106658566Y-154421033D01*
X106332465Y-154909077D01*
X106330250Y-154912392D01*
X105912392Y-155330250D01*
X105912389Y-155330252D01*
X105421033Y-155658566D01*
X104875068Y-155884712D01*
X104681870Y-155923141D01*
X104295476Y-156000000D01*
X103704524Y-156000000D01*
X103318130Y-155923141D01*
X103124932Y-155884712D01*
X102578967Y-155658566D01*
X102087611Y-155330252D01*
X102087608Y-155330250D01*
X101669750Y-154912392D01*
X101667535Y-154909077D01*
X101341434Y-154421033D01*
X101115288Y-153875068D01*
X101035959Y-153476254D01*
X101000000Y-153295476D01*
X101000000Y-152704524D01*
X101076859Y-152318130D01*
X101115288Y-152124932D01*
X101341434Y-151578967D01*
X101669748Y-151087611D01*
X101669750Y-151087608D01*
X102087608Y-150669750D01*
X102201033Y-150593962D01*
X102578967Y-150341434D01*
X103124932Y-150115288D01*
X103318130Y-150076859D01*
X103704524Y-150000000D01*
X104295476Y-150000000D01*
X104681870Y-150076859D01*
X104681870Y-150076859D01*
G37*
G36*
X235896907Y-151687797D02*
X235974036Y-151695393D01*
X236105987Y-151735420D01*
X236171963Y-151755433D01*
X236354372Y-151852933D01*
X236514254Y-151984146D01*
X236645467Y-152144028D01*
X236742967Y-152326437D01*
X236742967Y-152326438D01*
X236803007Y-152524364D01*
X236823280Y-152730200D01*
X236803007Y-152936036D01*
X236762980Y-153067987D01*
X236742967Y-153133963D01*
X236645467Y-153316372D01*
X236514254Y-153476254D01*
X236354372Y-153607467D01*
X236171963Y-153704967D01*
X236105987Y-153724980D01*
X235974036Y-153765007D01*
X235896907Y-153772604D01*
X235819780Y-153780200D01*
X235716620Y-153780200D01*
X235639493Y-153772604D01*
X235562364Y-153765007D01*
X235430413Y-153724980D01*
X235364437Y-153704967D01*
X235182028Y-153607467D01*
X235022146Y-153476254D01*
X234890933Y-153316372D01*
X234793433Y-153133963D01*
X234773420Y-153067987D01*
X234733393Y-152936036D01*
X234713120Y-152730200D01*
X234733393Y-152524364D01*
X234793433Y-152326438D01*
X234793433Y-152326437D01*
X234890933Y-152144028D01*
X235022146Y-151984146D01*
X235182028Y-151852933D01*
X235364437Y-151755433D01*
X235430413Y-151735420D01*
X235562364Y-151695393D01*
X235639493Y-151687797D01*
X235716620Y-151680200D01*
X235819780Y-151680200D01*
X235896907Y-151687797D01*
X235896907Y-151687797D01*
G37*
G36*
X238436907Y-151687797D02*
X238514036Y-151695393D01*
X238645987Y-151735420D01*
X238711963Y-151755433D01*
X238894372Y-151852933D01*
X239054254Y-151984146D01*
X239185467Y-152144028D01*
X239282967Y-152326437D01*
X239282967Y-152326438D01*
X239343007Y-152524364D01*
X239363280Y-152730200D01*
X239343007Y-152936036D01*
X239302980Y-153067987D01*
X239282967Y-153133963D01*
X239185467Y-153316372D01*
X239054254Y-153476254D01*
X238894372Y-153607467D01*
X238711963Y-153704967D01*
X238645987Y-153724980D01*
X238514036Y-153765007D01*
X238436907Y-153772604D01*
X238359780Y-153780200D01*
X238256620Y-153780200D01*
X238179493Y-153772604D01*
X238102364Y-153765007D01*
X237970413Y-153724980D01*
X237904437Y-153704967D01*
X237722028Y-153607467D01*
X237562146Y-153476254D01*
X237430933Y-153316372D01*
X237333433Y-153133963D01*
X237313420Y-153067987D01*
X237273393Y-152936036D01*
X237253120Y-152730200D01*
X237273393Y-152524364D01*
X237333433Y-152326438D01*
X237333433Y-152326437D01*
X237430933Y-152144028D01*
X237562146Y-151984146D01*
X237722028Y-151852933D01*
X237904437Y-151755433D01*
X237970413Y-151735420D01*
X238102364Y-151695393D01*
X238179493Y-151687797D01*
X238256620Y-151680200D01*
X238359780Y-151680200D01*
X238436907Y-151687797D01*
X238436907Y-151687797D01*
G37*
G36*
X238436907Y-149147797D02*
X238514036Y-149155393D01*
X238645987Y-149195420D01*
X238711963Y-149215433D01*
X238894372Y-149312933D01*
X239054254Y-149444146D01*
X239185467Y-149604028D01*
X239282967Y-149786437D01*
X239282967Y-149786438D01*
X239343007Y-149984364D01*
X239363280Y-150190200D01*
X239343007Y-150396036D01*
X239302980Y-150527987D01*
X239282967Y-150593963D01*
X239185467Y-150776372D01*
X239054254Y-150936254D01*
X238894372Y-151067467D01*
X238711963Y-151164967D01*
X238645987Y-151184980D01*
X238514036Y-151225007D01*
X238436907Y-151232603D01*
X238359780Y-151240200D01*
X238256620Y-151240200D01*
X238179493Y-151232603D01*
X238102364Y-151225007D01*
X237970413Y-151184980D01*
X237904437Y-151164967D01*
X237722028Y-151067467D01*
X237562146Y-150936254D01*
X237430933Y-150776372D01*
X237333433Y-150593963D01*
X237313420Y-150527987D01*
X237273393Y-150396036D01*
X237253120Y-150190200D01*
X237273393Y-149984364D01*
X237333433Y-149786438D01*
X237333433Y-149786437D01*
X237430933Y-149604028D01*
X237562146Y-149444146D01*
X237722028Y-149312933D01*
X237904437Y-149215433D01*
X237970413Y-149195420D01*
X238102364Y-149155393D01*
X238179493Y-149147797D01*
X238256620Y-149140200D01*
X238359780Y-149140200D01*
X238436907Y-149147797D01*
X238436907Y-149147797D01*
G37*
G36*
X235896907Y-149147797D02*
X235974036Y-149155393D01*
X236105987Y-149195420D01*
X236171963Y-149215433D01*
X236354372Y-149312933D01*
X236514254Y-149444146D01*
X236645467Y-149604028D01*
X236742967Y-149786437D01*
X236742967Y-149786438D01*
X236803007Y-149984364D01*
X236823280Y-150190200D01*
X236803007Y-150396036D01*
X236762980Y-150527987D01*
X236742967Y-150593963D01*
X236645467Y-150776372D01*
X236514254Y-150936254D01*
X236354372Y-151067467D01*
X236171963Y-151164967D01*
X236105987Y-151184980D01*
X235974036Y-151225007D01*
X235896907Y-151232603D01*
X235819780Y-151240200D01*
X235716620Y-151240200D01*
X235639493Y-151232603D01*
X235562364Y-151225007D01*
X235430413Y-151184980D01*
X235364437Y-151164967D01*
X235182028Y-151067467D01*
X235022146Y-150936254D01*
X234890933Y-150776372D01*
X234793433Y-150593963D01*
X234773420Y-150527987D01*
X234733393Y-150396036D01*
X234713120Y-150190200D01*
X234733393Y-149984364D01*
X234793433Y-149786438D01*
X234793433Y-149786437D01*
X234890933Y-149604028D01*
X235022146Y-149444146D01*
X235182028Y-149312933D01*
X235364437Y-149215433D01*
X235430413Y-149195420D01*
X235562364Y-149155393D01*
X235639493Y-149147797D01*
X235716620Y-149140200D01*
X235819780Y-149140200D01*
X235896907Y-149147797D01*
X235896907Y-149147797D01*
G37*
G36*
X235896907Y-146607797D02*
X235974036Y-146615393D01*
X236105987Y-146655420D01*
X236171963Y-146675433D01*
X236354372Y-146772933D01*
X236514254Y-146904146D01*
X236645467Y-147064028D01*
X236742967Y-147246437D01*
X236742967Y-147246438D01*
X236803007Y-147444364D01*
X236823280Y-147650200D01*
X236803007Y-147856036D01*
X236762980Y-147987987D01*
X236742967Y-148053963D01*
X236645467Y-148236372D01*
X236514254Y-148396254D01*
X236354372Y-148527467D01*
X236171963Y-148624967D01*
X236105987Y-148644980D01*
X235974036Y-148685007D01*
X235896907Y-148692603D01*
X235819780Y-148700200D01*
X235716620Y-148700200D01*
X235639493Y-148692603D01*
X235562364Y-148685007D01*
X235430413Y-148644980D01*
X235364437Y-148624967D01*
X235182028Y-148527467D01*
X235022146Y-148396254D01*
X234890933Y-148236372D01*
X234793433Y-148053963D01*
X234773420Y-147987987D01*
X234733393Y-147856036D01*
X234713120Y-147650200D01*
X234733393Y-147444364D01*
X234793433Y-147246438D01*
X234793433Y-147246437D01*
X234890933Y-147064028D01*
X235022146Y-146904146D01*
X235182028Y-146772933D01*
X235364437Y-146675433D01*
X235430413Y-146655420D01*
X235562364Y-146615393D01*
X235639493Y-146607797D01*
X235716620Y-146600200D01*
X235819780Y-146600200D01*
X235896907Y-146607797D01*
X235896907Y-146607797D01*
G37*
G36*
X238436907Y-146607797D02*
X238514036Y-146615393D01*
X238645987Y-146655420D01*
X238711963Y-146675433D01*
X238894372Y-146772933D01*
X239054254Y-146904146D01*
X239185467Y-147064028D01*
X239282967Y-147246437D01*
X239282967Y-147246438D01*
X239343007Y-147444364D01*
X239363280Y-147650200D01*
X239343007Y-147856036D01*
X239302980Y-147987987D01*
X239282967Y-148053963D01*
X239185467Y-148236372D01*
X239054254Y-148396254D01*
X238894372Y-148527467D01*
X238711963Y-148624967D01*
X238645987Y-148644980D01*
X238514036Y-148685007D01*
X238436907Y-148692603D01*
X238359780Y-148700200D01*
X238256620Y-148700200D01*
X238179493Y-148692603D01*
X238102364Y-148685007D01*
X237970413Y-148644980D01*
X237904437Y-148624967D01*
X237722028Y-148527467D01*
X237562146Y-148396254D01*
X237430933Y-148236372D01*
X237333433Y-148053963D01*
X237313420Y-147987987D01*
X237273393Y-147856036D01*
X237253120Y-147650200D01*
X237273393Y-147444364D01*
X237333433Y-147246438D01*
X237333433Y-147246437D01*
X237430933Y-147064028D01*
X237562146Y-146904146D01*
X237722028Y-146772933D01*
X237904437Y-146675433D01*
X237970413Y-146655420D01*
X238102364Y-146615393D01*
X238179493Y-146607797D01*
X238256620Y-146600200D01*
X238359780Y-146600200D01*
X238436907Y-146607797D01*
X238436907Y-146607797D01*
G37*
G36*
X238436907Y-144067796D02*
X238514036Y-144075393D01*
X238645987Y-144115420D01*
X238711963Y-144135433D01*
X238894372Y-144232933D01*
X239054254Y-144364146D01*
X239185467Y-144524028D01*
X239282967Y-144706437D01*
X239282967Y-144706438D01*
X239343007Y-144904364D01*
X239363280Y-145110200D01*
X239343007Y-145316036D01*
X239302980Y-145447987D01*
X239282967Y-145513963D01*
X239185467Y-145696372D01*
X239054254Y-145856254D01*
X238894372Y-145987467D01*
X238711963Y-146084967D01*
X238645987Y-146104980D01*
X238514036Y-146145007D01*
X238436907Y-146152603D01*
X238359780Y-146160200D01*
X238256620Y-146160200D01*
X238179493Y-146152603D01*
X238102364Y-146145007D01*
X237970413Y-146104980D01*
X237904437Y-146084967D01*
X237722028Y-145987467D01*
X237562146Y-145856254D01*
X237430933Y-145696372D01*
X237333433Y-145513963D01*
X237313420Y-145447987D01*
X237273393Y-145316036D01*
X237253120Y-145110200D01*
X237273393Y-144904364D01*
X237333433Y-144706438D01*
X237333433Y-144706437D01*
X237430933Y-144524028D01*
X237562146Y-144364146D01*
X237722028Y-144232933D01*
X237904437Y-144135433D01*
X237970413Y-144115420D01*
X238102364Y-144075393D01*
X238179493Y-144067796D01*
X238256620Y-144060200D01*
X238359780Y-144060200D01*
X238436907Y-144067796D01*
X238436907Y-144067796D01*
G37*
G36*
X235896907Y-144067796D02*
X235974036Y-144075393D01*
X236105987Y-144115420D01*
X236171963Y-144135433D01*
X236354372Y-144232933D01*
X236514254Y-144364146D01*
X236645467Y-144524028D01*
X236742967Y-144706437D01*
X236742967Y-144706438D01*
X236803007Y-144904364D01*
X236823280Y-145110200D01*
X236803007Y-145316036D01*
X236762980Y-145447987D01*
X236742967Y-145513963D01*
X236645467Y-145696372D01*
X236514254Y-145856254D01*
X236354372Y-145987467D01*
X236171963Y-146084967D01*
X236105987Y-146104980D01*
X235974036Y-146145007D01*
X235896907Y-146152603D01*
X235819780Y-146160200D01*
X235716620Y-146160200D01*
X235639493Y-146152603D01*
X235562364Y-146145007D01*
X235430413Y-146104980D01*
X235364437Y-146084967D01*
X235182028Y-145987467D01*
X235022146Y-145856254D01*
X234890933Y-145696372D01*
X234793433Y-145513963D01*
X234773420Y-145447987D01*
X234733393Y-145316036D01*
X234713120Y-145110200D01*
X234733393Y-144904364D01*
X234793433Y-144706438D01*
X234793433Y-144706437D01*
X234890933Y-144524028D01*
X235022146Y-144364146D01*
X235182028Y-144232933D01*
X235364437Y-144135433D01*
X235430413Y-144115420D01*
X235562364Y-144075393D01*
X235639493Y-144067796D01*
X235716620Y-144060200D01*
X235819780Y-144060200D01*
X235896907Y-144067796D01*
X235896907Y-144067796D01*
G37*
G36*
X235896907Y-141527797D02*
X235974036Y-141535393D01*
X236105987Y-141575420D01*
X236171963Y-141595433D01*
X236354372Y-141692933D01*
X236514254Y-141824146D01*
X236645467Y-141984028D01*
X236742967Y-142166437D01*
X236742967Y-142166438D01*
X236803007Y-142364364D01*
X236823280Y-142570200D01*
X236803007Y-142776036D01*
X236762980Y-142907987D01*
X236742967Y-142973963D01*
X236645467Y-143156372D01*
X236514254Y-143316254D01*
X236354372Y-143447467D01*
X236171963Y-143544967D01*
X236105987Y-143564980D01*
X235974036Y-143605007D01*
X235896907Y-143612604D01*
X235819780Y-143620200D01*
X235716620Y-143620200D01*
X235639493Y-143612604D01*
X235562364Y-143605007D01*
X235430413Y-143564980D01*
X235364437Y-143544967D01*
X235182028Y-143447467D01*
X235022146Y-143316254D01*
X234890933Y-143156372D01*
X234793433Y-142973963D01*
X234773420Y-142907987D01*
X234733393Y-142776036D01*
X234713120Y-142570200D01*
X234733393Y-142364364D01*
X234793433Y-142166438D01*
X234793433Y-142166437D01*
X234890933Y-141984028D01*
X235022146Y-141824146D01*
X235182028Y-141692933D01*
X235364437Y-141595433D01*
X235430413Y-141575420D01*
X235562364Y-141535393D01*
X235639493Y-141527797D01*
X235716620Y-141520200D01*
X235819780Y-141520200D01*
X235896907Y-141527797D01*
X235896907Y-141527797D01*
G37*
G36*
X238436907Y-141527797D02*
X238514036Y-141535393D01*
X238645987Y-141575420D01*
X238711963Y-141595433D01*
X238894372Y-141692933D01*
X239054254Y-141824146D01*
X239185467Y-141984028D01*
X239282967Y-142166437D01*
X239282967Y-142166438D01*
X239343007Y-142364364D01*
X239363280Y-142570200D01*
X239343007Y-142776036D01*
X239302980Y-142907987D01*
X239282967Y-142973963D01*
X239185467Y-143156372D01*
X239054254Y-143316254D01*
X238894372Y-143447467D01*
X238711963Y-143544967D01*
X238645987Y-143564980D01*
X238514036Y-143605007D01*
X238436907Y-143612604D01*
X238359780Y-143620200D01*
X238256620Y-143620200D01*
X238179493Y-143612604D01*
X238102364Y-143605007D01*
X237970413Y-143564980D01*
X237904437Y-143544967D01*
X237722028Y-143447467D01*
X237562146Y-143316254D01*
X237430933Y-143156372D01*
X237333433Y-142973963D01*
X237313420Y-142907987D01*
X237273393Y-142776036D01*
X237253120Y-142570200D01*
X237273393Y-142364364D01*
X237333433Y-142166438D01*
X237333433Y-142166437D01*
X237430933Y-141984028D01*
X237562146Y-141824146D01*
X237722028Y-141692933D01*
X237904437Y-141595433D01*
X237970413Y-141575420D01*
X238102364Y-141535393D01*
X238179493Y-141527797D01*
X238256620Y-141520200D01*
X238359780Y-141520200D01*
X238436907Y-141527797D01*
X238436907Y-141527797D01*
G37*
G36*
X238436907Y-138987797D02*
X238514036Y-138995393D01*
X238645987Y-139035420D01*
X238711963Y-139055433D01*
X238894372Y-139152933D01*
X239054254Y-139284146D01*
X239185467Y-139444028D01*
X239282967Y-139626437D01*
X239282967Y-139626438D01*
X239343007Y-139824364D01*
X239363280Y-140030200D01*
X239343007Y-140236036D01*
X239302980Y-140367987D01*
X239282967Y-140433963D01*
X239185467Y-140616372D01*
X239054254Y-140776254D01*
X238894372Y-140907467D01*
X238711963Y-141004967D01*
X238645987Y-141024980D01*
X238514036Y-141065007D01*
X238436907Y-141072603D01*
X238359780Y-141080200D01*
X238256620Y-141080200D01*
X238179493Y-141072603D01*
X238102364Y-141065007D01*
X237970413Y-141024980D01*
X237904437Y-141004967D01*
X237722028Y-140907467D01*
X237562146Y-140776254D01*
X237430933Y-140616372D01*
X237333433Y-140433963D01*
X237313420Y-140367987D01*
X237273393Y-140236036D01*
X237253120Y-140030200D01*
X237273393Y-139824364D01*
X237333433Y-139626438D01*
X237333433Y-139626437D01*
X237430933Y-139444028D01*
X237562146Y-139284146D01*
X237722028Y-139152933D01*
X237904437Y-139055433D01*
X237970413Y-139035420D01*
X238102364Y-138995393D01*
X238179493Y-138987797D01*
X238256620Y-138980200D01*
X238359780Y-138980200D01*
X238436907Y-138987797D01*
X238436907Y-138987797D01*
G37*
G36*
X235896907Y-138987797D02*
X235974036Y-138995393D01*
X236105987Y-139035420D01*
X236171963Y-139055433D01*
X236354372Y-139152933D01*
X236514254Y-139284146D01*
X236645467Y-139444028D01*
X236742967Y-139626437D01*
X236742967Y-139626438D01*
X236803007Y-139824364D01*
X236823280Y-140030200D01*
X236803007Y-140236036D01*
X236762980Y-140367987D01*
X236742967Y-140433963D01*
X236645467Y-140616372D01*
X236514254Y-140776254D01*
X236354372Y-140907467D01*
X236171963Y-141004967D01*
X236105987Y-141024980D01*
X235974036Y-141065007D01*
X235896907Y-141072603D01*
X235819780Y-141080200D01*
X235716620Y-141080200D01*
X235639493Y-141072603D01*
X235562364Y-141065007D01*
X235430413Y-141024980D01*
X235364437Y-141004967D01*
X235182028Y-140907467D01*
X235022146Y-140776254D01*
X234890933Y-140616372D01*
X234793433Y-140433963D01*
X234773420Y-140367987D01*
X234733393Y-140236036D01*
X234713120Y-140030200D01*
X234733393Y-139824364D01*
X234793433Y-139626438D01*
X234793433Y-139626437D01*
X234890933Y-139444028D01*
X235022146Y-139284146D01*
X235182028Y-139152933D01*
X235364437Y-139055433D01*
X235430413Y-139035420D01*
X235562364Y-138995393D01*
X235639493Y-138987797D01*
X235716620Y-138980200D01*
X235819780Y-138980200D01*
X235896907Y-138987797D01*
X235896907Y-138987797D01*
G37*
G36*
X238436907Y-136447797D02*
X238514036Y-136455393D01*
X238645987Y-136495420D01*
X238711963Y-136515433D01*
X238894372Y-136612933D01*
X239054254Y-136744146D01*
X239185467Y-136904028D01*
X239282967Y-137086437D01*
X239282967Y-137086438D01*
X239343007Y-137284364D01*
X239363280Y-137490200D01*
X239343007Y-137696036D01*
X239302980Y-137827987D01*
X239282967Y-137893963D01*
X239185467Y-138076372D01*
X239054254Y-138236254D01*
X238894372Y-138367467D01*
X238711963Y-138464967D01*
X238645987Y-138484980D01*
X238514036Y-138525007D01*
X238436907Y-138532603D01*
X238359780Y-138540200D01*
X238256620Y-138540200D01*
X238179493Y-138532603D01*
X238102364Y-138525007D01*
X237970413Y-138484980D01*
X237904437Y-138464967D01*
X237722028Y-138367467D01*
X237562146Y-138236254D01*
X237430933Y-138076372D01*
X237333433Y-137893963D01*
X237313420Y-137827987D01*
X237273393Y-137696036D01*
X237253120Y-137490200D01*
X237273393Y-137284364D01*
X237333433Y-137086438D01*
X237333433Y-137086437D01*
X237430933Y-136904028D01*
X237562146Y-136744146D01*
X237722028Y-136612933D01*
X237904437Y-136515433D01*
X237970413Y-136495420D01*
X238102364Y-136455393D01*
X238179493Y-136447797D01*
X238256620Y-136440200D01*
X238359780Y-136440200D01*
X238436907Y-136447797D01*
X238436907Y-136447797D01*
G37*
G36*
X235896907Y-136447797D02*
X235974036Y-136455393D01*
X236105987Y-136495420D01*
X236171963Y-136515433D01*
X236354372Y-136612933D01*
X236514254Y-136744146D01*
X236645467Y-136904028D01*
X236742967Y-137086437D01*
X236742967Y-137086438D01*
X236803007Y-137284364D01*
X236823280Y-137490200D01*
X236803007Y-137696036D01*
X236762980Y-137827987D01*
X236742967Y-137893963D01*
X236645467Y-138076372D01*
X236514254Y-138236254D01*
X236354372Y-138367467D01*
X236171963Y-138464967D01*
X236105987Y-138484980D01*
X235974036Y-138525007D01*
X235896907Y-138532603D01*
X235819780Y-138540200D01*
X235716620Y-138540200D01*
X235639493Y-138532603D01*
X235562364Y-138525007D01*
X235430413Y-138484980D01*
X235364437Y-138464967D01*
X235182028Y-138367467D01*
X235022146Y-138236254D01*
X234890933Y-138076372D01*
X234793433Y-137893963D01*
X234773420Y-137827987D01*
X234733393Y-137696036D01*
X234713120Y-137490200D01*
X234733393Y-137284364D01*
X234793433Y-137086438D01*
X234793433Y-137086437D01*
X234890933Y-136904028D01*
X235022146Y-136744146D01*
X235182028Y-136612933D01*
X235364437Y-136515433D01*
X235430413Y-136495420D01*
X235562364Y-136455393D01*
X235639493Y-136447797D01*
X235716620Y-136440200D01*
X235819780Y-136440200D01*
X235896907Y-136447797D01*
X235896907Y-136447797D01*
G37*
G36*
X235896907Y-133907797D02*
X235974036Y-133915393D01*
X236105987Y-133955420D01*
X236171963Y-133975433D01*
X236354372Y-134072933D01*
X236514254Y-134204146D01*
X236645467Y-134364028D01*
X236742967Y-134546437D01*
X236742967Y-134546438D01*
X236803007Y-134744364D01*
X236823280Y-134950200D01*
X236803007Y-135156036D01*
X236762980Y-135287987D01*
X236742967Y-135353963D01*
X236645467Y-135536372D01*
X236514254Y-135696254D01*
X236354372Y-135827467D01*
X236171963Y-135924967D01*
X236105987Y-135944980D01*
X235974036Y-135985007D01*
X235896907Y-135992603D01*
X235819780Y-136000200D01*
X235716620Y-136000200D01*
X235639493Y-135992603D01*
X235562364Y-135985007D01*
X235430413Y-135944980D01*
X235364437Y-135924967D01*
X235182028Y-135827467D01*
X235022146Y-135696254D01*
X234890933Y-135536372D01*
X234793433Y-135353963D01*
X234773420Y-135287987D01*
X234733393Y-135156036D01*
X234713120Y-134950200D01*
X234733393Y-134744364D01*
X234793433Y-134546438D01*
X234793433Y-134546437D01*
X234890933Y-134364028D01*
X235022146Y-134204146D01*
X235182028Y-134072933D01*
X235364437Y-133975433D01*
X235430413Y-133955420D01*
X235562364Y-133915393D01*
X235639493Y-133907797D01*
X235716620Y-133900200D01*
X235819780Y-133900200D01*
X235896907Y-133907797D01*
X235896907Y-133907797D01*
G37*
G36*
X238436907Y-133907797D02*
X238514036Y-133915393D01*
X238645987Y-133955420D01*
X238711963Y-133975433D01*
X238894372Y-134072933D01*
X239054254Y-134204146D01*
X239185467Y-134364028D01*
X239282967Y-134546437D01*
X239282967Y-134546438D01*
X239343007Y-134744364D01*
X239363280Y-134950200D01*
X239343007Y-135156036D01*
X239302980Y-135287987D01*
X239282967Y-135353963D01*
X239185467Y-135536372D01*
X239054254Y-135696254D01*
X238894372Y-135827467D01*
X238711963Y-135924967D01*
X238645987Y-135944980D01*
X238514036Y-135985007D01*
X238436907Y-135992603D01*
X238359780Y-136000200D01*
X238256620Y-136000200D01*
X238179493Y-135992603D01*
X238102364Y-135985007D01*
X237970413Y-135944980D01*
X237904437Y-135924967D01*
X237722028Y-135827467D01*
X237562146Y-135696254D01*
X237430933Y-135536372D01*
X237333433Y-135353963D01*
X237313420Y-135287987D01*
X237273393Y-135156036D01*
X237253120Y-134950200D01*
X237273393Y-134744364D01*
X237333433Y-134546438D01*
X237333433Y-134546437D01*
X237430933Y-134364028D01*
X237562146Y-134204146D01*
X237722028Y-134072933D01*
X237904437Y-133975433D01*
X237970413Y-133955420D01*
X238102364Y-133915393D01*
X238179493Y-133907797D01*
X238256620Y-133900200D01*
X238359780Y-133900200D01*
X238436907Y-133907797D01*
X238436907Y-133907797D01*
G37*
G36*
X238436907Y-131367797D02*
X238514036Y-131375393D01*
X238645987Y-131415420D01*
X238711963Y-131435433D01*
X238894372Y-131532933D01*
X239054254Y-131664146D01*
X239185467Y-131824028D01*
X239282967Y-132006437D01*
X239282967Y-132006438D01*
X239343007Y-132204364D01*
X239363280Y-132410200D01*
X239343007Y-132616036D01*
X239302980Y-132747987D01*
X239282967Y-132813963D01*
X239185467Y-132996372D01*
X239054254Y-133156254D01*
X238894372Y-133287467D01*
X238711963Y-133384967D01*
X238645987Y-133404980D01*
X238514036Y-133445007D01*
X238436907Y-133452604D01*
X238359780Y-133460200D01*
X238256620Y-133460200D01*
X238179493Y-133452604D01*
X238102364Y-133445007D01*
X237970413Y-133404980D01*
X237904437Y-133384967D01*
X237722028Y-133287467D01*
X237562146Y-133156254D01*
X237430933Y-132996372D01*
X237333433Y-132813963D01*
X237313420Y-132747987D01*
X237273393Y-132616036D01*
X237253120Y-132410200D01*
X237273393Y-132204364D01*
X237333433Y-132006438D01*
X237333433Y-132006437D01*
X237430933Y-131824028D01*
X237562146Y-131664146D01*
X237722028Y-131532933D01*
X237904437Y-131435433D01*
X237970413Y-131415420D01*
X238102364Y-131375393D01*
X238179493Y-131367797D01*
X238256620Y-131360200D01*
X238359780Y-131360200D01*
X238436907Y-131367797D01*
X238436907Y-131367797D01*
G37*
G36*
X235896907Y-131367797D02*
X235974036Y-131375393D01*
X236105987Y-131415420D01*
X236171963Y-131435433D01*
X236354372Y-131532933D01*
X236514254Y-131664146D01*
X236645467Y-131824028D01*
X236742967Y-132006437D01*
X236742967Y-132006438D01*
X236803007Y-132204364D01*
X236823280Y-132410200D01*
X236803007Y-132616036D01*
X236762980Y-132747987D01*
X236742967Y-132813963D01*
X236645467Y-132996372D01*
X236514254Y-133156254D01*
X236354372Y-133287467D01*
X236171963Y-133384967D01*
X236105987Y-133404980D01*
X235974036Y-133445007D01*
X235896907Y-133452604D01*
X235819780Y-133460200D01*
X235716620Y-133460200D01*
X235639493Y-133452604D01*
X235562364Y-133445007D01*
X235430413Y-133404980D01*
X235364437Y-133384967D01*
X235182028Y-133287467D01*
X235022146Y-133156254D01*
X234890933Y-132996372D01*
X234793433Y-132813963D01*
X234773420Y-132747987D01*
X234733393Y-132616036D01*
X234713120Y-132410200D01*
X234733393Y-132204364D01*
X234793433Y-132006438D01*
X234793433Y-132006437D01*
X234890933Y-131824028D01*
X235022146Y-131664146D01*
X235182028Y-131532933D01*
X235364437Y-131435433D01*
X235430413Y-131415420D01*
X235562364Y-131375393D01*
X235639493Y-131367797D01*
X235716620Y-131360200D01*
X235819780Y-131360200D01*
X235896907Y-131367797D01*
X235896907Y-131367797D01*
G37*
G36*
X82778103Y-129313588D02*
X82935268Y-129378688D01*
X83076713Y-129473199D01*
X83197002Y-129593488D01*
X83291513Y-129734933D01*
X83356613Y-129892098D01*
X83389800Y-130058944D01*
X83389800Y-130229058D01*
X83356613Y-130395904D01*
X83291513Y-130553069D01*
X83197002Y-130694514D01*
X83076713Y-130814803D01*
X82935268Y-130909314D01*
X82778103Y-130974414D01*
X82611257Y-131007601D01*
X82441143Y-131007601D01*
X82274297Y-130974414D01*
X82117132Y-130909314D01*
X81975687Y-130814803D01*
X81855398Y-130694514D01*
X81760887Y-130553069D01*
X81695787Y-130395904D01*
X81662600Y-130229058D01*
X81662600Y-130058944D01*
X81695787Y-129892098D01*
X81760887Y-129734933D01*
X81855398Y-129593488D01*
X81975687Y-129473199D01*
X82117132Y-129378688D01*
X82274297Y-129313588D01*
X82441143Y-129280401D01*
X82611257Y-129280401D01*
X82778103Y-129313588D01*
X82778103Y-129313588D01*
G37*
G36*
X190782837Y-129309086D02*
X190940002Y-129374186D01*
X191081447Y-129468697D01*
X191201736Y-129588986D01*
X191296247Y-129730431D01*
X191361347Y-129887596D01*
X191394534Y-130054442D01*
X191394534Y-130224556D01*
X191361347Y-130391402D01*
X191296247Y-130548567D01*
X191201736Y-130690012D01*
X191081447Y-130810301D01*
X190940002Y-130904812D01*
X190782837Y-130969912D01*
X190615991Y-131003099D01*
X190445877Y-131003099D01*
X190279031Y-130969912D01*
X190121866Y-130904812D01*
X189980421Y-130810301D01*
X189860132Y-130690012D01*
X189765621Y-130548567D01*
X189700521Y-130391402D01*
X189667334Y-130224556D01*
X189667334Y-130054442D01*
X189700521Y-129887596D01*
X189765621Y-129730431D01*
X189860132Y-129588986D01*
X189980421Y-129468697D01*
X190121866Y-129374186D01*
X190279031Y-129309086D01*
X190445877Y-129275899D01*
X190615991Y-129275899D01*
X190782837Y-129309086D01*
X190782837Y-129309086D01*
G37*
G36*
X214782437Y-129308486D02*
X214939602Y-129373586D01*
X215081047Y-129468097D01*
X215201336Y-129588386D01*
X215295847Y-129729831D01*
X215360947Y-129886996D01*
X215394134Y-130053842D01*
X215394134Y-130223956D01*
X215360947Y-130390802D01*
X215295847Y-130547967D01*
X215201336Y-130689412D01*
X215081047Y-130809701D01*
X214939602Y-130904212D01*
X214782437Y-130969312D01*
X214615591Y-131002499D01*
X214445477Y-131002499D01*
X214278631Y-130969312D01*
X214121466Y-130904212D01*
X213980021Y-130809701D01*
X213859732Y-130689412D01*
X213765221Y-130547967D01*
X213700121Y-130390802D01*
X213666934Y-130223956D01*
X213666934Y-130053842D01*
X213700121Y-129886996D01*
X213765221Y-129729831D01*
X213859732Y-129588386D01*
X213980021Y-129468097D01*
X214121466Y-129373586D01*
X214278631Y-129308486D01*
X214445477Y-129275299D01*
X214615591Y-129275299D01*
X214782437Y-129308486D01*
X214782437Y-129308486D01*
G37*
G36*
X160772103Y-129307587D02*
X160929268Y-129372687D01*
X161070713Y-129467198D01*
X161191002Y-129587487D01*
X161285513Y-129728932D01*
X161350613Y-129886097D01*
X161383800Y-130052943D01*
X161383800Y-130223057D01*
X161350613Y-130389903D01*
X161285513Y-130547068D01*
X161191002Y-130688513D01*
X161070713Y-130808802D01*
X160929268Y-130903313D01*
X160772103Y-130968413D01*
X160605257Y-131001600D01*
X160435143Y-131001600D01*
X160268297Y-130968413D01*
X160111132Y-130903313D01*
X159969687Y-130808802D01*
X159849398Y-130688513D01*
X159754887Y-130547068D01*
X159689787Y-130389903D01*
X159656600Y-130223057D01*
X159656600Y-130052943D01*
X159689787Y-129886097D01*
X159754887Y-129728932D01*
X159849398Y-129587487D01*
X159969687Y-129467198D01*
X160111132Y-129372687D01*
X160268297Y-129307587D01*
X160435143Y-129274400D01*
X160605257Y-129274400D01*
X160772103Y-129307587D01*
X160772103Y-129307587D01*
G37*
G36*
X136772103Y-129307587D02*
X136929268Y-129372687D01*
X137070713Y-129467198D01*
X137191002Y-129587487D01*
X137285513Y-129728932D01*
X137350613Y-129886097D01*
X137383800Y-130052943D01*
X137383800Y-130223057D01*
X137350613Y-130389903D01*
X137285513Y-130547068D01*
X137191002Y-130688513D01*
X137070713Y-130808802D01*
X136929268Y-130903313D01*
X136772103Y-130968413D01*
X136605257Y-131001600D01*
X136435143Y-131001600D01*
X136268297Y-130968413D01*
X136111132Y-130903313D01*
X135969687Y-130808802D01*
X135849398Y-130688513D01*
X135754887Y-130547068D01*
X135689787Y-130389903D01*
X135656600Y-130223057D01*
X135656600Y-130052943D01*
X135689787Y-129886097D01*
X135754887Y-129728932D01*
X135849398Y-129587487D01*
X135969687Y-129467198D01*
X136111132Y-129372687D01*
X136268297Y-129307587D01*
X136435143Y-129274400D01*
X136605257Y-129274400D01*
X136772103Y-129307587D01*
X136772103Y-129307587D01*
G37*
G36*
X106774103Y-129301587D02*
X106931268Y-129366687D01*
X107072713Y-129461198D01*
X107193002Y-129581487D01*
X107287513Y-129722932D01*
X107352613Y-129880097D01*
X107385800Y-130046943D01*
X107385800Y-130217057D01*
X107352613Y-130383903D01*
X107287513Y-130541068D01*
X107193002Y-130682513D01*
X107072713Y-130802802D01*
X106931268Y-130897313D01*
X106774103Y-130962413D01*
X106607257Y-130995600D01*
X106437143Y-130995600D01*
X106270297Y-130962413D01*
X106113132Y-130897313D01*
X105971687Y-130802802D01*
X105851398Y-130682513D01*
X105756887Y-130541068D01*
X105691787Y-130383903D01*
X105658600Y-130217057D01*
X105658600Y-130046943D01*
X105691787Y-129880097D01*
X105756887Y-129722932D01*
X105851398Y-129581487D01*
X105971687Y-129461198D01*
X106113132Y-129366687D01*
X106270297Y-129301587D01*
X106437143Y-129268400D01*
X106607257Y-129268400D01*
X106774103Y-129301587D01*
X106774103Y-129301587D01*
G37*
G36*
X85902903Y-129243588D02*
X86060068Y-129308688D01*
X86201513Y-129403199D01*
X86321802Y-129523488D01*
X86416313Y-129664933D01*
X86481413Y-129822098D01*
X86514600Y-129988944D01*
X86514600Y-130159058D01*
X86481413Y-130325904D01*
X86416313Y-130483069D01*
X86321802Y-130624514D01*
X86201513Y-130744803D01*
X86060068Y-130839314D01*
X85902903Y-130904414D01*
X85736057Y-130937601D01*
X85565943Y-130937601D01*
X85399097Y-130904414D01*
X85241932Y-130839314D01*
X85100487Y-130744803D01*
X84980198Y-130624514D01*
X84885687Y-130483069D01*
X84820587Y-130325904D01*
X84787400Y-130159058D01*
X84787400Y-129988944D01*
X84820587Y-129822098D01*
X84885687Y-129664933D01*
X84980198Y-129523488D01*
X85100487Y-129403199D01*
X85241932Y-129308688D01*
X85399097Y-129243588D01*
X85565943Y-129210401D01*
X85736057Y-129210401D01*
X85902903Y-129243588D01*
X85902903Y-129243588D01*
G37*
G36*
X193907637Y-129239086D02*
X194064802Y-129304186D01*
X194206247Y-129398697D01*
X194326536Y-129518986D01*
X194421047Y-129660431D01*
X194486147Y-129817596D01*
X194519334Y-129984442D01*
X194519334Y-130154556D01*
X194486147Y-130321402D01*
X194421047Y-130478567D01*
X194326536Y-130620012D01*
X194206247Y-130740301D01*
X194064802Y-130834812D01*
X193907637Y-130899912D01*
X193740791Y-130933099D01*
X193570677Y-130933099D01*
X193403831Y-130899912D01*
X193246666Y-130834812D01*
X193105221Y-130740301D01*
X192984932Y-130620012D01*
X192890421Y-130478567D01*
X192825321Y-130321402D01*
X192792134Y-130154556D01*
X192792134Y-129984442D01*
X192825321Y-129817596D01*
X192890421Y-129660431D01*
X192984932Y-129518986D01*
X193105221Y-129398697D01*
X193246666Y-129304186D01*
X193403831Y-129239086D01*
X193570677Y-129205899D01*
X193740791Y-129205899D01*
X193907637Y-129239086D01*
X193907637Y-129239086D01*
G37*
G36*
X217907237Y-129238486D02*
X218064402Y-129303586D01*
X218205847Y-129398097D01*
X218326136Y-129518386D01*
X218420647Y-129659831D01*
X218485747Y-129816996D01*
X218518934Y-129983842D01*
X218518934Y-130153956D01*
X218485747Y-130320802D01*
X218420647Y-130477967D01*
X218326136Y-130619412D01*
X218205847Y-130739701D01*
X218064402Y-130834212D01*
X217907237Y-130899312D01*
X217740391Y-130932499D01*
X217570277Y-130932499D01*
X217403431Y-130899312D01*
X217246266Y-130834212D01*
X217104821Y-130739701D01*
X216984532Y-130619412D01*
X216890021Y-130477967D01*
X216824921Y-130320802D01*
X216791734Y-130153956D01*
X216791734Y-129983842D01*
X216824921Y-129816996D01*
X216890021Y-129659831D01*
X216984532Y-129518386D01*
X217104821Y-129398097D01*
X217246266Y-129303586D01*
X217403431Y-129238486D01*
X217570277Y-129205299D01*
X217740391Y-129205299D01*
X217907237Y-129238486D01*
X217907237Y-129238486D01*
G37*
G36*
X139896903Y-129237587D02*
X140054068Y-129302687D01*
X140195513Y-129397198D01*
X140315802Y-129517487D01*
X140410313Y-129658932D01*
X140475413Y-129816097D01*
X140508600Y-129982943D01*
X140508600Y-130153057D01*
X140475413Y-130319903D01*
X140410313Y-130477068D01*
X140315802Y-130618513D01*
X140195513Y-130738802D01*
X140054068Y-130833313D01*
X139896903Y-130898413D01*
X139730057Y-130931600D01*
X139559943Y-130931600D01*
X139393097Y-130898413D01*
X139235932Y-130833313D01*
X139094487Y-130738802D01*
X138974198Y-130618513D01*
X138879687Y-130477068D01*
X138814587Y-130319903D01*
X138781400Y-130153057D01*
X138781400Y-129982943D01*
X138814587Y-129816097D01*
X138879687Y-129658932D01*
X138974198Y-129517487D01*
X139094487Y-129397198D01*
X139235932Y-129302687D01*
X139393097Y-129237587D01*
X139559943Y-129204400D01*
X139730057Y-129204400D01*
X139896903Y-129237587D01*
X139896903Y-129237587D01*
G37*
G36*
X163896903Y-129237587D02*
X164054068Y-129302687D01*
X164195513Y-129397198D01*
X164315802Y-129517487D01*
X164410313Y-129658932D01*
X164475413Y-129816097D01*
X164508600Y-129982943D01*
X164508600Y-130153057D01*
X164475413Y-130319903D01*
X164410313Y-130477068D01*
X164315802Y-130618513D01*
X164195513Y-130738802D01*
X164054068Y-130833313D01*
X163896903Y-130898413D01*
X163730057Y-130931600D01*
X163559943Y-130931600D01*
X163393097Y-130898413D01*
X163235932Y-130833313D01*
X163094487Y-130738802D01*
X162974198Y-130618513D01*
X162879687Y-130477068D01*
X162814587Y-130319903D01*
X162781400Y-130153057D01*
X162781400Y-129982943D01*
X162814587Y-129816097D01*
X162879687Y-129658932D01*
X162974198Y-129517487D01*
X163094487Y-129397198D01*
X163235932Y-129302687D01*
X163393097Y-129237587D01*
X163559943Y-129204400D01*
X163730057Y-129204400D01*
X163896903Y-129237587D01*
X163896903Y-129237587D01*
G37*
G36*
X109898903Y-129231587D02*
X110056068Y-129296687D01*
X110197513Y-129391198D01*
X110317802Y-129511487D01*
X110412313Y-129652932D01*
X110477413Y-129810097D01*
X110510600Y-129976943D01*
X110510600Y-130147057D01*
X110477413Y-130313903D01*
X110412313Y-130471068D01*
X110317802Y-130612513D01*
X110197513Y-130732802D01*
X110056068Y-130827313D01*
X109898903Y-130892413D01*
X109732057Y-130925600D01*
X109561943Y-130925600D01*
X109395097Y-130892413D01*
X109237932Y-130827313D01*
X109096487Y-130732802D01*
X108976198Y-130612513D01*
X108881687Y-130471068D01*
X108816587Y-130313903D01*
X108783400Y-130147057D01*
X108783400Y-129976943D01*
X108816587Y-129810097D01*
X108881687Y-129652932D01*
X108976198Y-129511487D01*
X109096487Y-129391198D01*
X109237932Y-129296687D01*
X109395097Y-129231587D01*
X109561943Y-129198400D01*
X109732057Y-129198400D01*
X109898903Y-129231587D01*
X109898903Y-129231587D01*
G37*
G36*
X235896907Y-128827797D02*
X235974036Y-128835393D01*
X236105987Y-128875420D01*
X236171963Y-128895433D01*
X236354372Y-128992933D01*
X236514254Y-129124146D01*
X236645467Y-129284028D01*
X236742967Y-129466437D01*
X236758725Y-129518385D01*
X236803007Y-129664364D01*
X236823280Y-129870200D01*
X236803007Y-130076036D01*
X236762980Y-130207987D01*
X236742967Y-130273963D01*
X236645467Y-130456372D01*
X236514254Y-130616254D01*
X236354372Y-130747467D01*
X236171963Y-130844967D01*
X236105987Y-130864980D01*
X235974036Y-130905007D01*
X235896907Y-130912603D01*
X235819780Y-130920200D01*
X235716620Y-130920200D01*
X235639493Y-130912603D01*
X235562364Y-130905007D01*
X235430413Y-130864980D01*
X235364437Y-130844967D01*
X235182028Y-130747467D01*
X235022146Y-130616254D01*
X234890933Y-130456372D01*
X234793433Y-130273963D01*
X234773420Y-130207987D01*
X234733393Y-130076036D01*
X234713120Y-129870200D01*
X234733393Y-129664364D01*
X234777675Y-129518385D01*
X234793433Y-129466437D01*
X234890933Y-129284028D01*
X235022146Y-129124146D01*
X235182028Y-128992933D01*
X235364437Y-128895433D01*
X235430413Y-128875420D01*
X235562364Y-128835393D01*
X235639493Y-128827797D01*
X235716620Y-128820200D01*
X235819780Y-128820200D01*
X235896907Y-128827797D01*
X235896907Y-128827797D01*
G37*
G36*
X238436907Y-128827797D02*
X238514036Y-128835393D01*
X238645987Y-128875420D01*
X238711963Y-128895433D01*
X238894372Y-128992933D01*
X239054254Y-129124146D01*
X239185467Y-129284028D01*
X239282967Y-129466437D01*
X239298725Y-129518385D01*
X239343007Y-129664364D01*
X239363280Y-129870200D01*
X239343007Y-130076036D01*
X239302980Y-130207987D01*
X239282967Y-130273963D01*
X239185467Y-130456372D01*
X239054254Y-130616254D01*
X238894372Y-130747467D01*
X238711963Y-130844967D01*
X238645987Y-130864980D01*
X238514036Y-130905007D01*
X238436907Y-130912603D01*
X238359780Y-130920200D01*
X238256620Y-130920200D01*
X238179493Y-130912603D01*
X238102364Y-130905007D01*
X237970413Y-130864980D01*
X237904437Y-130844967D01*
X237722028Y-130747467D01*
X237562146Y-130616254D01*
X237430933Y-130456372D01*
X237333433Y-130273963D01*
X237313420Y-130207987D01*
X237273393Y-130076036D01*
X237253120Y-129870200D01*
X237273393Y-129664364D01*
X237317675Y-129518385D01*
X237333433Y-129466437D01*
X237430933Y-129284028D01*
X237562146Y-129124146D01*
X237722028Y-128992933D01*
X237904437Y-128895433D01*
X237970413Y-128875420D01*
X238102364Y-128835393D01*
X238179493Y-128827797D01*
X238256620Y-128820200D01*
X238359780Y-128820200D01*
X238436907Y-128827797D01*
X238436907Y-128827797D01*
G37*
G36*
X88324903Y-127912588D02*
X88482068Y-127977688D01*
X88623513Y-128072199D01*
X88743802Y-128192488D01*
X88838313Y-128333933D01*
X88903413Y-128491098D01*
X88936600Y-128657944D01*
X88936600Y-128828058D01*
X88903413Y-128994904D01*
X88838313Y-129152069D01*
X88743802Y-129293514D01*
X88623513Y-129413803D01*
X88482068Y-129508314D01*
X88324903Y-129573414D01*
X88158057Y-129606601D01*
X87987943Y-129606601D01*
X87821097Y-129573414D01*
X87663932Y-129508314D01*
X87522487Y-129413803D01*
X87402198Y-129293514D01*
X87307687Y-129152069D01*
X87242587Y-128994904D01*
X87209400Y-128828058D01*
X87209400Y-128657944D01*
X87242587Y-128491098D01*
X87307687Y-128333933D01*
X87402198Y-128192488D01*
X87522487Y-128072199D01*
X87663932Y-127977688D01*
X87821097Y-127912588D01*
X87987943Y-127879401D01*
X88158057Y-127879401D01*
X88324903Y-127912588D01*
X88324903Y-127912588D01*
G37*
G36*
X80190903Y-127912588D02*
X80348068Y-127977688D01*
X80489513Y-128072199D01*
X80609802Y-128192488D01*
X80704313Y-128333933D01*
X80769413Y-128491098D01*
X80802600Y-128657944D01*
X80802600Y-128828058D01*
X80769413Y-128994904D01*
X80704313Y-129152069D01*
X80609802Y-129293514D01*
X80489513Y-129413803D01*
X80348068Y-129508314D01*
X80190903Y-129573414D01*
X80024057Y-129606601D01*
X79853943Y-129606601D01*
X79687097Y-129573414D01*
X79529932Y-129508314D01*
X79388487Y-129413803D01*
X79268198Y-129293514D01*
X79173687Y-129152069D01*
X79108587Y-128994904D01*
X79075400Y-128828058D01*
X79075400Y-128657944D01*
X79108587Y-128491098D01*
X79173687Y-128333933D01*
X79268198Y-128192488D01*
X79388487Y-128072199D01*
X79529932Y-127977688D01*
X79687097Y-127912588D01*
X79853943Y-127879401D01*
X80024057Y-127879401D01*
X80190903Y-127912588D01*
X80190903Y-127912588D01*
G37*
G36*
X188195637Y-127908086D02*
X188352802Y-127973186D01*
X188494247Y-128067697D01*
X188614536Y-128187986D01*
X188709047Y-128329431D01*
X188774147Y-128486596D01*
X188807334Y-128653442D01*
X188807334Y-128823556D01*
X188774147Y-128990402D01*
X188709047Y-129147567D01*
X188614536Y-129289012D01*
X188494247Y-129409301D01*
X188352802Y-129503812D01*
X188195637Y-129568912D01*
X188028791Y-129602099D01*
X187858677Y-129602099D01*
X187691831Y-129568912D01*
X187534666Y-129503812D01*
X187393221Y-129409301D01*
X187272932Y-129289012D01*
X187178421Y-129147567D01*
X187113321Y-128990402D01*
X187080134Y-128823556D01*
X187080134Y-128653442D01*
X187113321Y-128486596D01*
X187178421Y-128329431D01*
X187272932Y-128187986D01*
X187393221Y-128067697D01*
X187534666Y-127973186D01*
X187691831Y-127908086D01*
X187858677Y-127874899D01*
X188028791Y-127874899D01*
X188195637Y-127908086D01*
X188195637Y-127908086D01*
G37*
G36*
X196329637Y-127908086D02*
X196486802Y-127973186D01*
X196628247Y-128067697D01*
X196748536Y-128187986D01*
X196843047Y-128329431D01*
X196908147Y-128486596D01*
X196941334Y-128653442D01*
X196941334Y-128823556D01*
X196908147Y-128990402D01*
X196843047Y-129147567D01*
X196748536Y-129289012D01*
X196628247Y-129409301D01*
X196486802Y-129503812D01*
X196329637Y-129568912D01*
X196162791Y-129602099D01*
X195992677Y-129602099D01*
X195825831Y-129568912D01*
X195668666Y-129503812D01*
X195527221Y-129409301D01*
X195406932Y-129289012D01*
X195312421Y-129147567D01*
X195247321Y-128990402D01*
X195214134Y-128823556D01*
X195214134Y-128653442D01*
X195247321Y-128486596D01*
X195312421Y-128329431D01*
X195406932Y-128187986D01*
X195527221Y-128067697D01*
X195668666Y-127973186D01*
X195825831Y-127908086D01*
X195992677Y-127874899D01*
X196162791Y-127874899D01*
X196329637Y-127908086D01*
X196329637Y-127908086D01*
G37*
G36*
X212195237Y-127907486D02*
X212352402Y-127972586D01*
X212493847Y-128067097D01*
X212614136Y-128187386D01*
X212708647Y-128328831D01*
X212773747Y-128485996D01*
X212806934Y-128652842D01*
X212806934Y-128822956D01*
X212773747Y-128989802D01*
X212708647Y-129146967D01*
X212614136Y-129288412D01*
X212493847Y-129408701D01*
X212352402Y-129503212D01*
X212195237Y-129568312D01*
X212028391Y-129601499D01*
X211858277Y-129601499D01*
X211691431Y-129568312D01*
X211534266Y-129503212D01*
X211392821Y-129408701D01*
X211272532Y-129288412D01*
X211178021Y-129146967D01*
X211112921Y-128989802D01*
X211079734Y-128822956D01*
X211079734Y-128652842D01*
X211112921Y-128485996D01*
X211178021Y-128328831D01*
X211272532Y-128187386D01*
X211392821Y-128067097D01*
X211534266Y-127972586D01*
X211691431Y-127907486D01*
X211858277Y-127874299D01*
X212028391Y-127874299D01*
X212195237Y-127907486D01*
X212195237Y-127907486D01*
G37*
G36*
X220329237Y-127907486D02*
X220486402Y-127972586D01*
X220627847Y-128067097D01*
X220748136Y-128187386D01*
X220842647Y-128328831D01*
X220907747Y-128485996D01*
X220940934Y-128652842D01*
X220940934Y-128822956D01*
X220907747Y-128989802D01*
X220842647Y-129146967D01*
X220748136Y-129288412D01*
X220627847Y-129408701D01*
X220486402Y-129503212D01*
X220329237Y-129568312D01*
X220162391Y-129601499D01*
X219992277Y-129601499D01*
X219825431Y-129568312D01*
X219668266Y-129503212D01*
X219526821Y-129408701D01*
X219406532Y-129288412D01*
X219312021Y-129146967D01*
X219246921Y-128989802D01*
X219213734Y-128822956D01*
X219213734Y-128652842D01*
X219246921Y-128485996D01*
X219312021Y-128328831D01*
X219406532Y-128187386D01*
X219526821Y-128067097D01*
X219668266Y-127972586D01*
X219825431Y-127907486D01*
X219992277Y-127874299D01*
X220162391Y-127874299D01*
X220329237Y-127907486D01*
X220329237Y-127907486D01*
G37*
G36*
X142318903Y-127906587D02*
X142476068Y-127971687D01*
X142617513Y-128066198D01*
X142737802Y-128186487D01*
X142832313Y-128327932D01*
X142897413Y-128485097D01*
X142930600Y-128651943D01*
X142930600Y-128822057D01*
X142897413Y-128988903D01*
X142832313Y-129146068D01*
X142737802Y-129287513D01*
X142617513Y-129407802D01*
X142476068Y-129502313D01*
X142318903Y-129567413D01*
X142152057Y-129600600D01*
X141981943Y-129600600D01*
X141815097Y-129567413D01*
X141657932Y-129502313D01*
X141516487Y-129407802D01*
X141396198Y-129287513D01*
X141301687Y-129146068D01*
X141236587Y-128988903D01*
X141203400Y-128822057D01*
X141203400Y-128651943D01*
X141236587Y-128485097D01*
X141301687Y-128327932D01*
X141396198Y-128186487D01*
X141516487Y-128066198D01*
X141657932Y-127971687D01*
X141815097Y-127906587D01*
X141981943Y-127873400D01*
X142152057Y-127873400D01*
X142318903Y-127906587D01*
X142318903Y-127906587D01*
G37*
G36*
X134184903Y-127906587D02*
X134342068Y-127971687D01*
X134483513Y-128066198D01*
X134603802Y-128186487D01*
X134698313Y-128327932D01*
X134763413Y-128485097D01*
X134796600Y-128651943D01*
X134796600Y-128822057D01*
X134763413Y-128988903D01*
X134698313Y-129146068D01*
X134603802Y-129287513D01*
X134483513Y-129407802D01*
X134342068Y-129502313D01*
X134184903Y-129567413D01*
X134018057Y-129600600D01*
X133847943Y-129600600D01*
X133681097Y-129567413D01*
X133523932Y-129502313D01*
X133382487Y-129407802D01*
X133262198Y-129287513D01*
X133167687Y-129146068D01*
X133102587Y-128988903D01*
X133069400Y-128822057D01*
X133069400Y-128651943D01*
X133102587Y-128485097D01*
X133167687Y-128327932D01*
X133262198Y-128186487D01*
X133382487Y-128066198D01*
X133523932Y-127971687D01*
X133681097Y-127906587D01*
X133847943Y-127873400D01*
X134018057Y-127873400D01*
X134184903Y-127906587D01*
X134184903Y-127906587D01*
G37*
G36*
X158184903Y-127906587D02*
X158342068Y-127971687D01*
X158483513Y-128066198D01*
X158603802Y-128186487D01*
X158698313Y-128327932D01*
X158763413Y-128485097D01*
X158796600Y-128651943D01*
X158796600Y-128822057D01*
X158763413Y-128988903D01*
X158698313Y-129146068D01*
X158603802Y-129287513D01*
X158483513Y-129407802D01*
X158342068Y-129502313D01*
X158184903Y-129567413D01*
X158018057Y-129600600D01*
X157847943Y-129600600D01*
X157681097Y-129567413D01*
X157523932Y-129502313D01*
X157382487Y-129407802D01*
X157262198Y-129287513D01*
X157167687Y-129146068D01*
X157102587Y-128988903D01*
X157069400Y-128822057D01*
X157069400Y-128651943D01*
X157102587Y-128485097D01*
X157167687Y-128327932D01*
X157262198Y-128186487D01*
X157382487Y-128066198D01*
X157523932Y-127971687D01*
X157681097Y-127906587D01*
X157847943Y-127873400D01*
X158018057Y-127873400D01*
X158184903Y-127906587D01*
X158184903Y-127906587D01*
G37*
G36*
X166318903Y-127906587D02*
X166476068Y-127971687D01*
X166617513Y-128066198D01*
X166737802Y-128186487D01*
X166832313Y-128327932D01*
X166897413Y-128485097D01*
X166930600Y-128651943D01*
X166930600Y-128822057D01*
X166897413Y-128988903D01*
X166832313Y-129146068D01*
X166737802Y-129287513D01*
X166617513Y-129407802D01*
X166476068Y-129502313D01*
X166318903Y-129567413D01*
X166152057Y-129600600D01*
X165981943Y-129600600D01*
X165815097Y-129567413D01*
X165657932Y-129502313D01*
X165516487Y-129407802D01*
X165396198Y-129287513D01*
X165301687Y-129146068D01*
X165236587Y-128988903D01*
X165203400Y-128822057D01*
X165203400Y-128651943D01*
X165236587Y-128485097D01*
X165301687Y-128327932D01*
X165396198Y-128186487D01*
X165516487Y-128066198D01*
X165657932Y-127971687D01*
X165815097Y-127906587D01*
X165981943Y-127873400D01*
X166152057Y-127873400D01*
X166318903Y-127906587D01*
X166318903Y-127906587D01*
G37*
G36*
X112320903Y-127900587D02*
X112478068Y-127965687D01*
X112619513Y-128060198D01*
X112739802Y-128180487D01*
X112834313Y-128321932D01*
X112899413Y-128479097D01*
X112932600Y-128645943D01*
X112932600Y-128816057D01*
X112899413Y-128982903D01*
X112834313Y-129140068D01*
X112739802Y-129281513D01*
X112619513Y-129401802D01*
X112478068Y-129496313D01*
X112320903Y-129561413D01*
X112154057Y-129594600D01*
X111983943Y-129594600D01*
X111817097Y-129561413D01*
X111659932Y-129496313D01*
X111518487Y-129401802D01*
X111398198Y-129281513D01*
X111303687Y-129140068D01*
X111238587Y-128982903D01*
X111205400Y-128816057D01*
X111205400Y-128645943D01*
X111238587Y-128479097D01*
X111303687Y-128321932D01*
X111398198Y-128180487D01*
X111518487Y-128060198D01*
X111659932Y-127965687D01*
X111817097Y-127900587D01*
X111983943Y-127867400D01*
X112154057Y-127867400D01*
X112320903Y-127900587D01*
X112320903Y-127900587D01*
G37*
G36*
X104186903Y-127900587D02*
X104344068Y-127965687D01*
X104485513Y-128060198D01*
X104605802Y-128180487D01*
X104700313Y-128321932D01*
X104765413Y-128479097D01*
X104798600Y-128645943D01*
X104798600Y-128816057D01*
X104765413Y-128982903D01*
X104700313Y-129140068D01*
X104605802Y-129281513D01*
X104485513Y-129401802D01*
X104344068Y-129496313D01*
X104186903Y-129561413D01*
X104020057Y-129594600D01*
X103849943Y-129594600D01*
X103683097Y-129561413D01*
X103525932Y-129496313D01*
X103384487Y-129401802D01*
X103264198Y-129281513D01*
X103169687Y-129140068D01*
X103104587Y-128982903D01*
X103071400Y-128816057D01*
X103071400Y-128645943D01*
X103104587Y-128479097D01*
X103169687Y-128321932D01*
X103264198Y-128180487D01*
X103384487Y-128060198D01*
X103525932Y-127965687D01*
X103683097Y-127900587D01*
X103849943Y-127867400D01*
X104020057Y-127867400D01*
X104186903Y-127900587D01*
X104186903Y-127900587D01*
G37*
G36*
X235896907Y-126287797D02*
X235974036Y-126295393D01*
X236105987Y-126335420D01*
X236171963Y-126355433D01*
X236354372Y-126452933D01*
X236514254Y-126584146D01*
X236645467Y-126744028D01*
X236742967Y-126926437D01*
X236742967Y-126926438D01*
X236803007Y-127124364D01*
X236823280Y-127330200D01*
X236803007Y-127536036D01*
X236762980Y-127667987D01*
X236742967Y-127733963D01*
X236645467Y-127916372D01*
X236514254Y-128076254D01*
X236354372Y-128207467D01*
X236171963Y-128304967D01*
X236116039Y-128321931D01*
X235974036Y-128365007D01*
X235896907Y-128372603D01*
X235819780Y-128380200D01*
X235716620Y-128380200D01*
X235639493Y-128372603D01*
X235562364Y-128365007D01*
X235420361Y-128321931D01*
X235364437Y-128304967D01*
X235182028Y-128207467D01*
X235022146Y-128076254D01*
X234890933Y-127916372D01*
X234793433Y-127733963D01*
X234773420Y-127667987D01*
X234733393Y-127536036D01*
X234713120Y-127330200D01*
X234733393Y-127124364D01*
X234793433Y-126926438D01*
X234793433Y-126926437D01*
X234890933Y-126744028D01*
X235022146Y-126584146D01*
X235182028Y-126452933D01*
X235364437Y-126355433D01*
X235430413Y-126335420D01*
X235562364Y-126295393D01*
X235639493Y-126287797D01*
X235716620Y-126280200D01*
X235819780Y-126280200D01*
X235896907Y-126287797D01*
X235896907Y-126287797D01*
G37*
G36*
X238436907Y-126287797D02*
X238514036Y-126295393D01*
X238645987Y-126335420D01*
X238711963Y-126355433D01*
X238894372Y-126452933D01*
X239054254Y-126584146D01*
X239185467Y-126744028D01*
X239282967Y-126926437D01*
X239282967Y-126926438D01*
X239343007Y-127124364D01*
X239363280Y-127330200D01*
X239343007Y-127536036D01*
X239302980Y-127667987D01*
X239282967Y-127733963D01*
X239185467Y-127916372D01*
X239054254Y-128076254D01*
X238894372Y-128207467D01*
X238711963Y-128304967D01*
X238656039Y-128321931D01*
X238514036Y-128365007D01*
X238436907Y-128372603D01*
X238359780Y-128380200D01*
X238256620Y-128380200D01*
X238179493Y-128372603D01*
X238102364Y-128365007D01*
X237960361Y-128321931D01*
X237904437Y-128304967D01*
X237722028Y-128207467D01*
X237562146Y-128076254D01*
X237430933Y-127916372D01*
X237333433Y-127733963D01*
X237313420Y-127667987D01*
X237273393Y-127536036D01*
X237253120Y-127330200D01*
X237273393Y-127124364D01*
X237333433Y-126926438D01*
X237333433Y-126926437D01*
X237430933Y-126744028D01*
X237562146Y-126584146D01*
X237722028Y-126452933D01*
X237904437Y-126355433D01*
X237970413Y-126335420D01*
X238102364Y-126295393D01*
X238179493Y-126287797D01*
X238256620Y-126280200D01*
X238359780Y-126280200D01*
X238436907Y-126287797D01*
X238436907Y-126287797D01*
G37*
G36*
X78568903Y-125544588D02*
X78726068Y-125609688D01*
X78867513Y-125704199D01*
X78987802Y-125824488D01*
X79082313Y-125965933D01*
X79147413Y-126123098D01*
X79180600Y-126289944D01*
X79180600Y-126460058D01*
X79147413Y-126626904D01*
X79082313Y-126784069D01*
X78987802Y-126925514D01*
X78867513Y-127045803D01*
X78726068Y-127140314D01*
X78568903Y-127205414D01*
X78402057Y-127238601D01*
X78231943Y-127238601D01*
X78065097Y-127205414D01*
X77907932Y-127140314D01*
X77766487Y-127045803D01*
X77646198Y-126925514D01*
X77551687Y-126784069D01*
X77486587Y-126626904D01*
X77453400Y-126460058D01*
X77453400Y-126289944D01*
X77486587Y-126123098D01*
X77551687Y-125965933D01*
X77646198Y-125824488D01*
X77766487Y-125704199D01*
X77907932Y-125609688D01*
X78065097Y-125544588D01*
X78231943Y-125511401D01*
X78402057Y-125511401D01*
X78568903Y-125544588D01*
X78568903Y-125544588D01*
G37*
G36*
X89946903Y-125544588D02*
X90104068Y-125609688D01*
X90245513Y-125704199D01*
X90365802Y-125824488D01*
X90460313Y-125965933D01*
X90525413Y-126123098D01*
X90558600Y-126289944D01*
X90558600Y-126460058D01*
X90525413Y-126626904D01*
X90460313Y-126784069D01*
X90365802Y-126925514D01*
X90245513Y-127045803D01*
X90104068Y-127140314D01*
X89946903Y-127205414D01*
X89780057Y-127238601D01*
X89609943Y-127238601D01*
X89443097Y-127205414D01*
X89285932Y-127140314D01*
X89144487Y-127045803D01*
X89024198Y-126925514D01*
X88929687Y-126784069D01*
X88864587Y-126626904D01*
X88831400Y-126460058D01*
X88831400Y-126289944D01*
X88864587Y-126123098D01*
X88929687Y-125965933D01*
X89024198Y-125824488D01*
X89144487Y-125704199D01*
X89285932Y-125609688D01*
X89443097Y-125544588D01*
X89609943Y-125511401D01*
X89780057Y-125511401D01*
X89946903Y-125544588D01*
X89946903Y-125544588D01*
G37*
G36*
X186573637Y-125540086D02*
X186730802Y-125605186D01*
X186872247Y-125699697D01*
X186992536Y-125819986D01*
X187087047Y-125961431D01*
X187152147Y-126118596D01*
X187185334Y-126285442D01*
X187185334Y-126455556D01*
X187152147Y-126622402D01*
X187087047Y-126779567D01*
X186992536Y-126921012D01*
X186872247Y-127041301D01*
X186730802Y-127135812D01*
X186573637Y-127200912D01*
X186406791Y-127234099D01*
X186236677Y-127234099D01*
X186069831Y-127200912D01*
X185912666Y-127135812D01*
X185771221Y-127041301D01*
X185650932Y-126921012D01*
X185556421Y-126779567D01*
X185491321Y-126622402D01*
X185458134Y-126455556D01*
X185458134Y-126285442D01*
X185491321Y-126118596D01*
X185556421Y-125961431D01*
X185650932Y-125819986D01*
X185771221Y-125699697D01*
X185912666Y-125605186D01*
X186069831Y-125540086D01*
X186236677Y-125506899D01*
X186406791Y-125506899D01*
X186573637Y-125540086D01*
X186573637Y-125540086D01*
G37*
G36*
X197951637Y-125540086D02*
X198108802Y-125605186D01*
X198250247Y-125699697D01*
X198370536Y-125819986D01*
X198465047Y-125961431D01*
X198530147Y-126118596D01*
X198563334Y-126285442D01*
X198563334Y-126455556D01*
X198530147Y-126622402D01*
X198465047Y-126779567D01*
X198370536Y-126921012D01*
X198250247Y-127041301D01*
X198108802Y-127135812D01*
X197951637Y-127200912D01*
X197784791Y-127234099D01*
X197614677Y-127234099D01*
X197447831Y-127200912D01*
X197290666Y-127135812D01*
X197149221Y-127041301D01*
X197028932Y-126921012D01*
X196934421Y-126779567D01*
X196869321Y-126622402D01*
X196836134Y-126455556D01*
X196836134Y-126285442D01*
X196869321Y-126118596D01*
X196934421Y-125961431D01*
X197028932Y-125819986D01*
X197149221Y-125699697D01*
X197290666Y-125605186D01*
X197447831Y-125540086D01*
X197614677Y-125506899D01*
X197784791Y-125506899D01*
X197951637Y-125540086D01*
X197951637Y-125540086D01*
G37*
G36*
X221951237Y-125539486D02*
X222108402Y-125604586D01*
X222249847Y-125699097D01*
X222370136Y-125819386D01*
X222464647Y-125960831D01*
X222529747Y-126117996D01*
X222562934Y-126284842D01*
X222562934Y-126454956D01*
X222529747Y-126621802D01*
X222464647Y-126778967D01*
X222370136Y-126920412D01*
X222249847Y-127040701D01*
X222108402Y-127135212D01*
X221951237Y-127200312D01*
X221784391Y-127233499D01*
X221614277Y-127233499D01*
X221447431Y-127200312D01*
X221290266Y-127135212D01*
X221148821Y-127040701D01*
X221028532Y-126920412D01*
X220934021Y-126778967D01*
X220868921Y-126621802D01*
X220835734Y-126454956D01*
X220835734Y-126284842D01*
X220868921Y-126117996D01*
X220934021Y-125960831D01*
X221028532Y-125819386D01*
X221148821Y-125699097D01*
X221290266Y-125604586D01*
X221447431Y-125539486D01*
X221614277Y-125506299D01*
X221784391Y-125506299D01*
X221951237Y-125539486D01*
X221951237Y-125539486D01*
G37*
G36*
X210573237Y-125539486D02*
X210730402Y-125604586D01*
X210871847Y-125699097D01*
X210992136Y-125819386D01*
X211086647Y-125960831D01*
X211151747Y-126117996D01*
X211184934Y-126284842D01*
X211184934Y-126454956D01*
X211151747Y-126621802D01*
X211086647Y-126778967D01*
X210992136Y-126920412D01*
X210871847Y-127040701D01*
X210730402Y-127135212D01*
X210573237Y-127200312D01*
X210406391Y-127233499D01*
X210236277Y-127233499D01*
X210069431Y-127200312D01*
X209912266Y-127135212D01*
X209770821Y-127040701D01*
X209650532Y-126920412D01*
X209556021Y-126778967D01*
X209490921Y-126621802D01*
X209457734Y-126454956D01*
X209457734Y-126284842D01*
X209490921Y-126117996D01*
X209556021Y-125960831D01*
X209650532Y-125819386D01*
X209770821Y-125699097D01*
X209912266Y-125604586D01*
X210069431Y-125539486D01*
X210236277Y-125506299D01*
X210406391Y-125506299D01*
X210573237Y-125539486D01*
X210573237Y-125539486D01*
G37*
G36*
X143940903Y-125538587D02*
X144098068Y-125603687D01*
X144239513Y-125698198D01*
X144359802Y-125818487D01*
X144454313Y-125959932D01*
X144519413Y-126117097D01*
X144552600Y-126283943D01*
X144552600Y-126454057D01*
X144519413Y-126620903D01*
X144454313Y-126778068D01*
X144359802Y-126919513D01*
X144239513Y-127039802D01*
X144098068Y-127134313D01*
X143940903Y-127199413D01*
X143774057Y-127232600D01*
X143603943Y-127232600D01*
X143437097Y-127199413D01*
X143279932Y-127134313D01*
X143138487Y-127039802D01*
X143018198Y-126919513D01*
X142923687Y-126778068D01*
X142858587Y-126620903D01*
X142825400Y-126454057D01*
X142825400Y-126283943D01*
X142858587Y-126117097D01*
X142923687Y-125959932D01*
X143018198Y-125818487D01*
X143138487Y-125698198D01*
X143279932Y-125603687D01*
X143437097Y-125538587D01*
X143603943Y-125505400D01*
X143774057Y-125505400D01*
X143940903Y-125538587D01*
X143940903Y-125538587D01*
G37*
G36*
X156562903Y-125538587D02*
X156720068Y-125603687D01*
X156861513Y-125698198D01*
X156981802Y-125818487D01*
X157076313Y-125959932D01*
X157141413Y-126117097D01*
X157174600Y-126283943D01*
X157174600Y-126454057D01*
X157141413Y-126620903D01*
X157076313Y-126778068D01*
X156981802Y-126919513D01*
X156861513Y-127039802D01*
X156720068Y-127134313D01*
X156562903Y-127199413D01*
X156396057Y-127232600D01*
X156225943Y-127232600D01*
X156059097Y-127199413D01*
X155901932Y-127134313D01*
X155760487Y-127039802D01*
X155640198Y-126919513D01*
X155545687Y-126778068D01*
X155480587Y-126620903D01*
X155447400Y-126454057D01*
X155447400Y-126283943D01*
X155480587Y-126117097D01*
X155545687Y-125959932D01*
X155640198Y-125818487D01*
X155760487Y-125698198D01*
X155901932Y-125603687D01*
X156059097Y-125538587D01*
X156225943Y-125505400D01*
X156396057Y-125505400D01*
X156562903Y-125538587D01*
X156562903Y-125538587D01*
G37*
G36*
X132562903Y-125538587D02*
X132720068Y-125603687D01*
X132861513Y-125698198D01*
X132981802Y-125818487D01*
X133076313Y-125959932D01*
X133141413Y-126117097D01*
X133174600Y-126283943D01*
X133174600Y-126454057D01*
X133141413Y-126620903D01*
X133076313Y-126778068D01*
X132981802Y-126919513D01*
X132861513Y-127039802D01*
X132720068Y-127134313D01*
X132562903Y-127199413D01*
X132396057Y-127232600D01*
X132225943Y-127232600D01*
X132059097Y-127199413D01*
X131901932Y-127134313D01*
X131760487Y-127039802D01*
X131640198Y-126919513D01*
X131545687Y-126778068D01*
X131480587Y-126620903D01*
X131447400Y-126454057D01*
X131447400Y-126283943D01*
X131480587Y-126117097D01*
X131545687Y-125959932D01*
X131640198Y-125818487D01*
X131760487Y-125698198D01*
X131901932Y-125603687D01*
X132059097Y-125538587D01*
X132225943Y-125505400D01*
X132396057Y-125505400D01*
X132562903Y-125538587D01*
X132562903Y-125538587D01*
G37*
G36*
X167940903Y-125538587D02*
X168098068Y-125603687D01*
X168239513Y-125698198D01*
X168359802Y-125818487D01*
X168454313Y-125959932D01*
X168519413Y-126117097D01*
X168552600Y-126283943D01*
X168552600Y-126454057D01*
X168519413Y-126620903D01*
X168454313Y-126778068D01*
X168359802Y-126919513D01*
X168239513Y-127039802D01*
X168098068Y-127134313D01*
X167940903Y-127199413D01*
X167774057Y-127232600D01*
X167603943Y-127232600D01*
X167437097Y-127199413D01*
X167279932Y-127134313D01*
X167138487Y-127039802D01*
X167018198Y-126919513D01*
X166923687Y-126778068D01*
X166858587Y-126620903D01*
X166825400Y-126454057D01*
X166825400Y-126283943D01*
X166858587Y-126117097D01*
X166923687Y-125959932D01*
X167018198Y-125818487D01*
X167138487Y-125698198D01*
X167279932Y-125603687D01*
X167437097Y-125538587D01*
X167603943Y-125505400D01*
X167774057Y-125505400D01*
X167940903Y-125538587D01*
X167940903Y-125538587D01*
G37*
G36*
X102564903Y-125532587D02*
X102722068Y-125597687D01*
X102863513Y-125692198D01*
X102983802Y-125812487D01*
X103078313Y-125953932D01*
X103143413Y-126111097D01*
X103176600Y-126277943D01*
X103176600Y-126448057D01*
X103143413Y-126614903D01*
X103078313Y-126772068D01*
X102983802Y-126913513D01*
X102863513Y-127033802D01*
X102722068Y-127128313D01*
X102564903Y-127193413D01*
X102398057Y-127226600D01*
X102227943Y-127226600D01*
X102061097Y-127193413D01*
X101903932Y-127128313D01*
X101762487Y-127033802D01*
X101642198Y-126913513D01*
X101547687Y-126772068D01*
X101482587Y-126614903D01*
X101449400Y-126448057D01*
X101449400Y-126277943D01*
X101482587Y-126111097D01*
X101547687Y-125953932D01*
X101642198Y-125812487D01*
X101762487Y-125692198D01*
X101903932Y-125597687D01*
X102061097Y-125532587D01*
X102227943Y-125499400D01*
X102398057Y-125499400D01*
X102564903Y-125532587D01*
X102564903Y-125532587D01*
G37*
G36*
X113942903Y-125532587D02*
X114100068Y-125597687D01*
X114241513Y-125692198D01*
X114361802Y-125812487D01*
X114456313Y-125953932D01*
X114521413Y-126111097D01*
X114554600Y-126277943D01*
X114554600Y-126448057D01*
X114521413Y-126614903D01*
X114456313Y-126772068D01*
X114361802Y-126913513D01*
X114241513Y-127033802D01*
X114100068Y-127128313D01*
X113942903Y-127193413D01*
X113776057Y-127226600D01*
X113605943Y-127226600D01*
X113439097Y-127193413D01*
X113281932Y-127128313D01*
X113140487Y-127033802D01*
X113020198Y-126913513D01*
X112925687Y-126772068D01*
X112860587Y-126614903D01*
X112827400Y-126448057D01*
X112827400Y-126277943D01*
X112860587Y-126111097D01*
X112925687Y-125953932D01*
X113020198Y-125812487D01*
X113140487Y-125692198D01*
X113281932Y-125597687D01*
X113439097Y-125532587D01*
X113605943Y-125499400D01*
X113776057Y-125499400D01*
X113942903Y-125532587D01*
X113942903Y-125532587D01*
G37*
G36*
X238436907Y-123747796D02*
X238514036Y-123755393D01*
X238645987Y-123795420D01*
X238711963Y-123815433D01*
X238894372Y-123912933D01*
X239054254Y-124044146D01*
X239185467Y-124204028D01*
X239282967Y-124386437D01*
X239292340Y-124417336D01*
X239343007Y-124584364D01*
X239363280Y-124790200D01*
X239343007Y-124996036D01*
X239306030Y-125117934D01*
X239282967Y-125193963D01*
X239185467Y-125376372D01*
X239054254Y-125536254D01*
X238894372Y-125667467D01*
X238711963Y-125764967D01*
X238645987Y-125784980D01*
X238514036Y-125825007D01*
X238436907Y-125832604D01*
X238359780Y-125840200D01*
X238256620Y-125840200D01*
X238179493Y-125832604D01*
X238102364Y-125825007D01*
X237970413Y-125784980D01*
X237904437Y-125764967D01*
X237722028Y-125667467D01*
X237562146Y-125536254D01*
X237430933Y-125376372D01*
X237333433Y-125193963D01*
X237310370Y-125117934D01*
X237273393Y-124996036D01*
X237253120Y-124790200D01*
X237273393Y-124584364D01*
X237324060Y-124417336D01*
X237333433Y-124386437D01*
X237430933Y-124204028D01*
X237562146Y-124044146D01*
X237722028Y-123912933D01*
X237904437Y-123815433D01*
X237970413Y-123795420D01*
X238102364Y-123755393D01*
X238179493Y-123747796D01*
X238256620Y-123740200D01*
X238359780Y-123740200D01*
X238436907Y-123747796D01*
X238436907Y-123747796D01*
G37*
G36*
X235896907Y-123747796D02*
X235974036Y-123755393D01*
X236105987Y-123795420D01*
X236171963Y-123815433D01*
X236354372Y-123912933D01*
X236514254Y-124044146D01*
X236645467Y-124204028D01*
X236742967Y-124386437D01*
X236752340Y-124417336D01*
X236803007Y-124584364D01*
X236823280Y-124790200D01*
X236803007Y-124996036D01*
X236766030Y-125117934D01*
X236742967Y-125193963D01*
X236645467Y-125376372D01*
X236514254Y-125536254D01*
X236354372Y-125667467D01*
X236171963Y-125764967D01*
X236105987Y-125784980D01*
X235974036Y-125825007D01*
X235896907Y-125832604D01*
X235819780Y-125840200D01*
X235716620Y-125840200D01*
X235639493Y-125832604D01*
X235562364Y-125825007D01*
X235430413Y-125784980D01*
X235364437Y-125764967D01*
X235182028Y-125667467D01*
X235022146Y-125536254D01*
X234890933Y-125376372D01*
X234793433Y-125193963D01*
X234770370Y-125117934D01*
X234733393Y-124996036D01*
X234713120Y-124790200D01*
X234733393Y-124584364D01*
X234784060Y-124417336D01*
X234793433Y-124386437D01*
X234890933Y-124204028D01*
X235022146Y-124044146D01*
X235182028Y-123912933D01*
X235364437Y-123815433D01*
X235430413Y-123795420D01*
X235562364Y-123755393D01*
X235639493Y-123747796D01*
X235716620Y-123740200D01*
X235819780Y-123740200D01*
X235896907Y-123747796D01*
X235896907Y-123747796D01*
G37*
G36*
X175947934Y-122782664D02*
X176102627Y-122846740D01*
X176241847Y-122939764D01*
X176360236Y-123058153D01*
X176453260Y-123197373D01*
X176517336Y-123352066D01*
X176550000Y-123516281D01*
X176550000Y-123683719D01*
X176517336Y-123847933D01*
X176488055Y-123918624D01*
X176480942Y-123942073D01*
X176478540Y-123966459D01*
X176480942Y-123990846D01*
X176488055Y-124014295D01*
X176499606Y-124035906D01*
X176515151Y-124054848D01*
X176534093Y-124070393D01*
X176555704Y-124081945D01*
X176579153Y-124089058D01*
X176603539Y-124091460D01*
X176627926Y-124089058D01*
X176651376Y-124081945D01*
X176679265Y-124070393D01*
X176722064Y-124052665D01*
X176722065Y-124052665D01*
X176722067Y-124052664D01*
X176886281Y-124020000D01*
X177053719Y-124020000D01*
X177217933Y-124052664D01*
X177217935Y-124052665D01*
X177217936Y-124052665D01*
X177260735Y-124070393D01*
X177288624Y-124081945D01*
X177312073Y-124089058D01*
X177336459Y-124091460D01*
X177360846Y-124089058D01*
X177384295Y-124081945D01*
X177405906Y-124070394D01*
X177424848Y-124054849D01*
X177440393Y-124035907D01*
X177451945Y-124014296D01*
X177459058Y-123990847D01*
X177461460Y-123966461D01*
X177459058Y-123942074D01*
X177451945Y-123918624D01*
X177422664Y-123847933D01*
X177390000Y-123683719D01*
X177390000Y-123516281D01*
X177422664Y-123352066D01*
X177486740Y-123197373D01*
X177579764Y-123058153D01*
X177698153Y-122939764D01*
X177837373Y-122846740D01*
X177992066Y-122782664D01*
X178156281Y-122750000D01*
X178323719Y-122750000D01*
X178487934Y-122782664D01*
X178642627Y-122846740D01*
X178781847Y-122939764D01*
X178900236Y-123058153D01*
X178993260Y-123197373D01*
X179057336Y-123352066D01*
X179090000Y-123516281D01*
X179090000Y-123683719D01*
X179057336Y-123847934D01*
X178993260Y-124002627D01*
X178900236Y-124141847D01*
X178781847Y-124260236D01*
X178642627Y-124353260D01*
X178487934Y-124417336D01*
X178323719Y-124450000D01*
X178156281Y-124450000D01*
X177992067Y-124417336D01*
X177992065Y-124417335D01*
X177992064Y-124417335D01*
X177921377Y-124388055D01*
X177897927Y-124380942D01*
X177873541Y-124378540D01*
X177849154Y-124380942D01*
X177825705Y-124388055D01*
X177804094Y-124399606D01*
X177785152Y-124415151D01*
X177769607Y-124434093D01*
X177758055Y-124455704D01*
X177750942Y-124479153D01*
X177748540Y-124503539D01*
X177750942Y-124527926D01*
X177758055Y-124551376D01*
X177787336Y-124622067D01*
X177820000Y-124786281D01*
X177820000Y-124953719D01*
X177787336Y-125117934D01*
X177723260Y-125272627D01*
X177630236Y-125411847D01*
X177511847Y-125530236D01*
X177372627Y-125623260D01*
X177217934Y-125687336D01*
X177053719Y-125720000D01*
X176886281Y-125720000D01*
X176722066Y-125687336D01*
X176567373Y-125623260D01*
X176428153Y-125530236D01*
X176309764Y-125411847D01*
X176216740Y-125272627D01*
X176152664Y-125117934D01*
X176120000Y-124953719D01*
X176120000Y-124786281D01*
X176152664Y-124622067D01*
X176181945Y-124551376D01*
X176189058Y-124527927D01*
X176191460Y-124503541D01*
X176189058Y-124479154D01*
X176181945Y-124455705D01*
X176170394Y-124434094D01*
X176154849Y-124415152D01*
X176135907Y-124399607D01*
X176114296Y-124388055D01*
X176090847Y-124380942D01*
X176066461Y-124378540D01*
X176042074Y-124380942D01*
X176018623Y-124388055D01*
X175947936Y-124417335D01*
X175947935Y-124417335D01*
X175947933Y-124417336D01*
X175783719Y-124450000D01*
X175616281Y-124450000D01*
X175452066Y-124417336D01*
X175297373Y-124353260D01*
X175158153Y-124260236D01*
X175039764Y-124141847D01*
X174946740Y-124002627D01*
X174882664Y-123847934D01*
X174850000Y-123683719D01*
X174850000Y-123516281D01*
X174882664Y-123352066D01*
X174946740Y-123197373D01*
X175039764Y-123058153D01*
X175158153Y-122939764D01*
X175297373Y-122846740D01*
X175452066Y-122782664D01*
X175616281Y-122750000D01*
X175783719Y-122750000D01*
X175947934Y-122782664D01*
X175947934Y-122782664D01*
G37*
G36*
X121947934Y-122782664D02*
X122102627Y-122846740D01*
X122241847Y-122939764D01*
X122360236Y-123058153D01*
X122453260Y-123197373D01*
X122517336Y-123352066D01*
X122550000Y-123516281D01*
X122550000Y-123683719D01*
X122517336Y-123847933D01*
X122488055Y-123918624D01*
X122480942Y-123942073D01*
X122478540Y-123966459D01*
X122480942Y-123990846D01*
X122488055Y-124014295D01*
X122499606Y-124035906D01*
X122515151Y-124054848D01*
X122534093Y-124070393D01*
X122555704Y-124081945D01*
X122579153Y-124089058D01*
X122603539Y-124091460D01*
X122627926Y-124089058D01*
X122651376Y-124081945D01*
X122679265Y-124070393D01*
X122722064Y-124052665D01*
X122722065Y-124052665D01*
X122722067Y-124052664D01*
X122886281Y-124020000D01*
X123053719Y-124020000D01*
X123217933Y-124052664D01*
X123217935Y-124052665D01*
X123217936Y-124052665D01*
X123260735Y-124070393D01*
X123288624Y-124081945D01*
X123312073Y-124089058D01*
X123336459Y-124091460D01*
X123360846Y-124089058D01*
X123384295Y-124081945D01*
X123405906Y-124070394D01*
X123424848Y-124054849D01*
X123440393Y-124035907D01*
X123451945Y-124014296D01*
X123459058Y-123990847D01*
X123461460Y-123966461D01*
X123459058Y-123942074D01*
X123451945Y-123918624D01*
X123422664Y-123847933D01*
X123390000Y-123683719D01*
X123390000Y-123516281D01*
X123422664Y-123352066D01*
X123486740Y-123197373D01*
X123579764Y-123058153D01*
X123698153Y-122939764D01*
X123837373Y-122846740D01*
X123992066Y-122782664D01*
X124156281Y-122750000D01*
X124323719Y-122750000D01*
X124487934Y-122782664D01*
X124642627Y-122846740D01*
X124781847Y-122939764D01*
X124900236Y-123058153D01*
X124993260Y-123197373D01*
X125057336Y-123352066D01*
X125090000Y-123516281D01*
X125090000Y-123683719D01*
X125057336Y-123847934D01*
X124993260Y-124002627D01*
X124900236Y-124141847D01*
X124781847Y-124260236D01*
X124642627Y-124353260D01*
X124487934Y-124417336D01*
X124323719Y-124450000D01*
X124156281Y-124450000D01*
X123992067Y-124417336D01*
X123992065Y-124417335D01*
X123992064Y-124417335D01*
X123921377Y-124388055D01*
X123897927Y-124380942D01*
X123873541Y-124378540D01*
X123849154Y-124380942D01*
X123825705Y-124388055D01*
X123804094Y-124399606D01*
X123785152Y-124415151D01*
X123769607Y-124434093D01*
X123758055Y-124455704D01*
X123750942Y-124479153D01*
X123748540Y-124503539D01*
X123750942Y-124527926D01*
X123758055Y-124551376D01*
X123787336Y-124622067D01*
X123820000Y-124786281D01*
X123820000Y-124953719D01*
X123787336Y-125117934D01*
X123723260Y-125272627D01*
X123630236Y-125411847D01*
X123511847Y-125530236D01*
X123372627Y-125623260D01*
X123217934Y-125687336D01*
X123053719Y-125720000D01*
X122886281Y-125720000D01*
X122722066Y-125687336D01*
X122567373Y-125623260D01*
X122428153Y-125530236D01*
X122309764Y-125411847D01*
X122216740Y-125272627D01*
X122152664Y-125117934D01*
X122120000Y-124953719D01*
X122120000Y-124786281D01*
X122152664Y-124622067D01*
X122181945Y-124551376D01*
X122189058Y-124527927D01*
X122191460Y-124503541D01*
X122189058Y-124479154D01*
X122181945Y-124455705D01*
X122170394Y-124434094D01*
X122154849Y-124415152D01*
X122135907Y-124399607D01*
X122114296Y-124388055D01*
X122090847Y-124380942D01*
X122066461Y-124378540D01*
X122042074Y-124380942D01*
X122018623Y-124388055D01*
X121947936Y-124417335D01*
X121947935Y-124417335D01*
X121947933Y-124417336D01*
X121783719Y-124450000D01*
X121616281Y-124450000D01*
X121452066Y-124417336D01*
X121297373Y-124353260D01*
X121158153Y-124260236D01*
X121039764Y-124141847D01*
X120946740Y-124002627D01*
X120882664Y-123847934D01*
X120850000Y-123683719D01*
X120850000Y-123516281D01*
X120882664Y-123352066D01*
X120946740Y-123197373D01*
X121039764Y-123058153D01*
X121158153Y-122939764D01*
X121297373Y-122846740D01*
X121452066Y-122782664D01*
X121616281Y-122750000D01*
X121783719Y-122750000D01*
X121947934Y-122782664D01*
X121947934Y-122782664D01*
G37*
G36*
X90446903Y-122806588D02*
X90604068Y-122871688D01*
X90745513Y-122966199D01*
X90865802Y-123086488D01*
X90960313Y-123227933D01*
X91025413Y-123385098D01*
X91058600Y-123551944D01*
X91058600Y-123722058D01*
X91025413Y-123888904D01*
X90960313Y-124046069D01*
X90865802Y-124187514D01*
X90745513Y-124307803D01*
X90604068Y-124402314D01*
X90446903Y-124467414D01*
X90280057Y-124500601D01*
X90109943Y-124500601D01*
X89943097Y-124467414D01*
X89785932Y-124402314D01*
X89644487Y-124307803D01*
X89524198Y-124187514D01*
X89429687Y-124046069D01*
X89364587Y-123888904D01*
X89331400Y-123722058D01*
X89331400Y-123551944D01*
X89364587Y-123385098D01*
X89429687Y-123227933D01*
X89524198Y-123086488D01*
X89644487Y-122966199D01*
X89785932Y-122871688D01*
X89943097Y-122806588D01*
X90109943Y-122773401D01*
X90280057Y-122773401D01*
X90446903Y-122806588D01*
X90446903Y-122806588D01*
G37*
G36*
X78068903Y-122806588D02*
X78226068Y-122871688D01*
X78367513Y-122966199D01*
X78487802Y-123086488D01*
X78582313Y-123227933D01*
X78647413Y-123385098D01*
X78680600Y-123551944D01*
X78680600Y-123722058D01*
X78647413Y-123888904D01*
X78582313Y-124046069D01*
X78487802Y-124187514D01*
X78367513Y-124307803D01*
X78226068Y-124402314D01*
X78068903Y-124467414D01*
X77902057Y-124500601D01*
X77731943Y-124500601D01*
X77565097Y-124467414D01*
X77407932Y-124402314D01*
X77266487Y-124307803D01*
X77146198Y-124187514D01*
X77051687Y-124046069D01*
X76986587Y-123888904D01*
X76953400Y-123722058D01*
X76953400Y-123551944D01*
X76986587Y-123385098D01*
X77051687Y-123227933D01*
X77146198Y-123086488D01*
X77266487Y-122966199D01*
X77407932Y-122871688D01*
X77565097Y-122806588D01*
X77731943Y-122773401D01*
X77902057Y-122773401D01*
X78068903Y-122806588D01*
X78068903Y-122806588D01*
G37*
G36*
X186073637Y-122802086D02*
X186230802Y-122867186D01*
X186372247Y-122961697D01*
X186492536Y-123081986D01*
X186587047Y-123223431D01*
X186652147Y-123380596D01*
X186685334Y-123547442D01*
X186685334Y-123717556D01*
X186652147Y-123884402D01*
X186587047Y-124041567D01*
X186492536Y-124183012D01*
X186372247Y-124303301D01*
X186230802Y-124397812D01*
X186073637Y-124462912D01*
X185906791Y-124496099D01*
X185736677Y-124496099D01*
X185569831Y-124462912D01*
X185412666Y-124397812D01*
X185271221Y-124303301D01*
X185150932Y-124183012D01*
X185056421Y-124041567D01*
X184991321Y-123884402D01*
X184958134Y-123717556D01*
X184958134Y-123547442D01*
X184991321Y-123380596D01*
X185056421Y-123223431D01*
X185150932Y-123081986D01*
X185271221Y-122961697D01*
X185412666Y-122867186D01*
X185569831Y-122802086D01*
X185736677Y-122768899D01*
X185906791Y-122768899D01*
X186073637Y-122802086D01*
X186073637Y-122802086D01*
G37*
G36*
X198451637Y-122802086D02*
X198608802Y-122867186D01*
X198750247Y-122961697D01*
X198870536Y-123081986D01*
X198965047Y-123223431D01*
X199030147Y-123380596D01*
X199063334Y-123547442D01*
X199063334Y-123717556D01*
X199030147Y-123884402D01*
X198965047Y-124041567D01*
X198870536Y-124183012D01*
X198750247Y-124303301D01*
X198608802Y-124397812D01*
X198451637Y-124462912D01*
X198284791Y-124496099D01*
X198114677Y-124496099D01*
X197947831Y-124462912D01*
X197790666Y-124397812D01*
X197649221Y-124303301D01*
X197528932Y-124183012D01*
X197434421Y-124041567D01*
X197369321Y-123884402D01*
X197336134Y-123717556D01*
X197336134Y-123547442D01*
X197369321Y-123380596D01*
X197434421Y-123223431D01*
X197528932Y-123081986D01*
X197649221Y-122961697D01*
X197790666Y-122867186D01*
X197947831Y-122802086D01*
X198114677Y-122768899D01*
X198284791Y-122768899D01*
X198451637Y-122802086D01*
X198451637Y-122802086D01*
G37*
G36*
X210073237Y-122801486D02*
X210230402Y-122866586D01*
X210371847Y-122961097D01*
X210492136Y-123081386D01*
X210586647Y-123222831D01*
X210651747Y-123379996D01*
X210684934Y-123546842D01*
X210684934Y-123716956D01*
X210651747Y-123883802D01*
X210586647Y-124040967D01*
X210492136Y-124182412D01*
X210371847Y-124302701D01*
X210230402Y-124397212D01*
X210073237Y-124462312D01*
X209906391Y-124495499D01*
X209736277Y-124495499D01*
X209569431Y-124462312D01*
X209412266Y-124397212D01*
X209270821Y-124302701D01*
X209150532Y-124182412D01*
X209056021Y-124040967D01*
X208990921Y-123883802D01*
X208957734Y-123716956D01*
X208957734Y-123546842D01*
X208990921Y-123379996D01*
X209056021Y-123222831D01*
X209150532Y-123081386D01*
X209270821Y-122961097D01*
X209412266Y-122866586D01*
X209569431Y-122801486D01*
X209736277Y-122768299D01*
X209906391Y-122768299D01*
X210073237Y-122801486D01*
X210073237Y-122801486D01*
G37*
G36*
X222451237Y-122801486D02*
X222608402Y-122866586D01*
X222749847Y-122961097D01*
X222870136Y-123081386D01*
X222964647Y-123222831D01*
X223029747Y-123379996D01*
X223062934Y-123546842D01*
X223062934Y-123716956D01*
X223029747Y-123883802D01*
X222964647Y-124040967D01*
X222870136Y-124182412D01*
X222749847Y-124302701D01*
X222608402Y-124397212D01*
X222451237Y-124462312D01*
X222284391Y-124495499D01*
X222114277Y-124495499D01*
X221947431Y-124462312D01*
X221790266Y-124397212D01*
X221648821Y-124302701D01*
X221528532Y-124182412D01*
X221434021Y-124040967D01*
X221368921Y-123883802D01*
X221335734Y-123716956D01*
X221335734Y-123546842D01*
X221368921Y-123379996D01*
X221434021Y-123222831D01*
X221528532Y-123081386D01*
X221648821Y-122961097D01*
X221790266Y-122866586D01*
X221947431Y-122801486D01*
X222114277Y-122768299D01*
X222284391Y-122768299D01*
X222451237Y-122801486D01*
X222451237Y-122801486D01*
G37*
G36*
X132062903Y-122800587D02*
X132220068Y-122865687D01*
X132361513Y-122960198D01*
X132481802Y-123080487D01*
X132576313Y-123221932D01*
X132641413Y-123379097D01*
X132674600Y-123545943D01*
X132674600Y-123716057D01*
X132641413Y-123882903D01*
X132576313Y-124040068D01*
X132481802Y-124181513D01*
X132361513Y-124301802D01*
X132220068Y-124396313D01*
X132062903Y-124461413D01*
X131896057Y-124494600D01*
X131725943Y-124494600D01*
X131559097Y-124461413D01*
X131401932Y-124396313D01*
X131260487Y-124301802D01*
X131140198Y-124181513D01*
X131045687Y-124040068D01*
X130980587Y-123882903D01*
X130947400Y-123716057D01*
X130947400Y-123545943D01*
X130980587Y-123379097D01*
X131045687Y-123221932D01*
X131140198Y-123080487D01*
X131260487Y-122960198D01*
X131401932Y-122865687D01*
X131559097Y-122800587D01*
X131725943Y-122767400D01*
X131896057Y-122767400D01*
X132062903Y-122800587D01*
X132062903Y-122800587D01*
G37*
G36*
X156062903Y-122800587D02*
X156220068Y-122865687D01*
X156361513Y-122960198D01*
X156481802Y-123080487D01*
X156576313Y-123221932D01*
X156641413Y-123379097D01*
X156674600Y-123545943D01*
X156674600Y-123716057D01*
X156641413Y-123882903D01*
X156576313Y-124040068D01*
X156481802Y-124181513D01*
X156361513Y-124301802D01*
X156220068Y-124396313D01*
X156062903Y-124461413D01*
X155896057Y-124494600D01*
X155725943Y-124494600D01*
X155559097Y-124461413D01*
X155401932Y-124396313D01*
X155260487Y-124301802D01*
X155140198Y-124181513D01*
X155045687Y-124040068D01*
X154980587Y-123882903D01*
X154947400Y-123716057D01*
X154947400Y-123545943D01*
X154980587Y-123379097D01*
X155045687Y-123221932D01*
X155140198Y-123080487D01*
X155260487Y-122960198D01*
X155401932Y-122865687D01*
X155559097Y-122800587D01*
X155725943Y-122767400D01*
X155896057Y-122767400D01*
X156062903Y-122800587D01*
X156062903Y-122800587D01*
G37*
G36*
X168440903Y-122800587D02*
X168598068Y-122865687D01*
X168739513Y-122960198D01*
X168859802Y-123080487D01*
X168954313Y-123221932D01*
X169019413Y-123379097D01*
X169052600Y-123545943D01*
X169052600Y-123716057D01*
X169019413Y-123882903D01*
X168954313Y-124040068D01*
X168859802Y-124181513D01*
X168739513Y-124301802D01*
X168598068Y-124396313D01*
X168440903Y-124461413D01*
X168274057Y-124494600D01*
X168103943Y-124494600D01*
X167937097Y-124461413D01*
X167779932Y-124396313D01*
X167638487Y-124301802D01*
X167518198Y-124181513D01*
X167423687Y-124040068D01*
X167358587Y-123882903D01*
X167325400Y-123716057D01*
X167325400Y-123545943D01*
X167358587Y-123379097D01*
X167423687Y-123221932D01*
X167518198Y-123080487D01*
X167638487Y-122960198D01*
X167779932Y-122865687D01*
X167937097Y-122800587D01*
X168103943Y-122767400D01*
X168274057Y-122767400D01*
X168440903Y-122800587D01*
X168440903Y-122800587D01*
G37*
G36*
X144440903Y-122800587D02*
X144598068Y-122865687D01*
X144739513Y-122960198D01*
X144859802Y-123080487D01*
X144954313Y-123221932D01*
X145019413Y-123379097D01*
X145052600Y-123545943D01*
X145052600Y-123716057D01*
X145019413Y-123882903D01*
X144954313Y-124040068D01*
X144859802Y-124181513D01*
X144739513Y-124301802D01*
X144598068Y-124396313D01*
X144440903Y-124461413D01*
X144274057Y-124494600D01*
X144103943Y-124494600D01*
X143937097Y-124461413D01*
X143779932Y-124396313D01*
X143638487Y-124301802D01*
X143518198Y-124181513D01*
X143423687Y-124040068D01*
X143358587Y-123882903D01*
X143325400Y-123716057D01*
X143325400Y-123545943D01*
X143358587Y-123379097D01*
X143423687Y-123221932D01*
X143518198Y-123080487D01*
X143638487Y-122960198D01*
X143779932Y-122865687D01*
X143937097Y-122800587D01*
X144103943Y-122767400D01*
X144274057Y-122767400D01*
X144440903Y-122800587D01*
X144440903Y-122800587D01*
G37*
G36*
X114442903Y-122794587D02*
X114600068Y-122859687D01*
X114741513Y-122954198D01*
X114861802Y-123074487D01*
X114956313Y-123215932D01*
X115021413Y-123373097D01*
X115054600Y-123539943D01*
X115054600Y-123710057D01*
X115021413Y-123876903D01*
X114956313Y-124034068D01*
X114861802Y-124175513D01*
X114741513Y-124295802D01*
X114600068Y-124390313D01*
X114442903Y-124455413D01*
X114276057Y-124488600D01*
X114105943Y-124488600D01*
X113939097Y-124455413D01*
X113781932Y-124390313D01*
X113640487Y-124295802D01*
X113520198Y-124175513D01*
X113425687Y-124034068D01*
X113360587Y-123876903D01*
X113327400Y-123710057D01*
X113327400Y-123539943D01*
X113360587Y-123373097D01*
X113425687Y-123215932D01*
X113520198Y-123074487D01*
X113640487Y-122954198D01*
X113781932Y-122859687D01*
X113939097Y-122794587D01*
X114105943Y-122761400D01*
X114276057Y-122761400D01*
X114442903Y-122794587D01*
X114442903Y-122794587D01*
G37*
G36*
X102064903Y-122794587D02*
X102222068Y-122859687D01*
X102363513Y-122954198D01*
X102483802Y-123074487D01*
X102578313Y-123215932D01*
X102643413Y-123373097D01*
X102676600Y-123539943D01*
X102676600Y-123710057D01*
X102643413Y-123876903D01*
X102578313Y-124034068D01*
X102483802Y-124175513D01*
X102363513Y-124295802D01*
X102222068Y-124390313D01*
X102064903Y-124455413D01*
X101898057Y-124488600D01*
X101727943Y-124488600D01*
X101561097Y-124455413D01*
X101403932Y-124390313D01*
X101262487Y-124295802D01*
X101142198Y-124175513D01*
X101047687Y-124034068D01*
X100982587Y-123876903D01*
X100949400Y-123710057D01*
X100949400Y-123539943D01*
X100982587Y-123373097D01*
X101047687Y-123215932D01*
X101142198Y-123074487D01*
X101262487Y-122954198D01*
X101403932Y-122859687D01*
X101561097Y-122794587D01*
X101727943Y-122761400D01*
X101898057Y-122761400D01*
X102064903Y-122794587D01*
X102064903Y-122794587D01*
G37*
G36*
X238436907Y-121207796D02*
X238514036Y-121215393D01*
X238645987Y-121255420D01*
X238711963Y-121275433D01*
X238894372Y-121372933D01*
X239054254Y-121504146D01*
X239185467Y-121664028D01*
X239282967Y-121846437D01*
X239282967Y-121846438D01*
X239343007Y-122044364D01*
X239363280Y-122250200D01*
X239343007Y-122456036D01*
X239302980Y-122587987D01*
X239282967Y-122653963D01*
X239185467Y-122836372D01*
X239054254Y-122996254D01*
X238894372Y-123127467D01*
X238711963Y-123224967D01*
X238645987Y-123244980D01*
X238514036Y-123285007D01*
X238436907Y-123292604D01*
X238359780Y-123300200D01*
X238256620Y-123300200D01*
X238179493Y-123292604D01*
X238102364Y-123285007D01*
X237970413Y-123244980D01*
X237904437Y-123224967D01*
X237722028Y-123127467D01*
X237562146Y-122996254D01*
X237430933Y-122836372D01*
X237333433Y-122653963D01*
X237313420Y-122587987D01*
X237273393Y-122456036D01*
X237253120Y-122250200D01*
X237273393Y-122044364D01*
X237333433Y-121846438D01*
X237333433Y-121846437D01*
X237430933Y-121664028D01*
X237562146Y-121504146D01*
X237722028Y-121372933D01*
X237904437Y-121275433D01*
X237970413Y-121255420D01*
X238102364Y-121215393D01*
X238179493Y-121207796D01*
X238256620Y-121200200D01*
X238359780Y-121200200D01*
X238436907Y-121207796D01*
X238436907Y-121207796D01*
G37*
G36*
X235896907Y-121207796D02*
X235974036Y-121215393D01*
X236105987Y-121255420D01*
X236171963Y-121275433D01*
X236354372Y-121372933D01*
X236514254Y-121504146D01*
X236645467Y-121664028D01*
X236742967Y-121846437D01*
X236742967Y-121846438D01*
X236803007Y-122044364D01*
X236823280Y-122250200D01*
X236803007Y-122456036D01*
X236762980Y-122587987D01*
X236742967Y-122653963D01*
X236645467Y-122836372D01*
X236514254Y-122996254D01*
X236354372Y-123127467D01*
X236171963Y-123224967D01*
X236105987Y-123244980D01*
X235974036Y-123285007D01*
X235896907Y-123292604D01*
X235819780Y-123300200D01*
X235716620Y-123300200D01*
X235639493Y-123292604D01*
X235562364Y-123285007D01*
X235430413Y-123244980D01*
X235364437Y-123224967D01*
X235182028Y-123127467D01*
X235022146Y-122996254D01*
X234890933Y-122836372D01*
X234793433Y-122653963D01*
X234773420Y-122587987D01*
X234733393Y-122456036D01*
X234713120Y-122250200D01*
X234733393Y-122044364D01*
X234793433Y-121846438D01*
X234793433Y-121846437D01*
X234890933Y-121664028D01*
X235022146Y-121504146D01*
X235182028Y-121372933D01*
X235364437Y-121275433D01*
X235430413Y-121255420D01*
X235562364Y-121215393D01*
X235639493Y-121207796D01*
X235716620Y-121200200D01*
X235819780Y-121200200D01*
X235896907Y-121207796D01*
X235896907Y-121207796D01*
G37*
G36*
X89324903Y-119438588D02*
X89482068Y-119503688D01*
X89623513Y-119598199D01*
X89743802Y-119718488D01*
X89838313Y-119859933D01*
X89903413Y-120017098D01*
X89936600Y-120183944D01*
X89936600Y-120354058D01*
X89903413Y-120520904D01*
X89838313Y-120678069D01*
X89743802Y-120819514D01*
X89623513Y-120939803D01*
X89482068Y-121034314D01*
X89324903Y-121099414D01*
X89158057Y-121132601D01*
X88987943Y-121132601D01*
X88821097Y-121099414D01*
X88663932Y-121034314D01*
X88522487Y-120939803D01*
X88402198Y-120819514D01*
X88307687Y-120678069D01*
X88242587Y-120520904D01*
X88209400Y-120354058D01*
X88209400Y-120183944D01*
X88242587Y-120017098D01*
X88307687Y-119859933D01*
X88402198Y-119718488D01*
X88522487Y-119598199D01*
X88663932Y-119503688D01*
X88821097Y-119438588D01*
X88987943Y-119405401D01*
X89158057Y-119405401D01*
X89324903Y-119438588D01*
X89324903Y-119438588D01*
G37*
G36*
X79190903Y-119438588D02*
X79348068Y-119503688D01*
X79489513Y-119598199D01*
X79609802Y-119718488D01*
X79704313Y-119859933D01*
X79769413Y-120017098D01*
X79802600Y-120183944D01*
X79802600Y-120354058D01*
X79769413Y-120520904D01*
X79704313Y-120678069D01*
X79609802Y-120819514D01*
X79489513Y-120939803D01*
X79348068Y-121034314D01*
X79190903Y-121099414D01*
X79024057Y-121132601D01*
X78853943Y-121132601D01*
X78687097Y-121099414D01*
X78529932Y-121034314D01*
X78388487Y-120939803D01*
X78268198Y-120819514D01*
X78173687Y-120678069D01*
X78108587Y-120520904D01*
X78075400Y-120354058D01*
X78075400Y-120183944D01*
X78108587Y-120017098D01*
X78173687Y-119859933D01*
X78268198Y-119718488D01*
X78388487Y-119598199D01*
X78529932Y-119503688D01*
X78687097Y-119438588D01*
X78853943Y-119405401D01*
X79024057Y-119405401D01*
X79190903Y-119438588D01*
X79190903Y-119438588D01*
G37*
G36*
X197329637Y-119434086D02*
X197486802Y-119499186D01*
X197628247Y-119593697D01*
X197748536Y-119713986D01*
X197843047Y-119855431D01*
X197908147Y-120012596D01*
X197941334Y-120179442D01*
X197941334Y-120349556D01*
X197908147Y-120516402D01*
X197843047Y-120673567D01*
X197748536Y-120815012D01*
X197628247Y-120935301D01*
X197486802Y-121029812D01*
X197329637Y-121094912D01*
X197162791Y-121128099D01*
X196992677Y-121128099D01*
X196825831Y-121094912D01*
X196668666Y-121029812D01*
X196527221Y-120935301D01*
X196406932Y-120815012D01*
X196312421Y-120673567D01*
X196247321Y-120516402D01*
X196214134Y-120349556D01*
X196214134Y-120179442D01*
X196247321Y-120012596D01*
X196312421Y-119855431D01*
X196406932Y-119713986D01*
X196527221Y-119593697D01*
X196668666Y-119499186D01*
X196825831Y-119434086D01*
X196992677Y-119400899D01*
X197162791Y-119400899D01*
X197329637Y-119434086D01*
X197329637Y-119434086D01*
G37*
G36*
X187195637Y-119434086D02*
X187352802Y-119499186D01*
X187494247Y-119593697D01*
X187614536Y-119713986D01*
X187709047Y-119855431D01*
X187774147Y-120012596D01*
X187807334Y-120179442D01*
X187807334Y-120349556D01*
X187774147Y-120516402D01*
X187709047Y-120673567D01*
X187614536Y-120815012D01*
X187494247Y-120935301D01*
X187352802Y-121029812D01*
X187195637Y-121094912D01*
X187028791Y-121128099D01*
X186858677Y-121128099D01*
X186691831Y-121094912D01*
X186534666Y-121029812D01*
X186393221Y-120935301D01*
X186272932Y-120815012D01*
X186178421Y-120673567D01*
X186113321Y-120516402D01*
X186080134Y-120349556D01*
X186080134Y-120179442D01*
X186113321Y-120012596D01*
X186178421Y-119855431D01*
X186272932Y-119713986D01*
X186393221Y-119593697D01*
X186534666Y-119499186D01*
X186691831Y-119434086D01*
X186858677Y-119400899D01*
X187028791Y-119400899D01*
X187195637Y-119434086D01*
X187195637Y-119434086D01*
G37*
G36*
X221329237Y-119433486D02*
X221486402Y-119498586D01*
X221627847Y-119593097D01*
X221748136Y-119713386D01*
X221842647Y-119854831D01*
X221907747Y-120011996D01*
X221940934Y-120178842D01*
X221940934Y-120348956D01*
X221907747Y-120515802D01*
X221842647Y-120672967D01*
X221748136Y-120814412D01*
X221627847Y-120934701D01*
X221486402Y-121029212D01*
X221329237Y-121094312D01*
X221162391Y-121127499D01*
X220992277Y-121127499D01*
X220825431Y-121094312D01*
X220668266Y-121029212D01*
X220526821Y-120934701D01*
X220406532Y-120814412D01*
X220312021Y-120672967D01*
X220246921Y-120515802D01*
X220213734Y-120348956D01*
X220213734Y-120178842D01*
X220246921Y-120011996D01*
X220312021Y-119854831D01*
X220406532Y-119713386D01*
X220526821Y-119593097D01*
X220668266Y-119498586D01*
X220825431Y-119433486D01*
X220992277Y-119400299D01*
X221162391Y-119400299D01*
X221329237Y-119433486D01*
X221329237Y-119433486D01*
G37*
G36*
X211195237Y-119433486D02*
X211352402Y-119498586D01*
X211493847Y-119593097D01*
X211614136Y-119713386D01*
X211708647Y-119854831D01*
X211773747Y-120011996D01*
X211806934Y-120178842D01*
X211806934Y-120348956D01*
X211773747Y-120515802D01*
X211708647Y-120672967D01*
X211614136Y-120814412D01*
X211493847Y-120934701D01*
X211352402Y-121029212D01*
X211195237Y-121094312D01*
X211028391Y-121127499D01*
X210858277Y-121127499D01*
X210691431Y-121094312D01*
X210534266Y-121029212D01*
X210392821Y-120934701D01*
X210272532Y-120814412D01*
X210178021Y-120672967D01*
X210112921Y-120515802D01*
X210079734Y-120348956D01*
X210079734Y-120178842D01*
X210112921Y-120011996D01*
X210178021Y-119854831D01*
X210272532Y-119713386D01*
X210392821Y-119593097D01*
X210534266Y-119498586D01*
X210691431Y-119433486D01*
X210858277Y-119400299D01*
X211028391Y-119400299D01*
X211195237Y-119433486D01*
X211195237Y-119433486D01*
G37*
G36*
X167318903Y-119432587D02*
X167476068Y-119497687D01*
X167617513Y-119592198D01*
X167737802Y-119712487D01*
X167832313Y-119853932D01*
X167897413Y-120011097D01*
X167930600Y-120177943D01*
X167930600Y-120348057D01*
X167897413Y-120514903D01*
X167832313Y-120672068D01*
X167737802Y-120813513D01*
X167617513Y-120933802D01*
X167476068Y-121028313D01*
X167318903Y-121093413D01*
X167152057Y-121126600D01*
X166981943Y-121126600D01*
X166815097Y-121093413D01*
X166657932Y-121028313D01*
X166516487Y-120933802D01*
X166396198Y-120813513D01*
X166301687Y-120672068D01*
X166236587Y-120514903D01*
X166203400Y-120348057D01*
X166203400Y-120177943D01*
X166236587Y-120011097D01*
X166301687Y-119853932D01*
X166396198Y-119712487D01*
X166516487Y-119592198D01*
X166657932Y-119497687D01*
X166815097Y-119432587D01*
X166981943Y-119399400D01*
X167152057Y-119399400D01*
X167318903Y-119432587D01*
X167318903Y-119432587D01*
G37*
G36*
X157184903Y-119432587D02*
X157342068Y-119497687D01*
X157483513Y-119592198D01*
X157603802Y-119712487D01*
X157698313Y-119853932D01*
X157763413Y-120011097D01*
X157796600Y-120177943D01*
X157796600Y-120348057D01*
X157763413Y-120514903D01*
X157698313Y-120672068D01*
X157603802Y-120813513D01*
X157483513Y-120933802D01*
X157342068Y-121028313D01*
X157184903Y-121093413D01*
X157018057Y-121126600D01*
X156847943Y-121126600D01*
X156681097Y-121093413D01*
X156523932Y-121028313D01*
X156382487Y-120933802D01*
X156262198Y-120813513D01*
X156167687Y-120672068D01*
X156102587Y-120514903D01*
X156069400Y-120348057D01*
X156069400Y-120177943D01*
X156102587Y-120011097D01*
X156167687Y-119853932D01*
X156262198Y-119712487D01*
X156382487Y-119592198D01*
X156523932Y-119497687D01*
X156681097Y-119432587D01*
X156847943Y-119399400D01*
X157018057Y-119399400D01*
X157184903Y-119432587D01*
X157184903Y-119432587D01*
G37*
G36*
X143318903Y-119432587D02*
X143476068Y-119497687D01*
X143617513Y-119592198D01*
X143737802Y-119712487D01*
X143832313Y-119853932D01*
X143897413Y-120011097D01*
X143930600Y-120177943D01*
X143930600Y-120348057D01*
X143897413Y-120514903D01*
X143832313Y-120672068D01*
X143737802Y-120813513D01*
X143617513Y-120933802D01*
X143476068Y-121028313D01*
X143318903Y-121093413D01*
X143152057Y-121126600D01*
X142981943Y-121126600D01*
X142815097Y-121093413D01*
X142657932Y-121028313D01*
X142516487Y-120933802D01*
X142396198Y-120813513D01*
X142301687Y-120672068D01*
X142236587Y-120514903D01*
X142203400Y-120348057D01*
X142203400Y-120177943D01*
X142236587Y-120011097D01*
X142301687Y-119853932D01*
X142396198Y-119712487D01*
X142516487Y-119592198D01*
X142657932Y-119497687D01*
X142815097Y-119432587D01*
X142981943Y-119399400D01*
X143152057Y-119399400D01*
X143318903Y-119432587D01*
X143318903Y-119432587D01*
G37*
G36*
X133184903Y-119432587D02*
X133342068Y-119497687D01*
X133483513Y-119592198D01*
X133603802Y-119712487D01*
X133698313Y-119853932D01*
X133763413Y-120011097D01*
X133796600Y-120177943D01*
X133796600Y-120348057D01*
X133763413Y-120514903D01*
X133698313Y-120672068D01*
X133603802Y-120813513D01*
X133483513Y-120933802D01*
X133342068Y-121028313D01*
X133184903Y-121093413D01*
X133018057Y-121126600D01*
X132847943Y-121126600D01*
X132681097Y-121093413D01*
X132523932Y-121028313D01*
X132382487Y-120933802D01*
X132262198Y-120813513D01*
X132167687Y-120672068D01*
X132102587Y-120514903D01*
X132069400Y-120348057D01*
X132069400Y-120177943D01*
X132102587Y-120011097D01*
X132167687Y-119853932D01*
X132262198Y-119712487D01*
X132382487Y-119592198D01*
X132523932Y-119497687D01*
X132681097Y-119432587D01*
X132847943Y-119399400D01*
X133018057Y-119399400D01*
X133184903Y-119432587D01*
X133184903Y-119432587D01*
G37*
G36*
X113320903Y-119426587D02*
X113478068Y-119491687D01*
X113619513Y-119586198D01*
X113739802Y-119706487D01*
X113834313Y-119847932D01*
X113899413Y-120005097D01*
X113932600Y-120171943D01*
X113932600Y-120342057D01*
X113899413Y-120508903D01*
X113834313Y-120666068D01*
X113739802Y-120807513D01*
X113619513Y-120927802D01*
X113478068Y-121022313D01*
X113320903Y-121087413D01*
X113154057Y-121120600D01*
X112983943Y-121120600D01*
X112817097Y-121087413D01*
X112659932Y-121022313D01*
X112518487Y-120927802D01*
X112398198Y-120807513D01*
X112303687Y-120666068D01*
X112238587Y-120508903D01*
X112205400Y-120342057D01*
X112205400Y-120171943D01*
X112238587Y-120005097D01*
X112303687Y-119847932D01*
X112398198Y-119706487D01*
X112518487Y-119586198D01*
X112659932Y-119491687D01*
X112817097Y-119426587D01*
X112983943Y-119393400D01*
X113154057Y-119393400D01*
X113320903Y-119426587D01*
X113320903Y-119426587D01*
G37*
G36*
X103186903Y-119426587D02*
X103344068Y-119491687D01*
X103485513Y-119586198D01*
X103605802Y-119706487D01*
X103700313Y-119847932D01*
X103765413Y-120005097D01*
X103798600Y-120171943D01*
X103798600Y-120342057D01*
X103765413Y-120508903D01*
X103700313Y-120666068D01*
X103605802Y-120807513D01*
X103485513Y-120927802D01*
X103344068Y-121022313D01*
X103186903Y-121087413D01*
X103020057Y-121120600D01*
X102849943Y-121120600D01*
X102683097Y-121087413D01*
X102525932Y-121022313D01*
X102384487Y-120927802D01*
X102264198Y-120807513D01*
X102169687Y-120666068D01*
X102104587Y-120508903D01*
X102071400Y-120342057D01*
X102071400Y-120171943D01*
X102104587Y-120005097D01*
X102169687Y-119847932D01*
X102264198Y-119706487D01*
X102384487Y-119586198D01*
X102525932Y-119491687D01*
X102683097Y-119426587D01*
X102849943Y-119393400D01*
X103020057Y-119393400D01*
X103186903Y-119426587D01*
X103186903Y-119426587D01*
G37*
G36*
X235896907Y-118667796D02*
X235974036Y-118675393D01*
X236105987Y-118715420D01*
X236171963Y-118735433D01*
X236354372Y-118832933D01*
X236514254Y-118964146D01*
X236645467Y-119124028D01*
X236742967Y-119306437D01*
X236742967Y-119306438D01*
X236803007Y-119504364D01*
X236823280Y-119710200D01*
X236803007Y-119916036D01*
X236773898Y-120011996D01*
X236742967Y-120113963D01*
X236645467Y-120296372D01*
X236514254Y-120456254D01*
X236354372Y-120587467D01*
X236171963Y-120684967D01*
X236105987Y-120704980D01*
X235974036Y-120745007D01*
X235896907Y-120752603D01*
X235819780Y-120760200D01*
X235716620Y-120760200D01*
X235639493Y-120752603D01*
X235562364Y-120745007D01*
X235430413Y-120704980D01*
X235364437Y-120684967D01*
X235182028Y-120587467D01*
X235022146Y-120456254D01*
X234890933Y-120296372D01*
X234793433Y-120113963D01*
X234762502Y-120011996D01*
X234733393Y-119916036D01*
X234713120Y-119710200D01*
X234733393Y-119504364D01*
X234793433Y-119306438D01*
X234793433Y-119306437D01*
X234890933Y-119124028D01*
X235022146Y-118964146D01*
X235182028Y-118832933D01*
X235364437Y-118735433D01*
X235430413Y-118715420D01*
X235562364Y-118675393D01*
X235639493Y-118667796D01*
X235716620Y-118660200D01*
X235819780Y-118660200D01*
X235896907Y-118667796D01*
X235896907Y-118667796D01*
G37*
G36*
X238436907Y-118667796D02*
X238514036Y-118675393D01*
X238645987Y-118715420D01*
X238711963Y-118735433D01*
X238894372Y-118832933D01*
X239054254Y-118964146D01*
X239185467Y-119124028D01*
X239282967Y-119306437D01*
X239282967Y-119306438D01*
X239343007Y-119504364D01*
X239363280Y-119710200D01*
X239343007Y-119916036D01*
X239313898Y-120011996D01*
X239282967Y-120113963D01*
X239185467Y-120296372D01*
X239054254Y-120456254D01*
X238894372Y-120587467D01*
X238711963Y-120684967D01*
X238645987Y-120704980D01*
X238514036Y-120745007D01*
X238436907Y-120752603D01*
X238359780Y-120760200D01*
X238256620Y-120760200D01*
X238179493Y-120752603D01*
X238102364Y-120745007D01*
X237970413Y-120704980D01*
X237904437Y-120684967D01*
X237722028Y-120587467D01*
X237562146Y-120456254D01*
X237430933Y-120296372D01*
X237333433Y-120113963D01*
X237302502Y-120011996D01*
X237273393Y-119916036D01*
X237253120Y-119710200D01*
X237273393Y-119504364D01*
X237333433Y-119306438D01*
X237333433Y-119306437D01*
X237430933Y-119124028D01*
X237562146Y-118964146D01*
X237722028Y-118832933D01*
X237904437Y-118735433D01*
X237970413Y-118715420D01*
X238102364Y-118675393D01*
X238179493Y-118667796D01*
X238256620Y-118660200D01*
X238359780Y-118660200D01*
X238436907Y-118667796D01*
X238436907Y-118667796D01*
G37*
G36*
X86902903Y-117607588D02*
X87060068Y-117672688D01*
X87201513Y-117767199D01*
X87321802Y-117887488D01*
X87416313Y-118028933D01*
X87481413Y-118186098D01*
X87514600Y-118352944D01*
X87514600Y-118523058D01*
X87481413Y-118689904D01*
X87416313Y-118847069D01*
X87321802Y-118988514D01*
X87201513Y-119108803D01*
X87060068Y-119203314D01*
X86902903Y-119268414D01*
X86736057Y-119301601D01*
X86565943Y-119301601D01*
X86399097Y-119268414D01*
X86241932Y-119203314D01*
X86100487Y-119108803D01*
X85980198Y-118988514D01*
X85885687Y-118847069D01*
X85820587Y-118689904D01*
X85787400Y-118523058D01*
X85787400Y-118352944D01*
X85820587Y-118186098D01*
X85885687Y-118028933D01*
X85980198Y-117887488D01*
X86100487Y-117767199D01*
X86241932Y-117672688D01*
X86399097Y-117607588D01*
X86565943Y-117574401D01*
X86736057Y-117574401D01*
X86902903Y-117607588D01*
X86902903Y-117607588D01*
G37*
G36*
X81612903Y-117607588D02*
X81770068Y-117672688D01*
X81911513Y-117767199D01*
X82031802Y-117887488D01*
X82126313Y-118028933D01*
X82191413Y-118186098D01*
X82224600Y-118352944D01*
X82224600Y-118523058D01*
X82191413Y-118689904D01*
X82126313Y-118847069D01*
X82031802Y-118988514D01*
X81911513Y-119108803D01*
X81770068Y-119203314D01*
X81612903Y-119268414D01*
X81446057Y-119301601D01*
X81275943Y-119301601D01*
X81109097Y-119268414D01*
X80951932Y-119203314D01*
X80810487Y-119108803D01*
X80690198Y-118988514D01*
X80595687Y-118847069D01*
X80530587Y-118689904D01*
X80497400Y-118523058D01*
X80497400Y-118352944D01*
X80530587Y-118186098D01*
X80595687Y-118028933D01*
X80690198Y-117887488D01*
X80810487Y-117767199D01*
X80951932Y-117672688D01*
X81109097Y-117607588D01*
X81275943Y-117574401D01*
X81446057Y-117574401D01*
X81612903Y-117607588D01*
X81612903Y-117607588D01*
G37*
G36*
X194907637Y-117603086D02*
X195064802Y-117668186D01*
X195206247Y-117762697D01*
X195326536Y-117882986D01*
X195421047Y-118024431D01*
X195486147Y-118181596D01*
X195519334Y-118348442D01*
X195519334Y-118518556D01*
X195486147Y-118685402D01*
X195421047Y-118842567D01*
X195326536Y-118984012D01*
X195206247Y-119104301D01*
X195064802Y-119198812D01*
X194907637Y-119263912D01*
X194740791Y-119297099D01*
X194570677Y-119297099D01*
X194403831Y-119263912D01*
X194246666Y-119198812D01*
X194105221Y-119104301D01*
X193984932Y-118984012D01*
X193890421Y-118842567D01*
X193825321Y-118685402D01*
X193792134Y-118518556D01*
X193792134Y-118348442D01*
X193825321Y-118181596D01*
X193890421Y-118024431D01*
X193984932Y-117882986D01*
X194105221Y-117762697D01*
X194246666Y-117668186D01*
X194403831Y-117603086D01*
X194570677Y-117569899D01*
X194740791Y-117569899D01*
X194907637Y-117603086D01*
X194907637Y-117603086D01*
G37*
G36*
X189617637Y-117603086D02*
X189774802Y-117668186D01*
X189916247Y-117762697D01*
X190036536Y-117882986D01*
X190131047Y-118024431D01*
X190196147Y-118181596D01*
X190229334Y-118348442D01*
X190229334Y-118518556D01*
X190196147Y-118685402D01*
X190131047Y-118842567D01*
X190036536Y-118984012D01*
X189916247Y-119104301D01*
X189774802Y-119198812D01*
X189617637Y-119263912D01*
X189450791Y-119297099D01*
X189280677Y-119297099D01*
X189113831Y-119263912D01*
X188956666Y-119198812D01*
X188815221Y-119104301D01*
X188694932Y-118984012D01*
X188600421Y-118842567D01*
X188535321Y-118685402D01*
X188502134Y-118518556D01*
X188502134Y-118348442D01*
X188535321Y-118181596D01*
X188600421Y-118024431D01*
X188694932Y-117882986D01*
X188815221Y-117762697D01*
X188956666Y-117668186D01*
X189113831Y-117603086D01*
X189280677Y-117569899D01*
X189450791Y-117569899D01*
X189617637Y-117603086D01*
X189617637Y-117603086D01*
G37*
G36*
X213617237Y-117602486D02*
X213774402Y-117667586D01*
X213915847Y-117762097D01*
X214036136Y-117882386D01*
X214130647Y-118023831D01*
X214195747Y-118180996D01*
X214228934Y-118347842D01*
X214228934Y-118517956D01*
X214195747Y-118684802D01*
X214130647Y-118841967D01*
X214036136Y-118983412D01*
X213915847Y-119103701D01*
X213774402Y-119198212D01*
X213617237Y-119263312D01*
X213450391Y-119296499D01*
X213280277Y-119296499D01*
X213113431Y-119263312D01*
X212956266Y-119198212D01*
X212814821Y-119103701D01*
X212694532Y-118983412D01*
X212600021Y-118841967D01*
X212534921Y-118684802D01*
X212501734Y-118517956D01*
X212501734Y-118347842D01*
X212534921Y-118180996D01*
X212600021Y-118023831D01*
X212694532Y-117882386D01*
X212814821Y-117762097D01*
X212956266Y-117667586D01*
X213113431Y-117602486D01*
X213280277Y-117569299D01*
X213450391Y-117569299D01*
X213617237Y-117602486D01*
X213617237Y-117602486D01*
G37*
G36*
X218907237Y-117602486D02*
X219064402Y-117667586D01*
X219205847Y-117762097D01*
X219326136Y-117882386D01*
X219420647Y-118023831D01*
X219485747Y-118180996D01*
X219518934Y-118347842D01*
X219518934Y-118517956D01*
X219485747Y-118684802D01*
X219420647Y-118841967D01*
X219326136Y-118983412D01*
X219205847Y-119103701D01*
X219064402Y-119198212D01*
X218907237Y-119263312D01*
X218740391Y-119296499D01*
X218570277Y-119296499D01*
X218403431Y-119263312D01*
X218246266Y-119198212D01*
X218104821Y-119103701D01*
X217984532Y-118983412D01*
X217890021Y-118841967D01*
X217824921Y-118684802D01*
X217791734Y-118517956D01*
X217791734Y-118347842D01*
X217824921Y-118180996D01*
X217890021Y-118023831D01*
X217984532Y-117882386D01*
X218104821Y-117762097D01*
X218246266Y-117667586D01*
X218403431Y-117602486D01*
X218570277Y-117569299D01*
X218740391Y-117569299D01*
X218907237Y-117602486D01*
X218907237Y-117602486D01*
G37*
G36*
X135606903Y-117601587D02*
X135764068Y-117666687D01*
X135905513Y-117761198D01*
X136025802Y-117881487D01*
X136120313Y-118022932D01*
X136185413Y-118180097D01*
X136218600Y-118346943D01*
X136218600Y-118517057D01*
X136185413Y-118683903D01*
X136120313Y-118841068D01*
X136025802Y-118982513D01*
X135905513Y-119102802D01*
X135764068Y-119197313D01*
X135606903Y-119262413D01*
X135440057Y-119295600D01*
X135269943Y-119295600D01*
X135103097Y-119262413D01*
X134945932Y-119197313D01*
X134804487Y-119102802D01*
X134684198Y-118982513D01*
X134589687Y-118841068D01*
X134524587Y-118683903D01*
X134491400Y-118517057D01*
X134491400Y-118346943D01*
X134524587Y-118180097D01*
X134589687Y-118022932D01*
X134684198Y-117881487D01*
X134804487Y-117761198D01*
X134945932Y-117666687D01*
X135103097Y-117601587D01*
X135269943Y-117568400D01*
X135440057Y-117568400D01*
X135606903Y-117601587D01*
X135606903Y-117601587D01*
G37*
G36*
X140896903Y-117601587D02*
X141054068Y-117666687D01*
X141195513Y-117761198D01*
X141315802Y-117881487D01*
X141410313Y-118022932D01*
X141475413Y-118180097D01*
X141508600Y-118346943D01*
X141508600Y-118517057D01*
X141475413Y-118683903D01*
X141410313Y-118841068D01*
X141315802Y-118982513D01*
X141195513Y-119102802D01*
X141054068Y-119197313D01*
X140896903Y-119262413D01*
X140730057Y-119295600D01*
X140559943Y-119295600D01*
X140393097Y-119262413D01*
X140235932Y-119197313D01*
X140094487Y-119102802D01*
X139974198Y-118982513D01*
X139879687Y-118841068D01*
X139814587Y-118683903D01*
X139781400Y-118517057D01*
X139781400Y-118346943D01*
X139814587Y-118180097D01*
X139879687Y-118022932D01*
X139974198Y-117881487D01*
X140094487Y-117761198D01*
X140235932Y-117666687D01*
X140393097Y-117601587D01*
X140559943Y-117568400D01*
X140730057Y-117568400D01*
X140896903Y-117601587D01*
X140896903Y-117601587D01*
G37*
G36*
X159606903Y-117601587D02*
X159764068Y-117666687D01*
X159905513Y-117761198D01*
X160025802Y-117881487D01*
X160120313Y-118022932D01*
X160185413Y-118180097D01*
X160218600Y-118346943D01*
X160218600Y-118517057D01*
X160185413Y-118683903D01*
X160120313Y-118841068D01*
X160025802Y-118982513D01*
X159905513Y-119102802D01*
X159764068Y-119197313D01*
X159606903Y-119262413D01*
X159440057Y-119295600D01*
X159269943Y-119295600D01*
X159103097Y-119262413D01*
X158945932Y-119197313D01*
X158804487Y-119102802D01*
X158684198Y-118982513D01*
X158589687Y-118841068D01*
X158524587Y-118683903D01*
X158491400Y-118517057D01*
X158491400Y-118346943D01*
X158524587Y-118180097D01*
X158589687Y-118022932D01*
X158684198Y-117881487D01*
X158804487Y-117761198D01*
X158945932Y-117666687D01*
X159103097Y-117601587D01*
X159269943Y-117568400D01*
X159440057Y-117568400D01*
X159606903Y-117601587D01*
X159606903Y-117601587D01*
G37*
G36*
X164896903Y-117601587D02*
X165054068Y-117666687D01*
X165195513Y-117761198D01*
X165315802Y-117881487D01*
X165410313Y-118022932D01*
X165475413Y-118180097D01*
X165508600Y-118346943D01*
X165508600Y-118517057D01*
X165475413Y-118683903D01*
X165410313Y-118841068D01*
X165315802Y-118982513D01*
X165195513Y-119102802D01*
X165054068Y-119197313D01*
X164896903Y-119262413D01*
X164730057Y-119295600D01*
X164559943Y-119295600D01*
X164393097Y-119262413D01*
X164235932Y-119197313D01*
X164094487Y-119102802D01*
X163974198Y-118982513D01*
X163879687Y-118841068D01*
X163814587Y-118683903D01*
X163781400Y-118517057D01*
X163781400Y-118346943D01*
X163814587Y-118180097D01*
X163879687Y-118022932D01*
X163974198Y-117881487D01*
X164094487Y-117761198D01*
X164235932Y-117666687D01*
X164393097Y-117601587D01*
X164559943Y-117568400D01*
X164730057Y-117568400D01*
X164896903Y-117601587D01*
X164896903Y-117601587D01*
G37*
G36*
X110898903Y-117595587D02*
X111056068Y-117660687D01*
X111197513Y-117755198D01*
X111317802Y-117875487D01*
X111412313Y-118016932D01*
X111477413Y-118174097D01*
X111510600Y-118340943D01*
X111510600Y-118511057D01*
X111477413Y-118677903D01*
X111412313Y-118835068D01*
X111317802Y-118976513D01*
X111197513Y-119096802D01*
X111056068Y-119191313D01*
X110898903Y-119256413D01*
X110732057Y-119289600D01*
X110561943Y-119289600D01*
X110395097Y-119256413D01*
X110237932Y-119191313D01*
X110096487Y-119096802D01*
X109976198Y-118976513D01*
X109881687Y-118835068D01*
X109816587Y-118677903D01*
X109783400Y-118511057D01*
X109783400Y-118340943D01*
X109816587Y-118174097D01*
X109881687Y-118016932D01*
X109976198Y-117875487D01*
X110096487Y-117755198D01*
X110237932Y-117660687D01*
X110395097Y-117595587D01*
X110561943Y-117562400D01*
X110732057Y-117562400D01*
X110898903Y-117595587D01*
X110898903Y-117595587D01*
G37*
G36*
X105608903Y-117595587D02*
X105766068Y-117660687D01*
X105907513Y-117755198D01*
X106027802Y-117875487D01*
X106122313Y-118016932D01*
X106187413Y-118174097D01*
X106220600Y-118340943D01*
X106220600Y-118511057D01*
X106187413Y-118677903D01*
X106122313Y-118835068D01*
X106027802Y-118976513D01*
X105907513Y-119096802D01*
X105766068Y-119191313D01*
X105608903Y-119256413D01*
X105442057Y-119289600D01*
X105271943Y-119289600D01*
X105105097Y-119256413D01*
X104947932Y-119191313D01*
X104806487Y-119096802D01*
X104686198Y-118976513D01*
X104591687Y-118835068D01*
X104526587Y-118677903D01*
X104493400Y-118511057D01*
X104493400Y-118340943D01*
X104526587Y-118174097D01*
X104591687Y-118016932D01*
X104686198Y-117875487D01*
X104806487Y-117755198D01*
X104947932Y-117660687D01*
X105105097Y-117595587D01*
X105271943Y-117562400D01*
X105442057Y-117562400D01*
X105608903Y-117595587D01*
X105608903Y-117595587D01*
G37*
G36*
X84257903Y-116775588D02*
X84415068Y-116840688D01*
X84556513Y-116935199D01*
X84676802Y-117055488D01*
X84771313Y-117196933D01*
X84836413Y-117354098D01*
X84869600Y-117520944D01*
X84869600Y-117691058D01*
X84836413Y-117857904D01*
X84771313Y-118015069D01*
X84676802Y-118156514D01*
X84556513Y-118276803D01*
X84415068Y-118371314D01*
X84257903Y-118436414D01*
X84091057Y-118469601D01*
X83920943Y-118469601D01*
X83754097Y-118436414D01*
X83596932Y-118371314D01*
X83455487Y-118276803D01*
X83335198Y-118156514D01*
X83240687Y-118015069D01*
X83175587Y-117857904D01*
X83142400Y-117691058D01*
X83142400Y-117520944D01*
X83175587Y-117354098D01*
X83240687Y-117196933D01*
X83335198Y-117055488D01*
X83455487Y-116935199D01*
X83596932Y-116840688D01*
X83754097Y-116775588D01*
X83920943Y-116742401D01*
X84091057Y-116742401D01*
X84257903Y-116775588D01*
X84257903Y-116775588D01*
G37*
G36*
X192262637Y-116771086D02*
X192419802Y-116836186D01*
X192561247Y-116930697D01*
X192681536Y-117050986D01*
X192776047Y-117192431D01*
X192841147Y-117349596D01*
X192874334Y-117516442D01*
X192874334Y-117686556D01*
X192841147Y-117853402D01*
X192776047Y-118010567D01*
X192681536Y-118152012D01*
X192561247Y-118272301D01*
X192419802Y-118366812D01*
X192262637Y-118431912D01*
X192095791Y-118465099D01*
X191925677Y-118465099D01*
X191758831Y-118431912D01*
X191601666Y-118366812D01*
X191460221Y-118272301D01*
X191339932Y-118152012D01*
X191245421Y-118010567D01*
X191180321Y-117853402D01*
X191147134Y-117686556D01*
X191147134Y-117516442D01*
X191180321Y-117349596D01*
X191245421Y-117192431D01*
X191339932Y-117050986D01*
X191460221Y-116930697D01*
X191601666Y-116836186D01*
X191758831Y-116771086D01*
X191925677Y-116737899D01*
X192095791Y-116737899D01*
X192262637Y-116771086D01*
X192262637Y-116771086D01*
G37*
G36*
X216262237Y-116770486D02*
X216419402Y-116835586D01*
X216560847Y-116930097D01*
X216681136Y-117050386D01*
X216775647Y-117191831D01*
X216840747Y-117348996D01*
X216873934Y-117515842D01*
X216873934Y-117685956D01*
X216840747Y-117852802D01*
X216775647Y-118009967D01*
X216681136Y-118151412D01*
X216560847Y-118271701D01*
X216419402Y-118366212D01*
X216262237Y-118431312D01*
X216095391Y-118464499D01*
X215925277Y-118464499D01*
X215758431Y-118431312D01*
X215601266Y-118366212D01*
X215459821Y-118271701D01*
X215339532Y-118151412D01*
X215245021Y-118009967D01*
X215179921Y-117852802D01*
X215146734Y-117685956D01*
X215146734Y-117515842D01*
X215179921Y-117348996D01*
X215245021Y-117191831D01*
X215339532Y-117050386D01*
X215459821Y-116930097D01*
X215601266Y-116835586D01*
X215758431Y-116770486D01*
X215925277Y-116737299D01*
X216095391Y-116737299D01*
X216262237Y-116770486D01*
X216262237Y-116770486D01*
G37*
G36*
X138251903Y-116769587D02*
X138409068Y-116834687D01*
X138550513Y-116929198D01*
X138670802Y-117049487D01*
X138765313Y-117190932D01*
X138830413Y-117348097D01*
X138863600Y-117514943D01*
X138863600Y-117685057D01*
X138830413Y-117851903D01*
X138765313Y-118009068D01*
X138670802Y-118150513D01*
X138550513Y-118270802D01*
X138409068Y-118365313D01*
X138251903Y-118430413D01*
X138085057Y-118463600D01*
X137914943Y-118463600D01*
X137748097Y-118430413D01*
X137590932Y-118365313D01*
X137449487Y-118270802D01*
X137329198Y-118150513D01*
X137234687Y-118009068D01*
X137169587Y-117851903D01*
X137136400Y-117685057D01*
X137136400Y-117514943D01*
X137169587Y-117348097D01*
X137234687Y-117190932D01*
X137329198Y-117049487D01*
X137449487Y-116929198D01*
X137590932Y-116834687D01*
X137748097Y-116769587D01*
X137914943Y-116736400D01*
X138085057Y-116736400D01*
X138251903Y-116769587D01*
X138251903Y-116769587D01*
G37*
G36*
X162251903Y-116769587D02*
X162409068Y-116834687D01*
X162550513Y-116929198D01*
X162670802Y-117049487D01*
X162765313Y-117190932D01*
X162830413Y-117348097D01*
X162863600Y-117514943D01*
X162863600Y-117685057D01*
X162830413Y-117851903D01*
X162765313Y-118009068D01*
X162670802Y-118150513D01*
X162550513Y-118270802D01*
X162409068Y-118365313D01*
X162251903Y-118430413D01*
X162085057Y-118463600D01*
X161914943Y-118463600D01*
X161748097Y-118430413D01*
X161590932Y-118365313D01*
X161449487Y-118270802D01*
X161329198Y-118150513D01*
X161234687Y-118009068D01*
X161169587Y-117851903D01*
X161136400Y-117685057D01*
X161136400Y-117514943D01*
X161169587Y-117348097D01*
X161234687Y-117190932D01*
X161329198Y-117049487D01*
X161449487Y-116929198D01*
X161590932Y-116834687D01*
X161748097Y-116769587D01*
X161914943Y-116736400D01*
X162085057Y-116736400D01*
X162251903Y-116769587D01*
X162251903Y-116769587D01*
G37*
G36*
X108253903Y-116763587D02*
X108411068Y-116828687D01*
X108552513Y-116923198D01*
X108672802Y-117043487D01*
X108767313Y-117184932D01*
X108832413Y-117342097D01*
X108865600Y-117508943D01*
X108865600Y-117679057D01*
X108832413Y-117845903D01*
X108767313Y-118003068D01*
X108672802Y-118144513D01*
X108552513Y-118264802D01*
X108411068Y-118359313D01*
X108253903Y-118424413D01*
X108087057Y-118457600D01*
X107916943Y-118457600D01*
X107750097Y-118424413D01*
X107592932Y-118359313D01*
X107451487Y-118264802D01*
X107331198Y-118144513D01*
X107236687Y-118003068D01*
X107171587Y-117845903D01*
X107138400Y-117679057D01*
X107138400Y-117508943D01*
X107171587Y-117342097D01*
X107236687Y-117184932D01*
X107331198Y-117043487D01*
X107451487Y-116923198D01*
X107592932Y-116828687D01*
X107750097Y-116763587D01*
X107916943Y-116730400D01*
X108087057Y-116730400D01*
X108253903Y-116763587D01*
X108253903Y-116763587D01*
G37*
G36*
X238436907Y-116127796D02*
X238514036Y-116135393D01*
X238645987Y-116175420D01*
X238711963Y-116195433D01*
X238894372Y-116292933D01*
X239054254Y-116424146D01*
X239185467Y-116584028D01*
X239282967Y-116766437D01*
X239285743Y-116775588D01*
X239343007Y-116964364D01*
X239363280Y-117170200D01*
X239343007Y-117376036D01*
X239302980Y-117507987D01*
X239282967Y-117573963D01*
X239185467Y-117756372D01*
X239054254Y-117916254D01*
X238894372Y-118047467D01*
X238711963Y-118144967D01*
X238645987Y-118164980D01*
X238514036Y-118205007D01*
X238436907Y-118212603D01*
X238359780Y-118220200D01*
X238256620Y-118220200D01*
X238179493Y-118212603D01*
X238102364Y-118205007D01*
X237970413Y-118164980D01*
X237904437Y-118144967D01*
X237722028Y-118047467D01*
X237562146Y-117916254D01*
X237430933Y-117756372D01*
X237333433Y-117573963D01*
X237313420Y-117507987D01*
X237273393Y-117376036D01*
X237253120Y-117170200D01*
X237273393Y-116964364D01*
X237330657Y-116775588D01*
X237333433Y-116766437D01*
X237430933Y-116584028D01*
X237562146Y-116424146D01*
X237722028Y-116292933D01*
X237904437Y-116195433D01*
X237970413Y-116175420D01*
X238102364Y-116135393D01*
X238179493Y-116127796D01*
X238256620Y-116120200D01*
X238359780Y-116120200D01*
X238436907Y-116127796D01*
X238436907Y-116127796D01*
G37*
G36*
X235896907Y-116127796D02*
X235974036Y-116135393D01*
X236105987Y-116175420D01*
X236171963Y-116195433D01*
X236354372Y-116292933D01*
X236514254Y-116424146D01*
X236645467Y-116584028D01*
X236742967Y-116766437D01*
X236745743Y-116775588D01*
X236803007Y-116964364D01*
X236823280Y-117170200D01*
X236803007Y-117376036D01*
X236762980Y-117507987D01*
X236742967Y-117573963D01*
X236645467Y-117756372D01*
X236514254Y-117916254D01*
X236354372Y-118047467D01*
X236171963Y-118144967D01*
X236105987Y-118164980D01*
X235974036Y-118205007D01*
X235896907Y-118212603D01*
X235819780Y-118220200D01*
X235716620Y-118220200D01*
X235639493Y-118212603D01*
X235562364Y-118205007D01*
X235430413Y-118164980D01*
X235364437Y-118144967D01*
X235182028Y-118047467D01*
X235022146Y-117916254D01*
X234890933Y-117756372D01*
X234793433Y-117573963D01*
X234773420Y-117507987D01*
X234733393Y-117376036D01*
X234713120Y-117170200D01*
X234733393Y-116964364D01*
X234790657Y-116775588D01*
X234793433Y-116766437D01*
X234890933Y-116584028D01*
X235022146Y-116424146D01*
X235182028Y-116292933D01*
X235364437Y-116195433D01*
X235430413Y-116175420D01*
X235562364Y-116135393D01*
X235639493Y-116127796D01*
X235716620Y-116120200D01*
X235819780Y-116120200D01*
X235896907Y-116127796D01*
X235896907Y-116127796D01*
G37*
G36*
X235896907Y-113587796D02*
X235974036Y-113595393D01*
X236105987Y-113635420D01*
X236171963Y-113655433D01*
X236354372Y-113752933D01*
X236514254Y-113884146D01*
X236645467Y-114044028D01*
X236742967Y-114226437D01*
X236742967Y-114226438D01*
X236803007Y-114424364D01*
X236823280Y-114630200D01*
X236803007Y-114836036D01*
X236762980Y-114967987D01*
X236742967Y-115033963D01*
X236645467Y-115216372D01*
X236514254Y-115376254D01*
X236354372Y-115507467D01*
X236171963Y-115604967D01*
X236105987Y-115624980D01*
X235974036Y-115665007D01*
X235896907Y-115672604D01*
X235819780Y-115680200D01*
X235716620Y-115680200D01*
X235639493Y-115672604D01*
X235562364Y-115665007D01*
X235430413Y-115624980D01*
X235364437Y-115604967D01*
X235182028Y-115507467D01*
X235022146Y-115376254D01*
X234890933Y-115216372D01*
X234793433Y-115033963D01*
X234773420Y-114967987D01*
X234733393Y-114836036D01*
X234713120Y-114630200D01*
X234733393Y-114424364D01*
X234793433Y-114226438D01*
X234793433Y-114226437D01*
X234890933Y-114044028D01*
X235022146Y-113884146D01*
X235182028Y-113752933D01*
X235364437Y-113655433D01*
X235430413Y-113635420D01*
X235562364Y-113595393D01*
X235639493Y-113587796D01*
X235716620Y-113580200D01*
X235819780Y-113580200D01*
X235896907Y-113587796D01*
X235896907Y-113587796D01*
G37*
G36*
X238436907Y-113587796D02*
X238514036Y-113595393D01*
X238645987Y-113635420D01*
X238711963Y-113655433D01*
X238894372Y-113752933D01*
X239054254Y-113884146D01*
X239185467Y-114044028D01*
X239282967Y-114226437D01*
X239282967Y-114226438D01*
X239343007Y-114424364D01*
X239363280Y-114630200D01*
X239343007Y-114836036D01*
X239302980Y-114967987D01*
X239282967Y-115033963D01*
X239185467Y-115216372D01*
X239054254Y-115376254D01*
X238894372Y-115507467D01*
X238711963Y-115604967D01*
X238645987Y-115624980D01*
X238514036Y-115665007D01*
X238436907Y-115672604D01*
X238359780Y-115680200D01*
X238256620Y-115680200D01*
X238179493Y-115672604D01*
X238102364Y-115665007D01*
X237970413Y-115624980D01*
X237904437Y-115604967D01*
X237722028Y-115507467D01*
X237562146Y-115376254D01*
X237430933Y-115216372D01*
X237333433Y-115033963D01*
X237313420Y-114967987D01*
X237273393Y-114836036D01*
X237253120Y-114630200D01*
X237273393Y-114424364D01*
X237333433Y-114226438D01*
X237333433Y-114226437D01*
X237430933Y-114044028D01*
X237562146Y-113884146D01*
X237722028Y-113752933D01*
X237904437Y-113655433D01*
X237970413Y-113635420D01*
X238102364Y-113595393D01*
X238179493Y-113587796D01*
X238256620Y-113580200D01*
X238359780Y-113580200D01*
X238436907Y-113587796D01*
X238436907Y-113587796D01*
G37*
G36*
X238436907Y-111047796D02*
X238514036Y-111055393D01*
X238645987Y-111095420D01*
X238711963Y-111115433D01*
X238894372Y-111212933D01*
X239054254Y-111344146D01*
X239185467Y-111504028D01*
X239282967Y-111686437D01*
X239282967Y-111686438D01*
X239343007Y-111884364D01*
X239363280Y-112090200D01*
X239343007Y-112296036D01*
X239302980Y-112427987D01*
X239282967Y-112493963D01*
X239185467Y-112676372D01*
X239054254Y-112836254D01*
X238894372Y-112967467D01*
X238711963Y-113064967D01*
X238645987Y-113084980D01*
X238514036Y-113125007D01*
X238436907Y-113132604D01*
X238359780Y-113140200D01*
X238256620Y-113140200D01*
X238179493Y-113132604D01*
X238102364Y-113125007D01*
X237970413Y-113084980D01*
X237904437Y-113064967D01*
X237722028Y-112967467D01*
X237562146Y-112836254D01*
X237430933Y-112676372D01*
X237333433Y-112493963D01*
X237313420Y-112427987D01*
X237273393Y-112296036D01*
X237253120Y-112090200D01*
X237273393Y-111884364D01*
X237333433Y-111686438D01*
X237333433Y-111686437D01*
X237430933Y-111504028D01*
X237562146Y-111344146D01*
X237722028Y-111212933D01*
X237904437Y-111115433D01*
X237970413Y-111095420D01*
X238102364Y-111055393D01*
X238179493Y-111047796D01*
X238256620Y-111040200D01*
X238359780Y-111040200D01*
X238436907Y-111047796D01*
X238436907Y-111047796D01*
G37*
G36*
X235896907Y-111047796D02*
X235974036Y-111055393D01*
X236105987Y-111095420D01*
X236171963Y-111115433D01*
X236354372Y-111212933D01*
X236514254Y-111344146D01*
X236645467Y-111504028D01*
X236742967Y-111686437D01*
X236742967Y-111686438D01*
X236803007Y-111884364D01*
X236823280Y-112090200D01*
X236803007Y-112296036D01*
X236762980Y-112427987D01*
X236742967Y-112493963D01*
X236645467Y-112676372D01*
X236514254Y-112836254D01*
X236354372Y-112967467D01*
X236171963Y-113064967D01*
X236105987Y-113084980D01*
X235974036Y-113125007D01*
X235896907Y-113132604D01*
X235819780Y-113140200D01*
X235716620Y-113140200D01*
X235639493Y-113132604D01*
X235562364Y-113125007D01*
X235430413Y-113084980D01*
X235364437Y-113064967D01*
X235182028Y-112967467D01*
X235022146Y-112836254D01*
X234890933Y-112676372D01*
X234793433Y-112493963D01*
X234773420Y-112427987D01*
X234733393Y-112296036D01*
X234713120Y-112090200D01*
X234733393Y-111884364D01*
X234793433Y-111686438D01*
X234793433Y-111686437D01*
X234890933Y-111504028D01*
X235022146Y-111344146D01*
X235182028Y-111212933D01*
X235364437Y-111115433D01*
X235430413Y-111095420D01*
X235562364Y-111055393D01*
X235639493Y-111047796D01*
X235716620Y-111040200D01*
X235819780Y-111040200D01*
X235896907Y-111047796D01*
X235896907Y-111047796D01*
G37*
G36*
X63681870Y-105076859D02*
X63875068Y-105115288D01*
X64421033Y-105341434D01*
X64909077Y-105667535D01*
X64912392Y-105669750D01*
X65330250Y-106087608D01*
X65330252Y-106087611D01*
X65658566Y-106578967D01*
X65751928Y-106804364D01*
X65884712Y-107124933D01*
X65942204Y-107413962D01*
X66000000Y-107704526D01*
X66000000Y-108295474D01*
X65884712Y-108875068D01*
X65658566Y-109421033D01*
X65332465Y-109909077D01*
X65330250Y-109912392D01*
X64912392Y-110330250D01*
X64912389Y-110330252D01*
X64421033Y-110658566D01*
X63875068Y-110884712D01*
X63681870Y-110923141D01*
X63295476Y-111000000D01*
X62704524Y-111000000D01*
X62318130Y-110923141D01*
X62124932Y-110884712D01*
X61578967Y-110658566D01*
X61087611Y-110330252D01*
X61087608Y-110330250D01*
X60669750Y-109912392D01*
X60667535Y-109909077D01*
X60341434Y-109421033D01*
X60115288Y-108875068D01*
X60000000Y-108295474D01*
X60000000Y-107704526D01*
X60057797Y-107413962D01*
X60115288Y-107124933D01*
X60248072Y-106804364D01*
X60341434Y-106578967D01*
X60669748Y-106087611D01*
X60669750Y-106087608D01*
X61087608Y-105669750D01*
X61090923Y-105667535D01*
X61578967Y-105341434D01*
X62124932Y-105115288D01*
X62318130Y-105076859D01*
X62704524Y-105000000D01*
X63295476Y-105000000D01*
X63681870Y-105076859D01*
X63681870Y-105076859D01*
G37*
G36*
X233356907Y-105967797D02*
X233434036Y-105975393D01*
X233565987Y-106015420D01*
X233631963Y-106035433D01*
X233814372Y-106132933D01*
X233974254Y-106264146D01*
X234105467Y-106424028D01*
X234202967Y-106606437D01*
X234202967Y-106606438D01*
X234263007Y-106804364D01*
X234283280Y-107010200D01*
X234263007Y-107216036D01*
X234222980Y-107347987D01*
X234202967Y-107413963D01*
X234105467Y-107596372D01*
X233974254Y-107756254D01*
X233814372Y-107887467D01*
X233631963Y-107984967D01*
X233565987Y-108004980D01*
X233434036Y-108045007D01*
X233356907Y-108052603D01*
X233279780Y-108060200D01*
X233176620Y-108060200D01*
X233099493Y-108052603D01*
X233022364Y-108045007D01*
X232890413Y-108004980D01*
X232824437Y-107984967D01*
X232642028Y-107887467D01*
X232482146Y-107756254D01*
X232350933Y-107596372D01*
X232253433Y-107413963D01*
X232233420Y-107347987D01*
X232193393Y-107216036D01*
X232173120Y-107010200D01*
X232193393Y-106804364D01*
X232253433Y-106606438D01*
X232253433Y-106606437D01*
X232350933Y-106424028D01*
X232482146Y-106264146D01*
X232642028Y-106132933D01*
X232824437Y-106035433D01*
X232890413Y-106015420D01*
X233022364Y-105975393D01*
X233099493Y-105967797D01*
X233176620Y-105960200D01*
X233279780Y-105960200D01*
X233356907Y-105967797D01*
X233356907Y-105967797D01*
G37*
G36*
X228276907Y-105967797D02*
X228354036Y-105975393D01*
X228485987Y-106015420D01*
X228551963Y-106035433D01*
X228734372Y-106132933D01*
X228894254Y-106264146D01*
X229025467Y-106424028D01*
X229122967Y-106606437D01*
X229122967Y-106606438D01*
X229183007Y-106804364D01*
X229203280Y-107010200D01*
X229183007Y-107216036D01*
X229142980Y-107347987D01*
X229122967Y-107413963D01*
X229025467Y-107596372D01*
X228894254Y-107756254D01*
X228734372Y-107887467D01*
X228551963Y-107984967D01*
X228485987Y-108004980D01*
X228354036Y-108045007D01*
X228276907Y-108052603D01*
X228199780Y-108060200D01*
X228096620Y-108060200D01*
X228019493Y-108052603D01*
X227942364Y-108045007D01*
X227810413Y-108004980D01*
X227744437Y-107984967D01*
X227562028Y-107887467D01*
X227402146Y-107756254D01*
X227270933Y-107596372D01*
X227173433Y-107413963D01*
X227153420Y-107347987D01*
X227113393Y-107216036D01*
X227093120Y-107010200D01*
X227113393Y-106804364D01*
X227173433Y-106606438D01*
X227173433Y-106606437D01*
X227270933Y-106424028D01*
X227402146Y-106264146D01*
X227562028Y-106132933D01*
X227744437Y-106035433D01*
X227810413Y-106015420D01*
X227942364Y-105975393D01*
X228019493Y-105967797D01*
X228096620Y-105960200D01*
X228199780Y-105960200D01*
X228276907Y-105967797D01*
X228276907Y-105967797D01*
G37*
G36*
X225736907Y-105967797D02*
X225814036Y-105975393D01*
X225945987Y-106015420D01*
X226011963Y-106035433D01*
X226194372Y-106132933D01*
X226354254Y-106264146D01*
X226485467Y-106424028D01*
X226582967Y-106606437D01*
X226582967Y-106606438D01*
X226643007Y-106804364D01*
X226663280Y-107010200D01*
X226643007Y-107216036D01*
X226602980Y-107347987D01*
X226582967Y-107413963D01*
X226485467Y-107596372D01*
X226354254Y-107756254D01*
X226194372Y-107887467D01*
X226011963Y-107984967D01*
X225945987Y-108004980D01*
X225814036Y-108045007D01*
X225736907Y-108052603D01*
X225659780Y-108060200D01*
X225556620Y-108060200D01*
X225479493Y-108052603D01*
X225402364Y-108045007D01*
X225270413Y-108004980D01*
X225204437Y-107984967D01*
X225022028Y-107887467D01*
X224862146Y-107756254D01*
X224730933Y-107596372D01*
X224633433Y-107413963D01*
X224613420Y-107347987D01*
X224573393Y-107216036D01*
X224553120Y-107010200D01*
X224573393Y-106804364D01*
X224633433Y-106606438D01*
X224633433Y-106606437D01*
X224730933Y-106424028D01*
X224862146Y-106264146D01*
X225022028Y-106132933D01*
X225204437Y-106035433D01*
X225270413Y-106015420D01*
X225402364Y-105975393D01*
X225479493Y-105967797D01*
X225556620Y-105960200D01*
X225659780Y-105960200D01*
X225736907Y-105967797D01*
X225736907Y-105967797D01*
G37*
G36*
X220656907Y-105967797D02*
X220734036Y-105975393D01*
X220865987Y-106015420D01*
X220931963Y-106035433D01*
X221114372Y-106132933D01*
X221274254Y-106264146D01*
X221405467Y-106424028D01*
X221502967Y-106606437D01*
X221502967Y-106606438D01*
X221563007Y-106804364D01*
X221583280Y-107010200D01*
X221563007Y-107216036D01*
X221522980Y-107347987D01*
X221502967Y-107413963D01*
X221405467Y-107596372D01*
X221274254Y-107756254D01*
X221114372Y-107887467D01*
X220931963Y-107984967D01*
X220865987Y-108004980D01*
X220734036Y-108045007D01*
X220656907Y-108052603D01*
X220579780Y-108060200D01*
X220476620Y-108060200D01*
X220399493Y-108052603D01*
X220322364Y-108045007D01*
X220190413Y-108004980D01*
X220124437Y-107984967D01*
X219942028Y-107887467D01*
X219782146Y-107756254D01*
X219650933Y-107596372D01*
X219553433Y-107413963D01*
X219533420Y-107347987D01*
X219493393Y-107216036D01*
X219473120Y-107010200D01*
X219493393Y-106804364D01*
X219553433Y-106606438D01*
X219553433Y-106606437D01*
X219650933Y-106424028D01*
X219782146Y-106264146D01*
X219942028Y-106132933D01*
X220124437Y-106035433D01*
X220190413Y-106015420D01*
X220322364Y-105975393D01*
X220399493Y-105967797D01*
X220476620Y-105960200D01*
X220579780Y-105960200D01*
X220656907Y-105967797D01*
X220656907Y-105967797D01*
G37*
G36*
X218116907Y-105967797D02*
X218194036Y-105975393D01*
X218325987Y-106015420D01*
X218391963Y-106035433D01*
X218574372Y-106132933D01*
X218734254Y-106264146D01*
X218865467Y-106424028D01*
X218962967Y-106606437D01*
X218962967Y-106606438D01*
X219023007Y-106804364D01*
X219043280Y-107010200D01*
X219023007Y-107216036D01*
X218982980Y-107347987D01*
X218962967Y-107413963D01*
X218865467Y-107596372D01*
X218734254Y-107756254D01*
X218574372Y-107887467D01*
X218391963Y-107984967D01*
X218325987Y-108004980D01*
X218194036Y-108045007D01*
X218116907Y-108052603D01*
X218039780Y-108060200D01*
X217936620Y-108060200D01*
X217859493Y-108052603D01*
X217782364Y-108045007D01*
X217650413Y-108004980D01*
X217584437Y-107984967D01*
X217402028Y-107887467D01*
X217242146Y-107756254D01*
X217110933Y-107596372D01*
X217013433Y-107413963D01*
X216993420Y-107347987D01*
X216953393Y-107216036D01*
X216933120Y-107010200D01*
X216953393Y-106804364D01*
X217013433Y-106606438D01*
X217013433Y-106606437D01*
X217110933Y-106424028D01*
X217242146Y-106264146D01*
X217402028Y-106132933D01*
X217584437Y-106035433D01*
X217650413Y-106015420D01*
X217782364Y-105975393D01*
X217859493Y-105967797D01*
X217936620Y-105960200D01*
X218039780Y-105960200D01*
X218116907Y-105967797D01*
X218116907Y-105967797D01*
G37*
G36*
X216498200Y-108060200D02*
X214398200Y-108060200D01*
X214398200Y-105960200D01*
X216498200Y-105960200D01*
X216498200Y-108060200D01*
X216498200Y-108060200D01*
G37*
G36*
X207956907Y-105967797D02*
X208034036Y-105975393D01*
X208165987Y-106015420D01*
X208231963Y-106035433D01*
X208414372Y-106132933D01*
X208574254Y-106264146D01*
X208705467Y-106424028D01*
X208802967Y-106606437D01*
X208802967Y-106606438D01*
X208863007Y-106804364D01*
X208883280Y-107010200D01*
X208863007Y-107216036D01*
X208822980Y-107347987D01*
X208802967Y-107413963D01*
X208705467Y-107596372D01*
X208574254Y-107756254D01*
X208414372Y-107887467D01*
X208231963Y-107984967D01*
X208165987Y-108004980D01*
X208034036Y-108045007D01*
X207956907Y-108052603D01*
X207879780Y-108060200D01*
X207776620Y-108060200D01*
X207699493Y-108052603D01*
X207622364Y-108045007D01*
X207490413Y-108004980D01*
X207424437Y-107984967D01*
X207242028Y-107887467D01*
X207082146Y-107756254D01*
X206950933Y-107596372D01*
X206853433Y-107413963D01*
X206833420Y-107347987D01*
X206793393Y-107216036D01*
X206773120Y-107010200D01*
X206793393Y-106804364D01*
X206853433Y-106606438D01*
X206853433Y-106606437D01*
X206950933Y-106424028D01*
X207082146Y-106264146D01*
X207242028Y-106132933D01*
X207424437Y-106035433D01*
X207490413Y-106015420D01*
X207622364Y-105975393D01*
X207699493Y-105967797D01*
X207776620Y-105960200D01*
X207879780Y-105960200D01*
X207956907Y-105967797D01*
X207956907Y-105967797D01*
G37*
G36*
X210496907Y-105967797D02*
X210574036Y-105975393D01*
X210705987Y-106015420D01*
X210771963Y-106035433D01*
X210954372Y-106132933D01*
X211114254Y-106264146D01*
X211245467Y-106424028D01*
X211342967Y-106606437D01*
X211342967Y-106606438D01*
X211403007Y-106804364D01*
X211423280Y-107010200D01*
X211403007Y-107216036D01*
X211362980Y-107347987D01*
X211342967Y-107413963D01*
X211245467Y-107596372D01*
X211114254Y-107756254D01*
X210954372Y-107887467D01*
X210771963Y-107984967D01*
X210705987Y-108004980D01*
X210574036Y-108045007D01*
X210496907Y-108052603D01*
X210419780Y-108060200D01*
X210316620Y-108060200D01*
X210239493Y-108052603D01*
X210162364Y-108045007D01*
X210030413Y-108004980D01*
X209964437Y-107984967D01*
X209782028Y-107887467D01*
X209622146Y-107756254D01*
X209490933Y-107596372D01*
X209393433Y-107413963D01*
X209373420Y-107347987D01*
X209333393Y-107216036D01*
X209313120Y-107010200D01*
X209333393Y-106804364D01*
X209393433Y-106606438D01*
X209393433Y-106606437D01*
X209490933Y-106424028D01*
X209622146Y-106264146D01*
X209782028Y-106132933D01*
X209964437Y-106035433D01*
X210030413Y-106015420D01*
X210162364Y-105975393D01*
X210239493Y-105967797D01*
X210316620Y-105960200D01*
X210419780Y-105960200D01*
X210496907Y-105967797D01*
X210496907Y-105967797D01*
G37*
G36*
X230816907Y-105967797D02*
X230894036Y-105975393D01*
X231025987Y-106015420D01*
X231091963Y-106035433D01*
X231274372Y-106132933D01*
X231434254Y-106264146D01*
X231565467Y-106424028D01*
X231662967Y-106606437D01*
X231662967Y-106606438D01*
X231723007Y-106804364D01*
X231743280Y-107010200D01*
X231723007Y-107216036D01*
X231682980Y-107347987D01*
X231662967Y-107413963D01*
X231565467Y-107596372D01*
X231434254Y-107756254D01*
X231274372Y-107887467D01*
X231091963Y-107984967D01*
X231025987Y-108004980D01*
X230894036Y-108045007D01*
X230816907Y-108052603D01*
X230739780Y-108060200D01*
X230636620Y-108060200D01*
X230559493Y-108052603D01*
X230482364Y-108045007D01*
X230350413Y-108004980D01*
X230284437Y-107984967D01*
X230102028Y-107887467D01*
X229942146Y-107756254D01*
X229810933Y-107596372D01*
X229713433Y-107413963D01*
X229693420Y-107347987D01*
X229653393Y-107216036D01*
X229633120Y-107010200D01*
X229653393Y-106804364D01*
X229713433Y-106606438D01*
X229713433Y-106606437D01*
X229810933Y-106424028D01*
X229942146Y-106264146D01*
X230102028Y-106132933D01*
X230284437Y-106035433D01*
X230350413Y-106015420D01*
X230482364Y-105975393D01*
X230559493Y-105967797D01*
X230636620Y-105960200D01*
X230739780Y-105960200D01*
X230816907Y-105967797D01*
X230816907Y-105967797D01*
G37*
G36*
X170778200Y-108060200D02*
X168678200Y-108060200D01*
X168678200Y-105960200D01*
X170778200Y-105960200D01*
X170778200Y-108060200D01*
X170778200Y-108060200D01*
G37*
G36*
X172396907Y-105967797D02*
X172474036Y-105975393D01*
X172605987Y-106015420D01*
X172671963Y-106035433D01*
X172854372Y-106132933D01*
X173014254Y-106264146D01*
X173145467Y-106424028D01*
X173242967Y-106606437D01*
X173242967Y-106606438D01*
X173303007Y-106804364D01*
X173323280Y-107010200D01*
X173303007Y-107216036D01*
X173262980Y-107347987D01*
X173242967Y-107413963D01*
X173145467Y-107596372D01*
X173014254Y-107756254D01*
X172854372Y-107887467D01*
X172671963Y-107984967D01*
X172605987Y-108004980D01*
X172474036Y-108045007D01*
X172396907Y-108052603D01*
X172319780Y-108060200D01*
X172216620Y-108060200D01*
X172139493Y-108052603D01*
X172062364Y-108045007D01*
X171930413Y-108004980D01*
X171864437Y-107984967D01*
X171682028Y-107887467D01*
X171522146Y-107756254D01*
X171390933Y-107596372D01*
X171293433Y-107413963D01*
X171273420Y-107347987D01*
X171233393Y-107216036D01*
X171213120Y-107010200D01*
X171233393Y-106804364D01*
X171293433Y-106606438D01*
X171293433Y-106606437D01*
X171390933Y-106424028D01*
X171522146Y-106264146D01*
X171682028Y-106132933D01*
X171864437Y-106035433D01*
X171930413Y-106015420D01*
X172062364Y-105975393D01*
X172139493Y-105967797D01*
X172216620Y-105960200D01*
X172319780Y-105960200D01*
X172396907Y-105967797D01*
X172396907Y-105967797D01*
G37*
G36*
X174936907Y-105967797D02*
X175014036Y-105975393D01*
X175145987Y-106015420D01*
X175211963Y-106035433D01*
X175394372Y-106132933D01*
X175554254Y-106264146D01*
X175685467Y-106424028D01*
X175782967Y-106606437D01*
X175782967Y-106606438D01*
X175843007Y-106804364D01*
X175863280Y-107010200D01*
X175843007Y-107216036D01*
X175802980Y-107347987D01*
X175782967Y-107413963D01*
X175685467Y-107596372D01*
X175554254Y-107756254D01*
X175394372Y-107887467D01*
X175211963Y-107984967D01*
X175145987Y-108004980D01*
X175014036Y-108045007D01*
X174936907Y-108052603D01*
X174859780Y-108060200D01*
X174756620Y-108060200D01*
X174679493Y-108052603D01*
X174602364Y-108045007D01*
X174470413Y-108004980D01*
X174404437Y-107984967D01*
X174222028Y-107887467D01*
X174062146Y-107756254D01*
X173930933Y-107596372D01*
X173833433Y-107413963D01*
X173813420Y-107347987D01*
X173773393Y-107216036D01*
X173753120Y-107010200D01*
X173773393Y-106804364D01*
X173833433Y-106606438D01*
X173833433Y-106606437D01*
X173930933Y-106424028D01*
X174062146Y-106264146D01*
X174222028Y-106132933D01*
X174404437Y-106035433D01*
X174470413Y-106015420D01*
X174602364Y-105975393D01*
X174679493Y-105967797D01*
X174756620Y-105960200D01*
X174859780Y-105960200D01*
X174936907Y-105967797D01*
X174936907Y-105967797D01*
G37*
G36*
X182556907Y-105967797D02*
X182634036Y-105975393D01*
X182765987Y-106015420D01*
X182831963Y-106035433D01*
X183014372Y-106132933D01*
X183174254Y-106264146D01*
X183305467Y-106424028D01*
X183402967Y-106606437D01*
X183402967Y-106606438D01*
X183463007Y-106804364D01*
X183483280Y-107010200D01*
X183463007Y-107216036D01*
X183422980Y-107347987D01*
X183402967Y-107413963D01*
X183305467Y-107596372D01*
X183174254Y-107756254D01*
X183014372Y-107887467D01*
X182831963Y-107984967D01*
X182765987Y-108004980D01*
X182634036Y-108045007D01*
X182556907Y-108052603D01*
X182479780Y-108060200D01*
X182376620Y-108060200D01*
X182299493Y-108052603D01*
X182222364Y-108045007D01*
X182090413Y-108004980D01*
X182024437Y-107984967D01*
X181842028Y-107887467D01*
X181682146Y-107756254D01*
X181550933Y-107596372D01*
X181453433Y-107413963D01*
X181433420Y-107347987D01*
X181393393Y-107216036D01*
X181373120Y-107010200D01*
X181393393Y-106804364D01*
X181453433Y-106606438D01*
X181453433Y-106606437D01*
X181550933Y-106424028D01*
X181682146Y-106264146D01*
X181842028Y-106132933D01*
X182024437Y-106035433D01*
X182090413Y-106015420D01*
X182222364Y-105975393D01*
X182299493Y-105967797D01*
X182376620Y-105960200D01*
X182479780Y-105960200D01*
X182556907Y-105967797D01*
X182556907Y-105967797D01*
G37*
G36*
X185096907Y-105967797D02*
X185174036Y-105975393D01*
X185305987Y-106015420D01*
X185371963Y-106035433D01*
X185554372Y-106132933D01*
X185714254Y-106264146D01*
X185845467Y-106424028D01*
X185942967Y-106606437D01*
X185942967Y-106606438D01*
X186003007Y-106804364D01*
X186023280Y-107010200D01*
X186003007Y-107216036D01*
X185962980Y-107347987D01*
X185942967Y-107413963D01*
X185845467Y-107596372D01*
X185714254Y-107756254D01*
X185554372Y-107887467D01*
X185371963Y-107984967D01*
X185305987Y-108004980D01*
X185174036Y-108045007D01*
X185096907Y-108052603D01*
X185019780Y-108060200D01*
X184916620Y-108060200D01*
X184839493Y-108052603D01*
X184762364Y-108045007D01*
X184630413Y-108004980D01*
X184564437Y-107984967D01*
X184382028Y-107887467D01*
X184222146Y-107756254D01*
X184090933Y-107596372D01*
X183993433Y-107413963D01*
X183973420Y-107347987D01*
X183933393Y-107216036D01*
X183913120Y-107010200D01*
X183933393Y-106804364D01*
X183993433Y-106606438D01*
X183993433Y-106606437D01*
X184090933Y-106424028D01*
X184222146Y-106264146D01*
X184382028Y-106132933D01*
X184564437Y-106035433D01*
X184630413Y-106015420D01*
X184762364Y-105975393D01*
X184839493Y-105967797D01*
X184916620Y-105960200D01*
X185019780Y-105960200D01*
X185096907Y-105967797D01*
X185096907Y-105967797D01*
G37*
G36*
X187636907Y-105967797D02*
X187714036Y-105975393D01*
X187845987Y-106015420D01*
X187911963Y-106035433D01*
X188094372Y-106132933D01*
X188254254Y-106264146D01*
X188385467Y-106424028D01*
X188482967Y-106606437D01*
X188482967Y-106606438D01*
X188543007Y-106804364D01*
X188563280Y-107010200D01*
X188543007Y-107216036D01*
X188502980Y-107347987D01*
X188482967Y-107413963D01*
X188385467Y-107596372D01*
X188254254Y-107756254D01*
X188094372Y-107887467D01*
X187911963Y-107984967D01*
X187845987Y-108004980D01*
X187714036Y-108045007D01*
X187636907Y-108052603D01*
X187559780Y-108060200D01*
X187456620Y-108060200D01*
X187379493Y-108052603D01*
X187302364Y-108045007D01*
X187170413Y-108004980D01*
X187104437Y-107984967D01*
X186922028Y-107887467D01*
X186762146Y-107756254D01*
X186630933Y-107596372D01*
X186533433Y-107413963D01*
X186513420Y-107347987D01*
X186473393Y-107216036D01*
X186453120Y-107010200D01*
X186473393Y-106804364D01*
X186533433Y-106606438D01*
X186533433Y-106606437D01*
X186630933Y-106424028D01*
X186762146Y-106264146D01*
X186922028Y-106132933D01*
X187104437Y-106035433D01*
X187170413Y-106015420D01*
X187302364Y-105975393D01*
X187379493Y-105967797D01*
X187456620Y-105960200D01*
X187559780Y-105960200D01*
X187636907Y-105967797D01*
X187636907Y-105967797D01*
G37*
G36*
X223196907Y-105967797D02*
X223274036Y-105975393D01*
X223405987Y-106015420D01*
X223471963Y-106035433D01*
X223654372Y-106132933D01*
X223814254Y-106264146D01*
X223945467Y-106424028D01*
X224042967Y-106606437D01*
X224042967Y-106606438D01*
X224103007Y-106804364D01*
X224123280Y-107010200D01*
X224103007Y-107216036D01*
X224062980Y-107347987D01*
X224042967Y-107413963D01*
X223945467Y-107596372D01*
X223814254Y-107756254D01*
X223654372Y-107887467D01*
X223471963Y-107984967D01*
X223405987Y-108004980D01*
X223274036Y-108045007D01*
X223196907Y-108052603D01*
X223119780Y-108060200D01*
X223016620Y-108060200D01*
X222939493Y-108052603D01*
X222862364Y-108045007D01*
X222730413Y-108004980D01*
X222664437Y-107984967D01*
X222482028Y-107887467D01*
X222322146Y-107756254D01*
X222190933Y-107596372D01*
X222093433Y-107413963D01*
X222073420Y-107347987D01*
X222033393Y-107216036D01*
X222013120Y-107010200D01*
X222033393Y-106804364D01*
X222093433Y-106606438D01*
X222093433Y-106606437D01*
X222190933Y-106424028D01*
X222322146Y-106264146D01*
X222482028Y-106132933D01*
X222664437Y-106035433D01*
X222730413Y-106015420D01*
X222862364Y-105975393D01*
X222939493Y-105967797D01*
X223016620Y-105960200D01*
X223119780Y-105960200D01*
X223196907Y-105967797D01*
X223196907Y-105967797D01*
G37*
G36*
X202876907Y-105967797D02*
X202954036Y-105975393D01*
X203085987Y-106015420D01*
X203151963Y-106035433D01*
X203334372Y-106132933D01*
X203494254Y-106264146D01*
X203625467Y-106424028D01*
X203722967Y-106606437D01*
X203722967Y-106606438D01*
X203783007Y-106804364D01*
X203803280Y-107010200D01*
X203783007Y-107216036D01*
X203742980Y-107347987D01*
X203722967Y-107413963D01*
X203625467Y-107596372D01*
X203494254Y-107756254D01*
X203334372Y-107887467D01*
X203151963Y-107984967D01*
X203085987Y-108004980D01*
X202954036Y-108045007D01*
X202876907Y-108052603D01*
X202799780Y-108060200D01*
X202696620Y-108060200D01*
X202619493Y-108052603D01*
X202542364Y-108045007D01*
X202410413Y-108004980D01*
X202344437Y-107984967D01*
X202162028Y-107887467D01*
X202002146Y-107756254D01*
X201870933Y-107596372D01*
X201773433Y-107413963D01*
X201753420Y-107347987D01*
X201713393Y-107216036D01*
X201693120Y-107010200D01*
X201713393Y-106804364D01*
X201773433Y-106606438D01*
X201773433Y-106606437D01*
X201870933Y-106424028D01*
X202002146Y-106264146D01*
X202162028Y-106132933D01*
X202344437Y-106035433D01*
X202410413Y-106015420D01*
X202542364Y-105975393D01*
X202619493Y-105967797D01*
X202696620Y-105960200D01*
X202799780Y-105960200D01*
X202876907Y-105967797D01*
X202876907Y-105967797D01*
G37*
G36*
X200336907Y-105967797D02*
X200414036Y-105975393D01*
X200545987Y-106015420D01*
X200611963Y-106035433D01*
X200794372Y-106132933D01*
X200954254Y-106264146D01*
X201085467Y-106424028D01*
X201182967Y-106606437D01*
X201182967Y-106606438D01*
X201243007Y-106804364D01*
X201263280Y-107010200D01*
X201243007Y-107216036D01*
X201202980Y-107347987D01*
X201182967Y-107413963D01*
X201085467Y-107596372D01*
X200954254Y-107756254D01*
X200794372Y-107887467D01*
X200611963Y-107984967D01*
X200545987Y-108004980D01*
X200414036Y-108045007D01*
X200336907Y-108052603D01*
X200259780Y-108060200D01*
X200156620Y-108060200D01*
X200079493Y-108052603D01*
X200002364Y-108045007D01*
X199870413Y-108004980D01*
X199804437Y-107984967D01*
X199622028Y-107887467D01*
X199462146Y-107756254D01*
X199330933Y-107596372D01*
X199233433Y-107413963D01*
X199213420Y-107347987D01*
X199173393Y-107216036D01*
X199153120Y-107010200D01*
X199173393Y-106804364D01*
X199233433Y-106606438D01*
X199233433Y-106606437D01*
X199330933Y-106424028D01*
X199462146Y-106264146D01*
X199622028Y-106132933D01*
X199804437Y-106035433D01*
X199870413Y-106015420D01*
X200002364Y-105975393D01*
X200079493Y-105967797D01*
X200156620Y-105960200D01*
X200259780Y-105960200D01*
X200336907Y-105967797D01*
X200336907Y-105967797D01*
G37*
G36*
X197796907Y-105967797D02*
X197874036Y-105975393D01*
X198005987Y-106015420D01*
X198071963Y-106035433D01*
X198254372Y-106132933D01*
X198414254Y-106264146D01*
X198545467Y-106424028D01*
X198642967Y-106606437D01*
X198642967Y-106606438D01*
X198703007Y-106804364D01*
X198723280Y-107010200D01*
X198703007Y-107216036D01*
X198662980Y-107347987D01*
X198642967Y-107413963D01*
X198545467Y-107596372D01*
X198414254Y-107756254D01*
X198254372Y-107887467D01*
X198071963Y-107984967D01*
X198005987Y-108004980D01*
X197874036Y-108045007D01*
X197796907Y-108052603D01*
X197719780Y-108060200D01*
X197616620Y-108060200D01*
X197539493Y-108052603D01*
X197462364Y-108045007D01*
X197330413Y-108004980D01*
X197264437Y-107984967D01*
X197082028Y-107887467D01*
X196922146Y-107756254D01*
X196790933Y-107596372D01*
X196693433Y-107413963D01*
X196673420Y-107347987D01*
X196633393Y-107216036D01*
X196613120Y-107010200D01*
X196633393Y-106804364D01*
X196693433Y-106606438D01*
X196693433Y-106606437D01*
X196790933Y-106424028D01*
X196922146Y-106264146D01*
X197082028Y-106132933D01*
X197264437Y-106035433D01*
X197330413Y-106015420D01*
X197462364Y-105975393D01*
X197539493Y-105967797D01*
X197616620Y-105960200D01*
X197719780Y-105960200D01*
X197796907Y-105967797D01*
X197796907Y-105967797D01*
G37*
G36*
X205416907Y-105967797D02*
X205494036Y-105975393D01*
X205625987Y-106015420D01*
X205691963Y-106035433D01*
X205874372Y-106132933D01*
X206034254Y-106264146D01*
X206165467Y-106424028D01*
X206262967Y-106606437D01*
X206262967Y-106606438D01*
X206323007Y-106804364D01*
X206343280Y-107010200D01*
X206323007Y-107216036D01*
X206282980Y-107347987D01*
X206262967Y-107413963D01*
X206165467Y-107596372D01*
X206034254Y-107756254D01*
X205874372Y-107887467D01*
X205691963Y-107984967D01*
X205625987Y-108004980D01*
X205494036Y-108045007D01*
X205416907Y-108052603D01*
X205339780Y-108060200D01*
X205236620Y-108060200D01*
X205159493Y-108052603D01*
X205082364Y-108045007D01*
X204950413Y-108004980D01*
X204884437Y-107984967D01*
X204702028Y-107887467D01*
X204542146Y-107756254D01*
X204410933Y-107596372D01*
X204313433Y-107413963D01*
X204293420Y-107347987D01*
X204253393Y-107216036D01*
X204233120Y-107010200D01*
X204253393Y-106804364D01*
X204313433Y-106606438D01*
X204313433Y-106606437D01*
X204410933Y-106424028D01*
X204542146Y-106264146D01*
X204702028Y-106132933D01*
X204884437Y-106035433D01*
X204950413Y-106015420D01*
X205082364Y-105975393D01*
X205159493Y-105967797D01*
X205236620Y-105960200D01*
X205339780Y-105960200D01*
X205416907Y-105967797D01*
X205416907Y-105967797D01*
G37*
G36*
X177476907Y-105967797D02*
X177554036Y-105975393D01*
X177685987Y-106015420D01*
X177751963Y-106035433D01*
X177934372Y-106132933D01*
X178094254Y-106264146D01*
X178225467Y-106424028D01*
X178322967Y-106606437D01*
X178322967Y-106606438D01*
X178383007Y-106804364D01*
X178403280Y-107010200D01*
X178383007Y-107216036D01*
X178342980Y-107347987D01*
X178322967Y-107413963D01*
X178225467Y-107596372D01*
X178094254Y-107756254D01*
X177934372Y-107887467D01*
X177751963Y-107984967D01*
X177685987Y-108004980D01*
X177554036Y-108045007D01*
X177476907Y-108052603D01*
X177399780Y-108060200D01*
X177296620Y-108060200D01*
X177219493Y-108052603D01*
X177142364Y-108045007D01*
X177010413Y-108004980D01*
X176944437Y-107984967D01*
X176762028Y-107887467D01*
X176602146Y-107756254D01*
X176470933Y-107596372D01*
X176373433Y-107413963D01*
X176353420Y-107347987D01*
X176313393Y-107216036D01*
X176293120Y-107010200D01*
X176313393Y-106804364D01*
X176373433Y-106606438D01*
X176373433Y-106606437D01*
X176470933Y-106424028D01*
X176602146Y-106264146D01*
X176762028Y-106132933D01*
X176944437Y-106035433D01*
X177010413Y-106015420D01*
X177142364Y-105975393D01*
X177219493Y-105967797D01*
X177296620Y-105960200D01*
X177399780Y-105960200D01*
X177476907Y-105967797D01*
X177476907Y-105967797D01*
G37*
G36*
X195256907Y-105967797D02*
X195334036Y-105975393D01*
X195465987Y-106015420D01*
X195531963Y-106035433D01*
X195714372Y-106132933D01*
X195874254Y-106264146D01*
X196005467Y-106424028D01*
X196102967Y-106606437D01*
X196102967Y-106606438D01*
X196163007Y-106804364D01*
X196183280Y-107010200D01*
X196163007Y-107216036D01*
X196122980Y-107347987D01*
X196102967Y-107413963D01*
X196005467Y-107596372D01*
X195874254Y-107756254D01*
X195714372Y-107887467D01*
X195531963Y-107984967D01*
X195465987Y-108004980D01*
X195334036Y-108045007D01*
X195256907Y-108052603D01*
X195179780Y-108060200D01*
X195076620Y-108060200D01*
X194999493Y-108052603D01*
X194922364Y-108045007D01*
X194790413Y-108004980D01*
X194724437Y-107984967D01*
X194542028Y-107887467D01*
X194382146Y-107756254D01*
X194250933Y-107596372D01*
X194153433Y-107413963D01*
X194133420Y-107347987D01*
X194093393Y-107216036D01*
X194073120Y-107010200D01*
X194093393Y-106804364D01*
X194153433Y-106606438D01*
X194153433Y-106606437D01*
X194250933Y-106424028D01*
X194382146Y-106264146D01*
X194542028Y-106132933D01*
X194724437Y-106035433D01*
X194790413Y-106015420D01*
X194922364Y-105975393D01*
X194999493Y-105967797D01*
X195076620Y-105960200D01*
X195179780Y-105960200D01*
X195256907Y-105967797D01*
X195256907Y-105967797D01*
G37*
G36*
X193638200Y-108060200D02*
X191538200Y-108060200D01*
X191538200Y-105960200D01*
X193638200Y-105960200D01*
X193638200Y-108060200D01*
X193638200Y-108060200D01*
G37*
G36*
X180016907Y-105967797D02*
X180094036Y-105975393D01*
X180225987Y-106015420D01*
X180291963Y-106035433D01*
X180474372Y-106132933D01*
X180634254Y-106264146D01*
X180765467Y-106424028D01*
X180862967Y-106606437D01*
X180862967Y-106606438D01*
X180923007Y-106804364D01*
X180943280Y-107010200D01*
X180923007Y-107216036D01*
X180882980Y-107347987D01*
X180862967Y-107413963D01*
X180765467Y-107596372D01*
X180634254Y-107756254D01*
X180474372Y-107887467D01*
X180291963Y-107984967D01*
X180225987Y-108004980D01*
X180094036Y-108045007D01*
X180016907Y-108052603D01*
X179939780Y-108060200D01*
X179836620Y-108060200D01*
X179759493Y-108052603D01*
X179682364Y-108045007D01*
X179550413Y-108004980D01*
X179484437Y-107984967D01*
X179302028Y-107887467D01*
X179142146Y-107756254D01*
X179010933Y-107596372D01*
X178913433Y-107413963D01*
X178893420Y-107347987D01*
X178853393Y-107216036D01*
X178833120Y-107010200D01*
X178853393Y-106804364D01*
X178913433Y-106606438D01*
X178913433Y-106606437D01*
X179010933Y-106424028D01*
X179142146Y-106264146D01*
X179302028Y-106132933D01*
X179484437Y-106035433D01*
X179550413Y-106015420D01*
X179682364Y-105975393D01*
X179759493Y-105967797D01*
X179836620Y-105960200D01*
X179939780Y-105960200D01*
X180016907Y-105967797D01*
X180016907Y-105967797D01*
G37*
M02*
