M48
;DRILL file {KiCad (2018-01-30 revision 342197bb3)-makepkg} date 06/27/18 08:37:22
;FORMAT={-:-/ absolute / inch / decimal}
FMAT,2
INCH,TZ
T1C0.0157
T2C0.0236
T3C0.0295
T4C0.0300
T5C0.0315
T6C0.0335
T7C0.0394
T8C0.1260
%
G90
G05
M72
T1
X3.8937Y-5.5551
X3.9606Y-5.5787
X4.0807Y-5.6941
X4.0862Y-5.6547
X4.1492Y-5.5838
X4.3028Y-4.946
X4.4843Y-2.2874
X4.7008Y-3.8543
X4.7402Y-5.6299
X4.811Y-5.5748
X4.8268Y-3.5827
X4.8701Y-3.5827
X4.9173Y-3.5827
X4.9272Y-5.6977
X4.9299Y-5.6585
X4.9996Y-5.5917
X5.1414Y-4.946
X5.143Y-3.6026
X5.1732Y-3.8425
X5.1969Y-2.4882
X5.1969Y-2.5394
X5.1969Y-2.5866
X5.2677Y-2.4882
X5.2677Y-2.5394
X5.2677Y-2.5866
X5.273Y-3.5426
X5.283Y-3.6026
X5.3346Y-3.8425
X5.4094Y-3.2717
X5.4173Y-2.4882
X5.4173Y-2.5394
X5.4173Y-2.5866
X5.4528Y-3.2717
X5.4882Y-2.4882
X5.4882Y-2.5394
X5.4882Y-2.5866
X5.4961Y-3.2717
X5.5433Y-3.1535
X5.563Y-2.6299
X5.573Y-3.7826
X5.5945Y-3.5906
X5.626Y-2.4291
X5.939Y-5.6339
X5.9685Y-2.622
X6.0079Y-5.5748
X6.1177Y-5.7098
X6.1256Y-5.6704
X6.1772Y-3.0315
X6.2043Y-5.5838
X6.354Y-4.946
X6.3785Y-2.6226
X6.4606Y-2.7244
X6.4606Y-2.7756
X6.5394Y-2.6299
X6.689Y-3.0315
X6.7815Y-5.6398
X6.8504Y-5.5787
X6.8898Y-2.6142
X6.9603Y-5.7098
X6.9724Y-2.7283
X6.9724Y-2.7756
X6.976Y-5.6626
X7.0469Y-5.5838
X7.0512Y-2.628
X7.1973Y-4.943
X7.2205Y-3.0276
X7.4252Y-2.6181
X7.4646Y-2.5551
X7.5Y-2.7283
X7.5Y-2.7756
X7.5315Y-2.6732
X8.0039Y-5.626
X8.0748Y-5.5787
X8.1859Y-5.7126
X8.1886Y-5.6704
X8.2673Y-5.5838
X8.4248Y-4.946
X8.6609Y-3.216
X8.7009Y-3.216
X8.7409Y-3.216
X8.8453Y-3.3992
X8.8504Y-5.6417
X8.8847Y-3.3992
X8.9213Y-5.5787
X8.924Y-3.3992
X9.0311Y-5.7098
X9.0469Y-5.6704
X9.0933Y-3.35
X9.1654Y-2.6929
X9.2036Y-3.35
X9.228Y-5.2531
X9.2677Y-4.9449
X9.323Y-2.7096
T3
X7.5126Y-5.5873
X7.5626Y-5.5373
X7.6126Y-5.5873
X5.4535Y-5.5873
X5.5035Y-5.5373
X5.5535Y-5.5873
T4
X5.8583Y-5.611
X5.878Y-5.5032
X5.9025Y-5.7436
X5.9419Y-5.41
X5.9979Y-5.8157
X6.0372Y-5.3576
X6.102Y-5.8485
X4.0548Y-5.8485
X4.113Y-5.3549
X4.1589Y-5.8157
X6.326Y-5.5032
X6.7017Y-5.608
X6.1603Y-5.3549
X6.2061Y-5.8157
X6.3015Y-5.7436
X3.8553Y-5.7436
X4.2542Y-5.7436
X6.2621Y-5.41
X3.8946Y-5.41
X4.2149Y-5.41
X6.3457Y-5.611
X3.8111Y-5.611
X3.8308Y-5.5032
X3.9506Y-5.8157
X3.99Y-5.3576
X4.2787Y-5.5032
X4.2984Y-5.611
X9.0154Y-5.8485
X7.9253Y-5.611
X7.945Y-5.5032
X8.3929Y-5.5032
X8.4126Y-5.611
X8.9112Y-5.8157
X8.1042Y-5.3576
X8.7717Y-5.611
X8.7914Y-5.5032
X8.9506Y-5.3576
X8.0648Y-5.8157
X8.2272Y-5.3549
X8.2731Y-5.8157
X8.8159Y-5.7436
X8.8553Y-5.41
X8.1689Y-5.8485
X9.1755Y-5.41
X9.2149Y-5.7436
X9.2394Y-5.5032
X9.259Y-5.611
X6.7213Y-5.5002
X9.0736Y-5.3549
X9.1195Y-5.8157
X6.7458Y-5.7406
X6.7852Y-5.407
X6.8412Y-5.8127
X6.8806Y-5.3546
X6.9453Y-5.8454
X7.0036Y-5.3518
X7.0495Y-5.8127
X7.1054Y-5.407
X7.1448Y-5.7406
X7.9694Y-5.7436
X8.0088Y-5.41
X8.329Y-5.41
X8.3684Y-5.7436
X7.1693Y-5.5002
X7.189Y-5.608
X4.6575Y-5.611
X4.6772Y-5.5032
X4.7017Y-5.7436
X4.7411Y-5.41
X4.7971Y-5.8157
X4.8364Y-5.3576
X4.9012Y-5.8485
X4.9595Y-5.3549
X5.0053Y-5.8157
X5.0613Y-5.41
X5.1007Y-5.7436
X5.1252Y-5.5032
X5.1449Y-5.611
T5
X3.7048Y-4.8249
X3.7048Y-5.1249
X3.8048Y-4.8249
X3.8048Y-5.1249
X3.9048Y-4.8249
X3.9048Y-5.1249
X4.0048Y-4.8249
X4.0048Y-5.1249
X4.1048Y-4.8249
X4.1048Y-5.1249
X4.2048Y-4.8249
X4.2048Y-5.1249
X4.3048Y-4.8249
X4.3048Y-5.1249
X4.4048Y-4.8249
X4.4048Y-5.1249
X6.5996Y-4.8218
X6.5996Y-5.1218
X6.6996Y-4.8218
X6.6996Y-5.1218
X6.7996Y-4.8218
X6.7996Y-5.1218
X6.8996Y-4.8218
X6.8996Y-5.1218
X6.9996Y-4.8218
X6.9996Y-5.1218
X7.0996Y-4.8218
X7.0996Y-5.1218
X7.1996Y-4.8218
X7.1996Y-5.1218
X7.2996Y-4.8218
X7.2996Y-5.1218
X5.9563Y-4.8249
X5.9563Y-5.1249
X6.0563Y-4.8249
X6.0563Y-5.1249
X6.1563Y-4.8249
X6.1563Y-5.1249
X8.0233Y-5.1249
X8.2233Y-4.8249
X5.7563Y-5.1249
X5.8563Y-5.1249
X7.8233Y-5.1249
X7.9233Y-5.1249
X8.3233Y-4.8249
X8.4233Y-4.8249
X8.5233Y-4.8249
X6.2563Y-4.8249
X6.2563Y-5.1249
X7.8233Y-4.8249
X7.9233Y-4.8249
X8.0233Y-4.8249
X8.1233Y-4.8249
X8.2233Y-5.1249
X8.3233Y-5.1249
X8.4233Y-5.1249
X6.4563Y-4.8249
X8.1233Y-5.1249
X4.5453Y-4.8249
X6.3563Y-4.8249
X8.6697Y-4.8249
X8.6697Y-5.1249
X8.7697Y-4.8249
X8.7697Y-5.1249
X8.8697Y-4.8249
X8.8697Y-5.1249
X8.9697Y-4.8249
X8.9697Y-5.1249
X9.0697Y-4.8249
X9.0697Y-5.1249
X9.1697Y-4.8249
X9.1697Y-5.1249
X9.2697Y-4.8249
X9.2697Y-5.1249
X9.3697Y-4.8249
X9.3697Y-5.1249
X8.5233Y-5.1249
X4.5453Y-5.1249
X4.6453Y-4.8249
X4.6453Y-5.1249
X4.7453Y-4.8249
X4.7453Y-5.1249
X4.8453Y-4.8249
X4.8453Y-5.1249
X4.9453Y-4.8249
X4.9453Y-5.1249
X5.0453Y-4.8249
X5.0453Y-5.1249
X5.1453Y-4.8249
X5.1453Y-5.1249
X5.2453Y-4.8249
X6.3563Y-5.1249
X5.2453Y-5.1249
X5.7563Y-4.8249
X5.8563Y-4.8249
X6.4563Y-5.1249
T6
X4.1299Y-2.3883
X4.3268Y-2.3883
T7
X8.543Y-2.9396
X8.543Y-3.0396
X5.7477Y-4.387
X5.7477Y-4.487
X5.8477Y-4.387
X5.8477Y-4.487
X5.9477Y-4.387
X5.9477Y-4.487
X6.0477Y-4.387
X6.0477Y-4.487
X6.1477Y-4.387
X6.1477Y-4.487
X6.2477Y-4.387
X6.2477Y-4.487
X6.3477Y-4.387
X6.3477Y-4.487
X6.4477Y-4.387
X6.4477Y-4.487
X6.5477Y-4.387
X6.5477Y-4.487
X6.6477Y-4.387
X6.6477Y-4.487
X6.7477Y-4.387
X6.7477Y-4.487
X6.8477Y-4.387
X6.8477Y-4.487
X6.9477Y-4.387
X6.9477Y-4.487
X7.0477Y-4.387
X7.0477Y-4.487
X7.1477Y-4.387
X7.1477Y-4.487
X7.2477Y-4.387
X7.2477Y-4.487
X7.6567Y-2.3465
X7.7567Y-2.3465
X7.8567Y-2.3465
X7.9567Y-2.3465
X5.7477Y-2.3397
X5.7477Y-2.4397
X5.9477Y-2.3397
X5.9477Y-2.4397
X8.9409Y-2.3228
X9.0409Y-2.3228
X8.543Y-3.1396
X8.543Y-3.2396
X8.543Y-3.3396
X8.543Y-3.4396
X5.8477Y-2.3397
X5.8477Y-2.4397
X6.0477Y-2.3397
X6.0477Y-2.4397
X6.1477Y-2.3397
X6.1477Y-2.4397
X6.2477Y-2.3397
X6.2477Y-2.4397
X6.3477Y-2.3397
X6.3477Y-2.4397
X6.4477Y-2.3397
X6.4477Y-2.4397
X6.5477Y-2.3397
X6.5477Y-2.4397
X6.6477Y-2.3397
X6.6477Y-2.4397
X6.7477Y-2.3397
X6.7477Y-2.4397
X6.8477Y-2.3397
X6.8477Y-2.4397
X6.9477Y-2.3397
X6.9477Y-2.4397
X7.0477Y-2.3397
X7.0477Y-2.4397
X7.1477Y-2.3397
X7.1477Y-2.4397
X7.2477Y-2.3397
X7.2477Y-2.4397
T8
X9.2913Y-4.0157
X3.7795Y-4.0157
X9.2913Y-4.4488
X9.2913Y-6.063
X3.7795Y-2.4016
X9.2913Y-2.4016
X3.7795Y-4.4488
X3.7795Y-6.063
T2
X4.0906Y-2.2958G85X4.0906Y-2.2682
G05
X4.3661Y-2.2682G85X4.3661Y-2.2958
G05
T0
M30
