G04 #@! TF.GenerationSoftware,KiCad,Pcbnew,(2018-01-30 revision 342197bb3)-makepkg*
G04 #@! TF.CreationDate,2018-06-27T08:36:49+02:00*
G04 #@! TF.ProjectId,NixieClock01A,4E69786965436C6F636B3031412E6B69,rev?*
G04 #@! TF.SameCoordinates,Original*
G04 #@! TF.FileFunction,Soldermask,Top*
G04 #@! TF.FilePolarity,Negative*
%FSLAX46Y46*%
G04 Gerber Fmt 4.6, Leading zero omitted, Abs format (unit mm)*
G04 Created by KiCad (PCBNEW (2018-01-30 revision 342197bb3)-makepkg) date 06/27/18 08:36:49*
%MOMM*%
%LPD*%
G01*
G04 APERTURE LIST*
%ADD10C,1.727200*%
%ADD11C,1.700000*%
%ADD12R,1.700000X1.700000*%
%ADD13R,2.000000X2.000000*%
%ADD14O,2.000000X2.000000*%
%ADD15R,2.100000X2.100000*%
%ADD16O,2.100000X2.100000*%
%ADD17R,1.900000X1.000000*%
%ADD18R,1.400000X1.220000*%
%ADD19R,1.220000X1.400000*%
%ADD20R,1.520000X1.800000*%
%ADD21R,1.900000X1.400000*%
%ADD22R,5.800000X5.300000*%
%ADD23R,1.600000X2.600000*%
%ADD24R,6.200000X6.800000*%
%ADD25R,2.150000X0.950000*%
%ADD26R,5.800000X2.400000*%
%ADD27R,2.460000X3.000000*%
%ADD28R,2.200000X1.620000*%
%ADD29R,2.900000X2.700000*%
%ADD30R,1.800000X1.520000*%
%ADD31R,2.800000X2.460000*%
%ADD32R,2.400000X4.200000*%
%ADD33R,2.400000X1.900000*%
%ADD34R,3.700000X2.900000*%
%ADD35R,1.900000X2.300000*%
%ADD36C,1.850000*%
%ADD37R,0.800000X1.750000*%
%ADD38O,1.600000X2.300000*%
%ADD39R,1.600000X2.300000*%
%ADD40C,6.000000*%
%ADD41R,1.400000X2.900000*%
G04 APERTURE END LIST*
D10*
X228990734Y-148551499D03*
X230470534Y-136013499D03*
X231635734Y-147719499D03*
X226345734Y-147719499D03*
X227345734Y-136083499D03*
X222801734Y-142520499D03*
X223301734Y-139782499D03*
X235179734Y-142520499D03*
X234679734Y-139782499D03*
X233057734Y-137414499D03*
X224923734Y-137414499D03*
X223923734Y-145888499D03*
X234057734Y-145888499D03*
X207490734Y-148551499D03*
X208970534Y-136013499D03*
X210135734Y-147719499D03*
X204845734Y-147719499D03*
X205845734Y-136083499D03*
X201301734Y-142520499D03*
X201801734Y-139782499D03*
X213679734Y-142520499D03*
X213179734Y-139782499D03*
X211557734Y-137414499D03*
X203423734Y-137414499D03*
X202423734Y-145888499D03*
X212557734Y-145888499D03*
X176411090Y-148473700D03*
X177890890Y-135935700D03*
X179056090Y-147641700D03*
X173766090Y-147641700D03*
X174766090Y-136005700D03*
X170222090Y-142442700D03*
X170722090Y-139704700D03*
X182600090Y-142442700D03*
X182100090Y-139704700D03*
X180478090Y-137336700D03*
X172344090Y-137336700D03*
X171344090Y-145810700D03*
X181478090Y-145810700D03*
X154990734Y-148551499D03*
X156470534Y-136013499D03*
X157635734Y-147719499D03*
X152345734Y-147719499D03*
X153345734Y-136083499D03*
X148801734Y-142520499D03*
X149301734Y-139782499D03*
X161179734Y-142520499D03*
X160679734Y-139782499D03*
X159057734Y-137414499D03*
X150923734Y-137414499D03*
X149923734Y-145888499D03*
X160057734Y-145888499D03*
X124490734Y-148551499D03*
X125970534Y-136013499D03*
X127135734Y-147719499D03*
X121845734Y-147719499D03*
X122845734Y-136083499D03*
X118301734Y-142520499D03*
X118801734Y-139782499D03*
X130679734Y-142520499D03*
X130179734Y-139782499D03*
X128557734Y-137414499D03*
X120423734Y-137414499D03*
X119423734Y-145888499D03*
X129557734Y-145888499D03*
X102990734Y-148551499D03*
X104470534Y-136013499D03*
X105635734Y-147719499D03*
X100345734Y-147719499D03*
X101345734Y-136083499D03*
X96801734Y-142520499D03*
X97301734Y-139782499D03*
X109179734Y-142520499D03*
X108679734Y-139782499D03*
X107057734Y-137414499D03*
X98923734Y-137414499D03*
X97923734Y-145888499D03*
X108057734Y-145888499D03*
D11*
X192089285Y-140647500D03*
X193359285Y-141917500D03*
D12*
X190819285Y-141917500D03*
D13*
X133230734Y-122551499D03*
D14*
X115450734Y-130171499D03*
X130690734Y-122551499D03*
X117990734Y-130171499D03*
X128150734Y-122551499D03*
X120530734Y-130171499D03*
X125610734Y-122551499D03*
X123070734Y-130171499D03*
X123070734Y-122551499D03*
X125610734Y-130171499D03*
X120530734Y-122551499D03*
X128150734Y-130171499D03*
X117990734Y-122551499D03*
X130690734Y-130171499D03*
X115450734Y-122551499D03*
X133230734Y-130171499D03*
D15*
X145990379Y-111429297D03*
D16*
X145990379Y-113969297D03*
X148530379Y-111429297D03*
X148530379Y-113969297D03*
X151070379Y-111429297D03*
X151070379Y-113969297D03*
X153610379Y-111429297D03*
X153610379Y-113969297D03*
X156150379Y-111429297D03*
X156150379Y-113969297D03*
X158690379Y-111429297D03*
X158690379Y-113969297D03*
X161230379Y-111429297D03*
X161230379Y-113969297D03*
X163770379Y-111429297D03*
X163770379Y-113969297D03*
X166310379Y-111429297D03*
X166310379Y-113969297D03*
X168850379Y-111429297D03*
X168850379Y-113969297D03*
X171390379Y-111429297D03*
X171390379Y-113969297D03*
X173930379Y-111429297D03*
X173930379Y-113969297D03*
X176470379Y-111429297D03*
X176470379Y-113969297D03*
X179010379Y-111429297D03*
X179010379Y-113969297D03*
X181550379Y-111429297D03*
X181550379Y-113969297D03*
X184090379Y-111429297D03*
X184090379Y-113969297D03*
D17*
X155440379Y-67984297D03*
X155440379Y-69254297D03*
X155440379Y-70524297D03*
X155440379Y-71794297D03*
X155440379Y-73064297D03*
X155440379Y-74334297D03*
X155440379Y-75604297D03*
X155440379Y-76874297D03*
X162540379Y-76874297D03*
X162540379Y-75604297D03*
X162540379Y-74334297D03*
X162540379Y-73064297D03*
X162540379Y-71794297D03*
X162540379Y-70524297D03*
X162540379Y-69254297D03*
X162540379Y-67984297D03*
D18*
X126568379Y-95609297D03*
X126568379Y-94009297D03*
D19*
X164800000Y-66500000D03*
X163200000Y-66500000D03*
X239636703Y-68824379D03*
X238036703Y-68824379D03*
X222009103Y-72583579D03*
X220409103Y-72583579D03*
D18*
X152990379Y-69229297D03*
X152990379Y-67629297D03*
X231851703Y-91138379D03*
X231851703Y-92738379D03*
X229692703Y-92738379D03*
X229692703Y-91138379D03*
D19*
X235826703Y-70602379D03*
X234226703Y-70602379D03*
X238036703Y-67046379D03*
X239636703Y-67046379D03*
X227698703Y-91176379D03*
X226098703Y-91176379D03*
X234400000Y-65400000D03*
X232800000Y-65400000D03*
X234400000Y-67100000D03*
X232800000Y-67100000D03*
X238036703Y-70602379D03*
X239636703Y-70602379D03*
D14*
X111880734Y-130171499D03*
X94100734Y-122551499D03*
X109340734Y-130171499D03*
X96640734Y-122551499D03*
X106800734Y-130171499D03*
X99180734Y-122551499D03*
X104260734Y-130171499D03*
X101720734Y-122551499D03*
X101720734Y-130171499D03*
X104260734Y-122551499D03*
X99180734Y-130171499D03*
X106800734Y-122551499D03*
X96640734Y-130171499D03*
X109340734Y-122551499D03*
X94100734Y-130171499D03*
D13*
X111880734Y-122551499D03*
D19*
X138722379Y-94047297D03*
X140322379Y-94047297D03*
X138214379Y-87443297D03*
X139814379Y-87443297D03*
X138544379Y-97603297D03*
X136944379Y-97603297D03*
D20*
X116290379Y-97857297D03*
X118050379Y-97857297D03*
D18*
X142062379Y-94085297D03*
X142062379Y-92485297D03*
D19*
X139814379Y-91253297D03*
X138214379Y-91253297D03*
X138214379Y-89221297D03*
X139814379Y-89221297D03*
D18*
X141554379Y-85881297D03*
X141554379Y-87481297D03*
D19*
X140292998Y-95947797D03*
X138692998Y-95947797D03*
D20*
X133816379Y-86173297D03*
X135576379Y-86173297D03*
X135576379Y-83887297D03*
X133816379Y-83887297D03*
X133816379Y-88459297D03*
X135576379Y-88459297D03*
D19*
X105822734Y-145629297D03*
X104222734Y-145629297D03*
D21*
X100540734Y-140451499D03*
X100540734Y-143651499D03*
X105440734Y-140451499D03*
X105440734Y-143651499D03*
D22*
X118440379Y-88771297D03*
X118440379Y-76971297D03*
D23*
X126574379Y-88087297D03*
X131134379Y-88087297D03*
D24*
X128854379Y-81787297D03*
D25*
X136110379Y-95190297D03*
X136110379Y-93920297D03*
X136110379Y-92650297D03*
X136110379Y-91380297D03*
X128710379Y-91380297D03*
X128710379Y-92650297D03*
X128710379Y-93920297D03*
X128710379Y-95190297D03*
D19*
X128562379Y-97603297D03*
X130162379Y-97603297D03*
D26*
X136220379Y-75849297D03*
X136220379Y-80749297D03*
D27*
X116834379Y-94301297D03*
X123094379Y-94301297D03*
D28*
X140792379Y-75853297D03*
X140792379Y-78713297D03*
D29*
X131258379Y-75759297D03*
X126958379Y-75759297D03*
D15*
X216992703Y-74666379D03*
D16*
X216992703Y-77206379D03*
X216992703Y-79746379D03*
X216992703Y-82286379D03*
X216992703Y-84826379D03*
X216992703Y-87366379D03*
D19*
X177790379Y-66429297D03*
X176190379Y-66429297D03*
D21*
X122040734Y-140451499D03*
X122040734Y-143651499D03*
X126940734Y-140451499D03*
X126940734Y-143651499D03*
D19*
X125590379Y-145629297D03*
X127190379Y-145629297D03*
X156390379Y-145629297D03*
X157990379Y-145629297D03*
X189700000Y-66529297D03*
X191300000Y-66529297D03*
X179390379Y-145629297D03*
X177790379Y-145629297D03*
X208990379Y-145629297D03*
X210590379Y-145629297D03*
D30*
X126929297Y-61929621D03*
X126929297Y-63689621D03*
D19*
X231990379Y-145629297D03*
X230390379Y-145629297D03*
D18*
X127129297Y-67009621D03*
X127129297Y-65409621D03*
D21*
X152540734Y-140451499D03*
X152540734Y-143651499D03*
X157440734Y-140451499D03*
X157440734Y-143651499D03*
X178861090Y-143573700D03*
X178861090Y-140373700D03*
X173961090Y-143573700D03*
X173961090Y-140373700D03*
X205040734Y-140451499D03*
X205040734Y-143651499D03*
X209940734Y-140451499D03*
X209940734Y-143651499D03*
X231440734Y-143651499D03*
X231440734Y-140451499D03*
X226540734Y-143651499D03*
X226540734Y-140451499D03*
D18*
X166000000Y-69600000D03*
X166000000Y-68000000D03*
X179700000Y-68100000D03*
X179700000Y-69700000D03*
D17*
X175540379Y-67984297D03*
X175540379Y-69254297D03*
X175540379Y-70524297D03*
X175540379Y-71794297D03*
X175540379Y-73064297D03*
X175540379Y-74334297D03*
X175540379Y-75604297D03*
X175540379Y-76874297D03*
X168440379Y-76874297D03*
X168440379Y-75604297D03*
X168440379Y-74334297D03*
X168440379Y-73064297D03*
X168440379Y-71794297D03*
X168440379Y-70524297D03*
X168440379Y-69254297D03*
X168440379Y-67984297D03*
X181940379Y-67984297D03*
X181940379Y-69254297D03*
X181940379Y-70524297D03*
X181940379Y-71794297D03*
X181940379Y-73064297D03*
X181940379Y-74334297D03*
X181940379Y-75604297D03*
X181940379Y-76874297D03*
X189040379Y-76874297D03*
X189040379Y-75604297D03*
X189040379Y-74334297D03*
X189040379Y-73064297D03*
X189040379Y-71794297D03*
X189040379Y-70524297D03*
X189040379Y-69254297D03*
X189040379Y-67984297D03*
D14*
X163990734Y-130171499D03*
X146210734Y-122551499D03*
X161450734Y-130171499D03*
X148750734Y-122551499D03*
X158910734Y-130171499D03*
X151290734Y-122551499D03*
X156370734Y-130171499D03*
X153830734Y-122551499D03*
X153830734Y-130171499D03*
X156370734Y-122551499D03*
X151290734Y-130171499D03*
X158910734Y-122551499D03*
X148750734Y-130171499D03*
X161450734Y-122551499D03*
X146210734Y-130171499D03*
D13*
X163990734Y-122551499D03*
X185411090Y-122473700D03*
D14*
X167631090Y-130093700D03*
X182871090Y-122473700D03*
X170171090Y-130093700D03*
X180331090Y-122473700D03*
X172711090Y-130093700D03*
X177791090Y-122473700D03*
X175251090Y-130093700D03*
X175251090Y-122473700D03*
X177791090Y-130093700D03*
X172711090Y-122473700D03*
X180331090Y-130093700D03*
X170171090Y-122473700D03*
X182871090Y-130093700D03*
X167631090Y-122473700D03*
X185411090Y-130093700D03*
D13*
X216490734Y-122551499D03*
D14*
X198710734Y-130171499D03*
X213950734Y-122551499D03*
X201250734Y-130171499D03*
X211410734Y-122551499D03*
X203790734Y-130171499D03*
X208870734Y-122551499D03*
X206330734Y-130171499D03*
X206330734Y-122551499D03*
X208870734Y-130171499D03*
X203790734Y-122551499D03*
X211410734Y-130171499D03*
X201250734Y-122551499D03*
X213950734Y-130171499D03*
X198710734Y-122551499D03*
X216490734Y-130171499D03*
X237990734Y-130171499D03*
X220210734Y-122551499D03*
X235450734Y-130171499D03*
X222750734Y-122551499D03*
X232910734Y-130171499D03*
X225290734Y-122551499D03*
X230370734Y-130171499D03*
X227830734Y-122551499D03*
X227830734Y-130171499D03*
X230370734Y-122551499D03*
X225290734Y-130171499D03*
X232910734Y-122551499D03*
X222750734Y-130171499D03*
X235450734Y-122551499D03*
X220210734Y-130171499D03*
D13*
X237990734Y-122551499D03*
D15*
X145990379Y-59429297D03*
D16*
X145990379Y-61969297D03*
X148530379Y-59429297D03*
X148530379Y-61969297D03*
X151070379Y-59429297D03*
X151070379Y-61969297D03*
X153610379Y-59429297D03*
X153610379Y-61969297D03*
X156150379Y-59429297D03*
X156150379Y-61969297D03*
X158690379Y-59429297D03*
X158690379Y-61969297D03*
X161230379Y-59429297D03*
X161230379Y-61969297D03*
X163770379Y-59429297D03*
X163770379Y-61969297D03*
X166310379Y-59429297D03*
X166310379Y-61969297D03*
X168850379Y-59429297D03*
X168850379Y-61969297D03*
X171390379Y-59429297D03*
X171390379Y-61969297D03*
X173930379Y-59429297D03*
X173930379Y-61969297D03*
X176470379Y-59429297D03*
X176470379Y-61969297D03*
X179010379Y-59429297D03*
X179010379Y-61969297D03*
X181550379Y-59429297D03*
X181550379Y-61969297D03*
X184090379Y-59429297D03*
X184090379Y-61969297D03*
D31*
X220970703Y-74910379D03*
X220970703Y-79870379D03*
D32*
X135679297Y-64509621D03*
D33*
X129379297Y-64509621D03*
X129379297Y-66809621D03*
X129379297Y-62209621D03*
D18*
X111000000Y-64700000D03*
X111000000Y-63100000D03*
D31*
X113900000Y-65580000D03*
X113900000Y-60620000D03*
D34*
X119400000Y-65500000D03*
X119400000Y-58700000D03*
D28*
X108700000Y-65730000D03*
X108700000Y-62870000D03*
D35*
X106400000Y-57962500D03*
D36*
X109900000Y-60662500D03*
D37*
X108050000Y-60662500D03*
X108700000Y-60662500D03*
X106100000Y-60662500D03*
X106750000Y-60662500D03*
X107400000Y-60662500D03*
D36*
X104900000Y-60662500D03*
D35*
X108400000Y-57962500D03*
D38*
X110900000Y-57962500D03*
X103900000Y-57962500D03*
D39*
X104500000Y-57962500D03*
X110300000Y-57962500D03*
D40*
X236000000Y-154000000D03*
X96000000Y-154000000D03*
X236000000Y-113000000D03*
X96000000Y-113000000D03*
X236000000Y-61000000D03*
X236000000Y-102000000D03*
X96000000Y-102000000D03*
X96000000Y-61000000D03*
D41*
X239775203Y-73313379D03*
X237775203Y-73313379D03*
X235775203Y-73313379D03*
X233775203Y-73313379D03*
X231775203Y-73313379D03*
X229775203Y-73313379D03*
X227775203Y-73313379D03*
X225775203Y-73313379D03*
X225775203Y-88513379D03*
X227775203Y-88513379D03*
X229775203Y-88513379D03*
X231775203Y-88513379D03*
X233775203Y-88513379D03*
X235775203Y-88513379D03*
X237775203Y-88513379D03*
X239775203Y-88513379D03*
D15*
X227100000Y-59000000D03*
D16*
X229640000Y-59000000D03*
D11*
X139789285Y-140647500D03*
X141059285Y-141917500D03*
D12*
X138519285Y-141917500D03*
D15*
X202100000Y-59600000D03*
D16*
X199560000Y-59600000D03*
X197020000Y-59600000D03*
X194480000Y-59600000D03*
D19*
X233500000Y-93600000D03*
X235100000Y-93600000D03*
X235100000Y-91900000D03*
X233500000Y-91900000D03*
M02*
