G04 #@! TF.GenerationSoftware,KiCad,Pcbnew,(2018-01-30 revision 342197bb3)-makepkg*
G04 #@! TF.CreationDate,2018-06-27T08:36:49+02:00*
G04 #@! TF.ProjectId,NixieClock01A,4E69786965436C6F636B3031412E6B69,rev?*
G04 #@! TF.SameCoordinates,Original*
G04 #@! TF.FileFunction,Legend,Bot*
G04 #@! TF.FilePolarity,Positive*
%FSLAX46Y46*%
G04 Gerber Fmt 4.6, Leading zero omitted, Abs format (unit mm)*
G04 Created by KiCad (PCBNEW (2018-01-30 revision 342197bb3)-makepkg) date 06/27/18 08:36:49*
%MOMM*%
%LPD*%
G01*
G04 APERTURE LIST*
%ADD10C,0.120000*%
%ADD11C,0.150000*%
G04 APERTURE END LIST*
D10*
X103290379Y-134339297D02*
X102290379Y-134339297D01*
X103290379Y-132519297D02*
X102290379Y-132519297D01*
X124890379Y-132519297D02*
X123890379Y-132519297D01*
X124890379Y-134339297D02*
X123890379Y-134339297D01*
X155290379Y-132519297D02*
X154290379Y-132519297D01*
X155290379Y-134339297D02*
X154290379Y-134339297D01*
X176690379Y-134139297D02*
X175690379Y-134139297D01*
X176690379Y-132319297D02*
X175690379Y-132319297D01*
X207890379Y-134339297D02*
X206890379Y-134339297D01*
X207890379Y-132519297D02*
X206890379Y-132519297D01*
X229490379Y-132519297D02*
X228490379Y-132519297D01*
X229490379Y-134339297D02*
X228490379Y-134339297D01*
X194310000Y-137259895D02*
X194310000Y-136259895D01*
X192490000Y-137259895D02*
X192490000Y-136259895D01*
X189790000Y-137259895D02*
X189790000Y-136259895D01*
X191610000Y-137259895D02*
X191610000Y-136259895D01*
X139410000Y-137200000D02*
X139410000Y-136200000D01*
X137590000Y-137200000D02*
X137590000Y-136200000D01*
X140190000Y-137200000D02*
X140190000Y-136200000D01*
X142010000Y-137200000D02*
X142010000Y-136200000D01*
D11*
X100597521Y-125062630D02*
X100645140Y-125015011D01*
X100692759Y-124872154D01*
X100692759Y-124776916D01*
X100645140Y-124634058D01*
X100549902Y-124538820D01*
X100454664Y-124491201D01*
X100264188Y-124443582D01*
X100121331Y-124443582D01*
X99930855Y-124491201D01*
X99835617Y-124538820D01*
X99740379Y-124634058D01*
X99692759Y-124776916D01*
X99692759Y-124872154D01*
X99740379Y-125015011D01*
X99787998Y-125062630D01*
X100692759Y-126015011D02*
X100692759Y-125443582D01*
X100692759Y-125729297D02*
X99692759Y-125729297D01*
X99835617Y-125634058D01*
X99930855Y-125538820D01*
X99978474Y-125443582D01*
X121897521Y-124586439D02*
X121945140Y-124538820D01*
X121992759Y-124395963D01*
X121992759Y-124300725D01*
X121945140Y-124157868D01*
X121849902Y-124062630D01*
X121754664Y-124015011D01*
X121564188Y-123967392D01*
X121421331Y-123967392D01*
X121230855Y-124015011D01*
X121135617Y-124062630D01*
X121040379Y-124157868D01*
X120992759Y-124300725D01*
X120992759Y-124395963D01*
X121040379Y-124538820D01*
X121087998Y-124586439D01*
X121992759Y-125538820D02*
X121992759Y-124967392D01*
X121992759Y-125253106D02*
X120992759Y-125253106D01*
X121135617Y-125157868D01*
X121230855Y-125062630D01*
X121278474Y-124967392D01*
X120992759Y-125872154D02*
X120992759Y-126538820D01*
X121992759Y-126110249D01*
X152697521Y-124586439D02*
X152745140Y-124538820D01*
X152792759Y-124395963D01*
X152792759Y-124300725D01*
X152745140Y-124157868D01*
X152649902Y-124062630D01*
X152554664Y-124015011D01*
X152364188Y-123967392D01*
X152221331Y-123967392D01*
X152030855Y-124015011D01*
X151935617Y-124062630D01*
X151840379Y-124157868D01*
X151792759Y-124300725D01*
X151792759Y-124395963D01*
X151840379Y-124538820D01*
X151887998Y-124586439D01*
X151887998Y-124967392D02*
X151840379Y-125015011D01*
X151792759Y-125110249D01*
X151792759Y-125348344D01*
X151840379Y-125443582D01*
X151887998Y-125491201D01*
X151983236Y-125538820D01*
X152078474Y-125538820D01*
X152221331Y-125491201D01*
X152792759Y-124919773D01*
X152792759Y-125538820D01*
X151887998Y-125919773D02*
X151840379Y-125967392D01*
X151792759Y-126062630D01*
X151792759Y-126300725D01*
X151840379Y-126395963D01*
X151887998Y-126443582D01*
X151983236Y-126491201D01*
X152078474Y-126491201D01*
X152221331Y-126443582D01*
X152792759Y-125872154D01*
X152792759Y-126491201D01*
X174097521Y-124586439D02*
X174145140Y-124538820D01*
X174192759Y-124395963D01*
X174192759Y-124300725D01*
X174145140Y-124157868D01*
X174049902Y-124062630D01*
X173954664Y-124015011D01*
X173764188Y-123967392D01*
X173621331Y-123967392D01*
X173430855Y-124015011D01*
X173335617Y-124062630D01*
X173240379Y-124157868D01*
X173192759Y-124300725D01*
X173192759Y-124395963D01*
X173240379Y-124538820D01*
X173287998Y-124586439D01*
X173287998Y-124967392D02*
X173240379Y-125015011D01*
X173192759Y-125110249D01*
X173192759Y-125348344D01*
X173240379Y-125443582D01*
X173287998Y-125491201D01*
X173383236Y-125538820D01*
X173478474Y-125538820D01*
X173621331Y-125491201D01*
X174192759Y-124919773D01*
X174192759Y-125538820D01*
X173192759Y-125872154D02*
X173192759Y-126538820D01*
X174192759Y-126110249D01*
X205097521Y-124586439D02*
X205145140Y-124538820D01*
X205192759Y-124395963D01*
X205192759Y-124300725D01*
X205145140Y-124157868D01*
X205049902Y-124062630D01*
X204954664Y-124015011D01*
X204764188Y-123967392D01*
X204621331Y-123967392D01*
X204430855Y-124015011D01*
X204335617Y-124062630D01*
X204240379Y-124157868D01*
X204192759Y-124300725D01*
X204192759Y-124395963D01*
X204240379Y-124538820D01*
X204287998Y-124586439D01*
X204192759Y-124919773D02*
X204192759Y-125538820D01*
X204573712Y-125205487D01*
X204573712Y-125348344D01*
X204621331Y-125443582D01*
X204668950Y-125491201D01*
X204764188Y-125538820D01*
X205002283Y-125538820D01*
X205097521Y-125491201D01*
X205145140Y-125443582D01*
X205192759Y-125348344D01*
X205192759Y-125062630D01*
X205145140Y-124967392D01*
X205097521Y-124919773D01*
X205192759Y-126491201D02*
X205192759Y-125919773D01*
X205192759Y-126205487D02*
X204192759Y-126205487D01*
X204335617Y-126110249D01*
X204430855Y-126015011D01*
X204478474Y-125919773D01*
X226697521Y-124586439D02*
X226745140Y-124538820D01*
X226792759Y-124395963D01*
X226792759Y-124300725D01*
X226745140Y-124157868D01*
X226649902Y-124062630D01*
X226554664Y-124015011D01*
X226364188Y-123967392D01*
X226221331Y-123967392D01*
X226030855Y-124015011D01*
X225935617Y-124062630D01*
X225840379Y-124157868D01*
X225792759Y-124300725D01*
X225792759Y-124395963D01*
X225840379Y-124538820D01*
X225887998Y-124586439D01*
X225792759Y-124919773D02*
X225792759Y-125538820D01*
X226173712Y-125205487D01*
X226173712Y-125348344D01*
X226221331Y-125443582D01*
X226268950Y-125491201D01*
X226364188Y-125538820D01*
X226602283Y-125538820D01*
X226697521Y-125491201D01*
X226745140Y-125443582D01*
X226792759Y-125348344D01*
X226792759Y-125062630D01*
X226745140Y-124967392D01*
X226697521Y-124919773D01*
X225887998Y-125919773D02*
X225840379Y-125967392D01*
X225792759Y-126062630D01*
X225792759Y-126300725D01*
X225840379Y-126395963D01*
X225887998Y-126443582D01*
X225983236Y-126491201D01*
X226078474Y-126491201D01*
X226221331Y-126443582D01*
X226792759Y-125872154D01*
X226792759Y-126491201D01*
X107642857Y-133952380D02*
X107976190Y-133476190D01*
X108214285Y-133952380D02*
X108214285Y-132952380D01*
X107833333Y-132952380D01*
X107738095Y-133000000D01*
X107690476Y-133047619D01*
X107642857Y-133142857D01*
X107642857Y-133285714D01*
X107690476Y-133380952D01*
X107738095Y-133428571D01*
X107833333Y-133476190D01*
X108214285Y-133476190D01*
X107261904Y-133047619D02*
X107214285Y-133000000D01*
X107119047Y-132952380D01*
X106880952Y-132952380D01*
X106785714Y-133000000D01*
X106738095Y-133047619D01*
X106690476Y-133142857D01*
X106690476Y-133238095D01*
X106738095Y-133380952D01*
X107309523Y-133952380D01*
X106690476Y-133952380D01*
X105738095Y-133952380D02*
X106309523Y-133952380D01*
X106023809Y-133952380D02*
X106023809Y-132952380D01*
X106119047Y-133095238D01*
X106214285Y-133190476D01*
X106309523Y-133238095D01*
X129142857Y-133952380D02*
X129476190Y-133476190D01*
X129714285Y-133952380D02*
X129714285Y-132952380D01*
X129333333Y-132952380D01*
X129238095Y-133000000D01*
X129190476Y-133047619D01*
X129142857Y-133142857D01*
X129142857Y-133285714D01*
X129190476Y-133380952D01*
X129238095Y-133428571D01*
X129333333Y-133476190D01*
X129714285Y-133476190D01*
X128761904Y-133047619D02*
X128714285Y-133000000D01*
X128619047Y-132952380D01*
X128380952Y-132952380D01*
X128285714Y-133000000D01*
X128238095Y-133047619D01*
X128190476Y-133142857D01*
X128190476Y-133238095D01*
X128238095Y-133380952D01*
X128809523Y-133952380D01*
X128190476Y-133952380D01*
X127809523Y-133047619D02*
X127761904Y-133000000D01*
X127666666Y-132952380D01*
X127428571Y-132952380D01*
X127333333Y-133000000D01*
X127285714Y-133047619D01*
X127238095Y-133142857D01*
X127238095Y-133238095D01*
X127285714Y-133380952D01*
X127857142Y-133952380D01*
X127238095Y-133952380D01*
X159642857Y-133952380D02*
X159976190Y-133476190D01*
X160214285Y-133952380D02*
X160214285Y-132952380D01*
X159833333Y-132952380D01*
X159738095Y-133000000D01*
X159690476Y-133047619D01*
X159642857Y-133142857D01*
X159642857Y-133285714D01*
X159690476Y-133380952D01*
X159738095Y-133428571D01*
X159833333Y-133476190D01*
X160214285Y-133476190D01*
X159261904Y-133047619D02*
X159214285Y-133000000D01*
X159119047Y-132952380D01*
X158880952Y-132952380D01*
X158785714Y-133000000D01*
X158738095Y-133047619D01*
X158690476Y-133142857D01*
X158690476Y-133238095D01*
X158738095Y-133380952D01*
X159309523Y-133952380D01*
X158690476Y-133952380D01*
X158357142Y-132952380D02*
X157738095Y-132952380D01*
X158071428Y-133333333D01*
X157928571Y-133333333D01*
X157833333Y-133380952D01*
X157785714Y-133428571D01*
X157738095Y-133523809D01*
X157738095Y-133761904D01*
X157785714Y-133857142D01*
X157833333Y-133904761D01*
X157928571Y-133952380D01*
X158214285Y-133952380D01*
X158309523Y-133904761D01*
X158357142Y-133857142D01*
X181142857Y-133952380D02*
X181476190Y-133476190D01*
X181714285Y-133952380D02*
X181714285Y-132952380D01*
X181333333Y-132952380D01*
X181238095Y-133000000D01*
X181190476Y-133047619D01*
X181142857Y-133142857D01*
X181142857Y-133285714D01*
X181190476Y-133380952D01*
X181238095Y-133428571D01*
X181333333Y-133476190D01*
X181714285Y-133476190D01*
X180761904Y-133047619D02*
X180714285Y-133000000D01*
X180619047Y-132952380D01*
X180380952Y-132952380D01*
X180285714Y-133000000D01*
X180238095Y-133047619D01*
X180190476Y-133142857D01*
X180190476Y-133238095D01*
X180238095Y-133380952D01*
X180809523Y-133952380D01*
X180190476Y-133952380D01*
X179333333Y-133285714D02*
X179333333Y-133952380D01*
X179571428Y-132904761D02*
X179809523Y-133619047D01*
X179190476Y-133619047D01*
X212142857Y-133952380D02*
X212476190Y-133476190D01*
X212714285Y-133952380D02*
X212714285Y-132952380D01*
X212333333Y-132952380D01*
X212238095Y-133000000D01*
X212190476Y-133047619D01*
X212142857Y-133142857D01*
X212142857Y-133285714D01*
X212190476Y-133380952D01*
X212238095Y-133428571D01*
X212333333Y-133476190D01*
X212714285Y-133476190D01*
X211761904Y-133047619D02*
X211714285Y-133000000D01*
X211619047Y-132952380D01*
X211380952Y-132952380D01*
X211285714Y-133000000D01*
X211238095Y-133047619D01*
X211190476Y-133142857D01*
X211190476Y-133238095D01*
X211238095Y-133380952D01*
X211809523Y-133952380D01*
X211190476Y-133952380D01*
X210285714Y-132952380D02*
X210761904Y-132952380D01*
X210809523Y-133428571D01*
X210761904Y-133380952D01*
X210666666Y-133333333D01*
X210428571Y-133333333D01*
X210333333Y-133380952D01*
X210285714Y-133428571D01*
X210238095Y-133523809D01*
X210238095Y-133761904D01*
X210285714Y-133857142D01*
X210333333Y-133904761D01*
X210428571Y-133952380D01*
X210666666Y-133952380D01*
X210761904Y-133904761D01*
X210809523Y-133857142D01*
X233642857Y-133952380D02*
X233976190Y-133476190D01*
X234214285Y-133952380D02*
X234214285Y-132952380D01*
X233833333Y-132952380D01*
X233738095Y-133000000D01*
X233690476Y-133047619D01*
X233642857Y-133142857D01*
X233642857Y-133285714D01*
X233690476Y-133380952D01*
X233738095Y-133428571D01*
X233833333Y-133476190D01*
X234214285Y-133476190D01*
X233261904Y-133047619D02*
X233214285Y-133000000D01*
X233119047Y-132952380D01*
X232880952Y-132952380D01*
X232785714Y-133000000D01*
X232738095Y-133047619D01*
X232690476Y-133142857D01*
X232690476Y-133238095D01*
X232738095Y-133380952D01*
X233309523Y-133952380D01*
X232690476Y-133952380D01*
X231833333Y-132952380D02*
X232023809Y-132952380D01*
X232119047Y-133000000D01*
X232166666Y-133047619D01*
X232261904Y-133190476D01*
X232309523Y-133380952D01*
X232309523Y-133761904D01*
X232261904Y-133857142D01*
X232214285Y-133904761D01*
X232119047Y-133952380D01*
X231928571Y-133952380D01*
X231833333Y-133904761D01*
X231785714Y-133857142D01*
X231738095Y-133761904D01*
X231738095Y-133523809D01*
X231785714Y-133428571D01*
X231833333Y-133380952D01*
X231928571Y-133333333D01*
X232119047Y-133333333D01*
X232214285Y-133380952D01*
X232261904Y-133428571D01*
X232309523Y-133523809D01*
X195702380Y-136117037D02*
X195226190Y-135783704D01*
X195702380Y-135545609D02*
X194702380Y-135545609D01*
X194702380Y-135926561D01*
X194750000Y-136021799D01*
X194797619Y-136069418D01*
X194892857Y-136117037D01*
X195035714Y-136117037D01*
X195130952Y-136069418D01*
X195178571Y-136021799D01*
X195226190Y-135926561D01*
X195226190Y-135545609D01*
X194797619Y-136497990D02*
X194750000Y-136545609D01*
X194702380Y-136640847D01*
X194702380Y-136878942D01*
X194750000Y-136974180D01*
X194797619Y-137021799D01*
X194892857Y-137069418D01*
X194988095Y-137069418D01*
X195130952Y-137021799D01*
X195702380Y-136450371D01*
X195702380Y-137069418D01*
X194702380Y-137402752D02*
X194702380Y-138069418D01*
X195702380Y-137640847D01*
X193002380Y-136117037D02*
X192526190Y-135783704D01*
X193002380Y-135545609D02*
X192002380Y-135545609D01*
X192002380Y-135926561D01*
X192050000Y-136021799D01*
X192097619Y-136069418D01*
X192192857Y-136117037D01*
X192335714Y-136117037D01*
X192430952Y-136069418D01*
X192478571Y-136021799D01*
X192526190Y-135926561D01*
X192526190Y-135545609D01*
X192097619Y-136497990D02*
X192050000Y-136545609D01*
X192002380Y-136640847D01*
X192002380Y-136878942D01*
X192050000Y-136974180D01*
X192097619Y-137021799D01*
X192192857Y-137069418D01*
X192288095Y-137069418D01*
X192430952Y-137021799D01*
X193002380Y-136450371D01*
X193002380Y-137069418D01*
X192430952Y-137640847D02*
X192383333Y-137545609D01*
X192335714Y-137497990D01*
X192240476Y-137450371D01*
X192192857Y-137450371D01*
X192097619Y-137497990D01*
X192050000Y-137545609D01*
X192002380Y-137640847D01*
X192002380Y-137831323D01*
X192050000Y-137926561D01*
X192097619Y-137974180D01*
X192192857Y-138021799D01*
X192240476Y-138021799D01*
X192335714Y-137974180D01*
X192383333Y-137926561D01*
X192430952Y-137831323D01*
X192430952Y-137640847D01*
X192478571Y-137545609D01*
X192526190Y-137497990D01*
X192621428Y-137450371D01*
X192811904Y-137450371D01*
X192907142Y-137497990D01*
X192954761Y-137545609D01*
X193002380Y-137640847D01*
X193002380Y-137831323D01*
X192954761Y-137926561D01*
X192907142Y-137974180D01*
X192811904Y-138021799D01*
X192621428Y-138021799D01*
X192526190Y-137974180D01*
X192478571Y-137926561D01*
X192430952Y-137831323D01*
X140802380Y-136057142D02*
X140326190Y-135723809D01*
X140802380Y-135485714D02*
X139802380Y-135485714D01*
X139802380Y-135866666D01*
X139850000Y-135961904D01*
X139897619Y-136009523D01*
X139992857Y-136057142D01*
X140135714Y-136057142D01*
X140230952Y-136009523D01*
X140278571Y-135961904D01*
X140326190Y-135866666D01*
X140326190Y-135485714D01*
X139897619Y-136438095D02*
X139850000Y-136485714D01*
X139802380Y-136580952D01*
X139802380Y-136819047D01*
X139850000Y-136914285D01*
X139897619Y-136961904D01*
X139992857Y-137009523D01*
X140088095Y-137009523D01*
X140230952Y-136961904D01*
X140802380Y-136390476D01*
X140802380Y-137009523D01*
X140802380Y-137485714D02*
X140802380Y-137676190D01*
X140754761Y-137771428D01*
X140707142Y-137819047D01*
X140564285Y-137914285D01*
X140373809Y-137961904D01*
X139992857Y-137961904D01*
X139897619Y-137914285D01*
X139850000Y-137866666D01*
X139802380Y-137771428D01*
X139802380Y-137580952D01*
X139850000Y-137485714D01*
X139897619Y-137438095D01*
X139992857Y-137390476D01*
X140230952Y-137390476D01*
X140326190Y-137438095D01*
X140373809Y-137485714D01*
X140421428Y-137580952D01*
X140421428Y-137771428D01*
X140373809Y-137866666D01*
X140326190Y-137914285D01*
X140230952Y-137961904D01*
X143402380Y-136057142D02*
X142926190Y-135723809D01*
X143402380Y-135485714D02*
X142402380Y-135485714D01*
X142402380Y-135866666D01*
X142450000Y-135961904D01*
X142497619Y-136009523D01*
X142592857Y-136057142D01*
X142735714Y-136057142D01*
X142830952Y-136009523D01*
X142878571Y-135961904D01*
X142926190Y-135866666D01*
X142926190Y-135485714D01*
X142402380Y-136390476D02*
X142402380Y-137009523D01*
X142783333Y-136676190D01*
X142783333Y-136819047D01*
X142830952Y-136914285D01*
X142878571Y-136961904D01*
X142973809Y-137009523D01*
X143211904Y-137009523D01*
X143307142Y-136961904D01*
X143354761Y-136914285D01*
X143402380Y-136819047D01*
X143402380Y-136533333D01*
X143354761Y-136438095D01*
X143307142Y-136390476D01*
X142402380Y-137628571D02*
X142402380Y-137723809D01*
X142450000Y-137819047D01*
X142497619Y-137866666D01*
X142592857Y-137914285D01*
X142783333Y-137961904D01*
X143021428Y-137961904D01*
X143211904Y-137914285D01*
X143307142Y-137866666D01*
X143354761Y-137819047D01*
X143402380Y-137723809D01*
X143402380Y-137628571D01*
X143354761Y-137533333D01*
X143307142Y-137485714D01*
X143211904Y-137438095D01*
X143021428Y-137390476D01*
X142783333Y-137390476D01*
X142592857Y-137438095D01*
X142497619Y-137485714D01*
X142450000Y-137533333D01*
X142402380Y-137628571D01*
M02*
