G04 #@! TF.GenerationSoftware,KiCad,Pcbnew,(2018-01-30 revision 342197bb3)-makepkg*
G04 #@! TF.CreationDate,2018-06-27T08:36:49+02:00*
G04 #@! TF.ProjectId,NixieClock01A,4E69786965436C6F636B3031412E6B69,rev?*
G04 #@! TF.SameCoordinates,Original*
G04 #@! TF.FileFunction,Soldermask,Bot*
G04 #@! TF.FilePolarity,Negative*
%FSLAX46Y46*%
G04 Gerber Fmt 4.6, Leading zero omitted, Abs format (unit mm)*
G04 Created by KiCad (PCBNEW (2018-01-30 revision 342197bb3)-makepkg) date 06/27/18 08:36:49*
%MOMM*%
%LPD*%
G01*
G04 APERTURE LIST*
%ADD10C,1.727200*%
%ADD11C,1.700000*%
%ADD12R,1.700000X1.700000*%
%ADD13R,2.000000X2.000000*%
%ADD14O,2.000000X2.000000*%
%ADD15R,2.100000X2.100000*%
%ADD16O,2.100000X2.100000*%
%ADD17R,1.400000X1.220000*%
%ADD18R,1.620000X2.200000*%
%ADD19C,1.850000*%
%ADD20O,1.600000X2.300000*%
%ADD21C,6.000000*%
%ADD22R,2.200000X1.620000*%
G04 APERTURE END LIST*
D10*
X228990734Y-148551499D03*
X230470534Y-136013499D03*
X231635734Y-147719499D03*
X226345734Y-147719499D03*
X227345734Y-136083499D03*
X222801734Y-142520499D03*
X223301734Y-139782499D03*
X235179734Y-142520499D03*
X234679734Y-139782499D03*
X233057734Y-137414499D03*
X224923734Y-137414499D03*
X223923734Y-145888499D03*
X234057734Y-145888499D03*
X207490734Y-148551499D03*
X208970534Y-136013499D03*
X210135734Y-147719499D03*
X204845734Y-147719499D03*
X205845734Y-136083499D03*
X201301734Y-142520499D03*
X201801734Y-139782499D03*
X213679734Y-142520499D03*
X213179734Y-139782499D03*
X211557734Y-137414499D03*
X203423734Y-137414499D03*
X202423734Y-145888499D03*
X212557734Y-145888499D03*
X176411090Y-148473700D03*
X177890890Y-135935700D03*
X179056090Y-147641700D03*
X173766090Y-147641700D03*
X174766090Y-136005700D03*
X170222090Y-142442700D03*
X170722090Y-139704700D03*
X182600090Y-142442700D03*
X182100090Y-139704700D03*
X180478090Y-137336700D03*
X172344090Y-137336700D03*
X171344090Y-145810700D03*
X181478090Y-145810700D03*
X154990734Y-148551499D03*
X156470534Y-136013499D03*
X157635734Y-147719499D03*
X152345734Y-147719499D03*
X153345734Y-136083499D03*
X148801734Y-142520499D03*
X149301734Y-139782499D03*
X161179734Y-142520499D03*
X160679734Y-139782499D03*
X159057734Y-137414499D03*
X150923734Y-137414499D03*
X149923734Y-145888499D03*
X160057734Y-145888499D03*
X124490734Y-148551499D03*
X125970534Y-136013499D03*
X127135734Y-147719499D03*
X121845734Y-147719499D03*
X122845734Y-136083499D03*
X118301734Y-142520499D03*
X118801734Y-139782499D03*
X130679734Y-142520499D03*
X130179734Y-139782499D03*
X128557734Y-137414499D03*
X120423734Y-137414499D03*
X119423734Y-145888499D03*
X129557734Y-145888499D03*
X102990734Y-148551499D03*
X104470534Y-136013499D03*
X105635734Y-147719499D03*
X100345734Y-147719499D03*
X101345734Y-136083499D03*
X96801734Y-142520499D03*
X97301734Y-139782499D03*
X109179734Y-142520499D03*
X108679734Y-139782499D03*
X107057734Y-137414499D03*
X98923734Y-137414499D03*
X97923734Y-145888499D03*
X108057734Y-145888499D03*
D11*
X192089285Y-140647500D03*
X193359285Y-141917500D03*
D12*
X190819285Y-141917500D03*
D13*
X133230734Y-122551499D03*
D14*
X115450734Y-130171499D03*
X130690734Y-122551499D03*
X117990734Y-130171499D03*
X128150734Y-122551499D03*
X120530734Y-130171499D03*
X125610734Y-122551499D03*
X123070734Y-130171499D03*
X123070734Y-122551499D03*
X125610734Y-130171499D03*
X120530734Y-122551499D03*
X128150734Y-130171499D03*
X117990734Y-122551499D03*
X130690734Y-130171499D03*
X115450734Y-122551499D03*
X133230734Y-130171499D03*
D15*
X145990379Y-111429297D03*
D16*
X145990379Y-113969297D03*
X148530379Y-111429297D03*
X148530379Y-113969297D03*
X151070379Y-111429297D03*
X151070379Y-113969297D03*
X153610379Y-111429297D03*
X153610379Y-113969297D03*
X156150379Y-111429297D03*
X156150379Y-113969297D03*
X158690379Y-111429297D03*
X158690379Y-113969297D03*
X161230379Y-111429297D03*
X161230379Y-113969297D03*
X163770379Y-111429297D03*
X163770379Y-113969297D03*
X166310379Y-111429297D03*
X166310379Y-113969297D03*
X168850379Y-111429297D03*
X168850379Y-113969297D03*
X171390379Y-111429297D03*
X171390379Y-113969297D03*
X173930379Y-111429297D03*
X173930379Y-113969297D03*
X176470379Y-111429297D03*
X176470379Y-113969297D03*
X179010379Y-111429297D03*
X179010379Y-113969297D03*
X181550379Y-111429297D03*
X181550379Y-113969297D03*
X184090379Y-111429297D03*
X184090379Y-113969297D03*
D17*
X101690379Y-126029297D03*
X101690379Y-124429297D03*
D14*
X111880734Y-130171499D03*
X94100734Y-122551499D03*
X109340734Y-130171499D03*
X96640734Y-122551499D03*
X106800734Y-130171499D03*
X99180734Y-122551499D03*
X104260734Y-130171499D03*
X101720734Y-122551499D03*
X101720734Y-130171499D03*
X104260734Y-122551499D03*
X99180734Y-130171499D03*
X106800734Y-122551499D03*
X96640734Y-130171499D03*
X109340734Y-122551499D03*
X94100734Y-130171499D03*
D13*
X111880734Y-122551499D03*
D15*
X216992703Y-74666379D03*
D16*
X216992703Y-77206379D03*
X216992703Y-79746379D03*
X216992703Y-82286379D03*
X216992703Y-84826379D03*
X216992703Y-87366379D03*
D17*
X122990379Y-124429297D03*
X122990379Y-126029297D03*
X153790379Y-126029297D03*
X153790379Y-124429297D03*
X175190379Y-124429297D03*
X175190379Y-126029297D03*
X206190379Y-126029297D03*
X206190379Y-124429297D03*
X227790379Y-124429297D03*
X227790379Y-126029297D03*
D14*
X163990734Y-130171499D03*
X146210734Y-122551499D03*
X161450734Y-130171499D03*
X148750734Y-122551499D03*
X158910734Y-130171499D03*
X151290734Y-122551499D03*
X156370734Y-130171499D03*
X153830734Y-122551499D03*
X153830734Y-130171499D03*
X156370734Y-122551499D03*
X151290734Y-130171499D03*
X158910734Y-122551499D03*
X148750734Y-130171499D03*
X161450734Y-122551499D03*
X146210734Y-130171499D03*
D13*
X163990734Y-122551499D03*
X185411090Y-122473700D03*
D14*
X167631090Y-130093700D03*
X182871090Y-122473700D03*
X170171090Y-130093700D03*
X180331090Y-122473700D03*
X172711090Y-130093700D03*
X177791090Y-122473700D03*
X175251090Y-130093700D03*
X175251090Y-122473700D03*
X177791090Y-130093700D03*
X172711090Y-122473700D03*
X180331090Y-130093700D03*
X170171090Y-122473700D03*
X182871090Y-130093700D03*
X167631090Y-122473700D03*
X185411090Y-130093700D03*
D13*
X216490734Y-122551499D03*
D14*
X198710734Y-130171499D03*
X213950734Y-122551499D03*
X201250734Y-130171499D03*
X211410734Y-122551499D03*
X203790734Y-130171499D03*
X208870734Y-122551499D03*
X206330734Y-130171499D03*
X206330734Y-122551499D03*
X208870734Y-130171499D03*
X203790734Y-122551499D03*
X211410734Y-130171499D03*
X201250734Y-122551499D03*
X213950734Y-130171499D03*
X198710734Y-122551499D03*
X216490734Y-130171499D03*
X237990734Y-130171499D03*
X220210734Y-122551499D03*
X235450734Y-130171499D03*
X222750734Y-122551499D03*
X232910734Y-130171499D03*
X225290734Y-122551499D03*
X230370734Y-130171499D03*
X227830734Y-122551499D03*
X227830734Y-130171499D03*
X230370734Y-122551499D03*
X225290734Y-130171499D03*
X232910734Y-122551499D03*
X222750734Y-130171499D03*
X235450734Y-122551499D03*
X220210734Y-130171499D03*
D13*
X237990734Y-122551499D03*
D15*
X145990379Y-59429297D03*
D16*
X145990379Y-61969297D03*
X148530379Y-59429297D03*
X148530379Y-61969297D03*
X151070379Y-59429297D03*
X151070379Y-61969297D03*
X153610379Y-59429297D03*
X153610379Y-61969297D03*
X156150379Y-59429297D03*
X156150379Y-61969297D03*
X158690379Y-59429297D03*
X158690379Y-61969297D03*
X161230379Y-59429297D03*
X161230379Y-61969297D03*
X163770379Y-59429297D03*
X163770379Y-61969297D03*
X166310379Y-59429297D03*
X166310379Y-61969297D03*
X168850379Y-59429297D03*
X168850379Y-61969297D03*
X171390379Y-59429297D03*
X171390379Y-61969297D03*
X173930379Y-59429297D03*
X173930379Y-61969297D03*
X176470379Y-59429297D03*
X176470379Y-61969297D03*
X179010379Y-59429297D03*
X179010379Y-61969297D03*
X181550379Y-59429297D03*
X181550379Y-61969297D03*
X184090379Y-59429297D03*
X184090379Y-61969297D03*
D18*
X101360379Y-133429297D03*
X104220379Y-133429297D03*
X125820379Y-133429297D03*
X122960379Y-133429297D03*
X156220379Y-133429297D03*
X153360379Y-133429297D03*
X174760379Y-133229297D03*
X177620379Y-133229297D03*
X205960379Y-133429297D03*
X208820379Y-133429297D03*
X230420379Y-133429297D03*
X227560379Y-133429297D03*
D19*
X109900000Y-60662500D03*
X104900000Y-60662500D03*
D20*
X110900000Y-57962500D03*
X103900000Y-57962500D03*
D21*
X236000000Y-154000000D03*
X96000000Y-154000000D03*
X236000000Y-113000000D03*
X96000000Y-113000000D03*
X236000000Y-61000000D03*
X236000000Y-102000000D03*
X96000000Y-102000000D03*
X96000000Y-61000000D03*
D15*
X227100000Y-59000000D03*
D16*
X229640000Y-59000000D03*
D11*
X139789285Y-140647500D03*
X141059285Y-141917500D03*
D12*
X138519285Y-141917500D03*
D22*
X193400000Y-138189895D03*
X193400000Y-135329895D03*
X190700000Y-135329895D03*
X190700000Y-138189895D03*
X138500000Y-138130000D03*
X138500000Y-135270000D03*
X141100000Y-135270000D03*
X141100000Y-138130000D03*
D15*
X202100000Y-59600000D03*
D16*
X199560000Y-59600000D03*
X197020000Y-59600000D03*
X194480000Y-59600000D03*
M02*
