G04 #@! TF.GenerationSoftware,KiCad,Pcbnew,(2018-01-30 revision 342197bb3)-makepkg*
G04 #@! TF.CreationDate,2018-06-27T08:36:49+02:00*
G04 #@! TF.ProjectId,NixieClock01A,4E69786965436C6F636B3031412E6B69,rev?*
G04 #@! TF.SameCoordinates,Original*
G04 #@! TF.FileFunction,Paste,Top*
G04 #@! TF.FilePolarity,Positive*
%FSLAX46Y46*%
G04 Gerber Fmt 4.6, Leading zero omitted, Abs format (unit mm)*
G04 Created by KiCad (PCBNEW (2018-01-30 revision 342197bb3)-makepkg) date 06/27/18 08:36:49*
%MOMM*%
%LPD*%
G01*
G04 APERTURE LIST*
%ADD10R,1.500000X0.600000*%
%ADD11R,1.000000X0.820000*%
%ADD12R,0.820000X1.000000*%
%ADD13R,1.120000X1.400000*%
%ADD14R,1.500000X1.000000*%
%ADD15R,5.400000X4.900000*%
%ADD16R,1.200000X2.200000*%
%ADD17R,2.750000X3.050000*%
%ADD18R,1.750000X0.550000*%
%ADD19R,5.400000X2.000000*%
%ADD20R,2.060000X2.600000*%
%ADD21R,1.800000X1.220000*%
%ADD22R,2.500000X2.300000*%
%ADD23R,1.400000X1.120000*%
%ADD24R,2.400000X2.060000*%
%ADD25R,2.000000X3.800000*%
%ADD26R,2.000000X1.500000*%
%ADD27R,3.300000X2.500000*%
%ADD28R,1.500000X1.900000*%
%ADD29R,0.400000X1.350000*%
%ADD30R,1.000000X2.500000*%
G04 APERTURE END LIST*
D10*
X155440379Y-67984297D03*
X155440379Y-69254297D03*
X155440379Y-70524297D03*
X155440379Y-71794297D03*
X155440379Y-73064297D03*
X155440379Y-74334297D03*
X155440379Y-75604297D03*
X155440379Y-76874297D03*
X162540379Y-76874297D03*
X162540379Y-75604297D03*
X162540379Y-74334297D03*
X162540379Y-73064297D03*
X162540379Y-71794297D03*
X162540379Y-70524297D03*
X162540379Y-69254297D03*
X162540379Y-67984297D03*
D11*
X126568379Y-95609297D03*
X126568379Y-94009297D03*
D12*
X164800000Y-66500000D03*
X163200000Y-66500000D03*
X239636703Y-68824379D03*
X238036703Y-68824379D03*
X222009103Y-72583579D03*
X220409103Y-72583579D03*
D11*
X152990379Y-69229297D03*
X152990379Y-67629297D03*
X231851703Y-91138379D03*
X231851703Y-92738379D03*
X229692703Y-92738379D03*
X229692703Y-91138379D03*
D12*
X235826703Y-70602379D03*
X234226703Y-70602379D03*
X238036703Y-67046379D03*
X239636703Y-67046379D03*
X227698703Y-91176379D03*
X226098703Y-91176379D03*
X234400000Y-65400000D03*
X232800000Y-65400000D03*
X234400000Y-67100000D03*
X232800000Y-67100000D03*
X238036703Y-70602379D03*
X239636703Y-70602379D03*
X138722379Y-94047297D03*
X140322379Y-94047297D03*
X138214379Y-87443297D03*
X139814379Y-87443297D03*
X138544379Y-97603297D03*
X136944379Y-97603297D03*
D13*
X116290379Y-97857297D03*
X118050379Y-97857297D03*
D11*
X142062379Y-94085297D03*
X142062379Y-92485297D03*
D12*
X139814379Y-91253297D03*
X138214379Y-91253297D03*
X138214379Y-89221297D03*
X139814379Y-89221297D03*
D11*
X141554379Y-85881297D03*
X141554379Y-87481297D03*
D12*
X140292998Y-95947797D03*
X138692998Y-95947797D03*
D13*
X133816379Y-86173297D03*
X135576379Y-86173297D03*
X135576379Y-83887297D03*
X133816379Y-83887297D03*
X133816379Y-88459297D03*
X135576379Y-88459297D03*
D12*
X105822734Y-145629297D03*
X104222734Y-145629297D03*
D14*
X100540734Y-140451499D03*
X100540734Y-143651499D03*
X105440734Y-140451499D03*
X105440734Y-143651499D03*
D15*
X118440379Y-88771297D03*
X118440379Y-76971297D03*
D16*
X126574379Y-88087297D03*
X131134379Y-88087297D03*
D17*
X130379379Y-80112297D03*
X127329379Y-83462297D03*
X127329379Y-80112297D03*
X130379379Y-83462297D03*
D18*
X136110379Y-95190297D03*
X136110379Y-93920297D03*
X136110379Y-92650297D03*
X136110379Y-91380297D03*
X128710379Y-91380297D03*
X128710379Y-92650297D03*
X128710379Y-93920297D03*
X128710379Y-95190297D03*
D12*
X128562379Y-97603297D03*
X130162379Y-97603297D03*
D19*
X136220379Y-75849297D03*
X136220379Y-80749297D03*
D20*
X116834379Y-94301297D03*
X123094379Y-94301297D03*
D21*
X140792379Y-75853297D03*
X140792379Y-78713297D03*
D22*
X131258379Y-75759297D03*
X126958379Y-75759297D03*
D12*
X177790379Y-66429297D03*
X176190379Y-66429297D03*
D14*
X122040734Y-140451499D03*
X122040734Y-143651499D03*
X126940734Y-140451499D03*
X126940734Y-143651499D03*
D12*
X125590379Y-145629297D03*
X127190379Y-145629297D03*
X156390379Y-145629297D03*
X157990379Y-145629297D03*
X189700000Y-66529297D03*
X191300000Y-66529297D03*
X179390379Y-145629297D03*
X177790379Y-145629297D03*
X208990379Y-145629297D03*
X210590379Y-145629297D03*
D23*
X126929297Y-61929621D03*
X126929297Y-63689621D03*
D12*
X231990379Y-145629297D03*
X230390379Y-145629297D03*
D11*
X127129297Y-67009621D03*
X127129297Y-65409621D03*
D14*
X152540734Y-140451499D03*
X152540734Y-143651499D03*
X157440734Y-140451499D03*
X157440734Y-143651499D03*
X178861090Y-143573700D03*
X178861090Y-140373700D03*
X173961090Y-143573700D03*
X173961090Y-140373700D03*
X205040734Y-140451499D03*
X205040734Y-143651499D03*
X209940734Y-140451499D03*
X209940734Y-143651499D03*
X231440734Y-143651499D03*
X231440734Y-140451499D03*
X226540734Y-143651499D03*
X226540734Y-140451499D03*
D11*
X166000000Y-69600000D03*
X166000000Y-68000000D03*
X179700000Y-68100000D03*
X179700000Y-69700000D03*
D10*
X175540379Y-67984297D03*
X175540379Y-69254297D03*
X175540379Y-70524297D03*
X175540379Y-71794297D03*
X175540379Y-73064297D03*
X175540379Y-74334297D03*
X175540379Y-75604297D03*
X175540379Y-76874297D03*
X168440379Y-76874297D03*
X168440379Y-75604297D03*
X168440379Y-74334297D03*
X168440379Y-73064297D03*
X168440379Y-71794297D03*
X168440379Y-70524297D03*
X168440379Y-69254297D03*
X168440379Y-67984297D03*
X181940379Y-67984297D03*
X181940379Y-69254297D03*
X181940379Y-70524297D03*
X181940379Y-71794297D03*
X181940379Y-73064297D03*
X181940379Y-74334297D03*
X181940379Y-75604297D03*
X181940379Y-76874297D03*
X189040379Y-76874297D03*
X189040379Y-75604297D03*
X189040379Y-74334297D03*
X189040379Y-73064297D03*
X189040379Y-71794297D03*
X189040379Y-70524297D03*
X189040379Y-69254297D03*
X189040379Y-67984297D03*
D24*
X220970703Y-74910379D03*
X220970703Y-79870379D03*
D25*
X135679297Y-64509621D03*
D26*
X129379297Y-64509621D03*
X129379297Y-66809621D03*
X129379297Y-62209621D03*
D11*
X111000000Y-64700000D03*
X111000000Y-63100000D03*
D24*
X113900000Y-65580000D03*
X113900000Y-60620000D03*
D27*
X119400000Y-65500000D03*
X119400000Y-58700000D03*
D21*
X108700000Y-65730000D03*
X108700000Y-62870000D03*
D28*
X106400000Y-57962500D03*
D29*
X108050000Y-60662500D03*
X108700000Y-60662500D03*
X106100000Y-60662500D03*
X106750000Y-60662500D03*
X107400000Y-60662500D03*
D28*
X108400000Y-57962500D03*
D30*
X239775203Y-73313379D03*
X237775203Y-73313379D03*
X235775203Y-73313379D03*
X233775203Y-73313379D03*
X231775203Y-73313379D03*
X229775203Y-73313379D03*
X227775203Y-73313379D03*
X225775203Y-73313379D03*
X225775203Y-88513379D03*
X227775203Y-88513379D03*
X229775203Y-88513379D03*
X231775203Y-88513379D03*
X233775203Y-88513379D03*
X235775203Y-88513379D03*
X237775203Y-88513379D03*
X239775203Y-88513379D03*
D12*
X233500000Y-93600000D03*
X235100000Y-93600000D03*
X235100000Y-91900000D03*
X233500000Y-91900000D03*
M02*
