G04 #@! TF.GenerationSoftware,KiCad,Pcbnew,(2018-01-30 revision 342197bb3)-makepkg*
G04 #@! TF.CreationDate,2018-06-27T08:36:49+02:00*
G04 #@! TF.ProjectId,NixieClock01A,4E69786965436C6F636B3031412E6B69,rev?*
G04 #@! TF.SameCoordinates,Original*
G04 #@! TF.FileFunction,Legend,Top*
G04 #@! TF.FilePolarity,Positive*
%FSLAX46Y46*%
G04 Gerber Fmt 4.6, Leading zero omitted, Abs format (unit mm)*
G04 Created by KiCad (PCBNEW (2018-01-30 revision 342197bb3)-makepkg) date 06/27/18 08:36:49*
%MOMM*%
%LPD*%
G01*
G04 APERTURE LIST*
%ADD10C,0.300000*%
%ADD11C,0.150000*%
%ADD12C,0.010000*%
%ADD13C,0.120000*%
%ADD14C,0.101600*%
G04 APERTURE END LIST*
D10*
X213964285Y-101678571D02*
X213964285Y-100178571D01*
X214821428Y-101678571D01*
X214821428Y-100178571D01*
X215535714Y-101678571D02*
X215535714Y-100678571D01*
X215535714Y-100178571D02*
X215464285Y-100250000D01*
X215535714Y-100321428D01*
X215607142Y-100250000D01*
X215535714Y-100178571D01*
X215535714Y-100321428D01*
X216107142Y-101678571D02*
X216892857Y-100678571D01*
X216107142Y-100678571D02*
X216892857Y-101678571D01*
X217464285Y-101678571D02*
X217464285Y-100678571D01*
X217464285Y-100178571D02*
X217392857Y-100250000D01*
X217464285Y-100321428D01*
X217535714Y-100250000D01*
X217464285Y-100178571D01*
X217464285Y-100321428D01*
X218750000Y-101607142D02*
X218607142Y-101678571D01*
X218321428Y-101678571D01*
X218178571Y-101607142D01*
X218107142Y-101464285D01*
X218107142Y-100892857D01*
X218178571Y-100750000D01*
X218321428Y-100678571D01*
X218607142Y-100678571D01*
X218750000Y-100750000D01*
X218821428Y-100892857D01*
X218821428Y-101035714D01*
X218107142Y-101178571D01*
X220321428Y-101535714D02*
X220250000Y-101607142D01*
X220035714Y-101678571D01*
X219892857Y-101678571D01*
X219678571Y-101607142D01*
X219535714Y-101464285D01*
X219464285Y-101321428D01*
X219392857Y-101035714D01*
X219392857Y-100821428D01*
X219464285Y-100535714D01*
X219535714Y-100392857D01*
X219678571Y-100250000D01*
X219892857Y-100178571D01*
X220035714Y-100178571D01*
X220250000Y-100250000D01*
X220321428Y-100321428D01*
X221178571Y-101678571D02*
X221035714Y-101607142D01*
X220964285Y-101464285D01*
X220964285Y-100178571D01*
X221964285Y-101678571D02*
X221821428Y-101607142D01*
X221750000Y-101535714D01*
X221678571Y-101392857D01*
X221678571Y-100964285D01*
X221750000Y-100821428D01*
X221821428Y-100750000D01*
X221964285Y-100678571D01*
X222178571Y-100678571D01*
X222321428Y-100750000D01*
X222392857Y-100821428D01*
X222464285Y-100964285D01*
X222464285Y-101392857D01*
X222392857Y-101535714D01*
X222321428Y-101607142D01*
X222178571Y-101678571D01*
X221964285Y-101678571D01*
X223750000Y-101607142D02*
X223607142Y-101678571D01*
X223321428Y-101678571D01*
X223178571Y-101607142D01*
X223107142Y-101535714D01*
X223035714Y-101392857D01*
X223035714Y-100964285D01*
X223107142Y-100821428D01*
X223178571Y-100750000D01*
X223321428Y-100678571D01*
X223607142Y-100678571D01*
X223750000Y-100750000D01*
X224392857Y-101678571D02*
X224392857Y-100178571D01*
X224535714Y-101107142D02*
X224964285Y-101678571D01*
X224964285Y-100678571D02*
X224392857Y-101250000D01*
X225892857Y-100178571D02*
X226035714Y-100178571D01*
X226178571Y-100250000D01*
X226250000Y-100321428D01*
X226321428Y-100464285D01*
X226392857Y-100750000D01*
X226392857Y-101107142D01*
X226321428Y-101392857D01*
X226250000Y-101535714D01*
X226178571Y-101607142D01*
X226035714Y-101678571D01*
X225892857Y-101678571D01*
X225750000Y-101607142D01*
X225678571Y-101535714D01*
X225607142Y-101392857D01*
X225535714Y-101107142D01*
X225535714Y-100750000D01*
X225607142Y-100464285D01*
X225678571Y-100321428D01*
X225750000Y-100250000D01*
X225892857Y-100178571D01*
X227821428Y-101678571D02*
X226964285Y-101678571D01*
X227392857Y-101678571D02*
X227392857Y-100178571D01*
X227250000Y-100392857D01*
X227107142Y-100535714D01*
X226964285Y-100607142D01*
X228392857Y-101250000D02*
X229107142Y-101250000D01*
X228250000Y-101678571D02*
X228750000Y-100178571D01*
X229250000Y-101678571D01*
D11*
X238490734Y-142151499D02*
G75*
G03X238490734Y-142151499I-9500000J0D01*
G01*
X228990734Y-143151499D02*
X228990734Y-141151499D01*
X229990734Y-142151499D02*
X227990734Y-142151499D01*
D12*
X231670534Y-136013499D02*
G75*
G03X231670534Y-136013499I-1200000J0D01*
G01*
X228550734Y-136091499D02*
G75*
G03X228550734Y-136091499I-1200000J0D01*
G01*
X226120734Y-137401499D02*
G75*
G03X226120734Y-137401499I-1200000J0D01*
G01*
X224500734Y-139781499D02*
G75*
G03X224500734Y-139781499I-1200000J0D01*
G01*
X223990734Y-142531499D02*
G75*
G03X223990734Y-142531499I-1200000J0D01*
G01*
X225130734Y-145911499D02*
G75*
G03X225130734Y-145911499I-1200000J0D01*
G01*
X227550734Y-147721499D02*
G75*
G03X227550734Y-147721499I-1200000J0D01*
G01*
X230190734Y-148571499D02*
G75*
G03X230190734Y-148571499I-1200000J0D01*
G01*
X232820734Y-147741499D02*
G75*
G03X232820734Y-147741499I-1200000J0D01*
G01*
X235250734Y-145901499D02*
G75*
G03X235250734Y-145901499I-1200000J0D01*
G01*
X236360734Y-142521499D02*
G75*
G03X236360734Y-142521499I-1200000J0D01*
G01*
X235880734Y-139801499D02*
G75*
G03X235880734Y-139801499I-1200000J0D01*
G01*
X234260734Y-137431499D02*
G75*
G03X234260734Y-137431499I-1200000J0D01*
G01*
D11*
X216990734Y-142151499D02*
G75*
G03X216990734Y-142151499I-9500000J0D01*
G01*
X207490734Y-143151499D02*
X207490734Y-141151499D01*
X208490734Y-142151499D02*
X206490734Y-142151499D01*
D12*
X210170534Y-136013499D02*
G75*
G03X210170534Y-136013499I-1200000J0D01*
G01*
X207050734Y-136091499D02*
G75*
G03X207050734Y-136091499I-1200000J0D01*
G01*
X204620734Y-137401499D02*
G75*
G03X204620734Y-137401499I-1200000J0D01*
G01*
X203000734Y-139781499D02*
G75*
G03X203000734Y-139781499I-1200000J0D01*
G01*
X202490734Y-142531499D02*
G75*
G03X202490734Y-142531499I-1200000J0D01*
G01*
X203630734Y-145911499D02*
G75*
G03X203630734Y-145911499I-1200000J0D01*
G01*
X206050734Y-147721499D02*
G75*
G03X206050734Y-147721499I-1200000J0D01*
G01*
X208690734Y-148571499D02*
G75*
G03X208690734Y-148571499I-1200000J0D01*
G01*
X211320734Y-147741499D02*
G75*
G03X211320734Y-147741499I-1200000J0D01*
G01*
X213750734Y-145901499D02*
G75*
G03X213750734Y-145901499I-1200000J0D01*
G01*
X214860734Y-142521499D02*
G75*
G03X214860734Y-142521499I-1200000J0D01*
G01*
X214380734Y-139801499D02*
G75*
G03X214380734Y-139801499I-1200000J0D01*
G01*
X212760734Y-137431499D02*
G75*
G03X212760734Y-137431499I-1200000J0D01*
G01*
D11*
X185911090Y-142073700D02*
G75*
G03X185911090Y-142073700I-9500000J0D01*
G01*
X176411090Y-143073700D02*
X176411090Y-141073700D01*
X177411090Y-142073700D02*
X175411090Y-142073700D01*
D12*
X179090890Y-135935700D02*
G75*
G03X179090890Y-135935700I-1200000J0D01*
G01*
X175971090Y-136013700D02*
G75*
G03X175971090Y-136013700I-1200000J0D01*
G01*
X173541090Y-137323700D02*
G75*
G03X173541090Y-137323700I-1200000J0D01*
G01*
X171921090Y-139703700D02*
G75*
G03X171921090Y-139703700I-1200000J0D01*
G01*
X171411090Y-142453700D02*
G75*
G03X171411090Y-142453700I-1200000J0D01*
G01*
X172551090Y-145833700D02*
G75*
G03X172551090Y-145833700I-1200000J0D01*
G01*
X174971090Y-147643700D02*
G75*
G03X174971090Y-147643700I-1200000J0D01*
G01*
X177611090Y-148493700D02*
G75*
G03X177611090Y-148493700I-1200000J0D01*
G01*
X180241090Y-147663700D02*
G75*
G03X180241090Y-147663700I-1200000J0D01*
G01*
X182671090Y-145823700D02*
G75*
G03X182671090Y-145823700I-1200000J0D01*
G01*
X183781090Y-142443700D02*
G75*
G03X183781090Y-142443700I-1200000J0D01*
G01*
X183301090Y-139723700D02*
G75*
G03X183301090Y-139723700I-1200000J0D01*
G01*
X181681090Y-137353700D02*
G75*
G03X181681090Y-137353700I-1200000J0D01*
G01*
D11*
X164490734Y-142151499D02*
G75*
G03X164490734Y-142151499I-9500000J0D01*
G01*
X154990734Y-143151499D02*
X154990734Y-141151499D01*
X155990734Y-142151499D02*
X153990734Y-142151499D01*
D12*
X157670534Y-136013499D02*
G75*
G03X157670534Y-136013499I-1200000J0D01*
G01*
X154550734Y-136091499D02*
G75*
G03X154550734Y-136091499I-1200000J0D01*
G01*
X152120734Y-137401499D02*
G75*
G03X152120734Y-137401499I-1200000J0D01*
G01*
X150500734Y-139781499D02*
G75*
G03X150500734Y-139781499I-1200000J0D01*
G01*
X149990734Y-142531499D02*
G75*
G03X149990734Y-142531499I-1200000J0D01*
G01*
X151130734Y-145911499D02*
G75*
G03X151130734Y-145911499I-1200000J0D01*
G01*
X153550734Y-147721499D02*
G75*
G03X153550734Y-147721499I-1200000J0D01*
G01*
X156190734Y-148571499D02*
G75*
G03X156190734Y-148571499I-1200000J0D01*
G01*
X158820734Y-147741499D02*
G75*
G03X158820734Y-147741499I-1200000J0D01*
G01*
X161250734Y-145901499D02*
G75*
G03X161250734Y-145901499I-1200000J0D01*
G01*
X162360734Y-142521499D02*
G75*
G03X162360734Y-142521499I-1200000J0D01*
G01*
X161880734Y-139801499D02*
G75*
G03X161880734Y-139801499I-1200000J0D01*
G01*
X160260734Y-137431499D02*
G75*
G03X160260734Y-137431499I-1200000J0D01*
G01*
D11*
X133990734Y-142151499D02*
G75*
G03X133990734Y-142151499I-9500000J0D01*
G01*
X124490734Y-143151499D02*
X124490734Y-141151499D01*
X125490734Y-142151499D02*
X123490734Y-142151499D01*
D12*
X127170534Y-136013499D02*
G75*
G03X127170534Y-136013499I-1200000J0D01*
G01*
X124050734Y-136091499D02*
G75*
G03X124050734Y-136091499I-1200000J0D01*
G01*
X121620734Y-137401499D02*
G75*
G03X121620734Y-137401499I-1200000J0D01*
G01*
X120000734Y-139781499D02*
G75*
G03X120000734Y-139781499I-1200000J0D01*
G01*
X119490734Y-142531499D02*
G75*
G03X119490734Y-142531499I-1200000J0D01*
G01*
X120630734Y-145911499D02*
G75*
G03X120630734Y-145911499I-1200000J0D01*
G01*
X123050734Y-147721499D02*
G75*
G03X123050734Y-147721499I-1200000J0D01*
G01*
X125690734Y-148571499D02*
G75*
G03X125690734Y-148571499I-1200000J0D01*
G01*
X128320734Y-147741499D02*
G75*
G03X128320734Y-147741499I-1200000J0D01*
G01*
X130750734Y-145901499D02*
G75*
G03X130750734Y-145901499I-1200000J0D01*
G01*
X131860734Y-142521499D02*
G75*
G03X131860734Y-142521499I-1200000J0D01*
G01*
X131380734Y-139801499D02*
G75*
G03X131380734Y-139801499I-1200000J0D01*
G01*
X129760734Y-137431499D02*
G75*
G03X129760734Y-137431499I-1200000J0D01*
G01*
D11*
X112490734Y-142151499D02*
G75*
G03X112490734Y-142151499I-9500000J0D01*
G01*
X102990734Y-143151499D02*
X102990734Y-141151499D01*
X103990734Y-142151499D02*
X101990734Y-142151499D01*
D12*
X105670534Y-136013499D02*
G75*
G03X105670534Y-136013499I-1200000J0D01*
G01*
X102550734Y-136091499D02*
G75*
G03X102550734Y-136091499I-1200000J0D01*
G01*
X100120734Y-137401499D02*
G75*
G03X100120734Y-137401499I-1200000J0D01*
G01*
X98500734Y-139781499D02*
G75*
G03X98500734Y-139781499I-1200000J0D01*
G01*
X97990734Y-142531499D02*
G75*
G03X97990734Y-142531499I-1200000J0D01*
G01*
X99130734Y-145911499D02*
G75*
G03X99130734Y-145911499I-1200000J0D01*
G01*
X101550734Y-147721499D02*
G75*
G03X101550734Y-147721499I-1200000J0D01*
G01*
X104190734Y-148571499D02*
G75*
G03X104190734Y-148571499I-1200000J0D01*
G01*
X106820734Y-147741499D02*
G75*
G03X106820734Y-147741499I-1200000J0D01*
G01*
X109250734Y-145901499D02*
G75*
G03X109250734Y-145901499I-1200000J0D01*
G01*
X110360734Y-142521499D02*
G75*
G03X110360734Y-142521499I-1200000J0D01*
G01*
X109880734Y-139801499D02*
G75*
G03X109880734Y-139801499I-1200000J0D01*
G01*
X108260734Y-137431499D02*
G75*
G03X108260734Y-137431499I-1200000J0D01*
G01*
D13*
X190289285Y-143767500D02*
X193889285Y-143767500D01*
X190250807Y-143755978D02*
G75*
G02X192089285Y-139317500I1838478J1838478D01*
G01*
X193927763Y-143755978D02*
G75*
G03X192089285Y-139317500I-1838478J1838478D01*
G01*
X134560734Y-127361499D02*
G75*
G02X134560734Y-125361499I0J1000000D01*
G01*
X134560734Y-125361499D02*
X134560734Y-123711499D01*
X134560734Y-123711499D02*
X114120734Y-123711499D01*
X114120734Y-123711499D02*
X114120734Y-129011499D01*
X114120734Y-129011499D02*
X134560734Y-129011499D01*
X134560734Y-129011499D02*
X134560734Y-127361499D01*
X144660379Y-115299297D02*
X144660379Y-112699297D01*
X144660379Y-115299297D02*
X185420379Y-115299297D01*
X185420379Y-115299297D02*
X185420379Y-110099297D01*
X147260379Y-110099297D02*
X185420379Y-110099297D01*
X147260379Y-112699297D02*
X147260379Y-110099297D01*
X144660379Y-112699297D02*
X147260379Y-112699297D01*
X144660379Y-110099297D02*
X145990379Y-110099297D01*
X144660379Y-111429297D02*
X144660379Y-110099297D01*
D11*
X156215379Y-67154297D02*
X156215379Y-67429297D01*
X161765379Y-67154297D02*
X161765379Y-67509297D01*
X161765379Y-77704297D02*
X161765379Y-77349297D01*
X156215379Y-77704297D02*
X156215379Y-77349297D01*
X156215379Y-67154297D02*
X161765379Y-67154297D01*
X156215379Y-77704297D02*
X161765379Y-77704297D01*
X156215379Y-67429297D02*
X154690379Y-67429297D01*
D13*
X113210734Y-129011499D02*
X113210734Y-127361499D01*
X92770734Y-129011499D02*
X113210734Y-129011499D01*
X92770734Y-123711499D02*
X92770734Y-129011499D01*
X113210734Y-123711499D02*
X92770734Y-123711499D01*
X113210734Y-125361499D02*
X113210734Y-123711499D01*
X113210734Y-127361499D02*
G75*
G02X113210734Y-125361499I0J1000000D01*
G01*
X106640734Y-144801499D02*
X99340734Y-144801499D01*
X106640734Y-139301499D02*
X99340734Y-139301499D01*
X99340734Y-139301499D02*
X99340734Y-140451499D01*
X115140379Y-89171297D02*
X112140379Y-89171297D01*
X112140379Y-89171297D02*
X112140379Y-76571297D01*
X112140379Y-76571297D02*
X115140379Y-76571297D01*
X121740379Y-76571297D02*
X124740379Y-76571297D01*
X124740379Y-76571297D02*
X124740379Y-89171297D01*
X124740379Y-89171297D02*
X121740379Y-89171297D01*
X125404379Y-84857297D02*
X125404379Y-86357297D01*
X125404379Y-86357297D02*
X125674379Y-86357297D01*
X125674379Y-86357297D02*
X125674379Y-89187297D01*
X132304379Y-84857297D02*
X132304379Y-86357297D01*
X132304379Y-86357297D02*
X132034379Y-86357297D01*
X132034379Y-86357297D02*
X132034379Y-87457297D01*
D11*
X135160379Y-96490297D02*
X135160379Y-95835297D01*
X129660379Y-96490297D02*
X129660379Y-95740297D01*
X129660379Y-90080297D02*
X129660379Y-90830297D01*
X135160379Y-90080297D02*
X135160379Y-90830297D01*
X135160379Y-96490297D02*
X129660379Y-96490297D01*
X135160379Y-90080297D02*
X129660379Y-90080297D01*
X135160379Y-95835297D02*
X136910379Y-95835297D01*
D13*
X138830379Y-77169297D02*
X138830379Y-79429297D01*
X133610379Y-77169297D02*
X133610379Y-79429297D01*
X123614379Y-91891297D02*
X115544379Y-91891297D01*
X115544379Y-91891297D02*
X115544379Y-96711297D01*
X115544379Y-96711297D02*
X123614379Y-96711297D01*
X141702379Y-76783297D02*
X141702379Y-77783297D01*
X139882379Y-76783297D02*
X139882379Y-77783297D01*
X132658379Y-77909297D02*
X132658379Y-73609297D01*
X132658379Y-73609297D02*
X126958379Y-73609297D01*
X132658379Y-77909297D02*
X126958379Y-77909297D01*
X215662703Y-88696379D02*
X218322703Y-88696379D01*
X215662703Y-75936379D02*
X215662703Y-88696379D01*
X218322703Y-75936379D02*
X218322703Y-88696379D01*
X215662703Y-75936379D02*
X218322703Y-75936379D01*
X215662703Y-74666379D02*
X215662703Y-73336379D01*
X215662703Y-73336379D02*
X216992703Y-73336379D01*
X128140734Y-144801499D02*
X120840734Y-144801499D01*
X128140734Y-139301499D02*
X120840734Y-139301499D01*
X120840734Y-139301499D02*
X120840734Y-140451499D01*
X158640734Y-144801499D02*
X151340734Y-144801499D01*
X158640734Y-139301499D02*
X151340734Y-139301499D01*
X151340734Y-139301499D02*
X151340734Y-140451499D01*
X172761090Y-139223700D02*
X172761090Y-140373700D01*
X180061090Y-139223700D02*
X172761090Y-139223700D01*
X180061090Y-144723700D02*
X172761090Y-144723700D01*
X211140734Y-144801499D02*
X203840734Y-144801499D01*
X211140734Y-139301499D02*
X203840734Y-139301499D01*
X203840734Y-139301499D02*
X203840734Y-140451499D01*
X225340734Y-139301499D02*
X225340734Y-140451499D01*
X232640734Y-139301499D02*
X225340734Y-139301499D01*
X232640734Y-144801499D02*
X225340734Y-144801499D01*
D11*
X169215379Y-67429297D02*
X167690379Y-67429297D01*
X169215379Y-77704297D02*
X174765379Y-77704297D01*
X169215379Y-67154297D02*
X174765379Y-67154297D01*
X169215379Y-77704297D02*
X169215379Y-77349297D01*
X174765379Y-77704297D02*
X174765379Y-77349297D01*
X174765379Y-67154297D02*
X174765379Y-67509297D01*
X169215379Y-67154297D02*
X169215379Y-67429297D01*
X182715379Y-67154297D02*
X182715379Y-67429297D01*
X188265379Y-67154297D02*
X188265379Y-67509297D01*
X188265379Y-77704297D02*
X188265379Y-77349297D01*
X182715379Y-77704297D02*
X182715379Y-77349297D01*
X182715379Y-67154297D02*
X188265379Y-67154297D01*
X182715379Y-77704297D02*
X188265379Y-77704297D01*
X182715379Y-67429297D02*
X181190379Y-67429297D01*
D13*
X165320734Y-129011499D02*
X165320734Y-127361499D01*
X144880734Y-129011499D02*
X165320734Y-129011499D01*
X144880734Y-123711499D02*
X144880734Y-129011499D01*
X165320734Y-123711499D02*
X144880734Y-123711499D01*
X165320734Y-125361499D02*
X165320734Y-123711499D01*
X165320734Y-127361499D02*
G75*
G02X165320734Y-125361499I0J1000000D01*
G01*
X186741090Y-127283700D02*
G75*
G02X186741090Y-125283700I0J1000000D01*
G01*
X186741090Y-125283700D02*
X186741090Y-123633700D01*
X186741090Y-123633700D02*
X166301090Y-123633700D01*
X166301090Y-123633700D02*
X166301090Y-128933700D01*
X166301090Y-128933700D02*
X186741090Y-128933700D01*
X186741090Y-128933700D02*
X186741090Y-127283700D01*
X217820734Y-127361499D02*
G75*
G02X217820734Y-125361499I0J1000000D01*
G01*
X217820734Y-125361499D02*
X217820734Y-123711499D01*
X217820734Y-123711499D02*
X197380734Y-123711499D01*
X197380734Y-123711499D02*
X197380734Y-129011499D01*
X197380734Y-129011499D02*
X217820734Y-129011499D01*
X217820734Y-129011499D02*
X217820734Y-127361499D01*
X239320734Y-129011499D02*
X239320734Y-127361499D01*
X218880734Y-129011499D02*
X239320734Y-129011499D01*
X218880734Y-123711499D02*
X218880734Y-129011499D01*
X239320734Y-123711499D02*
X218880734Y-123711499D01*
X239320734Y-125361499D02*
X239320734Y-123711499D01*
X239320734Y-127361499D02*
G75*
G02X239320734Y-125361499I0J1000000D01*
G01*
X144660379Y-63299297D02*
X144660379Y-60699297D01*
X144660379Y-63299297D02*
X185420379Y-63299297D01*
X185420379Y-63299297D02*
X185420379Y-58099297D01*
X147260379Y-58099297D02*
X185420379Y-58099297D01*
X147260379Y-60699297D02*
X147260379Y-58099297D01*
X144660379Y-60699297D02*
X147260379Y-60699297D01*
X144660379Y-58099297D02*
X145990379Y-58099297D01*
X144660379Y-59429297D02*
X144660379Y-58099297D01*
X222830703Y-80390379D02*
X222830703Y-73620379D01*
X222830703Y-73620379D02*
X219110703Y-73620379D01*
X219110703Y-73620379D02*
X219110703Y-80390379D01*
X134439297Y-67919621D02*
X134439297Y-66659621D01*
X134439297Y-61099621D02*
X134439297Y-62359621D01*
X130679297Y-67919621D02*
X134439297Y-67919621D01*
X128429297Y-61099621D02*
X134439297Y-61099621D01*
X112040000Y-60100000D02*
X112040000Y-66870000D01*
X112040000Y-66870000D02*
X115760000Y-66870000D01*
X115760000Y-66870000D02*
X115760000Y-60100000D01*
X122650000Y-66900000D02*
X116150000Y-66900000D01*
X122650000Y-66900000D02*
X122650000Y-58500000D01*
X116150000Y-66900000D02*
X116150000Y-58500000D01*
X107790000Y-64800000D02*
X107790000Y-63800000D01*
X109610000Y-64800000D02*
X109610000Y-63800000D01*
X111300000Y-60962500D02*
X110850000Y-60962500D01*
X111300000Y-59112500D02*
X111300000Y-60962500D01*
X103500000Y-56562500D02*
X103500000Y-56812500D01*
X111300000Y-56562500D02*
X111300000Y-56812500D01*
X103500000Y-59112500D02*
X103500000Y-60962500D01*
X103500000Y-60962500D02*
X103950000Y-60962500D01*
X109100000Y-61512500D02*
X108650000Y-61512500D01*
X109100000Y-61512500D02*
X109100000Y-61062500D01*
X248395203Y-72793379D02*
X248395203Y-89033379D01*
X248395203Y-89033379D02*
X240775203Y-89033379D01*
X224775203Y-89033379D02*
X224155203Y-89033379D01*
X224155203Y-89033379D02*
X224155203Y-86913379D01*
X224155203Y-74913379D02*
X224155203Y-72793379D01*
X224155203Y-72793379D02*
X224775203Y-72793379D01*
X240775203Y-72793379D02*
X248395203Y-72793379D01*
X240775203Y-72793379D02*
X240775203Y-72183379D01*
X230970000Y-60330000D02*
X230970000Y-57670000D01*
X228370000Y-60330000D02*
X230970000Y-60330000D01*
X228370000Y-57670000D02*
X230970000Y-57670000D01*
X228370000Y-60330000D02*
X228370000Y-57670000D01*
X227100000Y-60330000D02*
X225770000Y-60330000D01*
X225770000Y-60330000D02*
X225770000Y-59000000D01*
X137989285Y-143767500D02*
X141589285Y-143767500D01*
X137950807Y-143755978D02*
G75*
G02X139789285Y-139317500I1838478J1838478D01*
G01*
X141627763Y-143755978D02*
G75*
G03X139789285Y-139317500I-1838478J1838478D01*
G01*
D12*
G36*
X103995999Y-110515784D02*
X104359099Y-110541356D01*
X104726981Y-110585094D01*
X105110830Y-110648486D01*
X105521826Y-110733021D01*
X105785500Y-110794363D01*
X105958423Y-110838143D01*
X106152634Y-110890721D01*
X106357668Y-110948955D01*
X106563059Y-111009706D01*
X106758343Y-111069832D01*
X106933054Y-111126192D01*
X107076727Y-111175646D01*
X107157100Y-111206025D01*
X107407631Y-111311869D01*
X107686012Y-111438033D01*
X107977416Y-111577280D01*
X108267013Y-111722374D01*
X108539978Y-111866081D01*
X108754608Y-111985622D01*
X108849310Y-112039695D01*
X108926126Y-112082763D01*
X108975444Y-112109482D01*
X108988498Y-112115600D01*
X109016256Y-112129690D01*
X109078515Y-112168861D01*
X109168585Y-112228456D01*
X109279778Y-112303824D01*
X109405404Y-112390309D01*
X109538775Y-112483258D01*
X109673200Y-112578018D01*
X109801993Y-112669934D01*
X109918462Y-112754354D01*
X110015920Y-112826621D01*
X110069534Y-112867713D01*
X110206934Y-112980709D01*
X110362019Y-113117315D01*
X110527118Y-113269955D01*
X110694561Y-113431053D01*
X110856679Y-113593031D01*
X111005802Y-113748315D01*
X111134258Y-113889327D01*
X111234379Y-114008491D01*
X111264810Y-114048390D01*
X111440040Y-114308465D01*
X111587450Y-114570305D01*
X111702516Y-114824769D01*
X111780711Y-115062715D01*
X111793498Y-115116386D01*
X111808779Y-115225504D01*
X111814891Y-115357710D01*
X111812342Y-115459286D01*
X111775863Y-115677693D01*
X111696855Y-115871951D01*
X111577673Y-116041710D01*
X111420668Y-116186621D01*
X111228193Y-116306332D01*
X111002602Y-116400493D01*
X110746246Y-116468755D01*
X110461480Y-116510767D01*
X110150655Y-116526178D01*
X109816124Y-116514638D01*
X109460241Y-116475797D01*
X109085357Y-116409304D01*
X108693827Y-116314810D01*
X108288002Y-116191963D01*
X107881000Y-116044631D01*
X107758910Y-115994021D01*
X107615394Y-115929994D01*
X107461077Y-115857762D01*
X107306580Y-115782540D01*
X107162528Y-115709541D01*
X107039544Y-115643978D01*
X106948252Y-115591065D01*
X106922338Y-115574162D01*
X106866916Y-115537559D01*
X106784298Y-115484986D01*
X106690750Y-115426771D01*
X106674500Y-115416792D01*
X106467707Y-115279896D01*
X106257815Y-115122370D01*
X106053448Y-114952008D01*
X105863226Y-114776602D01*
X105695771Y-114603944D01*
X105559706Y-114441826D01*
X105495946Y-114351658D01*
X105380054Y-114143982D01*
X105308172Y-113949131D01*
X105280402Y-113769473D01*
X105296845Y-113607378D01*
X105357605Y-113465212D01*
X105452848Y-113353955D01*
X105565633Y-113275275D01*
X105704844Y-113218678D01*
X105877722Y-113182019D01*
X106091506Y-113163155D01*
X106098096Y-113162864D01*
X106246445Y-113159380D01*
X106385318Y-113163398D01*
X106525711Y-113176367D01*
X106678624Y-113199741D01*
X106855053Y-113234971D01*
X107065997Y-113283507D01*
X107130417Y-113299111D01*
X107290970Y-113336375D01*
X107406458Y-113358011D01*
X107480251Y-113363725D01*
X107515714Y-113353219D01*
X107516216Y-113326196D01*
X107485124Y-113282360D01*
X107472993Y-113268938D01*
X107367921Y-113176571D01*
X107221746Y-113077719D01*
X107043061Y-112976417D01*
X106840462Y-112876702D01*
X106622544Y-112782608D01*
X106397901Y-112698172D01*
X106175128Y-112627430D01*
X106021848Y-112587505D01*
X105797769Y-112538498D01*
X105604939Y-112504545D01*
X105426791Y-112483546D01*
X105246757Y-112473402D01*
X105107534Y-112471641D01*
X104854908Y-112481857D01*
X104637041Y-112513315D01*
X104441488Y-112568492D01*
X104284600Y-112635356D01*
X104096788Y-112750955D01*
X103953233Y-112890373D01*
X103853977Y-113052419D01*
X103799061Y-113235897D01*
X103788529Y-113439615D01*
X103822421Y-113662378D01*
X103900780Y-113902993D01*
X104023648Y-114160267D01*
X104191066Y-114433006D01*
X104219895Y-114474992D01*
X104275036Y-114546188D01*
X104358647Y-114643953D01*
X104462765Y-114759461D01*
X104579425Y-114883882D01*
X104700661Y-115008388D01*
X104705518Y-115013271D01*
X104918331Y-115220606D01*
X105126367Y-115408940D01*
X105338399Y-115584967D01*
X105563200Y-115755381D01*
X105809545Y-115926875D01*
X106086206Y-116106142D01*
X106354091Y-116271042D01*
X106498016Y-116355533D01*
X106662493Y-116448003D01*
X106839565Y-116544362D01*
X107021275Y-116640521D01*
X107199666Y-116732387D01*
X107366781Y-116815871D01*
X107514663Y-116886883D01*
X107635355Y-116941331D01*
X107720900Y-116975125D01*
X107728600Y-116977653D01*
X107802565Y-117003453D01*
X107906324Y-117042620D01*
X108022913Y-117088664D01*
X108084200Y-117113676D01*
X108216841Y-117166019D01*
X108373472Y-117224094D01*
X108529465Y-117278897D01*
X108604900Y-117304005D01*
X108731496Y-117345036D01*
X108854348Y-117384831D01*
X108957224Y-117418133D01*
X109011300Y-117435620D01*
X109218526Y-117496791D01*
X109463750Y-117559577D01*
X109734355Y-117621249D01*
X110017723Y-117679079D01*
X110301239Y-117730339D01*
X110560700Y-117770673D01*
X110741332Y-117790671D01*
X110953420Y-117805186D01*
X111185548Y-117814205D01*
X111426304Y-117817717D01*
X111664274Y-117815708D01*
X111888044Y-117808168D01*
X112086201Y-117795084D01*
X112247333Y-117776443D01*
X112271517Y-117772498D01*
X112538802Y-117715642D01*
X112801722Y-117639728D01*
X113043764Y-117550037D01*
X113211494Y-117471798D01*
X113299233Y-117428279D01*
X113369072Y-117398170D01*
X113409725Y-117386163D01*
X113415029Y-117387162D01*
X113411893Y-117411335D01*
X113402764Y-117419231D01*
X113369438Y-117444283D01*
X113311681Y-117490207D01*
X113263799Y-117529191D01*
X113087322Y-117649008D01*
X112868070Y-117755541D01*
X112612950Y-117846109D01*
X112328870Y-117918030D01*
X112199000Y-117942646D01*
X112046169Y-117962834D01*
X111856301Y-117978694D01*
X111643007Y-117989833D01*
X111419897Y-117995857D01*
X111200582Y-117996372D01*
X110998671Y-117990982D01*
X110852800Y-117981633D01*
X110341073Y-117921444D01*
X109803075Y-117829925D01*
X109249985Y-117710070D01*
X108692982Y-117564873D01*
X108143245Y-117397328D01*
X107611952Y-117210429D01*
X107110282Y-117007171D01*
X106953900Y-116937365D01*
X106837903Y-116883679D01*
X106733785Y-116833770D01*
X106633137Y-116783125D01*
X106527554Y-116727232D01*
X106408630Y-116661577D01*
X106267958Y-116581649D01*
X106097132Y-116482935D01*
X105976000Y-116412424D01*
X105468754Y-116094675D01*
X104983947Y-115747162D01*
X104530272Y-115376616D01*
X104116423Y-114989767D01*
X104045600Y-114917652D01*
X103881096Y-114744646D01*
X103746410Y-114594969D01*
X103633245Y-114458364D01*
X103533301Y-114324577D01*
X103438283Y-114183352D01*
X103391709Y-114109462D01*
X103233435Y-113823135D01*
X103121003Y-113550549D01*
X103054125Y-113293151D01*
X103032518Y-113052388D01*
X103055895Y-112829706D01*
X103123972Y-112626552D01*
X103236464Y-112444371D01*
X103393086Y-112284612D01*
X103593551Y-112148719D01*
X103797033Y-112053516D01*
X104070517Y-111969554D01*
X104378740Y-111917057D01*
X104716740Y-111895805D01*
X105079552Y-111905573D01*
X105462211Y-111946140D01*
X105859753Y-112017283D01*
X106267213Y-112118780D01*
X106445900Y-112172224D01*
X106553622Y-112205970D01*
X106643894Y-112234032D01*
X106705323Y-112252881D01*
X106725300Y-112258766D01*
X106794662Y-112281739D01*
X106899961Y-112322450D01*
X107031984Y-112376802D01*
X107181523Y-112440697D01*
X107339366Y-112510037D01*
X107496305Y-112580725D01*
X107643128Y-112648664D01*
X107770627Y-112709756D01*
X107869589Y-112759903D01*
X107930807Y-112795008D01*
X107931169Y-112795250D01*
X107998182Y-112837070D01*
X108076267Y-112881833D01*
X108084200Y-112886138D01*
X108161337Y-112931432D01*
X108267813Y-112998928D01*
X108392028Y-113080749D01*
X108522382Y-113169019D01*
X108647275Y-113255862D01*
X108755106Y-113333401D01*
X108834277Y-113393760D01*
X108846200Y-113403535D01*
X109075475Y-113607760D01*
X109282802Y-113817277D01*
X109462071Y-114025056D01*
X109607169Y-114224068D01*
X109703003Y-114388900D01*
X109766134Y-114552387D01*
X109800252Y-114723365D01*
X109801391Y-114881405D01*
X109800307Y-114890155D01*
X109761445Y-115044397D01*
X109687567Y-115174056D01*
X109576250Y-115280706D01*
X109425073Y-115365922D01*
X109231612Y-115431279D01*
X108993445Y-115478352D01*
X108871600Y-115493928D01*
X108720262Y-115512138D01*
X108616779Y-115529487D01*
X108558302Y-115548259D01*
X108541984Y-115570740D01*
X108564977Y-115599214D01*
X108624433Y-115635967D01*
X108666940Y-115658160D01*
X108873273Y-115744114D01*
X109110406Y-115811772D01*
X109366231Y-115859944D01*
X109628635Y-115887444D01*
X109885509Y-115893083D01*
X110124742Y-115875675D01*
X110334224Y-115834030D01*
X110365183Y-115824717D01*
X110584979Y-115735213D01*
X110761472Y-115620664D01*
X110894134Y-115481692D01*
X110982436Y-115318921D01*
X111025849Y-115132973D01*
X111030600Y-115040535D01*
X111006059Y-114802711D01*
X110933103Y-114554345D01*
X110812733Y-114296679D01*
X110645947Y-114030953D01*
X110433747Y-113758408D01*
X110177130Y-113480286D01*
X109877099Y-113197828D01*
X109534651Y-112912274D01*
X109150788Y-112624865D01*
X108998600Y-112518397D01*
X108891930Y-112447893D01*
X108775372Y-112375125D01*
X108681100Y-112319818D01*
X108597810Y-112271890D01*
X108528784Y-112229638D01*
X108490600Y-112203418D01*
X108434068Y-112165164D01*
X108338647Y-112109733D01*
X108211759Y-112040828D01*
X108060825Y-111962148D01*
X107893267Y-111877396D01*
X107716509Y-111790271D01*
X107537971Y-111704476D01*
X107365075Y-111623711D01*
X107205245Y-111551677D01*
X107065902Y-111492075D01*
X107055500Y-111487807D01*
X106478504Y-111268354D01*
X105906246Y-111083027D01*
X105343229Y-110932763D01*
X104793950Y-110818503D01*
X104262913Y-110741184D01*
X103754616Y-110701746D01*
X103283600Y-110700727D01*
X102957122Y-110721367D01*
X102667902Y-110757856D01*
X102404101Y-110813007D01*
X102153877Y-110889632D01*
X101905390Y-110990543D01*
X101750234Y-111064910D01*
X101666258Y-111105262D01*
X101601298Y-111132786D01*
X101567080Y-111142607D01*
X101564876Y-111141943D01*
X101573148Y-111117863D01*
X101616066Y-111073934D01*
X101684885Y-111016726D01*
X101770863Y-110952812D01*
X101865256Y-110888762D01*
X101959320Y-110831148D01*
X102026300Y-110795168D01*
X102261857Y-110694257D01*
X102516251Y-110616267D01*
X102795953Y-110560033D01*
X103107436Y-110524389D01*
X103457173Y-110508167D01*
X103626500Y-110506887D01*
X103995999Y-110515784D01*
X103995999Y-110515784D01*
G37*
X103995999Y-110515784D02*
X104359099Y-110541356D01*
X104726981Y-110585094D01*
X105110830Y-110648486D01*
X105521826Y-110733021D01*
X105785500Y-110794363D01*
X105958423Y-110838143D01*
X106152634Y-110890721D01*
X106357668Y-110948955D01*
X106563059Y-111009706D01*
X106758343Y-111069832D01*
X106933054Y-111126192D01*
X107076727Y-111175646D01*
X107157100Y-111206025D01*
X107407631Y-111311869D01*
X107686012Y-111438033D01*
X107977416Y-111577280D01*
X108267013Y-111722374D01*
X108539978Y-111866081D01*
X108754608Y-111985622D01*
X108849310Y-112039695D01*
X108926126Y-112082763D01*
X108975444Y-112109482D01*
X108988498Y-112115600D01*
X109016256Y-112129690D01*
X109078515Y-112168861D01*
X109168585Y-112228456D01*
X109279778Y-112303824D01*
X109405404Y-112390309D01*
X109538775Y-112483258D01*
X109673200Y-112578018D01*
X109801993Y-112669934D01*
X109918462Y-112754354D01*
X110015920Y-112826621D01*
X110069534Y-112867713D01*
X110206934Y-112980709D01*
X110362019Y-113117315D01*
X110527118Y-113269955D01*
X110694561Y-113431053D01*
X110856679Y-113593031D01*
X111005802Y-113748315D01*
X111134258Y-113889327D01*
X111234379Y-114008491D01*
X111264810Y-114048390D01*
X111440040Y-114308465D01*
X111587450Y-114570305D01*
X111702516Y-114824769D01*
X111780711Y-115062715D01*
X111793498Y-115116386D01*
X111808779Y-115225504D01*
X111814891Y-115357710D01*
X111812342Y-115459286D01*
X111775863Y-115677693D01*
X111696855Y-115871951D01*
X111577673Y-116041710D01*
X111420668Y-116186621D01*
X111228193Y-116306332D01*
X111002602Y-116400493D01*
X110746246Y-116468755D01*
X110461480Y-116510767D01*
X110150655Y-116526178D01*
X109816124Y-116514638D01*
X109460241Y-116475797D01*
X109085357Y-116409304D01*
X108693827Y-116314810D01*
X108288002Y-116191963D01*
X107881000Y-116044631D01*
X107758910Y-115994021D01*
X107615394Y-115929994D01*
X107461077Y-115857762D01*
X107306580Y-115782540D01*
X107162528Y-115709541D01*
X107039544Y-115643978D01*
X106948252Y-115591065D01*
X106922338Y-115574162D01*
X106866916Y-115537559D01*
X106784298Y-115484986D01*
X106690750Y-115426771D01*
X106674500Y-115416792D01*
X106467707Y-115279896D01*
X106257815Y-115122370D01*
X106053448Y-114952008D01*
X105863226Y-114776602D01*
X105695771Y-114603944D01*
X105559706Y-114441826D01*
X105495946Y-114351658D01*
X105380054Y-114143982D01*
X105308172Y-113949131D01*
X105280402Y-113769473D01*
X105296845Y-113607378D01*
X105357605Y-113465212D01*
X105452848Y-113353955D01*
X105565633Y-113275275D01*
X105704844Y-113218678D01*
X105877722Y-113182019D01*
X106091506Y-113163155D01*
X106098096Y-113162864D01*
X106246445Y-113159380D01*
X106385318Y-113163398D01*
X106525711Y-113176367D01*
X106678624Y-113199741D01*
X106855053Y-113234971D01*
X107065997Y-113283507D01*
X107130417Y-113299111D01*
X107290970Y-113336375D01*
X107406458Y-113358011D01*
X107480251Y-113363725D01*
X107515714Y-113353219D01*
X107516216Y-113326196D01*
X107485124Y-113282360D01*
X107472993Y-113268938D01*
X107367921Y-113176571D01*
X107221746Y-113077719D01*
X107043061Y-112976417D01*
X106840462Y-112876702D01*
X106622544Y-112782608D01*
X106397901Y-112698172D01*
X106175128Y-112627430D01*
X106021848Y-112587505D01*
X105797769Y-112538498D01*
X105604939Y-112504545D01*
X105426791Y-112483546D01*
X105246757Y-112473402D01*
X105107534Y-112471641D01*
X104854908Y-112481857D01*
X104637041Y-112513315D01*
X104441488Y-112568492D01*
X104284600Y-112635356D01*
X104096788Y-112750955D01*
X103953233Y-112890373D01*
X103853977Y-113052419D01*
X103799061Y-113235897D01*
X103788529Y-113439615D01*
X103822421Y-113662378D01*
X103900780Y-113902993D01*
X104023648Y-114160267D01*
X104191066Y-114433006D01*
X104219895Y-114474992D01*
X104275036Y-114546188D01*
X104358647Y-114643953D01*
X104462765Y-114759461D01*
X104579425Y-114883882D01*
X104700661Y-115008388D01*
X104705518Y-115013271D01*
X104918331Y-115220606D01*
X105126367Y-115408940D01*
X105338399Y-115584967D01*
X105563200Y-115755381D01*
X105809545Y-115926875D01*
X106086206Y-116106142D01*
X106354091Y-116271042D01*
X106498016Y-116355533D01*
X106662493Y-116448003D01*
X106839565Y-116544362D01*
X107021275Y-116640521D01*
X107199666Y-116732387D01*
X107366781Y-116815871D01*
X107514663Y-116886883D01*
X107635355Y-116941331D01*
X107720900Y-116975125D01*
X107728600Y-116977653D01*
X107802565Y-117003453D01*
X107906324Y-117042620D01*
X108022913Y-117088664D01*
X108084200Y-117113676D01*
X108216841Y-117166019D01*
X108373472Y-117224094D01*
X108529465Y-117278897D01*
X108604900Y-117304005D01*
X108731496Y-117345036D01*
X108854348Y-117384831D01*
X108957224Y-117418133D01*
X109011300Y-117435620D01*
X109218526Y-117496791D01*
X109463750Y-117559577D01*
X109734355Y-117621249D01*
X110017723Y-117679079D01*
X110301239Y-117730339D01*
X110560700Y-117770673D01*
X110741332Y-117790671D01*
X110953420Y-117805186D01*
X111185548Y-117814205D01*
X111426304Y-117817717D01*
X111664274Y-117815708D01*
X111888044Y-117808168D01*
X112086201Y-117795084D01*
X112247333Y-117776443D01*
X112271517Y-117772498D01*
X112538802Y-117715642D01*
X112801722Y-117639728D01*
X113043764Y-117550037D01*
X113211494Y-117471798D01*
X113299233Y-117428279D01*
X113369072Y-117398170D01*
X113409725Y-117386163D01*
X113415029Y-117387162D01*
X113411893Y-117411335D01*
X113402764Y-117419231D01*
X113369438Y-117444283D01*
X113311681Y-117490207D01*
X113263799Y-117529191D01*
X113087322Y-117649008D01*
X112868070Y-117755541D01*
X112612950Y-117846109D01*
X112328870Y-117918030D01*
X112199000Y-117942646D01*
X112046169Y-117962834D01*
X111856301Y-117978694D01*
X111643007Y-117989833D01*
X111419897Y-117995857D01*
X111200582Y-117996372D01*
X110998671Y-117990982D01*
X110852800Y-117981633D01*
X110341073Y-117921444D01*
X109803075Y-117829925D01*
X109249985Y-117710070D01*
X108692982Y-117564873D01*
X108143245Y-117397328D01*
X107611952Y-117210429D01*
X107110282Y-117007171D01*
X106953900Y-116937365D01*
X106837903Y-116883679D01*
X106733785Y-116833770D01*
X106633137Y-116783125D01*
X106527554Y-116727232D01*
X106408630Y-116661577D01*
X106267958Y-116581649D01*
X106097132Y-116482935D01*
X105976000Y-116412424D01*
X105468754Y-116094675D01*
X104983947Y-115747162D01*
X104530272Y-115376616D01*
X104116423Y-114989767D01*
X104045600Y-114917652D01*
X103881096Y-114744646D01*
X103746410Y-114594969D01*
X103633245Y-114458364D01*
X103533301Y-114324577D01*
X103438283Y-114183352D01*
X103391709Y-114109462D01*
X103233435Y-113823135D01*
X103121003Y-113550549D01*
X103054125Y-113293151D01*
X103032518Y-113052388D01*
X103055895Y-112829706D01*
X103123972Y-112626552D01*
X103236464Y-112444371D01*
X103393086Y-112284612D01*
X103593551Y-112148719D01*
X103797033Y-112053516D01*
X104070517Y-111969554D01*
X104378740Y-111917057D01*
X104716740Y-111895805D01*
X105079552Y-111905573D01*
X105462211Y-111946140D01*
X105859753Y-112017283D01*
X106267213Y-112118780D01*
X106445900Y-112172224D01*
X106553622Y-112205970D01*
X106643894Y-112234032D01*
X106705323Y-112252881D01*
X106725300Y-112258766D01*
X106794662Y-112281739D01*
X106899961Y-112322450D01*
X107031984Y-112376802D01*
X107181523Y-112440697D01*
X107339366Y-112510037D01*
X107496305Y-112580725D01*
X107643128Y-112648664D01*
X107770627Y-112709756D01*
X107869589Y-112759903D01*
X107930807Y-112795008D01*
X107931169Y-112795250D01*
X107998182Y-112837070D01*
X108076267Y-112881833D01*
X108084200Y-112886138D01*
X108161337Y-112931432D01*
X108267813Y-112998928D01*
X108392028Y-113080749D01*
X108522382Y-113169019D01*
X108647275Y-113255862D01*
X108755106Y-113333401D01*
X108834277Y-113393760D01*
X108846200Y-113403535D01*
X109075475Y-113607760D01*
X109282802Y-113817277D01*
X109462071Y-114025056D01*
X109607169Y-114224068D01*
X109703003Y-114388900D01*
X109766134Y-114552387D01*
X109800252Y-114723365D01*
X109801391Y-114881405D01*
X109800307Y-114890155D01*
X109761445Y-115044397D01*
X109687567Y-115174056D01*
X109576250Y-115280706D01*
X109425073Y-115365922D01*
X109231612Y-115431279D01*
X108993445Y-115478352D01*
X108871600Y-115493928D01*
X108720262Y-115512138D01*
X108616779Y-115529487D01*
X108558302Y-115548259D01*
X108541984Y-115570740D01*
X108564977Y-115599214D01*
X108624433Y-115635967D01*
X108666940Y-115658160D01*
X108873273Y-115744114D01*
X109110406Y-115811772D01*
X109366231Y-115859944D01*
X109628635Y-115887444D01*
X109885509Y-115893083D01*
X110124742Y-115875675D01*
X110334224Y-115834030D01*
X110365183Y-115824717D01*
X110584979Y-115735213D01*
X110761472Y-115620664D01*
X110894134Y-115481692D01*
X110982436Y-115318921D01*
X111025849Y-115132973D01*
X111030600Y-115040535D01*
X111006059Y-114802711D01*
X110933103Y-114554345D01*
X110812733Y-114296679D01*
X110645947Y-114030953D01*
X110433747Y-113758408D01*
X110177130Y-113480286D01*
X109877099Y-113197828D01*
X109534651Y-112912274D01*
X109150788Y-112624865D01*
X108998600Y-112518397D01*
X108891930Y-112447893D01*
X108775372Y-112375125D01*
X108681100Y-112319818D01*
X108597810Y-112271890D01*
X108528784Y-112229638D01*
X108490600Y-112203418D01*
X108434068Y-112165164D01*
X108338647Y-112109733D01*
X108211759Y-112040828D01*
X108060825Y-111962148D01*
X107893267Y-111877396D01*
X107716509Y-111790271D01*
X107537971Y-111704476D01*
X107365075Y-111623711D01*
X107205245Y-111551677D01*
X107065902Y-111492075D01*
X107055500Y-111487807D01*
X106478504Y-111268354D01*
X105906246Y-111083027D01*
X105343229Y-110932763D01*
X104793950Y-110818503D01*
X104262913Y-110741184D01*
X103754616Y-110701746D01*
X103283600Y-110700727D01*
X102957122Y-110721367D01*
X102667902Y-110757856D01*
X102404101Y-110813007D01*
X102153877Y-110889632D01*
X101905390Y-110990543D01*
X101750234Y-111064910D01*
X101666258Y-111105262D01*
X101601298Y-111132786D01*
X101567080Y-111142607D01*
X101564876Y-111141943D01*
X101573148Y-111117863D01*
X101616066Y-111073934D01*
X101684885Y-111016726D01*
X101770863Y-110952812D01*
X101865256Y-110888762D01*
X101959320Y-110831148D01*
X102026300Y-110795168D01*
X102261857Y-110694257D01*
X102516251Y-110616267D01*
X102795953Y-110560033D01*
X103107436Y-110524389D01*
X103457173Y-110508167D01*
X103626500Y-110506887D01*
X103995999Y-110515784D01*
G36*
X202995999Y-97215784D02*
X203359099Y-97241356D01*
X203726981Y-97285094D01*
X204110830Y-97348486D01*
X204521826Y-97433021D01*
X204785500Y-97494363D01*
X204958423Y-97538143D01*
X205152634Y-97590721D01*
X205357668Y-97648955D01*
X205563059Y-97709706D01*
X205758343Y-97769832D01*
X205933054Y-97826192D01*
X206076727Y-97875646D01*
X206157100Y-97906025D01*
X206407631Y-98011869D01*
X206686012Y-98138033D01*
X206977416Y-98277280D01*
X207267013Y-98422374D01*
X207539978Y-98566081D01*
X207754608Y-98685622D01*
X207849310Y-98739695D01*
X207926126Y-98782763D01*
X207975444Y-98809482D01*
X207988498Y-98815600D01*
X208016256Y-98829690D01*
X208078515Y-98868861D01*
X208168585Y-98928456D01*
X208279778Y-99003824D01*
X208405404Y-99090309D01*
X208538775Y-99183258D01*
X208673200Y-99278018D01*
X208801993Y-99369934D01*
X208918462Y-99454354D01*
X209015920Y-99526621D01*
X209069534Y-99567713D01*
X209206934Y-99680709D01*
X209362019Y-99817315D01*
X209527118Y-99969955D01*
X209694561Y-100131053D01*
X209856679Y-100293031D01*
X210005802Y-100448315D01*
X210134258Y-100589327D01*
X210234379Y-100708491D01*
X210264810Y-100748390D01*
X210440040Y-101008465D01*
X210587450Y-101270305D01*
X210702516Y-101524769D01*
X210780711Y-101762715D01*
X210793498Y-101816386D01*
X210808779Y-101925504D01*
X210814891Y-102057710D01*
X210812342Y-102159286D01*
X210775863Y-102377693D01*
X210696855Y-102571951D01*
X210577673Y-102741710D01*
X210420668Y-102886621D01*
X210228193Y-103006332D01*
X210002602Y-103100493D01*
X209746246Y-103168755D01*
X209461480Y-103210767D01*
X209150655Y-103226178D01*
X208816124Y-103214638D01*
X208460241Y-103175797D01*
X208085357Y-103109304D01*
X207693827Y-103014810D01*
X207288002Y-102891963D01*
X206881000Y-102744631D01*
X206758910Y-102694021D01*
X206615394Y-102629994D01*
X206461077Y-102557762D01*
X206306580Y-102482540D01*
X206162528Y-102409541D01*
X206039544Y-102343978D01*
X205948252Y-102291065D01*
X205922338Y-102274162D01*
X205866916Y-102237559D01*
X205784298Y-102184986D01*
X205690750Y-102126771D01*
X205674500Y-102116792D01*
X205467707Y-101979896D01*
X205257815Y-101822370D01*
X205053448Y-101652008D01*
X204863226Y-101476602D01*
X204695771Y-101303944D01*
X204559706Y-101141826D01*
X204495946Y-101051658D01*
X204380054Y-100843982D01*
X204308172Y-100649131D01*
X204280402Y-100469473D01*
X204296845Y-100307378D01*
X204357605Y-100165212D01*
X204452848Y-100053955D01*
X204565633Y-99975275D01*
X204704844Y-99918678D01*
X204877722Y-99882019D01*
X205091506Y-99863155D01*
X205098096Y-99862864D01*
X205246445Y-99859380D01*
X205385318Y-99863398D01*
X205525711Y-99876367D01*
X205678624Y-99899741D01*
X205855053Y-99934971D01*
X206065997Y-99983507D01*
X206130417Y-99999111D01*
X206290970Y-100036375D01*
X206406458Y-100058011D01*
X206480251Y-100063725D01*
X206515714Y-100053219D01*
X206516216Y-100026196D01*
X206485124Y-99982360D01*
X206472993Y-99968938D01*
X206367921Y-99876571D01*
X206221746Y-99777719D01*
X206043061Y-99676417D01*
X205840462Y-99576702D01*
X205622544Y-99482608D01*
X205397901Y-99398172D01*
X205175128Y-99327430D01*
X205021848Y-99287505D01*
X204797769Y-99238498D01*
X204604939Y-99204545D01*
X204426791Y-99183546D01*
X204246757Y-99173402D01*
X204107534Y-99171641D01*
X203854908Y-99181857D01*
X203637041Y-99213315D01*
X203441488Y-99268492D01*
X203284600Y-99335356D01*
X203096788Y-99450955D01*
X202953233Y-99590373D01*
X202853977Y-99752419D01*
X202799061Y-99935897D01*
X202788529Y-100139615D01*
X202822421Y-100362378D01*
X202900780Y-100602993D01*
X203023648Y-100860267D01*
X203191066Y-101133006D01*
X203219895Y-101174992D01*
X203275036Y-101246188D01*
X203358647Y-101343953D01*
X203462765Y-101459461D01*
X203579425Y-101583882D01*
X203700661Y-101708388D01*
X203705518Y-101713271D01*
X203918331Y-101920606D01*
X204126367Y-102108940D01*
X204338399Y-102284967D01*
X204563200Y-102455381D01*
X204809545Y-102626875D01*
X205086206Y-102806142D01*
X205354091Y-102971042D01*
X205498016Y-103055533D01*
X205662493Y-103148003D01*
X205839565Y-103244362D01*
X206021275Y-103340521D01*
X206199666Y-103432387D01*
X206366781Y-103515871D01*
X206514663Y-103586883D01*
X206635355Y-103641331D01*
X206720900Y-103675125D01*
X206728600Y-103677653D01*
X206802565Y-103703453D01*
X206906324Y-103742620D01*
X207022913Y-103788664D01*
X207084200Y-103813676D01*
X207216841Y-103866019D01*
X207373472Y-103924094D01*
X207529465Y-103978897D01*
X207604900Y-104004005D01*
X207731496Y-104045036D01*
X207854348Y-104084831D01*
X207957224Y-104118133D01*
X208011300Y-104135620D01*
X208218526Y-104196791D01*
X208463750Y-104259577D01*
X208734355Y-104321249D01*
X209017723Y-104379079D01*
X209301239Y-104430339D01*
X209560700Y-104470673D01*
X209741332Y-104490671D01*
X209953420Y-104505186D01*
X210185548Y-104514205D01*
X210426304Y-104517717D01*
X210664274Y-104515708D01*
X210888044Y-104508168D01*
X211086201Y-104495084D01*
X211247333Y-104476443D01*
X211271517Y-104472498D01*
X211538802Y-104415642D01*
X211801722Y-104339728D01*
X212043764Y-104250037D01*
X212211494Y-104171798D01*
X212299233Y-104128279D01*
X212369072Y-104098170D01*
X212409725Y-104086163D01*
X212415029Y-104087162D01*
X212411893Y-104111335D01*
X212402764Y-104119231D01*
X212369438Y-104144283D01*
X212311681Y-104190207D01*
X212263799Y-104229191D01*
X212087322Y-104349008D01*
X211868070Y-104455541D01*
X211612950Y-104546109D01*
X211328870Y-104618030D01*
X211199000Y-104642646D01*
X211046169Y-104662834D01*
X210856301Y-104678694D01*
X210643007Y-104689833D01*
X210419897Y-104695857D01*
X210200582Y-104696372D01*
X209998671Y-104690982D01*
X209852800Y-104681633D01*
X209341073Y-104621444D01*
X208803075Y-104529925D01*
X208249985Y-104410070D01*
X207692982Y-104264873D01*
X207143245Y-104097328D01*
X206611952Y-103910429D01*
X206110282Y-103707171D01*
X205953900Y-103637365D01*
X205837903Y-103583679D01*
X205733785Y-103533770D01*
X205633137Y-103483125D01*
X205527554Y-103427232D01*
X205408630Y-103361577D01*
X205267958Y-103281649D01*
X205097132Y-103182935D01*
X204976000Y-103112424D01*
X204468754Y-102794675D01*
X203983947Y-102447162D01*
X203530272Y-102076616D01*
X203116423Y-101689767D01*
X203045600Y-101617652D01*
X202881096Y-101444646D01*
X202746410Y-101294969D01*
X202633245Y-101158364D01*
X202533301Y-101024577D01*
X202438283Y-100883352D01*
X202391709Y-100809462D01*
X202233435Y-100523135D01*
X202121003Y-100250549D01*
X202054125Y-99993151D01*
X202032518Y-99752388D01*
X202055895Y-99529706D01*
X202123972Y-99326552D01*
X202236464Y-99144371D01*
X202393086Y-98984612D01*
X202593551Y-98848719D01*
X202797033Y-98753516D01*
X203070517Y-98669554D01*
X203378740Y-98617057D01*
X203716740Y-98595805D01*
X204079552Y-98605573D01*
X204462211Y-98646140D01*
X204859753Y-98717283D01*
X205267213Y-98818780D01*
X205445900Y-98872224D01*
X205553622Y-98905970D01*
X205643894Y-98934032D01*
X205705323Y-98952881D01*
X205725300Y-98958766D01*
X205794662Y-98981739D01*
X205899961Y-99022450D01*
X206031984Y-99076802D01*
X206181523Y-99140697D01*
X206339366Y-99210037D01*
X206496305Y-99280725D01*
X206643128Y-99348664D01*
X206770627Y-99409756D01*
X206869589Y-99459903D01*
X206930807Y-99495008D01*
X206931169Y-99495250D01*
X206998182Y-99537070D01*
X207076267Y-99581833D01*
X207084200Y-99586138D01*
X207161337Y-99631432D01*
X207267813Y-99698928D01*
X207392028Y-99780749D01*
X207522382Y-99869019D01*
X207647275Y-99955862D01*
X207755106Y-100033401D01*
X207834277Y-100093760D01*
X207846200Y-100103535D01*
X208075475Y-100307760D01*
X208282802Y-100517277D01*
X208462071Y-100725056D01*
X208607169Y-100924068D01*
X208703003Y-101088900D01*
X208766134Y-101252387D01*
X208800252Y-101423365D01*
X208801391Y-101581405D01*
X208800307Y-101590155D01*
X208761445Y-101744397D01*
X208687567Y-101874056D01*
X208576250Y-101980706D01*
X208425073Y-102065922D01*
X208231612Y-102131279D01*
X207993445Y-102178352D01*
X207871600Y-102193928D01*
X207720262Y-102212138D01*
X207616779Y-102229487D01*
X207558302Y-102248259D01*
X207541984Y-102270740D01*
X207564977Y-102299214D01*
X207624433Y-102335967D01*
X207666940Y-102358160D01*
X207873273Y-102444114D01*
X208110406Y-102511772D01*
X208366231Y-102559944D01*
X208628635Y-102587444D01*
X208885509Y-102593083D01*
X209124742Y-102575675D01*
X209334224Y-102534030D01*
X209365183Y-102524717D01*
X209584979Y-102435213D01*
X209761472Y-102320664D01*
X209894134Y-102181692D01*
X209982436Y-102018921D01*
X210025849Y-101832973D01*
X210030600Y-101740535D01*
X210006059Y-101502711D01*
X209933103Y-101254345D01*
X209812733Y-100996679D01*
X209645947Y-100730953D01*
X209433747Y-100458408D01*
X209177130Y-100180286D01*
X208877099Y-99897828D01*
X208534651Y-99612274D01*
X208150788Y-99324865D01*
X207998600Y-99218397D01*
X207891930Y-99147893D01*
X207775372Y-99075125D01*
X207681100Y-99019818D01*
X207597810Y-98971890D01*
X207528784Y-98929638D01*
X207490600Y-98903418D01*
X207434068Y-98865164D01*
X207338647Y-98809733D01*
X207211759Y-98740828D01*
X207060825Y-98662148D01*
X206893267Y-98577396D01*
X206716509Y-98490271D01*
X206537971Y-98404476D01*
X206365075Y-98323711D01*
X206205245Y-98251677D01*
X206065902Y-98192075D01*
X206055500Y-98187807D01*
X205478504Y-97968354D01*
X204906246Y-97783027D01*
X204343229Y-97632763D01*
X203793950Y-97518503D01*
X203262913Y-97441184D01*
X202754616Y-97401746D01*
X202283600Y-97400727D01*
X201957122Y-97421367D01*
X201667902Y-97457856D01*
X201404101Y-97513007D01*
X201153877Y-97589632D01*
X200905390Y-97690543D01*
X200750234Y-97764910D01*
X200666258Y-97805262D01*
X200601298Y-97832786D01*
X200567080Y-97842607D01*
X200564876Y-97841943D01*
X200573148Y-97817863D01*
X200616066Y-97773934D01*
X200684885Y-97716726D01*
X200770863Y-97652812D01*
X200865256Y-97588762D01*
X200959320Y-97531148D01*
X201026300Y-97495168D01*
X201261857Y-97394257D01*
X201516251Y-97316267D01*
X201795953Y-97260033D01*
X202107436Y-97224389D01*
X202457173Y-97208167D01*
X202626500Y-97206887D01*
X202995999Y-97215784D01*
X202995999Y-97215784D01*
G37*
X202995999Y-97215784D02*
X203359099Y-97241356D01*
X203726981Y-97285094D01*
X204110830Y-97348486D01*
X204521826Y-97433021D01*
X204785500Y-97494363D01*
X204958423Y-97538143D01*
X205152634Y-97590721D01*
X205357668Y-97648955D01*
X205563059Y-97709706D01*
X205758343Y-97769832D01*
X205933054Y-97826192D01*
X206076727Y-97875646D01*
X206157100Y-97906025D01*
X206407631Y-98011869D01*
X206686012Y-98138033D01*
X206977416Y-98277280D01*
X207267013Y-98422374D01*
X207539978Y-98566081D01*
X207754608Y-98685622D01*
X207849310Y-98739695D01*
X207926126Y-98782763D01*
X207975444Y-98809482D01*
X207988498Y-98815600D01*
X208016256Y-98829690D01*
X208078515Y-98868861D01*
X208168585Y-98928456D01*
X208279778Y-99003824D01*
X208405404Y-99090309D01*
X208538775Y-99183258D01*
X208673200Y-99278018D01*
X208801993Y-99369934D01*
X208918462Y-99454354D01*
X209015920Y-99526621D01*
X209069534Y-99567713D01*
X209206934Y-99680709D01*
X209362019Y-99817315D01*
X209527118Y-99969955D01*
X209694561Y-100131053D01*
X209856679Y-100293031D01*
X210005802Y-100448315D01*
X210134258Y-100589327D01*
X210234379Y-100708491D01*
X210264810Y-100748390D01*
X210440040Y-101008465D01*
X210587450Y-101270305D01*
X210702516Y-101524769D01*
X210780711Y-101762715D01*
X210793498Y-101816386D01*
X210808779Y-101925504D01*
X210814891Y-102057710D01*
X210812342Y-102159286D01*
X210775863Y-102377693D01*
X210696855Y-102571951D01*
X210577673Y-102741710D01*
X210420668Y-102886621D01*
X210228193Y-103006332D01*
X210002602Y-103100493D01*
X209746246Y-103168755D01*
X209461480Y-103210767D01*
X209150655Y-103226178D01*
X208816124Y-103214638D01*
X208460241Y-103175797D01*
X208085357Y-103109304D01*
X207693827Y-103014810D01*
X207288002Y-102891963D01*
X206881000Y-102744631D01*
X206758910Y-102694021D01*
X206615394Y-102629994D01*
X206461077Y-102557762D01*
X206306580Y-102482540D01*
X206162528Y-102409541D01*
X206039544Y-102343978D01*
X205948252Y-102291065D01*
X205922338Y-102274162D01*
X205866916Y-102237559D01*
X205784298Y-102184986D01*
X205690750Y-102126771D01*
X205674500Y-102116792D01*
X205467707Y-101979896D01*
X205257815Y-101822370D01*
X205053448Y-101652008D01*
X204863226Y-101476602D01*
X204695771Y-101303944D01*
X204559706Y-101141826D01*
X204495946Y-101051658D01*
X204380054Y-100843982D01*
X204308172Y-100649131D01*
X204280402Y-100469473D01*
X204296845Y-100307378D01*
X204357605Y-100165212D01*
X204452848Y-100053955D01*
X204565633Y-99975275D01*
X204704844Y-99918678D01*
X204877722Y-99882019D01*
X205091506Y-99863155D01*
X205098096Y-99862864D01*
X205246445Y-99859380D01*
X205385318Y-99863398D01*
X205525711Y-99876367D01*
X205678624Y-99899741D01*
X205855053Y-99934971D01*
X206065997Y-99983507D01*
X206130417Y-99999111D01*
X206290970Y-100036375D01*
X206406458Y-100058011D01*
X206480251Y-100063725D01*
X206515714Y-100053219D01*
X206516216Y-100026196D01*
X206485124Y-99982360D01*
X206472993Y-99968938D01*
X206367921Y-99876571D01*
X206221746Y-99777719D01*
X206043061Y-99676417D01*
X205840462Y-99576702D01*
X205622544Y-99482608D01*
X205397901Y-99398172D01*
X205175128Y-99327430D01*
X205021848Y-99287505D01*
X204797769Y-99238498D01*
X204604939Y-99204545D01*
X204426791Y-99183546D01*
X204246757Y-99173402D01*
X204107534Y-99171641D01*
X203854908Y-99181857D01*
X203637041Y-99213315D01*
X203441488Y-99268492D01*
X203284600Y-99335356D01*
X203096788Y-99450955D01*
X202953233Y-99590373D01*
X202853977Y-99752419D01*
X202799061Y-99935897D01*
X202788529Y-100139615D01*
X202822421Y-100362378D01*
X202900780Y-100602993D01*
X203023648Y-100860267D01*
X203191066Y-101133006D01*
X203219895Y-101174992D01*
X203275036Y-101246188D01*
X203358647Y-101343953D01*
X203462765Y-101459461D01*
X203579425Y-101583882D01*
X203700661Y-101708388D01*
X203705518Y-101713271D01*
X203918331Y-101920606D01*
X204126367Y-102108940D01*
X204338399Y-102284967D01*
X204563200Y-102455381D01*
X204809545Y-102626875D01*
X205086206Y-102806142D01*
X205354091Y-102971042D01*
X205498016Y-103055533D01*
X205662493Y-103148003D01*
X205839565Y-103244362D01*
X206021275Y-103340521D01*
X206199666Y-103432387D01*
X206366781Y-103515871D01*
X206514663Y-103586883D01*
X206635355Y-103641331D01*
X206720900Y-103675125D01*
X206728600Y-103677653D01*
X206802565Y-103703453D01*
X206906324Y-103742620D01*
X207022913Y-103788664D01*
X207084200Y-103813676D01*
X207216841Y-103866019D01*
X207373472Y-103924094D01*
X207529465Y-103978897D01*
X207604900Y-104004005D01*
X207731496Y-104045036D01*
X207854348Y-104084831D01*
X207957224Y-104118133D01*
X208011300Y-104135620D01*
X208218526Y-104196791D01*
X208463750Y-104259577D01*
X208734355Y-104321249D01*
X209017723Y-104379079D01*
X209301239Y-104430339D01*
X209560700Y-104470673D01*
X209741332Y-104490671D01*
X209953420Y-104505186D01*
X210185548Y-104514205D01*
X210426304Y-104517717D01*
X210664274Y-104515708D01*
X210888044Y-104508168D01*
X211086201Y-104495084D01*
X211247333Y-104476443D01*
X211271517Y-104472498D01*
X211538802Y-104415642D01*
X211801722Y-104339728D01*
X212043764Y-104250037D01*
X212211494Y-104171798D01*
X212299233Y-104128279D01*
X212369072Y-104098170D01*
X212409725Y-104086163D01*
X212415029Y-104087162D01*
X212411893Y-104111335D01*
X212402764Y-104119231D01*
X212369438Y-104144283D01*
X212311681Y-104190207D01*
X212263799Y-104229191D01*
X212087322Y-104349008D01*
X211868070Y-104455541D01*
X211612950Y-104546109D01*
X211328870Y-104618030D01*
X211199000Y-104642646D01*
X211046169Y-104662834D01*
X210856301Y-104678694D01*
X210643007Y-104689833D01*
X210419897Y-104695857D01*
X210200582Y-104696372D01*
X209998671Y-104690982D01*
X209852800Y-104681633D01*
X209341073Y-104621444D01*
X208803075Y-104529925D01*
X208249985Y-104410070D01*
X207692982Y-104264873D01*
X207143245Y-104097328D01*
X206611952Y-103910429D01*
X206110282Y-103707171D01*
X205953900Y-103637365D01*
X205837903Y-103583679D01*
X205733785Y-103533770D01*
X205633137Y-103483125D01*
X205527554Y-103427232D01*
X205408630Y-103361577D01*
X205267958Y-103281649D01*
X205097132Y-103182935D01*
X204976000Y-103112424D01*
X204468754Y-102794675D01*
X203983947Y-102447162D01*
X203530272Y-102076616D01*
X203116423Y-101689767D01*
X203045600Y-101617652D01*
X202881096Y-101444646D01*
X202746410Y-101294969D01*
X202633245Y-101158364D01*
X202533301Y-101024577D01*
X202438283Y-100883352D01*
X202391709Y-100809462D01*
X202233435Y-100523135D01*
X202121003Y-100250549D01*
X202054125Y-99993151D01*
X202032518Y-99752388D01*
X202055895Y-99529706D01*
X202123972Y-99326552D01*
X202236464Y-99144371D01*
X202393086Y-98984612D01*
X202593551Y-98848719D01*
X202797033Y-98753516D01*
X203070517Y-98669554D01*
X203378740Y-98617057D01*
X203716740Y-98595805D01*
X204079552Y-98605573D01*
X204462211Y-98646140D01*
X204859753Y-98717283D01*
X205267213Y-98818780D01*
X205445900Y-98872224D01*
X205553622Y-98905970D01*
X205643894Y-98934032D01*
X205705323Y-98952881D01*
X205725300Y-98958766D01*
X205794662Y-98981739D01*
X205899961Y-99022450D01*
X206031984Y-99076802D01*
X206181523Y-99140697D01*
X206339366Y-99210037D01*
X206496305Y-99280725D01*
X206643128Y-99348664D01*
X206770627Y-99409756D01*
X206869589Y-99459903D01*
X206930807Y-99495008D01*
X206931169Y-99495250D01*
X206998182Y-99537070D01*
X207076267Y-99581833D01*
X207084200Y-99586138D01*
X207161337Y-99631432D01*
X207267813Y-99698928D01*
X207392028Y-99780749D01*
X207522382Y-99869019D01*
X207647275Y-99955862D01*
X207755106Y-100033401D01*
X207834277Y-100093760D01*
X207846200Y-100103535D01*
X208075475Y-100307760D01*
X208282802Y-100517277D01*
X208462071Y-100725056D01*
X208607169Y-100924068D01*
X208703003Y-101088900D01*
X208766134Y-101252387D01*
X208800252Y-101423365D01*
X208801391Y-101581405D01*
X208800307Y-101590155D01*
X208761445Y-101744397D01*
X208687567Y-101874056D01*
X208576250Y-101980706D01*
X208425073Y-102065922D01*
X208231612Y-102131279D01*
X207993445Y-102178352D01*
X207871600Y-102193928D01*
X207720262Y-102212138D01*
X207616779Y-102229487D01*
X207558302Y-102248259D01*
X207541984Y-102270740D01*
X207564977Y-102299214D01*
X207624433Y-102335967D01*
X207666940Y-102358160D01*
X207873273Y-102444114D01*
X208110406Y-102511772D01*
X208366231Y-102559944D01*
X208628635Y-102587444D01*
X208885509Y-102593083D01*
X209124742Y-102575675D01*
X209334224Y-102534030D01*
X209365183Y-102524717D01*
X209584979Y-102435213D01*
X209761472Y-102320664D01*
X209894134Y-102181692D01*
X209982436Y-102018921D01*
X210025849Y-101832973D01*
X210030600Y-101740535D01*
X210006059Y-101502711D01*
X209933103Y-101254345D01*
X209812733Y-100996679D01*
X209645947Y-100730953D01*
X209433747Y-100458408D01*
X209177130Y-100180286D01*
X208877099Y-99897828D01*
X208534651Y-99612274D01*
X208150788Y-99324865D01*
X207998600Y-99218397D01*
X207891930Y-99147893D01*
X207775372Y-99075125D01*
X207681100Y-99019818D01*
X207597810Y-98971890D01*
X207528784Y-98929638D01*
X207490600Y-98903418D01*
X207434068Y-98865164D01*
X207338647Y-98809733D01*
X207211759Y-98740828D01*
X207060825Y-98662148D01*
X206893267Y-98577396D01*
X206716509Y-98490271D01*
X206537971Y-98404476D01*
X206365075Y-98323711D01*
X206205245Y-98251677D01*
X206065902Y-98192075D01*
X206055500Y-98187807D01*
X205478504Y-97968354D01*
X204906246Y-97783027D01*
X204343229Y-97632763D01*
X203793950Y-97518503D01*
X203262913Y-97441184D01*
X202754616Y-97401746D01*
X202283600Y-97400727D01*
X201957122Y-97421367D01*
X201667902Y-97457856D01*
X201404101Y-97513007D01*
X201153877Y-97589632D01*
X200905390Y-97690543D01*
X200750234Y-97764910D01*
X200666258Y-97805262D01*
X200601298Y-97832786D01*
X200567080Y-97842607D01*
X200564876Y-97841943D01*
X200573148Y-97817863D01*
X200616066Y-97773934D01*
X200684885Y-97716726D01*
X200770863Y-97652812D01*
X200865256Y-97588762D01*
X200959320Y-97531148D01*
X201026300Y-97495168D01*
X201261857Y-97394257D01*
X201516251Y-97316267D01*
X201795953Y-97260033D01*
X202107436Y-97224389D01*
X202457173Y-97208167D01*
X202626500Y-97206887D01*
X202995999Y-97215784D01*
D13*
X200830000Y-58270000D02*
X200830000Y-60930000D01*
X200830000Y-58270000D02*
X193150000Y-58270000D01*
X193150000Y-58270000D02*
X193150000Y-60930000D01*
X200830000Y-60930000D02*
X193150000Y-60930000D01*
X203430000Y-60930000D02*
X202100000Y-60930000D01*
X203430000Y-59600000D02*
X203430000Y-60930000D01*
D14*
X223853301Y-135942547D02*
X223853301Y-134736047D01*
X224542730Y-135942547D01*
X224542730Y-134736047D01*
X225634325Y-134736047D02*
X225404516Y-134736047D01*
X225289611Y-134793500D01*
X225232159Y-134850952D01*
X225117254Y-135023309D01*
X225059801Y-135253119D01*
X225059801Y-135712738D01*
X225117254Y-135827642D01*
X225174706Y-135885095D01*
X225289611Y-135942547D01*
X225519420Y-135942547D01*
X225634325Y-135885095D01*
X225691778Y-135827642D01*
X225749230Y-135712738D01*
X225749230Y-135425476D01*
X225691778Y-135310571D01*
X225634325Y-135253119D01*
X225519420Y-135195666D01*
X225289611Y-135195666D01*
X225174706Y-135253119D01*
X225117254Y-135310571D01*
X225059801Y-135425476D01*
X225738397Y-149736047D02*
X226542730Y-149736047D01*
X225738397Y-150942547D01*
X226542730Y-150942547D01*
X227002349Y-150942547D02*
X227002349Y-149736047D01*
X227404516Y-150597833D01*
X227806682Y-149736047D01*
X227806682Y-150942547D01*
X229013182Y-150942547D02*
X228323754Y-150942547D01*
X228668468Y-150942547D02*
X228668468Y-149736047D01*
X228553563Y-149908404D01*
X228438659Y-150023309D01*
X228323754Y-150080761D01*
X229760063Y-149736047D02*
X229874968Y-149736047D01*
X229989873Y-149793500D01*
X230047325Y-149850952D01*
X230104778Y-149965857D01*
X230162230Y-150195666D01*
X230162230Y-150482928D01*
X230104778Y-150712738D01*
X230047325Y-150827642D01*
X229989873Y-150885095D01*
X229874968Y-150942547D01*
X229760063Y-150942547D01*
X229645159Y-150885095D01*
X229587706Y-150827642D01*
X229530254Y-150712738D01*
X229472801Y-150482928D01*
X229472801Y-150195666D01*
X229530254Y-149965857D01*
X229587706Y-149850952D01*
X229645159Y-149793500D01*
X229760063Y-149736047D01*
X230851659Y-150253119D02*
X230736754Y-150195666D01*
X230679301Y-150138214D01*
X230621849Y-150023309D01*
X230621849Y-149965857D01*
X230679301Y-149850952D01*
X230736754Y-149793500D01*
X230851659Y-149736047D01*
X231081468Y-149736047D01*
X231196373Y-149793500D01*
X231253825Y-149850952D01*
X231311278Y-149965857D01*
X231311278Y-150023309D01*
X231253825Y-150138214D01*
X231196373Y-150195666D01*
X231081468Y-150253119D01*
X230851659Y-150253119D01*
X230736754Y-150310571D01*
X230679301Y-150368023D01*
X230621849Y-150482928D01*
X230621849Y-150712738D01*
X230679301Y-150827642D01*
X230736754Y-150885095D01*
X230851659Y-150942547D01*
X231081468Y-150942547D01*
X231196373Y-150885095D01*
X231253825Y-150827642D01*
X231311278Y-150712738D01*
X231311278Y-150482928D01*
X231253825Y-150368023D01*
X231196373Y-150310571D01*
X231081468Y-150253119D01*
X232058159Y-149736047D02*
X232173063Y-149736047D01*
X232287968Y-149793500D01*
X232345420Y-149850952D01*
X232402873Y-149965857D01*
X232460325Y-150195666D01*
X232460325Y-150482928D01*
X232402873Y-150712738D01*
X232345420Y-150827642D01*
X232287968Y-150885095D01*
X232173063Y-150942547D01*
X232058159Y-150942547D01*
X231943254Y-150885095D01*
X231885801Y-150827642D01*
X231828349Y-150712738D01*
X231770897Y-150482928D01*
X231770897Y-150195666D01*
X231828349Y-149965857D01*
X231885801Y-149850952D01*
X231943254Y-149793500D01*
X232058159Y-149736047D01*
X202353301Y-135942547D02*
X202353301Y-134736047D01*
X203042730Y-135942547D01*
X203042730Y-134736047D01*
X204191778Y-134736047D02*
X203617254Y-134736047D01*
X203559801Y-135310571D01*
X203617254Y-135253119D01*
X203732159Y-135195666D01*
X204019420Y-135195666D01*
X204134325Y-135253119D01*
X204191778Y-135310571D01*
X204249230Y-135425476D01*
X204249230Y-135712738D01*
X204191778Y-135827642D01*
X204134325Y-135885095D01*
X204019420Y-135942547D01*
X203732159Y-135942547D01*
X203617254Y-135885095D01*
X203559801Y-135827642D01*
X204238397Y-149736047D02*
X205042730Y-149736047D01*
X204238397Y-150942547D01*
X205042730Y-150942547D01*
X205502349Y-150942547D02*
X205502349Y-149736047D01*
X205904516Y-150597833D01*
X206306682Y-149736047D01*
X206306682Y-150942547D01*
X207513182Y-150942547D02*
X206823754Y-150942547D01*
X207168468Y-150942547D02*
X207168468Y-149736047D01*
X207053563Y-149908404D01*
X206938659Y-150023309D01*
X206823754Y-150080761D01*
X208260063Y-149736047D02*
X208374968Y-149736047D01*
X208489873Y-149793500D01*
X208547325Y-149850952D01*
X208604778Y-149965857D01*
X208662230Y-150195666D01*
X208662230Y-150482928D01*
X208604778Y-150712738D01*
X208547325Y-150827642D01*
X208489873Y-150885095D01*
X208374968Y-150942547D01*
X208260063Y-150942547D01*
X208145159Y-150885095D01*
X208087706Y-150827642D01*
X208030254Y-150712738D01*
X207972801Y-150482928D01*
X207972801Y-150195666D01*
X208030254Y-149965857D01*
X208087706Y-149850952D01*
X208145159Y-149793500D01*
X208260063Y-149736047D01*
X209351659Y-150253119D02*
X209236754Y-150195666D01*
X209179301Y-150138214D01*
X209121849Y-150023309D01*
X209121849Y-149965857D01*
X209179301Y-149850952D01*
X209236754Y-149793500D01*
X209351659Y-149736047D01*
X209581468Y-149736047D01*
X209696373Y-149793500D01*
X209753825Y-149850952D01*
X209811278Y-149965857D01*
X209811278Y-150023309D01*
X209753825Y-150138214D01*
X209696373Y-150195666D01*
X209581468Y-150253119D01*
X209351659Y-150253119D01*
X209236754Y-150310571D01*
X209179301Y-150368023D01*
X209121849Y-150482928D01*
X209121849Y-150712738D01*
X209179301Y-150827642D01*
X209236754Y-150885095D01*
X209351659Y-150942547D01*
X209581468Y-150942547D01*
X209696373Y-150885095D01*
X209753825Y-150827642D01*
X209811278Y-150712738D01*
X209811278Y-150482928D01*
X209753825Y-150368023D01*
X209696373Y-150310571D01*
X209581468Y-150253119D01*
X210558159Y-149736047D02*
X210673063Y-149736047D01*
X210787968Y-149793500D01*
X210845420Y-149850952D01*
X210902873Y-149965857D01*
X210960325Y-150195666D01*
X210960325Y-150482928D01*
X210902873Y-150712738D01*
X210845420Y-150827642D01*
X210787968Y-150885095D01*
X210673063Y-150942547D01*
X210558159Y-150942547D01*
X210443254Y-150885095D01*
X210385801Y-150827642D01*
X210328349Y-150712738D01*
X210270897Y-150482928D01*
X210270897Y-150195666D01*
X210328349Y-149965857D01*
X210385801Y-149850952D01*
X210443254Y-149793500D01*
X210558159Y-149736047D01*
X171353301Y-135942547D02*
X171353301Y-134736047D01*
X172042730Y-135942547D01*
X172042730Y-134736047D01*
X173134325Y-135138214D02*
X173134325Y-135942547D01*
X172847063Y-134678595D02*
X172559801Y-135540380D01*
X173306682Y-135540380D01*
X173238397Y-149736047D02*
X174042730Y-149736047D01*
X173238397Y-150942547D01*
X174042730Y-150942547D01*
X174502349Y-150942547D02*
X174502349Y-149736047D01*
X174904516Y-150597833D01*
X175306682Y-149736047D01*
X175306682Y-150942547D01*
X176513182Y-150942547D02*
X175823754Y-150942547D01*
X176168468Y-150942547D02*
X176168468Y-149736047D01*
X176053563Y-149908404D01*
X175938659Y-150023309D01*
X175823754Y-150080761D01*
X177260063Y-149736047D02*
X177374968Y-149736047D01*
X177489873Y-149793500D01*
X177547325Y-149850952D01*
X177604778Y-149965857D01*
X177662230Y-150195666D01*
X177662230Y-150482928D01*
X177604778Y-150712738D01*
X177547325Y-150827642D01*
X177489873Y-150885095D01*
X177374968Y-150942547D01*
X177260063Y-150942547D01*
X177145159Y-150885095D01*
X177087706Y-150827642D01*
X177030254Y-150712738D01*
X176972801Y-150482928D01*
X176972801Y-150195666D01*
X177030254Y-149965857D01*
X177087706Y-149850952D01*
X177145159Y-149793500D01*
X177260063Y-149736047D01*
X178351659Y-150253119D02*
X178236754Y-150195666D01*
X178179301Y-150138214D01*
X178121849Y-150023309D01*
X178121849Y-149965857D01*
X178179301Y-149850952D01*
X178236754Y-149793500D01*
X178351659Y-149736047D01*
X178581468Y-149736047D01*
X178696373Y-149793500D01*
X178753825Y-149850952D01*
X178811278Y-149965857D01*
X178811278Y-150023309D01*
X178753825Y-150138214D01*
X178696373Y-150195666D01*
X178581468Y-150253119D01*
X178351659Y-150253119D01*
X178236754Y-150310571D01*
X178179301Y-150368023D01*
X178121849Y-150482928D01*
X178121849Y-150712738D01*
X178179301Y-150827642D01*
X178236754Y-150885095D01*
X178351659Y-150942547D01*
X178581468Y-150942547D01*
X178696373Y-150885095D01*
X178753825Y-150827642D01*
X178811278Y-150712738D01*
X178811278Y-150482928D01*
X178753825Y-150368023D01*
X178696373Y-150310571D01*
X178581468Y-150253119D01*
X179558159Y-149736047D02*
X179673063Y-149736047D01*
X179787968Y-149793500D01*
X179845420Y-149850952D01*
X179902873Y-149965857D01*
X179960325Y-150195666D01*
X179960325Y-150482928D01*
X179902873Y-150712738D01*
X179845420Y-150827642D01*
X179787968Y-150885095D01*
X179673063Y-150942547D01*
X179558159Y-150942547D01*
X179443254Y-150885095D01*
X179385801Y-150827642D01*
X179328349Y-150712738D01*
X179270897Y-150482928D01*
X179270897Y-150195666D01*
X179328349Y-149965857D01*
X179385801Y-149850952D01*
X179443254Y-149793500D01*
X179558159Y-149736047D01*
X149853301Y-135942547D02*
X149853301Y-134736047D01*
X150542730Y-135942547D01*
X150542730Y-134736047D01*
X151002349Y-134736047D02*
X151749230Y-134736047D01*
X151347063Y-135195666D01*
X151519420Y-135195666D01*
X151634325Y-135253119D01*
X151691778Y-135310571D01*
X151749230Y-135425476D01*
X151749230Y-135712738D01*
X151691778Y-135827642D01*
X151634325Y-135885095D01*
X151519420Y-135942547D01*
X151174706Y-135942547D01*
X151059801Y-135885095D01*
X151002349Y-135827642D01*
X151738397Y-149736047D02*
X152542730Y-149736047D01*
X151738397Y-150942547D01*
X152542730Y-150942547D01*
X153002349Y-150942547D02*
X153002349Y-149736047D01*
X153404516Y-150597833D01*
X153806682Y-149736047D01*
X153806682Y-150942547D01*
X155013182Y-150942547D02*
X154323754Y-150942547D01*
X154668468Y-150942547D02*
X154668468Y-149736047D01*
X154553563Y-149908404D01*
X154438659Y-150023309D01*
X154323754Y-150080761D01*
X155760063Y-149736047D02*
X155874968Y-149736047D01*
X155989873Y-149793500D01*
X156047325Y-149850952D01*
X156104778Y-149965857D01*
X156162230Y-150195666D01*
X156162230Y-150482928D01*
X156104778Y-150712738D01*
X156047325Y-150827642D01*
X155989873Y-150885095D01*
X155874968Y-150942547D01*
X155760063Y-150942547D01*
X155645159Y-150885095D01*
X155587706Y-150827642D01*
X155530254Y-150712738D01*
X155472801Y-150482928D01*
X155472801Y-150195666D01*
X155530254Y-149965857D01*
X155587706Y-149850952D01*
X155645159Y-149793500D01*
X155760063Y-149736047D01*
X156851659Y-150253119D02*
X156736754Y-150195666D01*
X156679301Y-150138214D01*
X156621849Y-150023309D01*
X156621849Y-149965857D01*
X156679301Y-149850952D01*
X156736754Y-149793500D01*
X156851659Y-149736047D01*
X157081468Y-149736047D01*
X157196373Y-149793500D01*
X157253825Y-149850952D01*
X157311278Y-149965857D01*
X157311278Y-150023309D01*
X157253825Y-150138214D01*
X157196373Y-150195666D01*
X157081468Y-150253119D01*
X156851659Y-150253119D01*
X156736754Y-150310571D01*
X156679301Y-150368023D01*
X156621849Y-150482928D01*
X156621849Y-150712738D01*
X156679301Y-150827642D01*
X156736754Y-150885095D01*
X156851659Y-150942547D01*
X157081468Y-150942547D01*
X157196373Y-150885095D01*
X157253825Y-150827642D01*
X157311278Y-150712738D01*
X157311278Y-150482928D01*
X157253825Y-150368023D01*
X157196373Y-150310571D01*
X157081468Y-150253119D01*
X158058159Y-149736047D02*
X158173063Y-149736047D01*
X158287968Y-149793500D01*
X158345420Y-149850952D01*
X158402873Y-149965857D01*
X158460325Y-150195666D01*
X158460325Y-150482928D01*
X158402873Y-150712738D01*
X158345420Y-150827642D01*
X158287968Y-150885095D01*
X158173063Y-150942547D01*
X158058159Y-150942547D01*
X157943254Y-150885095D01*
X157885801Y-150827642D01*
X157828349Y-150712738D01*
X157770897Y-150482928D01*
X157770897Y-150195666D01*
X157828349Y-149965857D01*
X157885801Y-149850952D01*
X157943254Y-149793500D01*
X158058159Y-149736047D01*
X119353301Y-135942547D02*
X119353301Y-134736047D01*
X120042730Y-135942547D01*
X120042730Y-134736047D01*
X120559801Y-134850952D02*
X120617254Y-134793500D01*
X120732159Y-134736047D01*
X121019420Y-134736047D01*
X121134325Y-134793500D01*
X121191778Y-134850952D01*
X121249230Y-134965857D01*
X121249230Y-135080761D01*
X121191778Y-135253119D01*
X120502349Y-135942547D01*
X121249230Y-135942547D01*
X121238397Y-149736047D02*
X122042730Y-149736047D01*
X121238397Y-150942547D01*
X122042730Y-150942547D01*
X122502349Y-150942547D02*
X122502349Y-149736047D01*
X122904516Y-150597833D01*
X123306682Y-149736047D01*
X123306682Y-150942547D01*
X124513182Y-150942547D02*
X123823754Y-150942547D01*
X124168468Y-150942547D02*
X124168468Y-149736047D01*
X124053563Y-149908404D01*
X123938659Y-150023309D01*
X123823754Y-150080761D01*
X125260063Y-149736047D02*
X125374968Y-149736047D01*
X125489873Y-149793500D01*
X125547325Y-149850952D01*
X125604778Y-149965857D01*
X125662230Y-150195666D01*
X125662230Y-150482928D01*
X125604778Y-150712738D01*
X125547325Y-150827642D01*
X125489873Y-150885095D01*
X125374968Y-150942547D01*
X125260063Y-150942547D01*
X125145159Y-150885095D01*
X125087706Y-150827642D01*
X125030254Y-150712738D01*
X124972801Y-150482928D01*
X124972801Y-150195666D01*
X125030254Y-149965857D01*
X125087706Y-149850952D01*
X125145159Y-149793500D01*
X125260063Y-149736047D01*
X126351659Y-150253119D02*
X126236754Y-150195666D01*
X126179301Y-150138214D01*
X126121849Y-150023309D01*
X126121849Y-149965857D01*
X126179301Y-149850952D01*
X126236754Y-149793500D01*
X126351659Y-149736047D01*
X126581468Y-149736047D01*
X126696373Y-149793500D01*
X126753825Y-149850952D01*
X126811278Y-149965857D01*
X126811278Y-150023309D01*
X126753825Y-150138214D01*
X126696373Y-150195666D01*
X126581468Y-150253119D01*
X126351659Y-150253119D01*
X126236754Y-150310571D01*
X126179301Y-150368023D01*
X126121849Y-150482928D01*
X126121849Y-150712738D01*
X126179301Y-150827642D01*
X126236754Y-150885095D01*
X126351659Y-150942547D01*
X126581468Y-150942547D01*
X126696373Y-150885095D01*
X126753825Y-150827642D01*
X126811278Y-150712738D01*
X126811278Y-150482928D01*
X126753825Y-150368023D01*
X126696373Y-150310571D01*
X126581468Y-150253119D01*
X127558159Y-149736047D02*
X127673063Y-149736047D01*
X127787968Y-149793500D01*
X127845420Y-149850952D01*
X127902873Y-149965857D01*
X127960325Y-150195666D01*
X127960325Y-150482928D01*
X127902873Y-150712738D01*
X127845420Y-150827642D01*
X127787968Y-150885095D01*
X127673063Y-150942547D01*
X127558159Y-150942547D01*
X127443254Y-150885095D01*
X127385801Y-150827642D01*
X127328349Y-150712738D01*
X127270897Y-150482928D01*
X127270897Y-150195666D01*
X127328349Y-149965857D01*
X127385801Y-149850952D01*
X127443254Y-149793500D01*
X127558159Y-149736047D01*
X97853301Y-135942547D02*
X97853301Y-134736047D01*
X98542730Y-135942547D01*
X98542730Y-134736047D01*
X99749230Y-135942547D02*
X99059801Y-135942547D01*
X99404516Y-135942547D02*
X99404516Y-134736047D01*
X99289611Y-134908404D01*
X99174706Y-135023309D01*
X99059801Y-135080761D01*
X99738397Y-149736047D02*
X100542730Y-149736047D01*
X99738397Y-150942547D01*
X100542730Y-150942547D01*
X101002349Y-150942547D02*
X101002349Y-149736047D01*
X101404516Y-150597833D01*
X101806682Y-149736047D01*
X101806682Y-150942547D01*
X103013182Y-150942547D02*
X102323754Y-150942547D01*
X102668468Y-150942547D02*
X102668468Y-149736047D01*
X102553563Y-149908404D01*
X102438659Y-150023309D01*
X102323754Y-150080761D01*
X103760063Y-149736047D02*
X103874968Y-149736047D01*
X103989873Y-149793500D01*
X104047325Y-149850952D01*
X104104778Y-149965857D01*
X104162230Y-150195666D01*
X104162230Y-150482928D01*
X104104778Y-150712738D01*
X104047325Y-150827642D01*
X103989873Y-150885095D01*
X103874968Y-150942547D01*
X103760063Y-150942547D01*
X103645159Y-150885095D01*
X103587706Y-150827642D01*
X103530254Y-150712738D01*
X103472801Y-150482928D01*
X103472801Y-150195666D01*
X103530254Y-149965857D01*
X103587706Y-149850952D01*
X103645159Y-149793500D01*
X103760063Y-149736047D01*
X104851659Y-150253119D02*
X104736754Y-150195666D01*
X104679301Y-150138214D01*
X104621849Y-150023309D01*
X104621849Y-149965857D01*
X104679301Y-149850952D01*
X104736754Y-149793500D01*
X104851659Y-149736047D01*
X105081468Y-149736047D01*
X105196373Y-149793500D01*
X105253825Y-149850952D01*
X105311278Y-149965857D01*
X105311278Y-150023309D01*
X105253825Y-150138214D01*
X105196373Y-150195666D01*
X105081468Y-150253119D01*
X104851659Y-150253119D01*
X104736754Y-150310571D01*
X104679301Y-150368023D01*
X104621849Y-150482928D01*
X104621849Y-150712738D01*
X104679301Y-150827642D01*
X104736754Y-150885095D01*
X104851659Y-150942547D01*
X105081468Y-150942547D01*
X105196373Y-150885095D01*
X105253825Y-150827642D01*
X105311278Y-150712738D01*
X105311278Y-150482928D01*
X105253825Y-150368023D01*
X105196373Y-150310571D01*
X105081468Y-150253119D01*
X106058159Y-149736047D02*
X106173063Y-149736047D01*
X106287968Y-149793500D01*
X106345420Y-149850952D01*
X106402873Y-149965857D01*
X106460325Y-150195666D01*
X106460325Y-150482928D01*
X106402873Y-150712738D01*
X106345420Y-150827642D01*
X106287968Y-150885095D01*
X106173063Y-150942547D01*
X106058159Y-150942547D01*
X105943254Y-150885095D01*
X105885801Y-150827642D01*
X105828349Y-150712738D01*
X105770897Y-150482928D01*
X105770897Y-150195666D01*
X105828349Y-149965857D01*
X105885801Y-149850952D01*
X105943254Y-149793500D01*
X106058159Y-149736047D01*
D11*
X114952380Y-127261904D02*
X115761904Y-127261904D01*
X115857142Y-127214285D01*
X115904761Y-127166666D01*
X115952380Y-127071428D01*
X115952380Y-126880952D01*
X115904761Y-126785714D01*
X115857142Y-126738095D01*
X115761904Y-126690476D01*
X114952380Y-126690476D01*
X114952380Y-125738095D02*
X114952380Y-126214285D01*
X115428571Y-126261904D01*
X115380952Y-126214285D01*
X115333333Y-126119047D01*
X115333333Y-125880952D01*
X115380952Y-125785714D01*
X115428571Y-125738095D01*
X115523809Y-125690476D01*
X115761904Y-125690476D01*
X115857142Y-125738095D01*
X115904761Y-125785714D01*
X115952380Y-125880952D01*
X115952380Y-126119047D01*
X115904761Y-126214285D01*
X115857142Y-126261904D01*
X158228474Y-65681677D02*
X158228474Y-66491201D01*
X158276093Y-66586439D01*
X158323712Y-66634058D01*
X158418950Y-66681677D01*
X158609426Y-66681677D01*
X158704664Y-66634058D01*
X158752283Y-66586439D01*
X158799902Y-66491201D01*
X158799902Y-65681677D01*
X159228474Y-65776916D02*
X159276093Y-65729297D01*
X159371331Y-65681677D01*
X159609426Y-65681677D01*
X159704664Y-65729297D01*
X159752283Y-65776916D01*
X159799902Y-65872154D01*
X159799902Y-65967392D01*
X159752283Y-66110249D01*
X159180855Y-66681677D01*
X159799902Y-66681677D01*
X127020759Y-98500154D02*
X126544569Y-98833487D01*
X127020759Y-99071582D02*
X126020759Y-99071582D01*
X126020759Y-98690630D01*
X126068379Y-98595392D01*
X126115998Y-98547773D01*
X126211236Y-98500154D01*
X126354093Y-98500154D01*
X126449331Y-98547773D01*
X126496950Y-98595392D01*
X126544569Y-98690630D01*
X126544569Y-99071582D01*
X127020759Y-97547773D02*
X127020759Y-98119201D01*
X127020759Y-97833487D02*
X126020759Y-97833487D01*
X126163617Y-97928725D01*
X126258855Y-98023963D01*
X126306474Y-98119201D01*
X126020759Y-96643011D02*
X126020759Y-97119201D01*
X126496950Y-97166820D01*
X126449331Y-97119201D01*
X126401712Y-97023963D01*
X126401712Y-96785868D01*
X126449331Y-96690630D01*
X126496950Y-96643011D01*
X126592188Y-96595392D01*
X126830283Y-96595392D01*
X126925521Y-96643011D01*
X126973140Y-96690630D01*
X127020759Y-96785868D01*
X127020759Y-97023963D01*
X126973140Y-97119201D01*
X126925521Y-97166820D01*
X163833333Y-65407142D02*
X163785714Y-65454761D01*
X163642857Y-65502380D01*
X163547619Y-65502380D01*
X163404761Y-65454761D01*
X163309523Y-65359523D01*
X163261904Y-65264285D01*
X163214285Y-65073809D01*
X163214285Y-64930952D01*
X163261904Y-64740476D01*
X163309523Y-64645238D01*
X163404761Y-64550000D01*
X163547619Y-64502380D01*
X163642857Y-64502380D01*
X163785714Y-64550000D01*
X163833333Y-64597619D01*
X164214285Y-64597619D02*
X164261904Y-64550000D01*
X164357142Y-64502380D01*
X164595238Y-64502380D01*
X164690476Y-64550000D01*
X164738095Y-64597619D01*
X164785714Y-64692857D01*
X164785714Y-64788095D01*
X164738095Y-64930952D01*
X164166666Y-65502380D01*
X164785714Y-65502380D01*
X236333333Y-67857142D02*
X236285714Y-67904761D01*
X236142857Y-67952380D01*
X236047619Y-67952380D01*
X235904761Y-67904761D01*
X235809523Y-67809523D01*
X235761904Y-67714285D01*
X235714285Y-67523809D01*
X235714285Y-67380952D01*
X235761904Y-67190476D01*
X235809523Y-67095238D01*
X235904761Y-67000000D01*
X236047619Y-66952380D01*
X236142857Y-66952380D01*
X236285714Y-67000000D01*
X236333333Y-67047619D01*
X236666666Y-66952380D02*
X237285714Y-66952380D01*
X236952380Y-67333333D01*
X237095238Y-67333333D01*
X237190476Y-67380952D01*
X237238095Y-67428571D01*
X237285714Y-67523809D01*
X237285714Y-67761904D01*
X237238095Y-67857142D01*
X237190476Y-67904761D01*
X237095238Y-67952380D01*
X236809523Y-67952380D01*
X236714285Y-67904761D01*
X236666666Y-67857142D01*
X221144036Y-71467521D02*
X221096417Y-71515140D01*
X220953560Y-71562759D01*
X220858322Y-71562759D01*
X220715464Y-71515140D01*
X220620226Y-71419902D01*
X220572607Y-71324664D01*
X220524988Y-71134188D01*
X220524988Y-70991331D01*
X220572607Y-70800855D01*
X220620226Y-70705617D01*
X220715464Y-70610379D01*
X220858322Y-70562759D01*
X220953560Y-70562759D01*
X221096417Y-70610379D01*
X221144036Y-70657998D01*
X222048798Y-70562759D02*
X221572607Y-70562759D01*
X221524988Y-71038950D01*
X221572607Y-70991331D01*
X221667845Y-70943712D01*
X221905941Y-70943712D01*
X222001179Y-70991331D01*
X222048798Y-71038950D01*
X222096417Y-71134188D01*
X222096417Y-71372283D01*
X222048798Y-71467521D01*
X222001179Y-71515140D01*
X221905941Y-71562759D01*
X221667845Y-71562759D01*
X221572607Y-71515140D01*
X221524988Y-71467521D01*
X153452380Y-71166666D02*
X152976190Y-71500000D01*
X153452380Y-71738095D02*
X152452380Y-71738095D01*
X152452380Y-71357142D01*
X152500000Y-71261904D01*
X152547619Y-71214285D01*
X152642857Y-71166666D01*
X152785714Y-71166666D01*
X152880952Y-71214285D01*
X152928571Y-71261904D01*
X152976190Y-71357142D01*
X152976190Y-71738095D01*
X153452380Y-70214285D02*
X153452380Y-70785714D01*
X153452380Y-70500000D02*
X152452380Y-70500000D01*
X152595238Y-70595238D01*
X152690476Y-70690476D01*
X152738095Y-70785714D01*
X231952380Y-94666666D02*
X231476190Y-95000000D01*
X231952380Y-95238095D02*
X230952380Y-95238095D01*
X230952380Y-94857142D01*
X231000000Y-94761904D01*
X231047619Y-94714285D01*
X231142857Y-94666666D01*
X231285714Y-94666666D01*
X231380952Y-94714285D01*
X231428571Y-94761904D01*
X231476190Y-94857142D01*
X231476190Y-95238095D01*
X231047619Y-94285714D02*
X231000000Y-94238095D01*
X230952380Y-94142857D01*
X230952380Y-93904761D01*
X231000000Y-93809523D01*
X231047619Y-93761904D01*
X231142857Y-93714285D01*
X231238095Y-93714285D01*
X231380952Y-93761904D01*
X231952380Y-94333333D01*
X231952380Y-93714285D01*
X229952380Y-94666666D02*
X229476190Y-95000000D01*
X229952380Y-95238095D02*
X228952380Y-95238095D01*
X228952380Y-94857142D01*
X229000000Y-94761904D01*
X229047619Y-94714285D01*
X229142857Y-94666666D01*
X229285714Y-94666666D01*
X229380952Y-94714285D01*
X229428571Y-94761904D01*
X229476190Y-94857142D01*
X229476190Y-95238095D01*
X228952380Y-94333333D02*
X228952380Y-93714285D01*
X229333333Y-94047619D01*
X229333333Y-93904761D01*
X229380952Y-93809523D01*
X229428571Y-93761904D01*
X229523809Y-93714285D01*
X229761904Y-93714285D01*
X229857142Y-93761904D01*
X229904761Y-93809523D01*
X229952380Y-93904761D01*
X229952380Y-94190476D01*
X229904761Y-94285714D01*
X229857142Y-94333333D01*
X232320036Y-71054759D02*
X231986703Y-70578569D01*
X231748607Y-71054759D02*
X231748607Y-70054759D01*
X232129560Y-70054759D01*
X232224798Y-70102379D01*
X232272417Y-70149998D01*
X232320036Y-70245236D01*
X232320036Y-70388093D01*
X232272417Y-70483331D01*
X232224798Y-70530950D01*
X232129560Y-70578569D01*
X231748607Y-70578569D01*
X233177179Y-70388093D02*
X233177179Y-71054759D01*
X232939083Y-70007140D02*
X232700988Y-70721426D01*
X233320036Y-70721426D01*
X236333333Y-66452380D02*
X236000000Y-65976190D01*
X235761904Y-66452380D02*
X235761904Y-65452380D01*
X236142857Y-65452380D01*
X236238095Y-65500000D01*
X236285714Y-65547619D01*
X236333333Y-65642857D01*
X236333333Y-65785714D01*
X236285714Y-65880952D01*
X236238095Y-65928571D01*
X236142857Y-65976190D01*
X235761904Y-65976190D01*
X237238095Y-65452380D02*
X236761904Y-65452380D01*
X236714285Y-65928571D01*
X236761904Y-65880952D01*
X236857142Y-65833333D01*
X237095238Y-65833333D01*
X237190476Y-65880952D01*
X237238095Y-65928571D01*
X237285714Y-66023809D01*
X237285714Y-66261904D01*
X237238095Y-66357142D01*
X237190476Y-66404761D01*
X237095238Y-66452380D01*
X236857142Y-66452380D01*
X236761904Y-66404761D01*
X236714285Y-66357142D01*
X226224036Y-93078759D02*
X225890703Y-92602569D01*
X225652607Y-93078759D02*
X225652607Y-92078759D01*
X226033560Y-92078759D01*
X226128798Y-92126379D01*
X226176417Y-92173998D01*
X226224036Y-92269236D01*
X226224036Y-92412093D01*
X226176417Y-92507331D01*
X226128798Y-92554950D01*
X226033560Y-92602569D01*
X225652607Y-92602569D01*
X227081179Y-92078759D02*
X226890703Y-92078759D01*
X226795464Y-92126379D01*
X226747845Y-92173998D01*
X226652607Y-92316855D01*
X226604988Y-92507331D01*
X226604988Y-92888283D01*
X226652607Y-92983521D01*
X226700226Y-93031140D01*
X226795464Y-93078759D01*
X226985941Y-93078759D01*
X227081179Y-93031140D01*
X227128798Y-92983521D01*
X227176417Y-92888283D01*
X227176417Y-92650188D01*
X227128798Y-92554950D01*
X227081179Y-92507331D01*
X226985941Y-92459712D01*
X226795464Y-92459712D01*
X226700226Y-92507331D01*
X226652607Y-92554950D01*
X226604988Y-92650188D01*
X230833333Y-65952380D02*
X230500000Y-65476190D01*
X230261904Y-65952380D02*
X230261904Y-64952380D01*
X230642857Y-64952380D01*
X230738095Y-65000000D01*
X230785714Y-65047619D01*
X230833333Y-65142857D01*
X230833333Y-65285714D01*
X230785714Y-65380952D01*
X230738095Y-65428571D01*
X230642857Y-65476190D01*
X230261904Y-65476190D01*
X231166666Y-64952380D02*
X231833333Y-64952380D01*
X231404761Y-65952380D01*
X230833333Y-67952380D02*
X230500000Y-67476190D01*
X230261904Y-67952380D02*
X230261904Y-66952380D01*
X230642857Y-66952380D01*
X230738095Y-67000000D01*
X230785714Y-67047619D01*
X230833333Y-67142857D01*
X230833333Y-67285714D01*
X230785714Y-67380952D01*
X230738095Y-67428571D01*
X230642857Y-67476190D01*
X230261904Y-67476190D01*
X231404761Y-67380952D02*
X231309523Y-67333333D01*
X231261904Y-67285714D01*
X231214285Y-67190476D01*
X231214285Y-67142857D01*
X231261904Y-67047619D01*
X231309523Y-67000000D01*
X231404761Y-66952380D01*
X231595238Y-66952380D01*
X231690476Y-67000000D01*
X231738095Y-67047619D01*
X231785714Y-67142857D01*
X231785714Y-67190476D01*
X231738095Y-67285714D01*
X231690476Y-67333333D01*
X231595238Y-67380952D01*
X231404761Y-67380952D01*
X231309523Y-67428571D01*
X231261904Y-67476190D01*
X231214285Y-67571428D01*
X231214285Y-67761904D01*
X231261904Y-67857142D01*
X231309523Y-67904761D01*
X231404761Y-67952380D01*
X231595238Y-67952380D01*
X231690476Y-67904761D01*
X231738095Y-67857142D01*
X231785714Y-67761904D01*
X231785714Y-67571428D01*
X231738095Y-67476190D01*
X231690476Y-67428571D01*
X231595238Y-67380952D01*
X236333333Y-69452380D02*
X236000000Y-68976190D01*
X235761904Y-69452380D02*
X235761904Y-68452380D01*
X236142857Y-68452380D01*
X236238095Y-68500000D01*
X236285714Y-68547619D01*
X236333333Y-68642857D01*
X236333333Y-68785714D01*
X236285714Y-68880952D01*
X236238095Y-68928571D01*
X236142857Y-68976190D01*
X235761904Y-68976190D01*
X236809523Y-69452380D02*
X237000000Y-69452380D01*
X237095238Y-69404761D01*
X237142857Y-69357142D01*
X237238095Y-69214285D01*
X237285714Y-69023809D01*
X237285714Y-68642857D01*
X237238095Y-68547619D01*
X237190476Y-68500000D01*
X237095238Y-68452380D01*
X236904761Y-68452380D01*
X236809523Y-68500000D01*
X236761904Y-68547619D01*
X236714285Y-68642857D01*
X236714285Y-68880952D01*
X236761904Y-68976190D01*
X236809523Y-69023809D01*
X236904761Y-69071428D01*
X237095238Y-69071428D01*
X237190476Y-69023809D01*
X237238095Y-68976190D01*
X237285714Y-68880952D01*
X93452380Y-127261904D02*
X94261904Y-127261904D01*
X94357142Y-127214285D01*
X94404761Y-127166666D01*
X94452380Y-127071428D01*
X94452380Y-126880952D01*
X94404761Y-126785714D01*
X94357142Y-126738095D01*
X94261904Y-126690476D01*
X93452380Y-126690476D01*
X94452380Y-125690476D02*
X94452380Y-126261904D01*
X94452380Y-125976190D02*
X93452380Y-125976190D01*
X93595238Y-126071428D01*
X93690476Y-126166666D01*
X93738095Y-126261904D01*
X139101712Y-92880439D02*
X139054093Y-92928058D01*
X138911236Y-92975677D01*
X138815998Y-92975677D01*
X138673140Y-92928058D01*
X138577902Y-92832820D01*
X138530283Y-92737582D01*
X138482664Y-92547106D01*
X138482664Y-92404249D01*
X138530283Y-92213773D01*
X138577902Y-92118535D01*
X138673140Y-92023297D01*
X138815998Y-91975677D01*
X138911236Y-91975677D01*
X139054093Y-92023297D01*
X139101712Y-92070916D01*
X139958855Y-91975677D02*
X139768379Y-91975677D01*
X139673140Y-92023297D01*
X139625521Y-92070916D01*
X139530283Y-92213773D01*
X139482664Y-92404249D01*
X139482664Y-92785201D01*
X139530283Y-92880439D01*
X139577902Y-92928058D01*
X139673140Y-92975677D01*
X139863617Y-92975677D01*
X139958855Y-92928058D01*
X140006474Y-92880439D01*
X140054093Y-92785201D01*
X140054093Y-92547106D01*
X140006474Y-92451868D01*
X139958855Y-92404249D01*
X139863617Y-92356630D01*
X139673140Y-92356630D01*
X139577902Y-92404249D01*
X139530283Y-92451868D01*
X139482664Y-92547106D01*
X139673236Y-85498630D02*
X139625617Y-85451011D01*
X139577998Y-85308154D01*
X139577998Y-85212916D01*
X139625617Y-85070058D01*
X139720855Y-84974820D01*
X139816093Y-84927201D01*
X140006569Y-84879582D01*
X140149426Y-84879582D01*
X140339902Y-84927201D01*
X140435140Y-84974820D01*
X140530379Y-85070058D01*
X140577998Y-85212916D01*
X140577998Y-85308154D01*
X140530379Y-85451011D01*
X140482759Y-85498630D01*
X140577998Y-85831963D02*
X140577998Y-86498630D01*
X139577998Y-86070058D01*
X134783712Y-97960439D02*
X134736093Y-98008058D01*
X134593236Y-98055677D01*
X134497998Y-98055677D01*
X134355140Y-98008058D01*
X134259902Y-97912820D01*
X134212283Y-97817582D01*
X134164664Y-97627106D01*
X134164664Y-97484249D01*
X134212283Y-97293773D01*
X134259902Y-97198535D01*
X134355140Y-97103297D01*
X134497998Y-97055677D01*
X134593236Y-97055677D01*
X134736093Y-97103297D01*
X134783712Y-97150916D01*
X135355140Y-97484249D02*
X135259902Y-97436630D01*
X135212283Y-97389011D01*
X135164664Y-97293773D01*
X135164664Y-97246154D01*
X135212283Y-97150916D01*
X135259902Y-97103297D01*
X135355140Y-97055677D01*
X135545617Y-97055677D01*
X135640855Y-97103297D01*
X135688474Y-97150916D01*
X135736093Y-97246154D01*
X135736093Y-97293773D01*
X135688474Y-97389011D01*
X135640855Y-97436630D01*
X135545617Y-97484249D01*
X135355140Y-97484249D01*
X135259902Y-97531868D01*
X135212283Y-97579487D01*
X135164664Y-97674725D01*
X135164664Y-97865201D01*
X135212283Y-97960439D01*
X135259902Y-98008058D01*
X135355140Y-98055677D01*
X135545617Y-98055677D01*
X135640855Y-98008058D01*
X135688474Y-97960439D01*
X135736093Y-97865201D01*
X135736093Y-97674725D01*
X135688474Y-97579487D01*
X135640855Y-97531868D01*
X135545617Y-97484249D01*
X112971521Y-98214439D02*
X112923902Y-98262058D01*
X112781045Y-98309677D01*
X112685807Y-98309677D01*
X112542950Y-98262058D01*
X112447712Y-98166820D01*
X112400093Y-98071582D01*
X112352474Y-97881106D01*
X112352474Y-97738249D01*
X112400093Y-97547773D01*
X112447712Y-97452535D01*
X112542950Y-97357297D01*
X112685807Y-97309677D01*
X112781045Y-97309677D01*
X112923902Y-97357297D01*
X112971521Y-97404916D01*
X113923902Y-98309677D02*
X113352474Y-98309677D01*
X113638188Y-98309677D02*
X113638188Y-97309677D01*
X113542950Y-97452535D01*
X113447712Y-97547773D01*
X113352474Y-97595392D01*
X114542950Y-97309677D02*
X114638188Y-97309677D01*
X114733426Y-97357297D01*
X114781045Y-97404916D01*
X114828664Y-97500154D01*
X114876283Y-97690630D01*
X114876283Y-97928725D01*
X114828664Y-98119201D01*
X114781045Y-98214439D01*
X114733426Y-98262058D01*
X114638188Y-98309677D01*
X114542950Y-98309677D01*
X114447712Y-98262058D01*
X114400093Y-98214439D01*
X114352474Y-98119201D01*
X114304855Y-97928725D01*
X114304855Y-97690630D01*
X114352474Y-97500154D01*
X114400093Y-97404916D01*
X114447712Y-97357297D01*
X114542950Y-97309677D01*
X144292759Y-93928154D02*
X143816569Y-94261487D01*
X144292759Y-94499582D02*
X143292759Y-94499582D01*
X143292759Y-94118630D01*
X143340379Y-94023392D01*
X143387998Y-93975773D01*
X143483236Y-93928154D01*
X143626093Y-93928154D01*
X143721331Y-93975773D01*
X143768950Y-94023392D01*
X143816569Y-94118630D01*
X143816569Y-94499582D01*
X144292759Y-92975773D02*
X144292759Y-93547201D01*
X144292759Y-93261487D02*
X143292759Y-93261487D01*
X143435617Y-93356725D01*
X143530855Y-93451963D01*
X143578474Y-93547201D01*
X143292759Y-92356725D02*
X143292759Y-92261487D01*
X143340379Y-92166249D01*
X143387998Y-92118630D01*
X143483236Y-92071011D01*
X143673712Y-92023392D01*
X143911807Y-92023392D01*
X144102283Y-92071011D01*
X144197521Y-92118630D01*
X144245140Y-92166249D01*
X144292759Y-92261487D01*
X144292759Y-92356725D01*
X144245140Y-92451963D01*
X144197521Y-92499582D01*
X144102283Y-92547201D01*
X143911807Y-92594820D01*
X143673712Y-92594820D01*
X143483236Y-92547201D01*
X143387998Y-92499582D01*
X143340379Y-92451963D01*
X143292759Y-92356725D01*
X141419521Y-91451677D02*
X141086188Y-90975487D01*
X140848093Y-91451677D02*
X140848093Y-90451677D01*
X141229045Y-90451677D01*
X141324283Y-90499297D01*
X141371902Y-90546916D01*
X141419521Y-90642154D01*
X141419521Y-90785011D01*
X141371902Y-90880249D01*
X141324283Y-90927868D01*
X141229045Y-90975487D01*
X140848093Y-90975487D01*
X142371902Y-91451677D02*
X141800474Y-91451677D01*
X142086188Y-91451677D02*
X142086188Y-90451677D01*
X141990950Y-90594535D01*
X141895712Y-90689773D01*
X141800474Y-90737392D01*
X143324283Y-91451677D02*
X142752855Y-91451677D01*
X143038569Y-91451677D02*
X143038569Y-90451677D01*
X142943331Y-90594535D01*
X142848093Y-90689773D01*
X142752855Y-90737392D01*
X141419521Y-89673677D02*
X141086188Y-89197487D01*
X140848093Y-89673677D02*
X140848093Y-88673677D01*
X141229045Y-88673677D01*
X141324283Y-88721297D01*
X141371902Y-88768916D01*
X141419521Y-88864154D01*
X141419521Y-89007011D01*
X141371902Y-89102249D01*
X141324283Y-89149868D01*
X141229045Y-89197487D01*
X140848093Y-89197487D01*
X142371902Y-89673677D02*
X141800474Y-89673677D01*
X142086188Y-89673677D02*
X142086188Y-88673677D01*
X141990950Y-88816535D01*
X141895712Y-88911773D01*
X141800474Y-88959392D01*
X142752855Y-88768916D02*
X142800474Y-88721297D01*
X142895712Y-88673677D01*
X143133807Y-88673677D01*
X143229045Y-88721297D01*
X143276664Y-88768916D01*
X143324283Y-88864154D01*
X143324283Y-88959392D01*
X143276664Y-89102249D01*
X142705236Y-89673677D01*
X143324283Y-89673677D01*
X143530759Y-87324154D02*
X143054569Y-87657487D01*
X143530759Y-87895582D02*
X142530759Y-87895582D01*
X142530759Y-87514630D01*
X142578379Y-87419392D01*
X142625998Y-87371773D01*
X142721236Y-87324154D01*
X142864093Y-87324154D01*
X142959331Y-87371773D01*
X143006950Y-87419392D01*
X143054569Y-87514630D01*
X143054569Y-87895582D01*
X143530759Y-86371773D02*
X143530759Y-86943201D01*
X143530759Y-86657487D02*
X142530759Y-86657487D01*
X142673617Y-86752725D01*
X142768855Y-86847963D01*
X142816474Y-86943201D01*
X142530759Y-86038439D02*
X142530759Y-85419392D01*
X142911712Y-85752725D01*
X142911712Y-85609868D01*
X142959331Y-85514630D01*
X143006950Y-85467011D01*
X143102188Y-85419392D01*
X143340283Y-85419392D01*
X143435521Y-85467011D01*
X143483140Y-85514630D01*
X143530759Y-85609868D01*
X143530759Y-85895582D01*
X143483140Y-85990820D01*
X143435521Y-86038439D01*
X142181521Y-96277677D02*
X141848188Y-95801487D01*
X141610093Y-96277677D02*
X141610093Y-95277677D01*
X141991045Y-95277677D01*
X142086283Y-95325297D01*
X142133902Y-95372916D01*
X142181521Y-95468154D01*
X142181521Y-95611011D01*
X142133902Y-95706249D01*
X142086283Y-95753868D01*
X141991045Y-95801487D01*
X141610093Y-95801487D01*
X143133902Y-96277677D02*
X142562474Y-96277677D01*
X142848188Y-96277677D02*
X142848188Y-95277677D01*
X142752950Y-95420535D01*
X142657712Y-95515773D01*
X142562474Y-95563392D01*
X143991045Y-95611011D02*
X143991045Y-96277677D01*
X143752950Y-95230058D02*
X143514855Y-95944344D01*
X144133902Y-95944344D01*
X137355521Y-86117677D02*
X137022188Y-85641487D01*
X136784093Y-86117677D02*
X136784093Y-85117677D01*
X137165045Y-85117677D01*
X137260283Y-85165297D01*
X137307902Y-85212916D01*
X137355521Y-85308154D01*
X137355521Y-85451011D01*
X137307902Y-85546249D01*
X137260283Y-85593868D01*
X137165045Y-85641487D01*
X136784093Y-85641487D01*
X138307902Y-86117677D02*
X137736474Y-86117677D01*
X138022188Y-86117677D02*
X138022188Y-85117677D01*
X137926950Y-85260535D01*
X137831712Y-85355773D01*
X137736474Y-85403392D01*
X139165045Y-85117677D02*
X138974569Y-85117677D01*
X138879331Y-85165297D01*
X138831712Y-85212916D01*
X138736474Y-85355773D01*
X138688855Y-85546249D01*
X138688855Y-85927201D01*
X138736474Y-86022439D01*
X138784093Y-86070058D01*
X138879331Y-86117677D01*
X139069807Y-86117677D01*
X139165045Y-86070058D01*
X139212664Y-86022439D01*
X139260283Y-85927201D01*
X139260283Y-85689106D01*
X139212664Y-85593868D01*
X139165045Y-85546249D01*
X139069807Y-85498630D01*
X138879331Y-85498630D01*
X138784093Y-85546249D01*
X138736474Y-85593868D01*
X138688855Y-85689106D01*
X137355521Y-84085677D02*
X137022188Y-83609487D01*
X136784093Y-84085677D02*
X136784093Y-83085677D01*
X137165045Y-83085677D01*
X137260283Y-83133297D01*
X137307902Y-83180916D01*
X137355521Y-83276154D01*
X137355521Y-83419011D01*
X137307902Y-83514249D01*
X137260283Y-83561868D01*
X137165045Y-83609487D01*
X136784093Y-83609487D01*
X138307902Y-84085677D02*
X137736474Y-84085677D01*
X138022188Y-84085677D02*
X138022188Y-83085677D01*
X137926950Y-83228535D01*
X137831712Y-83323773D01*
X137736474Y-83371392D01*
X138641236Y-83085677D02*
X139307902Y-83085677D01*
X138879331Y-84085677D01*
X136529998Y-87816439D02*
X137006188Y-87483106D01*
X136529998Y-87245011D02*
X137529998Y-87245011D01*
X137529998Y-87625963D01*
X137482379Y-87721201D01*
X137434759Y-87768820D01*
X137339521Y-87816439D01*
X137196664Y-87816439D01*
X137101426Y-87768820D01*
X137053807Y-87721201D01*
X137006188Y-87625963D01*
X137006188Y-87245011D01*
X136529998Y-88768820D02*
X136529998Y-88197392D01*
X136529998Y-88483106D02*
X137529998Y-88483106D01*
X137387140Y-88387868D01*
X137291902Y-88292630D01*
X137244283Y-88197392D01*
X137101426Y-89340249D02*
X137149045Y-89245011D01*
X137196664Y-89197392D01*
X137291902Y-89149773D01*
X137339521Y-89149773D01*
X137434759Y-89197392D01*
X137482379Y-89245011D01*
X137529998Y-89340249D01*
X137529998Y-89530725D01*
X137482379Y-89625963D01*
X137434759Y-89673582D01*
X137339521Y-89721201D01*
X137291902Y-89721201D01*
X137196664Y-89673582D01*
X137149045Y-89625963D01*
X137101426Y-89530725D01*
X137101426Y-89340249D01*
X137053807Y-89245011D01*
X137006188Y-89197392D01*
X136910950Y-89149773D01*
X136720474Y-89149773D01*
X136625236Y-89197392D01*
X136577617Y-89245011D01*
X136529998Y-89340249D01*
X136529998Y-89530725D01*
X136577617Y-89625963D01*
X136625236Y-89673582D01*
X136720474Y-89721201D01*
X136910950Y-89721201D01*
X137006188Y-89673582D01*
X137053807Y-89625963D01*
X137101426Y-89530725D01*
X101357142Y-146357142D02*
X101309523Y-146404761D01*
X101166666Y-146452380D01*
X101071428Y-146452380D01*
X100928571Y-146404761D01*
X100833333Y-146309523D01*
X100785714Y-146214285D01*
X100738095Y-146023809D01*
X100738095Y-145880952D01*
X100785714Y-145690476D01*
X100833333Y-145595238D01*
X100928571Y-145500000D01*
X101071428Y-145452380D01*
X101166666Y-145452380D01*
X101309523Y-145500000D01*
X101357142Y-145547619D01*
X102309523Y-146452380D02*
X101738095Y-146452380D01*
X102023809Y-146452380D02*
X102023809Y-145452380D01*
X101928571Y-145595238D01*
X101833333Y-145690476D01*
X101738095Y-145738095D01*
X103261904Y-146452380D02*
X102690476Y-146452380D01*
X102976190Y-146452380D02*
X102976190Y-145452380D01*
X102880952Y-145595238D01*
X102785714Y-145690476D01*
X102690476Y-145738095D01*
X100261904Y-138952380D02*
X100261904Y-137952380D01*
X100500000Y-137952380D01*
X100642857Y-138000000D01*
X100738095Y-138095238D01*
X100785714Y-138190476D01*
X100833333Y-138380952D01*
X100833333Y-138523809D01*
X100785714Y-138714285D01*
X100738095Y-138809523D01*
X100642857Y-138904761D01*
X100500000Y-138952380D01*
X100261904Y-138952380D01*
X101214285Y-138047619D02*
X101261904Y-138000000D01*
X101357142Y-137952380D01*
X101595238Y-137952380D01*
X101690476Y-138000000D01*
X101738095Y-138047619D01*
X101785714Y-138142857D01*
X101785714Y-138238095D01*
X101738095Y-138380952D01*
X101166666Y-138952380D01*
X101785714Y-138952380D01*
X107426448Y-144103879D02*
X106855019Y-144103879D01*
X107140734Y-144103879D02*
X107140734Y-143103879D01*
X107045495Y-143246737D01*
X106950257Y-143341975D01*
X106855019Y-143389594D01*
X113447712Y-90943677D02*
X112971521Y-90943677D01*
X112971521Y-89943677D01*
X114304855Y-90943677D02*
X113733426Y-90943677D01*
X114019140Y-90943677D02*
X114019140Y-89943677D01*
X113923902Y-90086535D01*
X113828664Y-90181773D01*
X113733426Y-90229392D01*
X128759140Y-88752916D02*
X128663902Y-88705297D01*
X128568664Y-88610058D01*
X128425807Y-88467201D01*
X128330569Y-88419582D01*
X128235331Y-88419582D01*
X128282950Y-88657677D02*
X128187712Y-88610058D01*
X128092474Y-88514820D01*
X128044855Y-88324344D01*
X128044855Y-87991011D01*
X128092474Y-87800535D01*
X128187712Y-87705297D01*
X128282950Y-87657677D01*
X128473426Y-87657677D01*
X128568664Y-87705297D01*
X128663902Y-87800535D01*
X128711521Y-87991011D01*
X128711521Y-88324344D01*
X128663902Y-88514820D01*
X128568664Y-88610058D01*
X128473426Y-88657677D01*
X128282950Y-88657677D01*
X129663902Y-88657677D02*
X129092474Y-88657677D01*
X129378188Y-88657677D02*
X129378188Y-87657677D01*
X129282950Y-87800535D01*
X129187712Y-87895773D01*
X129092474Y-87943392D01*
X131648474Y-96867677D02*
X131648474Y-97677201D01*
X131696093Y-97772439D01*
X131743712Y-97820058D01*
X131838950Y-97867677D01*
X132029426Y-97867677D01*
X132124664Y-97820058D01*
X132172283Y-97772439D01*
X132219902Y-97677201D01*
X132219902Y-96867677D01*
X133124664Y-97201011D02*
X133124664Y-97867677D01*
X132886569Y-96820058D02*
X132648474Y-97534344D01*
X133267521Y-97534344D01*
X130751521Y-99484439D02*
X130703902Y-99532058D01*
X130561045Y-99579677D01*
X130465807Y-99579677D01*
X130322950Y-99532058D01*
X130227712Y-99436820D01*
X130180093Y-99341582D01*
X130132474Y-99151106D01*
X130132474Y-99008249D01*
X130180093Y-98817773D01*
X130227712Y-98722535D01*
X130322950Y-98627297D01*
X130465807Y-98579677D01*
X130561045Y-98579677D01*
X130703902Y-98627297D01*
X130751521Y-98674916D01*
X131703902Y-99579677D02*
X131132474Y-99579677D01*
X131418188Y-99579677D02*
X131418188Y-98579677D01*
X131322950Y-98722535D01*
X131227712Y-98817773D01*
X131132474Y-98865392D01*
X132084855Y-98674916D02*
X132132474Y-98627297D01*
X132227712Y-98579677D01*
X132465807Y-98579677D01*
X132561045Y-98627297D01*
X132608664Y-98674916D01*
X132656283Y-98770154D01*
X132656283Y-98865392D01*
X132608664Y-99008249D01*
X132037236Y-99579677D01*
X132656283Y-99579677D01*
X136577521Y-73354154D02*
X136625140Y-73401773D01*
X136672759Y-73544630D01*
X136672759Y-73639868D01*
X136625140Y-73782725D01*
X136529902Y-73877963D01*
X136434664Y-73925582D01*
X136244188Y-73973201D01*
X136101331Y-73973201D01*
X135910855Y-73925582D01*
X135815617Y-73877963D01*
X135720379Y-73782725D01*
X135672759Y-73639868D01*
X135672759Y-73544630D01*
X135720379Y-73401773D01*
X135767998Y-73354154D01*
X136672759Y-72401773D02*
X136672759Y-72973201D01*
X136672759Y-72687487D02*
X135672759Y-72687487D01*
X135815617Y-72782725D01*
X135910855Y-72877963D01*
X135958474Y-72973201D01*
X135672759Y-72068439D02*
X135672759Y-71449392D01*
X136053712Y-71782725D01*
X136053712Y-71639868D01*
X136101331Y-71544630D01*
X136148950Y-71497011D01*
X136244188Y-71449392D01*
X136482283Y-71449392D01*
X136577521Y-71497011D01*
X136625140Y-71544630D01*
X136672759Y-71639868D01*
X136672759Y-71925582D01*
X136625140Y-72020820D01*
X136577521Y-72068439D01*
X112971521Y-94658439D02*
X112923902Y-94706058D01*
X112781045Y-94753677D01*
X112685807Y-94753677D01*
X112542950Y-94706058D01*
X112447712Y-94610820D01*
X112400093Y-94515582D01*
X112352474Y-94325106D01*
X112352474Y-94182249D01*
X112400093Y-93991773D01*
X112447712Y-93896535D01*
X112542950Y-93801297D01*
X112685807Y-93753677D01*
X112781045Y-93753677D01*
X112923902Y-93801297D01*
X112971521Y-93848916D01*
X113923902Y-94753677D02*
X113352474Y-94753677D01*
X113638188Y-94753677D02*
X113638188Y-93753677D01*
X113542950Y-93896535D01*
X113447712Y-93991773D01*
X113352474Y-94039392D01*
X114781045Y-94087011D02*
X114781045Y-94753677D01*
X114542950Y-93706058D02*
X114304855Y-94420344D01*
X114923902Y-94420344D01*
X143689521Y-77449963D02*
X143737140Y-77497582D01*
X143784759Y-77640439D01*
X143784759Y-77735677D01*
X143737140Y-77878535D01*
X143641902Y-77973773D01*
X143546664Y-78021392D01*
X143356188Y-78069011D01*
X143213331Y-78069011D01*
X143022855Y-78021392D01*
X142927617Y-77973773D01*
X142832379Y-77878535D01*
X142784759Y-77735677D01*
X142784759Y-77640439D01*
X142832379Y-77497582D01*
X142879998Y-77449963D01*
X143784759Y-76973773D02*
X143784759Y-76783297D01*
X143737140Y-76688058D01*
X143689521Y-76640439D01*
X143546664Y-76545201D01*
X143356188Y-76497582D01*
X142975236Y-76497582D01*
X142879998Y-76545201D01*
X142832379Y-76592820D01*
X142784759Y-76688058D01*
X142784759Y-76878535D01*
X142832379Y-76973773D01*
X142879998Y-77021392D01*
X142975236Y-77069011D01*
X143213331Y-77069011D01*
X143308569Y-77021392D01*
X143356188Y-76973773D01*
X143403807Y-76878535D01*
X143403807Y-76688058D01*
X143356188Y-76592820D01*
X143308569Y-76545201D01*
X143213331Y-76497582D01*
X128370283Y-72655677D02*
X128370283Y-71655677D01*
X128608379Y-71655677D01*
X128751236Y-71703297D01*
X128846474Y-71798535D01*
X128894093Y-71893773D01*
X128941712Y-72084249D01*
X128941712Y-72227106D01*
X128894093Y-72417582D01*
X128846474Y-72512820D01*
X128751236Y-72608058D01*
X128608379Y-72655677D01*
X128370283Y-72655677D01*
X129894093Y-72655677D02*
X129322664Y-72655677D01*
X129608379Y-72655677D02*
X129608379Y-71655677D01*
X129513140Y-71798535D01*
X129417902Y-71893773D01*
X129322664Y-71941392D01*
X216659369Y-71788759D02*
X216659369Y-72503045D01*
X216611750Y-72645902D01*
X216516512Y-72741140D01*
X216373655Y-72788759D01*
X216278417Y-72788759D01*
X217659369Y-72788759D02*
X217087941Y-72788759D01*
X217373655Y-72788759D02*
X217373655Y-71788759D01*
X217278417Y-71931617D01*
X217183179Y-72026855D01*
X217087941Y-72074474D01*
X176347521Y-65336439D02*
X176299902Y-65384058D01*
X176157045Y-65431677D01*
X176061807Y-65431677D01*
X175918950Y-65384058D01*
X175823712Y-65288820D01*
X175776093Y-65193582D01*
X175728474Y-65003106D01*
X175728474Y-64860249D01*
X175776093Y-64669773D01*
X175823712Y-64574535D01*
X175918950Y-64479297D01*
X176061807Y-64431677D01*
X176157045Y-64431677D01*
X176299902Y-64479297D01*
X176347521Y-64526916D01*
X177299902Y-65431677D02*
X176728474Y-65431677D01*
X177014188Y-65431677D02*
X177014188Y-64431677D01*
X176918950Y-64574535D01*
X176823712Y-64669773D01*
X176728474Y-64717392D01*
X177871331Y-64860249D02*
X177776093Y-64812630D01*
X177728474Y-64765011D01*
X177680855Y-64669773D01*
X177680855Y-64622154D01*
X177728474Y-64526916D01*
X177776093Y-64479297D01*
X177871331Y-64431677D01*
X178061807Y-64431677D01*
X178157045Y-64479297D01*
X178204664Y-64526916D01*
X178252283Y-64622154D01*
X178252283Y-64669773D01*
X178204664Y-64765011D01*
X178157045Y-64812630D01*
X178061807Y-64860249D01*
X177871331Y-64860249D01*
X177776093Y-64907868D01*
X177728474Y-64955487D01*
X177680855Y-65050725D01*
X177680855Y-65241201D01*
X177728474Y-65336439D01*
X177776093Y-65384058D01*
X177871331Y-65431677D01*
X178061807Y-65431677D01*
X178157045Y-65384058D01*
X178204664Y-65336439D01*
X178252283Y-65241201D01*
X178252283Y-65050725D01*
X178204664Y-64955487D01*
X178157045Y-64907868D01*
X178061807Y-64860249D01*
X121761904Y-138952380D02*
X121761904Y-137952380D01*
X122000000Y-137952380D01*
X122142857Y-138000000D01*
X122238095Y-138095238D01*
X122285714Y-138190476D01*
X122333333Y-138380952D01*
X122333333Y-138523809D01*
X122285714Y-138714285D01*
X122238095Y-138809523D01*
X122142857Y-138904761D01*
X122000000Y-138952380D01*
X121761904Y-138952380D01*
X122666666Y-137952380D02*
X123285714Y-137952380D01*
X122952380Y-138333333D01*
X123095238Y-138333333D01*
X123190476Y-138380952D01*
X123238095Y-138428571D01*
X123285714Y-138523809D01*
X123285714Y-138761904D01*
X123238095Y-138857142D01*
X123190476Y-138904761D01*
X123095238Y-138952380D01*
X122809523Y-138952380D01*
X122714285Y-138904761D01*
X122666666Y-138857142D01*
X128926448Y-144103879D02*
X128355019Y-144103879D01*
X128640734Y-144103879D02*
X128640734Y-143103879D01*
X128545495Y-143246737D01*
X128450257Y-143341975D01*
X128355019Y-143389594D01*
X122357142Y-146357142D02*
X122309523Y-146404761D01*
X122166666Y-146452380D01*
X122071428Y-146452380D01*
X121928571Y-146404761D01*
X121833333Y-146309523D01*
X121785714Y-146214285D01*
X121738095Y-146023809D01*
X121738095Y-145880952D01*
X121785714Y-145690476D01*
X121833333Y-145595238D01*
X121928571Y-145500000D01*
X122071428Y-145452380D01*
X122166666Y-145452380D01*
X122309523Y-145500000D01*
X122357142Y-145547619D01*
X123309523Y-146452380D02*
X122738095Y-146452380D01*
X123023809Y-146452380D02*
X123023809Y-145452380D01*
X122928571Y-145595238D01*
X122833333Y-145690476D01*
X122738095Y-145738095D01*
X123785714Y-146452380D02*
X123976190Y-146452380D01*
X124071428Y-146404761D01*
X124119047Y-146357142D01*
X124214285Y-146214285D01*
X124261904Y-146023809D01*
X124261904Y-145642857D01*
X124214285Y-145547619D01*
X124166666Y-145500000D01*
X124071428Y-145452380D01*
X123880952Y-145452380D01*
X123785714Y-145500000D01*
X123738095Y-145547619D01*
X123690476Y-145642857D01*
X123690476Y-145880952D01*
X123738095Y-145976190D01*
X123785714Y-146023809D01*
X123880952Y-146071428D01*
X124071428Y-146071428D01*
X124166666Y-146023809D01*
X124214285Y-145976190D01*
X124261904Y-145880952D01*
X153357142Y-146357142D02*
X153309523Y-146404761D01*
X153166666Y-146452380D01*
X153071428Y-146452380D01*
X152928571Y-146404761D01*
X152833333Y-146309523D01*
X152785714Y-146214285D01*
X152738095Y-146023809D01*
X152738095Y-145880952D01*
X152785714Y-145690476D01*
X152833333Y-145595238D01*
X152928571Y-145500000D01*
X153071428Y-145452380D01*
X153166666Y-145452380D01*
X153309523Y-145500000D01*
X153357142Y-145547619D01*
X153738095Y-145547619D02*
X153785714Y-145500000D01*
X153880952Y-145452380D01*
X154119047Y-145452380D01*
X154214285Y-145500000D01*
X154261904Y-145547619D01*
X154309523Y-145642857D01*
X154309523Y-145738095D01*
X154261904Y-145880952D01*
X153690476Y-146452380D01*
X154309523Y-146452380D01*
X154928571Y-145452380D02*
X155023809Y-145452380D01*
X155119047Y-145500000D01*
X155166666Y-145547619D01*
X155214285Y-145642857D01*
X155261904Y-145833333D01*
X155261904Y-146071428D01*
X155214285Y-146261904D01*
X155166666Y-146357142D01*
X155119047Y-146404761D01*
X155023809Y-146452380D01*
X154928571Y-146452380D01*
X154833333Y-146404761D01*
X154785714Y-146357142D01*
X154738095Y-146261904D01*
X154690476Y-146071428D01*
X154690476Y-145833333D01*
X154738095Y-145642857D01*
X154785714Y-145547619D01*
X154833333Y-145500000D01*
X154928571Y-145452380D01*
X189857142Y-65436439D02*
X189809523Y-65484058D01*
X189666666Y-65531677D01*
X189571428Y-65531677D01*
X189428571Y-65484058D01*
X189333333Y-65388820D01*
X189285714Y-65293582D01*
X189238095Y-65103106D01*
X189238095Y-64960249D01*
X189285714Y-64769773D01*
X189333333Y-64674535D01*
X189428571Y-64579297D01*
X189571428Y-64531677D01*
X189666666Y-64531677D01*
X189809523Y-64579297D01*
X189857142Y-64626916D01*
X190238095Y-64626916D02*
X190285714Y-64579297D01*
X190380952Y-64531677D01*
X190619047Y-64531677D01*
X190714285Y-64579297D01*
X190761904Y-64626916D01*
X190809523Y-64722154D01*
X190809523Y-64817392D01*
X190761904Y-64960249D01*
X190190476Y-65531677D01*
X190809523Y-65531677D01*
X191761904Y-65531677D02*
X191190476Y-65531677D01*
X191476190Y-65531677D02*
X191476190Y-64531677D01*
X191380952Y-64674535D01*
X191285714Y-64769773D01*
X191190476Y-64817392D01*
X174857142Y-146357142D02*
X174809523Y-146404761D01*
X174666666Y-146452380D01*
X174571428Y-146452380D01*
X174428571Y-146404761D01*
X174333333Y-146309523D01*
X174285714Y-146214285D01*
X174238095Y-146023809D01*
X174238095Y-145880952D01*
X174285714Y-145690476D01*
X174333333Y-145595238D01*
X174428571Y-145500000D01*
X174571428Y-145452380D01*
X174666666Y-145452380D01*
X174809523Y-145500000D01*
X174857142Y-145547619D01*
X175238095Y-145547619D02*
X175285714Y-145500000D01*
X175380952Y-145452380D01*
X175619047Y-145452380D01*
X175714285Y-145500000D01*
X175761904Y-145547619D01*
X175809523Y-145642857D01*
X175809523Y-145738095D01*
X175761904Y-145880952D01*
X175190476Y-146452380D01*
X175809523Y-146452380D01*
X176142857Y-145452380D02*
X176761904Y-145452380D01*
X176428571Y-145833333D01*
X176571428Y-145833333D01*
X176666666Y-145880952D01*
X176714285Y-145928571D01*
X176761904Y-146023809D01*
X176761904Y-146261904D01*
X176714285Y-146357142D01*
X176666666Y-146404761D01*
X176571428Y-146452380D01*
X176285714Y-146452380D01*
X176190476Y-146404761D01*
X176142857Y-146357142D01*
X205857142Y-146357142D02*
X205809523Y-146404761D01*
X205666666Y-146452380D01*
X205571428Y-146452380D01*
X205428571Y-146404761D01*
X205333333Y-146309523D01*
X205285714Y-146214285D01*
X205238095Y-146023809D01*
X205238095Y-145880952D01*
X205285714Y-145690476D01*
X205333333Y-145595238D01*
X205428571Y-145500000D01*
X205571428Y-145452380D01*
X205666666Y-145452380D01*
X205809523Y-145500000D01*
X205857142Y-145547619D01*
X206238095Y-145547619D02*
X206285714Y-145500000D01*
X206380952Y-145452380D01*
X206619047Y-145452380D01*
X206714285Y-145500000D01*
X206761904Y-145547619D01*
X206809523Y-145642857D01*
X206809523Y-145738095D01*
X206761904Y-145880952D01*
X206190476Y-146452380D01*
X206809523Y-146452380D01*
X207666666Y-145785714D02*
X207666666Y-146452380D01*
X207428571Y-145404761D02*
X207190476Y-146119047D01*
X207809523Y-146119047D01*
X125586439Y-63452478D02*
X125634058Y-63500097D01*
X125681677Y-63642954D01*
X125681677Y-63738192D01*
X125634058Y-63881049D01*
X125538820Y-63976287D01*
X125443582Y-64023906D01*
X125253106Y-64071525D01*
X125110249Y-64071525D01*
X124919773Y-64023906D01*
X124824535Y-63976287D01*
X124729297Y-63881049D01*
X124681677Y-63738192D01*
X124681677Y-63642954D01*
X124729297Y-63500097D01*
X124776916Y-63452478D01*
X124776916Y-63071525D02*
X124729297Y-63023906D01*
X124681677Y-62928668D01*
X124681677Y-62690573D01*
X124729297Y-62595335D01*
X124776916Y-62547716D01*
X124872154Y-62500097D01*
X124967392Y-62500097D01*
X125110249Y-62547716D01*
X125681677Y-63119144D01*
X125681677Y-62500097D01*
X124681677Y-61642954D02*
X124681677Y-61833430D01*
X124729297Y-61928668D01*
X124776916Y-61976287D01*
X124919773Y-62071525D01*
X125110249Y-62119144D01*
X125491201Y-62119144D01*
X125586439Y-62071525D01*
X125634058Y-62023906D01*
X125681677Y-61928668D01*
X125681677Y-61738192D01*
X125634058Y-61642954D01*
X125586439Y-61595335D01*
X125491201Y-61547716D01*
X125253106Y-61547716D01*
X125157868Y-61595335D01*
X125110249Y-61642954D01*
X125062630Y-61738192D01*
X125062630Y-61928668D01*
X125110249Y-62023906D01*
X125157868Y-62071525D01*
X125253106Y-62119144D01*
X227357142Y-146357142D02*
X227309523Y-146404761D01*
X227166666Y-146452380D01*
X227071428Y-146452380D01*
X226928571Y-146404761D01*
X226833333Y-146309523D01*
X226785714Y-146214285D01*
X226738095Y-146023809D01*
X226738095Y-145880952D01*
X226785714Y-145690476D01*
X226833333Y-145595238D01*
X226928571Y-145500000D01*
X227071428Y-145452380D01*
X227166666Y-145452380D01*
X227309523Y-145500000D01*
X227357142Y-145547619D01*
X227738095Y-145547619D02*
X227785714Y-145500000D01*
X227880952Y-145452380D01*
X228119047Y-145452380D01*
X228214285Y-145500000D01*
X228261904Y-145547619D01*
X228309523Y-145642857D01*
X228309523Y-145738095D01*
X228261904Y-145880952D01*
X227690476Y-146452380D01*
X228309523Y-146452380D01*
X228880952Y-145880952D02*
X228785714Y-145833333D01*
X228738095Y-145785714D01*
X228690476Y-145690476D01*
X228690476Y-145642857D01*
X228738095Y-145547619D01*
X228785714Y-145500000D01*
X228880952Y-145452380D01*
X229071428Y-145452380D01*
X229166666Y-145500000D01*
X229214285Y-145547619D01*
X229261904Y-145642857D01*
X229261904Y-145690476D01*
X229214285Y-145785714D01*
X229166666Y-145833333D01*
X229071428Y-145880952D01*
X228880952Y-145880952D01*
X228785714Y-145928571D01*
X228738095Y-145976190D01*
X228690476Y-146071428D01*
X228690476Y-146261904D01*
X228738095Y-146357142D01*
X228785714Y-146404761D01*
X228880952Y-146452380D01*
X229071428Y-146452380D01*
X229166666Y-146404761D01*
X229214285Y-146357142D01*
X229261904Y-146261904D01*
X229261904Y-146071428D01*
X229214285Y-145976190D01*
X229166666Y-145928571D01*
X229071428Y-145880952D01*
X126036439Y-66852478D02*
X126084058Y-66900097D01*
X126131677Y-67042954D01*
X126131677Y-67138192D01*
X126084058Y-67281049D01*
X125988820Y-67376287D01*
X125893582Y-67423906D01*
X125703106Y-67471525D01*
X125560249Y-67471525D01*
X125369773Y-67423906D01*
X125274535Y-67376287D01*
X125179297Y-67281049D01*
X125131677Y-67138192D01*
X125131677Y-67042954D01*
X125179297Y-66900097D01*
X125226916Y-66852478D01*
X125131677Y-66519144D02*
X125131677Y-65900097D01*
X125512630Y-66233430D01*
X125512630Y-66090573D01*
X125560249Y-65995335D01*
X125607868Y-65947716D01*
X125703106Y-65900097D01*
X125941201Y-65900097D01*
X126036439Y-65947716D01*
X126084058Y-65995335D01*
X126131677Y-66090573D01*
X126131677Y-66376287D01*
X126084058Y-66471525D01*
X126036439Y-66519144D01*
X125131677Y-65281049D02*
X125131677Y-65185811D01*
X125179297Y-65090573D01*
X125226916Y-65042954D01*
X125322154Y-64995335D01*
X125512630Y-64947716D01*
X125750725Y-64947716D01*
X125941201Y-64995335D01*
X126036439Y-65042954D01*
X126084058Y-65090573D01*
X126131677Y-65185811D01*
X126131677Y-65281049D01*
X126084058Y-65376287D01*
X126036439Y-65423906D01*
X125941201Y-65471525D01*
X125750725Y-65519144D01*
X125512630Y-65519144D01*
X125322154Y-65471525D01*
X125226916Y-65423906D01*
X125179297Y-65376287D01*
X125131677Y-65281049D01*
X152261904Y-138952380D02*
X152261904Y-137952380D01*
X152500000Y-137952380D01*
X152642857Y-138000000D01*
X152738095Y-138095238D01*
X152785714Y-138190476D01*
X152833333Y-138380952D01*
X152833333Y-138523809D01*
X152785714Y-138714285D01*
X152738095Y-138809523D01*
X152642857Y-138904761D01*
X152500000Y-138952380D01*
X152261904Y-138952380D01*
X153690476Y-138285714D02*
X153690476Y-138952380D01*
X153452380Y-137904761D02*
X153214285Y-138619047D01*
X153833333Y-138619047D01*
X159426448Y-144103879D02*
X158855019Y-144103879D01*
X159140734Y-144103879D02*
X159140734Y-143103879D01*
X159045495Y-143246737D01*
X158950257Y-143341975D01*
X158855019Y-143389594D01*
X173761904Y-138952380D02*
X173761904Y-137952380D01*
X174000000Y-137952380D01*
X174142857Y-138000000D01*
X174238095Y-138095238D01*
X174285714Y-138190476D01*
X174333333Y-138380952D01*
X174333333Y-138523809D01*
X174285714Y-138714285D01*
X174238095Y-138809523D01*
X174142857Y-138904761D01*
X174000000Y-138952380D01*
X173761904Y-138952380D01*
X175238095Y-137952380D02*
X174761904Y-137952380D01*
X174714285Y-138428571D01*
X174761904Y-138380952D01*
X174857142Y-138333333D01*
X175095238Y-138333333D01*
X175190476Y-138380952D01*
X175238095Y-138428571D01*
X175285714Y-138523809D01*
X175285714Y-138761904D01*
X175238095Y-138857142D01*
X175190476Y-138904761D01*
X175095238Y-138952380D01*
X174857142Y-138952380D01*
X174761904Y-138904761D01*
X174714285Y-138857142D01*
X180846804Y-144026080D02*
X180275375Y-144026080D01*
X180561090Y-144026080D02*
X180561090Y-143026080D01*
X180465851Y-143168938D01*
X180370613Y-143264176D01*
X180275375Y-143311795D01*
X205261904Y-138952380D02*
X205261904Y-137952380D01*
X205500000Y-137952380D01*
X205642857Y-138000000D01*
X205738095Y-138095238D01*
X205785714Y-138190476D01*
X205833333Y-138380952D01*
X205833333Y-138523809D01*
X205785714Y-138714285D01*
X205738095Y-138809523D01*
X205642857Y-138904761D01*
X205500000Y-138952380D01*
X205261904Y-138952380D01*
X206690476Y-137952380D02*
X206500000Y-137952380D01*
X206404761Y-138000000D01*
X206357142Y-138047619D01*
X206261904Y-138190476D01*
X206214285Y-138380952D01*
X206214285Y-138761904D01*
X206261904Y-138857142D01*
X206309523Y-138904761D01*
X206404761Y-138952380D01*
X206595238Y-138952380D01*
X206690476Y-138904761D01*
X206738095Y-138857142D01*
X206785714Y-138761904D01*
X206785714Y-138523809D01*
X206738095Y-138428571D01*
X206690476Y-138380952D01*
X206595238Y-138333333D01*
X206404761Y-138333333D01*
X206309523Y-138380952D01*
X206261904Y-138428571D01*
X206214285Y-138523809D01*
X211926448Y-144103879D02*
X211355019Y-144103879D01*
X211640734Y-144103879D02*
X211640734Y-143103879D01*
X211545495Y-143246737D01*
X211450257Y-143341975D01*
X211355019Y-143389594D01*
X226261904Y-138952380D02*
X226261904Y-137952380D01*
X226500000Y-137952380D01*
X226642857Y-138000000D01*
X226738095Y-138095238D01*
X226785714Y-138190476D01*
X226833333Y-138380952D01*
X226833333Y-138523809D01*
X226785714Y-138714285D01*
X226738095Y-138809523D01*
X226642857Y-138904761D01*
X226500000Y-138952380D01*
X226261904Y-138952380D01*
X227166666Y-137952380D02*
X227833333Y-137952380D01*
X227404761Y-138952380D01*
X233426448Y-144103879D02*
X232855019Y-144103879D01*
X233140734Y-144103879D02*
X233140734Y-143103879D01*
X233045495Y-143246737D01*
X232950257Y-143341975D01*
X232855019Y-143389594D01*
X166452380Y-72642857D02*
X165976190Y-72976190D01*
X166452380Y-73214285D02*
X165452380Y-73214285D01*
X165452380Y-72833333D01*
X165500000Y-72738095D01*
X165547619Y-72690476D01*
X165642857Y-72642857D01*
X165785714Y-72642857D01*
X165880952Y-72690476D01*
X165928571Y-72738095D01*
X165976190Y-72833333D01*
X165976190Y-73214285D01*
X166452380Y-71690476D02*
X166452380Y-72261904D01*
X166452380Y-71976190D02*
X165452380Y-71976190D01*
X165595238Y-72071428D01*
X165690476Y-72166666D01*
X165738095Y-72261904D01*
X166452380Y-71214285D02*
X166452380Y-71023809D01*
X166404761Y-70928571D01*
X166357142Y-70880952D01*
X166214285Y-70785714D01*
X166023809Y-70738095D01*
X165642857Y-70738095D01*
X165547619Y-70785714D01*
X165500000Y-70833333D01*
X165452380Y-70928571D01*
X165452380Y-71119047D01*
X165500000Y-71214285D01*
X165547619Y-71261904D01*
X165642857Y-71309523D01*
X165880952Y-71309523D01*
X165976190Y-71261904D01*
X166023809Y-71214285D01*
X166071428Y-71119047D01*
X166071428Y-70928571D01*
X166023809Y-70833333D01*
X165976190Y-70785714D01*
X165880952Y-70738095D01*
X179952380Y-72642857D02*
X179476190Y-72976190D01*
X179952380Y-73214285D02*
X178952380Y-73214285D01*
X178952380Y-72833333D01*
X179000000Y-72738095D01*
X179047619Y-72690476D01*
X179142857Y-72642857D01*
X179285714Y-72642857D01*
X179380952Y-72690476D01*
X179428571Y-72738095D01*
X179476190Y-72833333D01*
X179476190Y-73214285D01*
X179047619Y-72261904D02*
X179000000Y-72214285D01*
X178952380Y-72119047D01*
X178952380Y-71880952D01*
X179000000Y-71785714D01*
X179047619Y-71738095D01*
X179142857Y-71690476D01*
X179238095Y-71690476D01*
X179380952Y-71738095D01*
X179952380Y-72309523D01*
X179952380Y-71690476D01*
X178952380Y-71071428D02*
X178952380Y-70976190D01*
X179000000Y-70880952D01*
X179047619Y-70833333D01*
X179142857Y-70785714D01*
X179333333Y-70738095D01*
X179571428Y-70738095D01*
X179761904Y-70785714D01*
X179857142Y-70833333D01*
X179904761Y-70880952D01*
X179952380Y-70976190D01*
X179952380Y-71071428D01*
X179904761Y-71166666D01*
X179857142Y-71214285D01*
X179761904Y-71261904D01*
X179571428Y-71309523D01*
X179333333Y-71309523D01*
X179142857Y-71261904D01*
X179047619Y-71214285D01*
X179000000Y-71166666D01*
X178952380Y-71071428D01*
X171228474Y-65681677D02*
X171228474Y-66491201D01*
X171276093Y-66586439D01*
X171323712Y-66634058D01*
X171418950Y-66681677D01*
X171609426Y-66681677D01*
X171704664Y-66634058D01*
X171752283Y-66586439D01*
X171799902Y-66491201D01*
X171799902Y-65681677D01*
X172704664Y-65681677D02*
X172514188Y-65681677D01*
X172418950Y-65729297D01*
X172371331Y-65776916D01*
X172276093Y-65919773D01*
X172228474Y-66110249D01*
X172228474Y-66491201D01*
X172276093Y-66586439D01*
X172323712Y-66634058D01*
X172418950Y-66681677D01*
X172609426Y-66681677D01*
X172704664Y-66634058D01*
X172752283Y-66586439D01*
X172799902Y-66491201D01*
X172799902Y-66253106D01*
X172752283Y-66157868D01*
X172704664Y-66110249D01*
X172609426Y-66062630D01*
X172418950Y-66062630D01*
X172323712Y-66110249D01*
X172276093Y-66157868D01*
X172228474Y-66253106D01*
X184728474Y-65681677D02*
X184728474Y-66491201D01*
X184776093Y-66586439D01*
X184823712Y-66634058D01*
X184918950Y-66681677D01*
X185109426Y-66681677D01*
X185204664Y-66634058D01*
X185252283Y-66586439D01*
X185299902Y-66491201D01*
X185299902Y-65681677D01*
X185680855Y-65681677D02*
X186347521Y-65681677D01*
X185918950Y-66681677D01*
X145452380Y-127261904D02*
X146261904Y-127261904D01*
X146357142Y-127214285D01*
X146404761Y-127166666D01*
X146452380Y-127071428D01*
X146452380Y-126880952D01*
X146404761Y-126785714D01*
X146357142Y-126738095D01*
X146261904Y-126690476D01*
X145452380Y-126690476D01*
X145880952Y-126071428D02*
X145833333Y-126166666D01*
X145785714Y-126214285D01*
X145690476Y-126261904D01*
X145642857Y-126261904D01*
X145547619Y-126214285D01*
X145500000Y-126166666D01*
X145452380Y-126071428D01*
X145452380Y-125880952D01*
X145500000Y-125785714D01*
X145547619Y-125738095D01*
X145642857Y-125690476D01*
X145690476Y-125690476D01*
X145785714Y-125738095D01*
X145833333Y-125785714D01*
X145880952Y-125880952D01*
X145880952Y-126071428D01*
X145928571Y-126166666D01*
X145976190Y-126214285D01*
X146071428Y-126261904D01*
X146261904Y-126261904D01*
X146357142Y-126214285D01*
X146404761Y-126166666D01*
X146452380Y-126071428D01*
X146452380Y-125880952D01*
X146404761Y-125785714D01*
X146357142Y-125738095D01*
X146261904Y-125690476D01*
X146071428Y-125690476D01*
X145976190Y-125738095D01*
X145928571Y-125785714D01*
X145880952Y-125880952D01*
X166952380Y-127738095D02*
X167761904Y-127738095D01*
X167857142Y-127690476D01*
X167904761Y-127642857D01*
X167952380Y-127547619D01*
X167952380Y-127357142D01*
X167904761Y-127261904D01*
X167857142Y-127214285D01*
X167761904Y-127166666D01*
X166952380Y-127166666D01*
X167952380Y-126166666D02*
X167952380Y-126738095D01*
X167952380Y-126452380D02*
X166952380Y-126452380D01*
X167095238Y-126547619D01*
X167190476Y-126642857D01*
X167238095Y-126738095D01*
X167952380Y-125214285D02*
X167952380Y-125785714D01*
X167952380Y-125500000D02*
X166952380Y-125500000D01*
X167095238Y-125595238D01*
X167190476Y-125690476D01*
X167238095Y-125785714D01*
X197952380Y-127599594D02*
X198761904Y-127599594D01*
X198857142Y-127551975D01*
X198904761Y-127504356D01*
X198952380Y-127409118D01*
X198952380Y-127218641D01*
X198904761Y-127123403D01*
X198857142Y-127075784D01*
X198761904Y-127028165D01*
X197952380Y-127028165D01*
X198952380Y-126028165D02*
X198952380Y-126599594D01*
X198952380Y-126313879D02*
X197952380Y-126313879D01*
X198095238Y-126409118D01*
X198190476Y-126504356D01*
X198238095Y-126599594D01*
X198047619Y-125647213D02*
X198000000Y-125599594D01*
X197952380Y-125504356D01*
X197952380Y-125266260D01*
X198000000Y-125171022D01*
X198047619Y-125123403D01*
X198142857Y-125075784D01*
X198238095Y-125075784D01*
X198380952Y-125123403D01*
X198952380Y-125694832D01*
X198952380Y-125075784D01*
X219452380Y-127738095D02*
X220261904Y-127738095D01*
X220357142Y-127690476D01*
X220404761Y-127642857D01*
X220452380Y-127547619D01*
X220452380Y-127357142D01*
X220404761Y-127261904D01*
X220357142Y-127214285D01*
X220261904Y-127166666D01*
X219452380Y-127166666D01*
X220452380Y-126166666D02*
X220452380Y-126738095D01*
X220452380Y-126452380D02*
X219452380Y-126452380D01*
X219595238Y-126547619D01*
X219690476Y-126642857D01*
X219738095Y-126738095D01*
X219452380Y-125833333D02*
X219452380Y-125214285D01*
X219833333Y-125547619D01*
X219833333Y-125404761D01*
X219880952Y-125309523D01*
X219928571Y-125261904D01*
X220023809Y-125214285D01*
X220261904Y-125214285D01*
X220357142Y-125261904D01*
X220404761Y-125309523D01*
X220452380Y-125404761D01*
X220452380Y-125690476D01*
X220404761Y-125785714D01*
X220357142Y-125833333D01*
X142672759Y-61032630D02*
X143387045Y-61032630D01*
X143529902Y-61080249D01*
X143625140Y-61175487D01*
X143672759Y-61318344D01*
X143672759Y-61413582D01*
X142767998Y-60604058D02*
X142720379Y-60556439D01*
X142672759Y-60461201D01*
X142672759Y-60223106D01*
X142720379Y-60127868D01*
X142767998Y-60080249D01*
X142863236Y-60032630D01*
X142958474Y-60032630D01*
X143101331Y-60080249D01*
X143672759Y-60651677D01*
X143672759Y-60032630D01*
X221357142Y-77557045D02*
X221404761Y-77604664D01*
X221452380Y-77747521D01*
X221452380Y-77842759D01*
X221404761Y-77985617D01*
X221309523Y-78080855D01*
X221214285Y-78128474D01*
X221023809Y-78176093D01*
X220880952Y-78176093D01*
X220690476Y-78128474D01*
X220595238Y-78080855D01*
X220500000Y-77985617D01*
X220452380Y-77842759D01*
X220452380Y-77747521D01*
X220500000Y-77604664D01*
X220547619Y-77557045D01*
X220785714Y-76699902D02*
X221452380Y-76699902D01*
X220404761Y-76937998D02*
X221119047Y-77176093D01*
X221119047Y-76557045D01*
X131838095Y-68452380D02*
X131838095Y-69261904D01*
X131885714Y-69357142D01*
X131933333Y-69404761D01*
X132028571Y-69452380D01*
X132219047Y-69452380D01*
X132314285Y-69404761D01*
X132361904Y-69357142D01*
X132409523Y-69261904D01*
X132409523Y-68452380D01*
X132933333Y-69452380D02*
X133123809Y-69452380D01*
X133219047Y-69404761D01*
X133266666Y-69357142D01*
X133361904Y-69214285D01*
X133409523Y-69023809D01*
X133409523Y-68642857D01*
X133361904Y-68547619D01*
X133314285Y-68500000D01*
X133219047Y-68452380D01*
X133028571Y-68452380D01*
X132933333Y-68500000D01*
X132885714Y-68547619D01*
X132838095Y-68642857D01*
X132838095Y-68880952D01*
X132885714Y-68976190D01*
X132933333Y-69023809D01*
X133028571Y-69071428D01*
X133219047Y-69071428D01*
X133314285Y-69023809D01*
X133361904Y-68976190D01*
X133409523Y-68880952D01*
X111357142Y-67942857D02*
X111404761Y-67990476D01*
X111452380Y-68133333D01*
X111452380Y-68228571D01*
X111404761Y-68371428D01*
X111309523Y-68466666D01*
X111214285Y-68514285D01*
X111023809Y-68561904D01*
X110880952Y-68561904D01*
X110690476Y-68514285D01*
X110595238Y-68466666D01*
X110500000Y-68371428D01*
X110452380Y-68228571D01*
X110452380Y-68133333D01*
X110500000Y-67990476D01*
X110547619Y-67942857D01*
X111452380Y-66990476D02*
X111452380Y-67561904D01*
X111452380Y-67276190D02*
X110452380Y-67276190D01*
X110595238Y-67371428D01*
X110690476Y-67466666D01*
X110738095Y-67561904D01*
X110452380Y-66085714D02*
X110452380Y-66561904D01*
X110928571Y-66609523D01*
X110880952Y-66561904D01*
X110833333Y-66466666D01*
X110833333Y-66228571D01*
X110880952Y-66133333D01*
X110928571Y-66085714D01*
X111023809Y-66038095D01*
X111261904Y-66038095D01*
X111357142Y-66085714D01*
X111404761Y-66133333D01*
X111452380Y-66228571D01*
X111452380Y-66466666D01*
X111404761Y-66561904D01*
X111357142Y-66609523D01*
X114157142Y-69142857D02*
X114204761Y-69190476D01*
X114252380Y-69333333D01*
X114252380Y-69428571D01*
X114204761Y-69571428D01*
X114109523Y-69666666D01*
X114014285Y-69714285D01*
X113823809Y-69761904D01*
X113680952Y-69761904D01*
X113490476Y-69714285D01*
X113395238Y-69666666D01*
X113300000Y-69571428D01*
X113252380Y-69428571D01*
X113252380Y-69333333D01*
X113300000Y-69190476D01*
X113347619Y-69142857D01*
X114252380Y-68190476D02*
X114252380Y-68761904D01*
X114252380Y-68476190D02*
X113252380Y-68476190D01*
X113395238Y-68571428D01*
X113490476Y-68666666D01*
X113538095Y-68761904D01*
X113252380Y-67333333D02*
X113252380Y-67523809D01*
X113300000Y-67619047D01*
X113347619Y-67666666D01*
X113490476Y-67761904D01*
X113680952Y-67809523D01*
X114061904Y-67809523D01*
X114157142Y-67761904D01*
X114204761Y-67714285D01*
X114252380Y-67619047D01*
X114252380Y-67428571D01*
X114204761Y-67333333D01*
X114157142Y-67285714D01*
X114061904Y-67238095D01*
X113823809Y-67238095D01*
X113728571Y-67285714D01*
X113680952Y-67333333D01*
X113633333Y-67428571D01*
X113633333Y-67619047D01*
X113680952Y-67714285D01*
X113728571Y-67761904D01*
X113823809Y-67809523D01*
X117452380Y-68738095D02*
X116452380Y-68738095D01*
X116452380Y-68500000D01*
X116500000Y-68357142D01*
X116595238Y-68261904D01*
X116690476Y-68214285D01*
X116880952Y-68166666D01*
X117023809Y-68166666D01*
X117214285Y-68214285D01*
X117309523Y-68261904D01*
X117404761Y-68357142D01*
X117452380Y-68500000D01*
X117452380Y-68738095D01*
X116880952Y-67595238D02*
X116833333Y-67690476D01*
X116785714Y-67738095D01*
X116690476Y-67785714D01*
X116642857Y-67785714D01*
X116547619Y-67738095D01*
X116500000Y-67690476D01*
X116452380Y-67595238D01*
X116452380Y-67404761D01*
X116500000Y-67309523D01*
X116547619Y-67261904D01*
X116642857Y-67214285D01*
X116690476Y-67214285D01*
X116785714Y-67261904D01*
X116833333Y-67309523D01*
X116880952Y-67404761D01*
X116880952Y-67595238D01*
X116928571Y-67690476D01*
X116976190Y-67738095D01*
X117071428Y-67785714D01*
X117261904Y-67785714D01*
X117357142Y-67738095D01*
X117404761Y-67690476D01*
X117452380Y-67595238D01*
X117452380Y-67404761D01*
X117404761Y-67309523D01*
X117357142Y-67261904D01*
X117261904Y-67214285D01*
X117071428Y-67214285D01*
X116976190Y-67261904D01*
X116928571Y-67309523D01*
X116880952Y-67404761D01*
X106778571Y-64633333D02*
X106778571Y-64966666D01*
X107302380Y-64966666D02*
X106302380Y-64966666D01*
X106302380Y-64490476D01*
X107302380Y-63585714D02*
X107302380Y-64157142D01*
X107302380Y-63871428D02*
X106302380Y-63871428D01*
X106445238Y-63966666D01*
X106540476Y-64061904D01*
X106588095Y-64157142D01*
X103766666Y-61852380D02*
X103766666Y-62566666D01*
X103719047Y-62709523D01*
X103623809Y-62804761D01*
X103480952Y-62852380D01*
X103385714Y-62852380D01*
X104671428Y-62185714D02*
X104671428Y-62852380D01*
X104433333Y-61804761D02*
X104195238Y-62519047D01*
X104814285Y-62519047D01*
X235666666Y-56652380D02*
X235666666Y-57366666D01*
X235619047Y-57509523D01*
X235523809Y-57604761D01*
X235380952Y-57652380D01*
X235285714Y-57652380D01*
X236190476Y-57652380D02*
X236380952Y-57652380D01*
X236476190Y-57604761D01*
X236523809Y-57557142D01*
X236619047Y-57414285D01*
X236666666Y-57223809D01*
X236666666Y-56842857D01*
X236619047Y-56747619D01*
X236571428Y-56700000D01*
X236476190Y-56652380D01*
X236285714Y-56652380D01*
X236190476Y-56700000D01*
X236142857Y-56747619D01*
X236095238Y-56842857D01*
X236095238Y-57080952D01*
X236142857Y-57176190D01*
X236190476Y-57223809D01*
X236285714Y-57271428D01*
X236476190Y-57271428D01*
X236571428Y-57223809D01*
X236619047Y-57176190D01*
X236666666Y-57080952D01*
X235190476Y-97652380D02*
X235190476Y-98366666D01*
X235142857Y-98509523D01*
X235047619Y-98604761D01*
X234904761Y-98652380D01*
X234809523Y-98652380D01*
X236190476Y-98652380D02*
X235619047Y-98652380D01*
X235904761Y-98652380D02*
X235904761Y-97652380D01*
X235809523Y-97795238D01*
X235714285Y-97890476D01*
X235619047Y-97938095D01*
X236809523Y-97652380D02*
X236904761Y-97652380D01*
X237000000Y-97700000D01*
X237047619Y-97747619D01*
X237095238Y-97842857D01*
X237142857Y-98033333D01*
X237142857Y-98271428D01*
X237095238Y-98461904D01*
X237047619Y-98557142D01*
X237000000Y-98604761D01*
X236904761Y-98652380D01*
X236809523Y-98652380D01*
X236714285Y-98604761D01*
X236666666Y-98557142D01*
X236619047Y-98461904D01*
X236571428Y-98271428D01*
X236571428Y-98033333D01*
X236619047Y-97842857D01*
X236666666Y-97747619D01*
X236714285Y-97700000D01*
X236809523Y-97652380D01*
X95190476Y-97652380D02*
X95190476Y-98366666D01*
X95142857Y-98509523D01*
X95047619Y-98604761D01*
X94904761Y-98652380D01*
X94809523Y-98652380D01*
X96190476Y-98652380D02*
X95619047Y-98652380D01*
X95904761Y-98652380D02*
X95904761Y-97652380D01*
X95809523Y-97795238D01*
X95714285Y-97890476D01*
X95619047Y-97938095D01*
X97142857Y-98652380D02*
X96571428Y-98652380D01*
X96857142Y-98652380D02*
X96857142Y-97652380D01*
X96761904Y-97795238D01*
X96666666Y-97890476D01*
X96571428Y-97938095D01*
X95190476Y-56652380D02*
X95190476Y-57366666D01*
X95142857Y-57509523D01*
X95047619Y-57604761D01*
X94904761Y-57652380D01*
X94809523Y-57652380D01*
X96190476Y-57652380D02*
X95619047Y-57652380D01*
X95904761Y-57652380D02*
X95904761Y-56652380D01*
X95809523Y-56795238D01*
X95714285Y-56890476D01*
X95619047Y-56938095D01*
X96571428Y-56747619D02*
X96619047Y-56700000D01*
X96714285Y-56652380D01*
X96952380Y-56652380D01*
X97047619Y-56700000D01*
X97095238Y-56747619D01*
X97142857Y-56842857D01*
X97142857Y-56938095D01*
X97095238Y-57080952D01*
X96523809Y-57652380D01*
X97142857Y-57652380D01*
X238952380Y-92192283D02*
X239761904Y-92192283D01*
X239857142Y-92144664D01*
X239904761Y-92097045D01*
X239952380Y-92001807D01*
X239952380Y-91811331D01*
X239904761Y-91716093D01*
X239857142Y-91668474D01*
X239761904Y-91620855D01*
X238952380Y-91620855D01*
X238952380Y-91239902D02*
X238952380Y-90620855D01*
X239333333Y-90954188D01*
X239333333Y-90811331D01*
X239380952Y-90716093D01*
X239428571Y-90668474D01*
X239523809Y-90620855D01*
X239761904Y-90620855D01*
X239857142Y-90668474D01*
X239904761Y-90716093D01*
X239952380Y-90811331D01*
X239952380Y-91097045D01*
X239904761Y-91192283D01*
X239857142Y-91239902D01*
X224222380Y-59809523D02*
X224936666Y-59809523D01*
X225079523Y-59857142D01*
X225174761Y-59952380D01*
X225222380Y-60095238D01*
X225222380Y-60190476D01*
X225222380Y-58809523D02*
X225222380Y-59380952D01*
X225222380Y-59095238D02*
X224222380Y-59095238D01*
X224365238Y-59190476D01*
X224460476Y-59285714D01*
X224508095Y-59380952D01*
X224222380Y-58476190D02*
X224222380Y-57857142D01*
X224603333Y-58190476D01*
X224603333Y-58047619D01*
X224650952Y-57952380D01*
X224698571Y-57904761D01*
X224793809Y-57857142D01*
X225031904Y-57857142D01*
X225127142Y-57904761D01*
X225174761Y-57952380D01*
X225222380Y-58047619D01*
X225222380Y-58333333D01*
X225174761Y-58428571D01*
X225127142Y-58476190D01*
X204322380Y-60409523D02*
X205036666Y-60409523D01*
X205179523Y-60457142D01*
X205274761Y-60552380D01*
X205322380Y-60695238D01*
X205322380Y-60790476D01*
X205322380Y-59409523D02*
X205322380Y-59980952D01*
X205322380Y-59695238D02*
X204322380Y-59695238D01*
X204465238Y-59790476D01*
X204560476Y-59885714D01*
X204608095Y-59980952D01*
X204655714Y-58552380D02*
X205322380Y-58552380D01*
X204274761Y-58790476D02*
X204989047Y-59028571D01*
X204989047Y-58409523D01*
X233657142Y-95502380D02*
X233323809Y-95026190D01*
X233085714Y-95502380D02*
X233085714Y-94502380D01*
X233466666Y-94502380D01*
X233561904Y-94550000D01*
X233609523Y-94597619D01*
X233657142Y-94692857D01*
X233657142Y-94835714D01*
X233609523Y-94930952D01*
X233561904Y-94978571D01*
X233466666Y-95026190D01*
X233085714Y-95026190D01*
X233990476Y-94502380D02*
X234609523Y-94502380D01*
X234276190Y-94883333D01*
X234419047Y-94883333D01*
X234514285Y-94930952D01*
X234561904Y-94978571D01*
X234609523Y-95073809D01*
X234609523Y-95311904D01*
X234561904Y-95407142D01*
X234514285Y-95454761D01*
X234419047Y-95502380D01*
X234133333Y-95502380D01*
X234038095Y-95454761D01*
X233990476Y-95407142D01*
X235561904Y-95502380D02*
X234990476Y-95502380D01*
X235276190Y-95502380D02*
X235276190Y-94502380D01*
X235180952Y-94645238D01*
X235085714Y-94740476D01*
X234990476Y-94788095D01*
X233657142Y-93802380D02*
X233323809Y-93326190D01*
X233085714Y-93802380D02*
X233085714Y-92802380D01*
X233466666Y-92802380D01*
X233561904Y-92850000D01*
X233609523Y-92897619D01*
X233657142Y-92992857D01*
X233657142Y-93135714D01*
X233609523Y-93230952D01*
X233561904Y-93278571D01*
X233466666Y-93326190D01*
X233085714Y-93326190D01*
X233990476Y-92802380D02*
X234609523Y-92802380D01*
X234276190Y-93183333D01*
X234419047Y-93183333D01*
X234514285Y-93230952D01*
X234561904Y-93278571D01*
X234609523Y-93373809D01*
X234609523Y-93611904D01*
X234561904Y-93707142D01*
X234514285Y-93754761D01*
X234419047Y-93802380D01*
X234133333Y-93802380D01*
X234038095Y-93754761D01*
X233990476Y-93707142D01*
X234990476Y-92897619D02*
X235038095Y-92850000D01*
X235133333Y-92802380D01*
X235371428Y-92802380D01*
X235466666Y-92850000D01*
X235514285Y-92897619D01*
X235561904Y-92992857D01*
X235561904Y-93088095D01*
X235514285Y-93230952D01*
X234942857Y-93802380D01*
X235561904Y-93802380D01*
M02*
